<svg width="19" height="19" viewBox="0 0 19 19" fill="none" xmlns="http://www.w3.org/2000/svg">
<path d="M7.125 15.0875H5.41875C4.36286 15.0875 3.35021 14.668 2.60358 13.9214C1.85695 13.1748 1.4375 12.1621 1.4375 11.1063C1.4375 10.0504 1.85695 9.03771 2.60358 8.29108C3.35021 7.54445 4.36286 7.125 5.41875 7.125C5.75185 7.12488 6.08371 7.16546 6.40695 7.24586" stroke="white" stroke-linecap="round" stroke-linejoin="round"/>
<path d="M5.9875 9.40039C5.9875 8.4992 6.20165 7.6109 6.61231 6.80871C7.02297 6.00651 7.61837 5.31339 8.34946 4.78645C9.08055 4.25951 9.92639 3.91385 10.8173 3.77794C11.7082 3.64203 12.6186 3.71977 13.4735 4.00476C14.3285 4.28974 15.1035 4.7738 15.7346 5.41706C16.3658 6.06032 16.8351 6.84436 17.1038 7.70456C17.3725 8.56477 17.433 9.47651 17.2802 10.3647C17.1274 11.2528 16.7657 12.0919 16.225 12.8129" stroke="white" stroke-linecap="round" stroke-linejoin="round"/>
<path d="M8.69668 11.8105L11.1068 9.40039L13.5168 11.8105" stroke="white" stroke-linecap="round" stroke-linejoin="round"/>
<path d="M11.1063 15.0879V9.40039" stroke="white" stroke-linecap="round" stroke-linejoin="round"/>
</svg>
