<svg width="28" height="27" viewBox="0 0 28 27" fill="none" xmlns="http://www.w3.org/2000/svg">
<path d="M8.00001 26C7.73479 26 7.48044 25.8946 7.2929 25.7071C7.10536 25.5196 7.00001 25.2652 7.00001 25V19.6625C6.45139 19.9242 5.84338 20.0363 5.23751 19.9875C4.7245 19.9498 4.2261 19.7995 3.77779 19.5473C3.32949 19.295 2.94228 18.9471 2.64375 18.5282C2.34521 18.1093 2.14267 17.6298 2.05055 17.1237C1.95844 16.6176 1.979 16.0974 2.11078 15.6002C2.24257 15.103 2.48233 14.6409 2.813 14.2469C3.14368 13.8529 3.55714 13.5366 4.02396 13.3206C4.49079 13.1045 4.99949 12.994 5.51387 12.997C6.02826 12.9999 6.53567 13.1161 7.00001 13.3375V7.99999C7.00001 7.73477 7.10536 7.48042 7.2929 7.29288C7.48044 7.10535 7.73479 6.99999 8.00001 6.99999H13.8375C13.5758 6.45138 13.4637 5.84336 13.5125 5.23749C13.5502 4.72448 13.7005 4.22609 13.9527 3.77778C14.205 3.32947 14.5529 2.94227 14.9718 2.64373C15.3907 2.34519 15.8702 2.14266 16.3763 2.05054C16.8824 1.95842 17.4025 1.97898 17.8998 2.11077C18.397 2.24255 18.8591 2.48231 19.2531 2.81299C19.6471 3.14367 19.9634 3.55713 20.1794 4.02395C20.3955 4.49077 20.506 4.99948 20.503 5.51386C20.5001 6.02824 20.3838 6.53566 20.1625 6.99999H26C26.2652 6.99999 26.5196 7.10535 26.7071 7.29288C26.8946 7.48042 27 7.73477 27 7.99999V13.3375C26.4514 13.0758 25.8434 12.9637 25.2375 13.0125C24.7245 13.0502 24.2261 13.2005 23.7778 13.4527C23.3295 13.7049 22.9423 14.0529 22.6437 14.4718C22.3452 14.8907 22.1427 15.3702 22.0506 15.8763C21.9584 16.3824 21.979 16.9025 22.1108 17.3998C22.2426 17.897 22.4823 18.359 22.813 18.7531C23.1437 19.1471 23.5571 19.4634 24.024 19.6794C24.4908 19.8955 24.9995 20.0059 25.5139 20.003C26.0283 20.0001 26.5357 19.8838 27 19.6625V25C27 25.2652 26.8946 25.5196 26.7071 25.7071C26.5196 25.8946 26.2652 26 26 26H8.00001Z" stroke="black" stroke-width="2" stroke-linecap="round" stroke-linejoin="round"/>
</svg>
