<svg width="24" height="24" viewBox="0 0 24 24" fill="none" xmlns="http://www.w3.org/2000/svg">
    <path
        d="M6.20195 14.6383C6.20195 15.7947 5.25733 16.7393 4.10098 16.7393C2.94463 16.7393 2 15.7947 2 14.6383C2 13.482 2.94463 12.5374 4.10098 12.5374H6.20195V14.6383Z"
        fill="#E01E5A" />
    <path
        d="M7.26056 14.6383C7.26056 13.482 8.20518 12.5374 9.36154 12.5374C10.5179 12.5374 11.4625 13.482 11.4625 14.6383V19.8989C11.4625 21.0553 10.5179 21.9999 9.36154 21.9999C8.20518 21.9999 7.26056 21.0553 7.26056 19.8989V14.6383Z"
        fill="#E01E5A" />
    <path
        d="M9.36154 6.20195C8.20518 6.20195 7.26056 5.25733 7.26056 4.10098C7.26056 2.94463 8.20518 2 9.36154 2C10.5179 2 11.4625 2.94463 11.4625 4.10098V6.20195H9.36154Z"
        fill="#36C5F0" />
    <path
        d="M9.36156 7.26062C10.5179 7.26062 11.4625 8.20525 11.4625 9.3616C11.4625 10.5179 10.5179 11.4626 9.36156 11.4626H4.10098C2.94463 11.4626 2 10.5179 2 9.3616C2 8.20525 2.94463 7.26062 4.10098 7.26062H9.36156Z"
        fill="#36C5F0" />
    <path
        d="M17.798 9.3616C17.798 8.20525 18.7426 7.26062 19.8989 7.26062C21.0553 7.26062 21.9999 8.20525 21.9999 9.3616C21.9999 10.5179 21.0553 11.4626 19.8989 11.4626H17.798V9.3616Z"
        fill="#2EB67D" />
    <path
        d="M16.7394 9.36156C16.7394 10.5179 15.7948 11.4625 14.6385 11.4625C13.4821 11.4625 12.5375 10.5179 12.5375 9.36156V4.10098C12.5375 2.94463 13.4821 2 14.6385 2C15.7948 2 16.7394 2.94463 16.7394 4.10098V9.36156Z"
        fill="#2EB67D" />
    <path
        d="M14.6384 17.7981C15.7947 17.7981 16.7394 18.7427 16.7394 19.8991C16.7394 21.0554 15.7947 22 14.6384 22C13.482 22 12.5374 21.0554 12.5374 19.8991V17.7981H14.6384Z"
        fill="#ECB22E" />
    <path
        d="M14.6385 16.7393C13.4821 16.7393 12.5375 15.7947 12.5375 14.6383C12.5375 13.482 13.4821 12.5374 14.6385 12.5374H19.899C21.0554 12.5374 22 13.482 22 14.6383C22 15.7947 21.0554 16.7393 19.899 16.7393H14.6385Z"
        fill="#ECB22E" />
</svg>
