<svg width="7" height="12" viewBox="0 0 7 12" fill="none" xmlns="http://www.w3.org/2000/svg">
<path d="M0.907348 6.23298C0.914548 6.24014 0.924148 6.243 0.931348 6.25017L5.55988 11.2508C5.82029 11.5301 6.2427 11.5301 6.50311 11.2508C6.50551 11.248 6.50671 11.2451 6.50791 11.2422C6.57096 11.1801 6.62189 11.1022 6.65713 11.0142C6.69236 10.9261 6.71106 10.8299 6.71191 10.7323L6.71191 0.729542C6.71057 0.630148 6.69096 0.532319 6.65446 0.442966C6.61797 0.353612 6.56548 0.274915 6.50071 0.212431L6.50311 0.209566C6.37208 0.0743871 6.20468 0 6.03149 0C5.85831 0 5.69091 0.0743871 5.55988 0.209566L0.907348 5.22168C0.846073 5.28407 0.796868 5.36159 0.763128 5.44889C0.729387 5.53619 0.711914 5.63119 0.711914 5.72733C0.711914 5.82347 0.729387 5.91846 0.763128 6.00576C0.796868 6.09306 0.846073 6.17058 0.907348 6.23298V6.23298Z" fill="#443E99"/>
</svg>
