<svg width="18" height="18" viewBox="0 0 18 18" fill="none" xmlns="http://www.w3.org/2000/svg">
<path d="M9 8C6.5 8 4.375 7.60833 2.625 6.825C0.875 6.04167 0 5.1 0 4C0 2.9 0.875 1.95833 2.625 1.175C4.375 0.391667 6.5 0 9 0C11.5 0 13.625 0.391667 15.375 1.175C17.125 1.95833 18 2.9 18 4C18 5.1 17.125 6.04167 15.375 6.825C13.625 7.60833 11.5 8 9 8ZM9 13C6.5 13 4.375 12.6083 2.625 11.825C0.875 11.0417 0 10.1 0 9V6.5C0 7.23333 0.341667 7.85433 1.025 8.363C1.70833 8.871 2.525 9.28333 3.475 9.6C4.425 9.91667 5.41267 10.1457 6.438 10.287C7.46267 10.429 8.31667 10.5 9 10.5C9.68333 10.5 10.5373 10.429 11.562 10.287C12.5873 10.1457 13.575 9.91667 14.525 9.6C15.475 9.28333 16.2917 8.871 16.975 8.363C17.6583 7.85433 18 7.23333 18 6.5V9C18 10.1 17.125 11.0417 15.375 11.825C13.625 12.6083 11.5 13 9 13ZM9 18C6.5 18 4.375 17.6083 2.625 16.825C0.875 16.0417 0 15.1 0 14V11.5C0 12.2333 0.341667 12.8543 1.025 13.363C1.70833 13.871 2.525 14.2833 3.475 14.6C4.425 14.9167 5.41267 15.146 6.438 15.288C7.46267 15.4293 8.31667 15.5 9 15.5C9.68333 15.5 10.5373 15.4293 11.562 15.288C12.5873 15.146 13.575 14.9167 14.525 14.6C15.475 14.2833 16.2917 13.871 16.975 13.363C17.6583 12.8543 18 12.2333 18 11.5V14C18 15.1 17.125 16.0417 15.375 16.825C13.625 17.6083 11.5 18 9 18Z" fill="#443E99"/>
</svg>
