<svg width="25" height="25" viewBox="0 0 25 25" fill="none" xmlns="http://www.w3.org/2000/svg">
<path d="M8.59375 22.6562H16.4062" stroke="white" stroke-width="2" stroke-linecap="round" stroke-linejoin="round"/>
<path d="M7.68563 16.3086C6.75554 15.5854 6.00225 14.66 5.48282 13.6025C4.96339 12.5451 4.69144 11.3832 4.68758 10.2051C4.66805 5.96679 8.07626 2.4414 12.3145 2.34375C13.9548 2.30486 15.5657 2.7834 16.9188 3.71149C18.2718 4.63958 19.2983 5.9701 19.8527 7.51437C20.4071 9.05863 20.4612 10.7382 20.0074 12.315C19.5535 13.8917 18.6148 15.2856 17.3243 16.2988C17.0392 16.5192 16.8083 16.8018 16.6492 17.1251C16.4901 17.4484 16.407 17.8037 16.4063 18.1641V18.75C16.4063 18.9572 16.324 19.1559 16.1775 19.3024C16.031 19.4489 15.8323 19.5312 15.6251 19.5312H9.37508C9.16788 19.5312 8.96917 19.4489 8.82266 19.3024C8.67614 19.1559 8.59383 18.9572 8.59383 18.75V18.1641C8.59139 17.8065 8.50848 17.454 8.35126 17.1328C8.19405 16.8116 7.96654 16.5299 7.68563 16.3086V16.3086Z" stroke="white" stroke-width="2" stroke-linecap="round" stroke-linejoin="round"/>
<path d="M13.291 5.54688C14.2459 5.70874 15.127 6.16299 15.8126 6.84694C16.4983 7.53088 16.9548 8.41079 17.1191 9.36523" stroke="white" stroke-width="2" stroke-linecap="round" stroke-linejoin="round"/>
</svg>
