<svg width="19" height="19" viewBox="0 0 19 19" fill="none" xmlns="http://www.w3.org/2000/svg">
<path d="M14.2188 8.2623V14.5825C14.2188 14.7164 14.1656 14.8448 14.0709 14.9395C13.9762 15.0341 13.8479 15.0873 13.714 15.0873H2.84375C2.69291 15.0873 2.54825 15.0274 2.44158 14.9207C2.33492 14.8141 2.275 14.6694 2.275 14.5186V6.55605C2.275 6.40521 2.33492 6.26055 2.44158 6.15389C2.54825 6.04723 2.69291 5.9873 2.84375 5.9873H6.0643C6.18728 5.98781 6.30686 6.02767 6.40555 6.10105L8.38196 7.5798C8.48064 7.65319 8.60023 7.69305 8.7232 7.69355H13.65C13.8008 7.69355 13.9455 7.75348 14.0522 7.86014C14.1588 7.9668 14.2188 8.11146 14.2188 8.2623Z" stroke="white" stroke-linecap="round" stroke-linejoin="round"/>
<path d="M14.2188 8.2623V14.5825C14.2188 14.7164 14.1656 14.8448 14.0709 14.9395C13.9762 15.0341 13.8479 15.0873 13.714 15.0873H2.84375C2.69291 15.0873 2.54825 15.0274 2.44158 14.9207C2.33492 14.8141 2.275 14.6694 2.275 14.5186V6.55605C2.275 6.40521 2.33492 6.26055 2.44158 6.15389C2.54825 6.04723 2.69291 5.9873 2.84375 5.9873H6.0643C6.18728 5.98781 6.30686 6.02767 6.40555 6.10105L8.38196 7.5798C8.48064 7.65319 8.60023 7.69305 8.7232 7.69355H13.65C13.8008 7.69355 13.9455 7.75348 14.0522 7.86014C14.1588 7.9668 14.2188 8.11146 14.2188 8.2623Z" stroke="white" stroke-linecap="round" stroke-linejoin="round"/>
<path d="M4.55 5.98789V4.28164C4.55 4.1308 4.60992 3.98614 4.71659 3.87947C4.82325 3.77281 4.96791 3.71289 5.11875 3.71289H8.3393C8.46228 3.7134 8.58186 3.75326 8.68055 3.82664L10.657 5.30539C10.7556 5.37877 10.8752 5.41863 10.9982 5.41914H15.925C16.0758 5.41914 16.2205 5.47906 16.3272 5.58572C16.4338 5.69239 16.4938 5.83705 16.4938 5.98789V12.3081C16.4938 12.442 16.4406 12.5704 16.3459 12.665C16.2512 12.7597 16.1229 12.8129 15.989 12.8129H14.2188" stroke="white" stroke-linecap="round" stroke-linejoin="round"/>
</svg>
