<svg width="19" height="19" viewBox="0 0 19 19" fill="none" xmlns="http://www.w3.org/2000/svg">
<path d="M9.8 11.6748C10.5853 11.6748 11.2219 11.0382 11.2219 10.2529C11.2219 9.46765 10.5853 8.83105 9.8 8.83105C9.01472 8.83105 8.37813 9.46765 8.37813 10.2529C8.37813 11.0382 9.01472 11.6748 9.8 11.6748Z" stroke="white" stroke-linecap="round" stroke-linejoin="round"/>
<path d="M9.8 11.6748V13.3811" stroke="white" stroke-linecap="round" stroke-linejoin="round"/>
<path d="M15.4875 6.55664H4.1125C3.79838 6.55664 3.54375 6.81128 3.54375 7.12539V15.0879C3.54375 15.402 3.79838 15.6566 4.1125 15.6566H15.4875C15.8016 15.6566 16.0562 15.402 16.0562 15.0879V7.12539C16.0562 6.81128 15.8016 6.55664 15.4875 6.55664Z" stroke="white" stroke-linecap="round" stroke-linejoin="round"/>
<path d="M7.24062 6.55625V3.99688C7.24062 3.31809 7.51027 2.6671 7.99025 2.18712C8.47022 1.70715 9.12121 1.4375 9.8 1.4375C10.4788 1.4375 11.1298 1.70715 11.6097 2.18712C12.0897 2.6671 12.3594 3.31809 12.3594 3.99688V6.55625" stroke="white" stroke-linecap="round" stroke-linejoin="round"/>
</svg>
