<?xml version="1.0" standalone="no"?>
<!DOCTYPE svg PUBLIC "-//W3C//DTD SVG 20010904//EN"
 "http://www.w3.org/TR/2001/REC-SVG-20010904/DTD/svg10.dtd">
<svg version="1.0" xmlns="http://www.w3.org/2000/svg"
 width="1280.000000pt" height="1280.000000pt" viewBox="0 0 1280.000000 1280.000000"
 preserveAspectRatio="xMidYMid meet">
<metadata>
Created by potrace 1.16, written by Peter Selinger 2001-2019
</metadata>
<g transform="translate(0.000000,1280.000000) scale(0.100000,-0.100000)"
fill="#000000" stroke="none">
<path d="M2415 11183 c-201 -43 -364 -132 -515 -283 -118 -119 -183 -216 -236
-358 -70 -187 -64 178 -64 -4142 0 -4320 -6 -3955 64 -4142 112 -298 359 -525
681 -625 l90 -28 3965 0 3965 0 90 28 c245 76 444 222 579 425 57 86 97 173
133 289 l28 88 0 3965 0 3965 -28 90 c-100 322 -327 569 -625 681 -187 70 179
64 -4149 63 -3430 -1 -3917 -2 -3978 -16z m3142 -1398 c42 -14 99 -41 127 -60
76 -51 3027 -3009 3061 -3068 95 -166 89 -379 -15 -533 -24 -37 -614 -633
-1537 -1555 -1345 -1343 -1504 -1498 -1558 -1524 -157 -74 -318 -74 -468 1
-38 19 -116 90 -290 263 -131 130 -251 257 -268 283 -69 108 -95 258 -65 378
38 150 -25 81 1195 1303 l1126 1127 -1126 1128 c-1051 1051 -1129 1131 -1157
1192 -75 161 -65 346 28 489 16 25 136 152 267 282 248 247 283 273 396 304
86 23 197 19 284 -10z"/>
</g>
</svg>
