<svg width="22" height="23" viewBox="0 0 22 23" fill="none" xmlns="http://www.w3.org/2000/svg">
<path d="M10.8042 16.1875C13.393 16.1875 15.4917 14.0888 15.4917 11.5C15.4917 8.91117 13.393 6.8125 10.8042 6.8125C8.21536 6.8125 6.1167 8.91117 6.1167 11.5C6.1167 14.0888 8.21536 16.1875 10.8042 16.1875Z" stroke="#FFFEFE" stroke-width="2" stroke-linecap="round" stroke-linejoin="round"/>
<path d="M16.2441 5.35742C16.4915 5.58529 16.7259 5.81966 16.9473 6.06055L19.6133 6.44141C20.0477 7.19581 20.3825 8.00331 20.6094 8.84375L18.9883 11.002C18.9883 11.002 19.0176 11.666 18.9883 11.998L20.6094 14.1562C20.3835 14.997 20.0487 15.8047 19.6133 16.5586L16.9473 16.9395C16.9473 16.9395 16.4883 17.418 16.2441 17.6426L15.8633 20.3086C15.1089 20.743 14.3014 21.0778 13.4609 21.3047L11.3027 19.6836C10.9714 19.7129 10.638 19.7129 10.3066 19.6836L8.14844 21.3047C7.30764 21.0789 6.5 20.744 5.74609 20.3086L5.36523 17.6426C5.12435 17.4147 4.88997 17.1803 4.66211 16.9395L1.99609 16.5586C1.5617 15.8042 1.22688 14.9967 1 14.1562L2.62109 11.998C2.62109 11.998 2.5918 11.334 2.62109 11.002L1 8.84375C1.22583 8.00295 1.5607 7.19532 1.99609 6.44141L4.66211 6.06055C4.88997 5.81966 5.12435 5.58529 5.36523 5.35742L5.74609 2.69141C6.50049 2.25701 7.308 1.9222 8.14844 1.69531L10.3066 3.31641C10.638 3.2871 10.9714 3.2871 11.3027 3.31641L13.4609 1.69531C14.3017 1.92114 15.1094 2.25602 15.8633 2.69141L16.2441 5.35742Z" stroke="#FFFEFE" stroke-width="2" stroke-linecap="round" stroke-linejoin="round"/>
</svg>
