<svg width="21" height="20" viewBox="0 0 21 20" fill="none" xmlns="http://www.w3.org/2000/svg">
<g opacity="0.5">
<path d="M16.3477 6.875H3.77232C3.42506 6.875 3.14355 7.15482 3.14355 7.5V16.25C3.14355 16.5952 3.42506 16.875 3.77232 16.875H16.3477C16.695 16.875 16.9765 16.5952 16.9765 16.25V7.5C16.9765 7.15482 16.695 6.875 16.3477 6.875Z" stroke="black" stroke-width="2" stroke-linecap="round" stroke-linejoin="round"/>
<path d="M7.23047 6.875V4.0625C7.23047 3.31658 7.52857 2.60121 8.0592 2.07376C8.58983 1.54632 9.30951 1.25 10.0599 1.25C10.8103 1.25 11.53 1.54632 12.0607 2.07376C12.5913 2.60121 12.8894 3.31658 12.8894 4.0625V6.875" stroke="black" stroke-width="2" stroke-linecap="round" stroke-linejoin="round"/>
</g>
</svg>
