<svg viewBox="0 0 120 120" fill="black" xmlns="http://www.w3.org/2000/svg">
    <path fill-rule="evenodd" clip-rule="evenodd"
        d="M60 15C35.1472 15 15 35.1472 15 60C15 84.8528 35.1472 105 60 105C84.8528 105 105 84.8528 105 60C105 35.1472 84.8528 15 60 15ZM5 60C5 29.6243 29.6243 5 60 5C90.3757 5 115 29.6243 115 60C115 90.3757 90.3757 115 60 115C29.6243 115 5 90.3757 5 60ZM60 35C62.7614 35 65 37.2386 65 40V60C65 62.7614 62.7614 65 60 65C57.2386 65 55 62.7614 55 60V40C55 37.2386 57.2386 35 60 35ZM55 80C55 77.2386 57.2386 75 60 75H60.05C62.8114 75 65.05 77.2386 65.05 80C65.05 82.7614 62.8114 85 60.05 85H60C57.2386 85 55 82.7614 55 80Z"
         />
</svg>