<svg viewBox="0 0 24 24" fill="none" xmlns="http://www.w3.org/2000/svg">
    <path fill-rule="evenodd" clip-rule="evenodd"
        d="M7.7587 2H16.2413C17.0463 1.99999 17.7106 1.99998 18.2518 2.04419C18.8139 2.09012 19.3306 2.18868 19.816 2.43597C20.5686 2.81947 21.1805 3.43139 21.564 4.18404C21.8113 4.66937 21.9099 5.18608 21.9558 5.74817C22 6.28936 22 6.95372 22 7.75868V13.5343C22 14.2041 22 14.7569 21.9691 15.2095C21.9371 15.6788 21.8686 16.1129 21.6955 16.5307C21.2895 17.5108 20.5108 18.2895 19.5307 18.6955C19.1129 18.8686 18.6788 18.9371 18.2095 18.9691C17.7569 19 17.2041 19 16.5343 19H16.5C15.9634 19 15.8569 19.0063 15.7702 19.0268C15.6192 19.0624 15.4784 19.1328 15.3593 19.2322C15.2909 19.2893 15.2219 19.3707 14.9 19.8L13.4231 21.7693C13.3297 21.8938 13.2242 22.0346 13.1226 22.1476C13.0106 22.2721 12.8244 22.4555 12.5437 22.5647C12.194 22.7007 11.806 22.7007 11.4563 22.5647C11.1756 22.4555 10.9894 22.2721 10.8774 22.1476C10.7758 22.0346 10.6703 21.8938 10.577 21.7693L9.1 19.8C8.77806 19.3708 8.70913 19.2893 8.64075 19.2322C8.52156 19.1328 8.38085 19.0624 8.22975 19.0268C8.14307 19.0063 8.03656 19 7.5 19H7.46573C6.79594 19 6.24307 19 5.79046 18.9691C5.32118 18.9371 4.88708 18.8686 4.46927 18.6955C3.48915 18.2895 2.71046 17.5108 2.30448 16.5307C2.13142 16.1129 2.06288 15.6788 2.03087 15.2095C1.99998 14.7569 1.99999 14.2041 2 13.5343L2 7.7587C1.99999 6.95373 1.99998 6.28937 2.04419 5.74817C2.09012 5.18608 2.18868 4.66937 2.43597 4.18404C2.81947 3.43139 3.43139 2.81947 4.18404 2.43597C4.66937 2.18868 5.18608 2.09012 5.74817 2.04419C6.28937 1.99998 6.95373 1.99999 7.7587 2ZM5.91104 4.03755C5.47262 4.07337 5.24842 4.1383 5.09202 4.21799C4.7157 4.40973 4.40973 4.7157 4.21799 5.09202C4.1383 5.24842 4.07337 5.47262 4.03755 5.91104C4.00078 6.36113 4 6.94342 4 7.8V13.5C4 14.2126 4.00054 14.697 4.02623 15.0734C4.0513 15.4409 4.09694 15.6319 4.15224 15.7654C4.35523 16.2554 4.74458 16.6448 5.23463 16.8478C5.36813 16.9031 5.55915 16.9487 5.9266 16.9738C6.30304 16.9995 6.78741 17 7.5 17C7.52818 17 7.55611 17 7.58382 16.9999C7.9894 16.9996 8.34611 16.9992 8.68926 17.0803C9.14254 17.1873 9.56467 17.3983 9.92224 17.6967C10.1929 17.9227 10.4067 18.2082 10.6497 18.5329C10.6663 18.5551 10.6831 18.5775 10.7 18.6L12 20.3333L13.3 18.6C13.3169 18.5775 13.3337 18.5551 13.3503 18.5329C13.5933 18.2082 13.8071 17.9227 14.0778 17.6967C14.4353 17.3983 14.8575 17.1873 15.3107 17.0803C15.6539 16.9992 16.0106 16.9996 16.4162 16.9999C16.4439 17 16.4718 17 16.5 17C17.2126 17 17.697 16.9995 18.0734 16.9738C18.4409 16.9487 18.6319 16.9031 18.7654 16.8478C19.2554 16.6448 19.6448 16.2554 19.8478 15.7654C19.9031 15.6319 19.9487 15.4409 19.9738 15.0734C19.9995 14.697 20 14.2126 20 13.5V7.8C20 6.94342 19.9992 6.36113 19.9624 5.91104C19.9266 5.47262 19.8617 5.24842 19.782 5.09202C19.5903 4.7157 19.2843 4.40973 18.908 4.21799C18.7516 4.1383 18.5274 4.07337 18.089 4.03755C17.6389 4.00078 17.0566 4 16.2 4H7.8C6.94342 4 6.36113 4.00078 5.91104 4.03755ZM12 6C12.5523 6 13 6.44772 13 7V10.5C13 11.0523 12.5523 11.5 12 11.5C11.4477 11.5 11 11.0523 11 10.5V7C11 6.44772 11.4477 6 12 6ZM11 14C11 13.4477 11.4477 13 12 13H12.01C12.5623 13 13.01 13.4477 13.01 14C13.01 14.5523 12.5623 15 12.01 15H12C11.4477 15 11 14.5523 11 14Z" />
</svg>
