<svg width="24" height="24" viewBox="0 0 24 24" fill="none" xmlns="http://www.w3.org/2000/svg">
<path fill-rule="evenodd" clip-rule="evenodd" d="M1 4C1 2.89543 1.89543 2 3 2H21C22.1046 2 23 2.89543 23 4V7C23 8.10457 22.1046 9 21 9H3C1.89543 9 1 8.10457 1 7V4ZM21 4H3V7H21V4Z" fill="#9CA3AF"/>
<path fill-rule="evenodd" clip-rule="evenodd" d="M3 7H21V18C21 20.2091 19.2091 22 17 22H7C4.79086 22 3 20.2091 3 18V7ZM5 9V18C5 19.1046 5.89543 20 7 20H17C18.1046 20 19 19.1046 19 18V9H5Z" fill="#9CA3AF"/>
<path fill-rule="evenodd" clip-rule="evenodd" d="M12 10C12.5523 10 13 10.4477 13 11V14.5858L14.2929 13.2929C14.6834 12.9024 15.3166 12.9024 15.7071 13.2929C16.0976 13.6834 16.0976 14.3166 15.7071 14.7071L12.7071 17.7071C12.3166 18.0976 11.6834 18.0976 11.2929 17.7071L8.29289 14.7071C7.90237 14.3166 7.90237 13.6834 8.29289 13.2929C8.68342 12.9024 9.31658 12.9024 9.70711 13.2929L11 14.5858V11C11 10.4477 11.4477 10 12 10Z" fill="#9CA3AF"/>
</svg>
