<svg viewBox="0 0 24 24" fill="none" xmlns="http://www.w3.org/2000/svg">
    <path fill-rule="evenodd" clip-rule="evenodd"
        d="M6.16146 2H9.83854C10.3657 1.99998 10.8205 1.99997 11.195 2.03057C11.5904 2.06287 11.9836 2.13419 12.362 2.32698C12.9265 2.6146 13.3854 3.07354 13.673 3.63803C13.8658 4.01641 13.9371 4.40963 13.9694 4.80497C14 5.17955 14 5.63432 14 6.16148V10L17.8385 10C18.3657 9.99998 18.8205 9.99997 19.195 10.0306C19.5904 10.0629 19.9836 10.1342 20.362 10.327C20.9265 10.6146 21.3854 11.0735 21.673 11.638C21.8658 12.0164 21.9371 12.4096 21.9694 12.805C22 13.1795 22 13.6343 22 14.1614V20C22.5523 20 23 20.4477 23 21C23 21.5523 22.5523 22 22 22H2C1.44772 22 1 21.5523 1 21C1 20.4477 1.44772 20 2 20V6.16146C1.99998 5.63431 1.99997 5.17955 2.03057 4.80497C2.06287 4.40963 2.13419 4.01641 2.32698 3.63803C2.6146 3.07354 3.07354 2.6146 3.63803 2.32698C4.01641 2.13419 4.40963 2.06287 4.80497 2.03057C5.17954 1.99997 5.63431 1.99998 6.16146 2ZM4 20H12V6.2C12 5.62345 11.9992 5.25118 11.9761 4.96784C11.9539 4.69617 11.9162 4.59546 11.891 4.54601C11.7951 4.35785 11.6422 4.20487 11.454 4.109C11.4045 4.0838 11.3038 4.04612 11.0322 4.02393C10.7488 4.00078 10.3766 4 9.8 4H6.2C5.62345 4 5.25117 4.00078 4.96784 4.02393C4.69617 4.04612 4.59545 4.0838 4.54601 4.109C4.35785 4.20487 4.20487 4.35785 4.10899 4.54601C4.0838 4.59546 4.04612 4.69617 4.02393 4.96784C4.00078 5.25117 4 5.62345 4 6.2V20ZM14 12V20H20V14.2C20 13.6234 19.9992 13.2512 19.9761 12.9678C19.9539 12.6962 19.9162 12.5955 19.891 12.546C19.7951 12.3578 19.6422 12.2049 19.454 12.109C19.4045 12.0838 19.3038 12.0461 19.0322 12.0239C18.7488 12.0008 18.3766 12 17.8 12H14ZM5.5 7C5.5 6.44772 5.94772 6 6.5 6H9.5C10.0523 6 10.5 6.44772 10.5 7C10.5 7.55229 10.0523 8 9.5 8H6.5C5.94772 8 5.5 7.55229 5.5 7ZM5.5 11C5.5 10.4477 5.94772 10 6.5 10H9.5C10.0523 10 10.5 10.4477 10.5 11C10.5 11.5523 10.0523 12 9.5 12H6.5C5.94772 12 5.5 11.5523 5.5 11ZM5.5 15C5.5 14.4477 5.94772 14 6.5 14H9.5C10.0523 14 10.5 14.4477 10.5 15C10.5 15.5523 10.0523 16 9.5 16H6.5C5.94772 16 5.5 15.5523 5.5 15Z" />
</svg>
