<svg viewBox="0 0 33 33" fill="black" xmlns="http://www.w3.org/2000/svg">
    <path fill-rule="evenodd" clip-rule="evenodd"
        d="M16.5 4.4834C9.87258 4.4834 4.49999 9.85598 4.49999 16.4834C4.49999 23.1108 9.87258 28.4834 16.5 28.4834C23.1274 28.4834 28.5 23.1108 28.5 16.4834C28.5 9.85598 23.1274 4.4834 16.5 4.4834ZM1.83333 16.4834C1.83333 8.38322 8.39982 1.81673 16.5 1.81673C24.6002 1.81673 31.1667 8.38322 31.1667 16.4834C31.1667 24.5836 24.6002 31.1501 16.5 31.1501C8.39982 31.1501 1.83333 24.5836 1.83333 16.4834ZM23.4428 11.5406C23.9635 12.0613 23.9635 12.9055 23.4428 13.4262L15.4428 21.4262C14.9221 21.9469 14.0779 21.9469 13.5572 21.4262L9.55719 17.4262C9.03649 16.9055 9.03649 16.0613 9.55719 15.5406C10.0779 15.0199 10.9221 15.0199 11.4428 15.5406L14.5 18.5978L21.5572 11.5406C22.0779 11.0199 22.9221 11.0199 23.4428 11.5406Z" />
</svg>
