<svg viewBox="0 0 24 24" fill="none" xmlns="http://www.w3.org/2000/svg">
    <path fill-rule="evenodd" clip-rule="evenodd"
        d="M9.56808 1C9.5787 1 9.58933 1.00001 9.59997 1.00001L14.4319 1C14.6843 0.999973 14.93 0.999943 15.1382 1.01695C15.3668 1.03563 15.6365 1.07969 15.908 1.21799C16.2843 1.40974 16.5902 1.7157 16.782 2.09202C16.9203 2.36345 16.9644 2.63318 16.983 2.86178C16.9869 2.90871 16.9898 2.95756 16.9921 3.00797C17.3873 3.02072 17.7257 3.05337 18.0353 3.1363C19.4156 3.50617 20.4938 4.58436 20.8637 5.96473C21.0008 6.47638 21.0005 7.06704 21 7.86243C21 7.90762 21 7.95347 21 8.00001V17.2413C21 18.0463 21 18.7106 20.9558 19.2518C20.9099 19.8139 20.8113 20.3306 20.564 20.816C20.1805 21.5686 19.5686 22.1805 18.8159 22.564C18.3306 22.8113 17.8139 22.9099 17.2518 22.9558C16.7106 23 16.0463 23 15.2413 23H8.75865C7.95369 23 7.28934 23 6.74815 22.9558C6.18605 22.9099 5.66935 22.8113 5.18401 22.564C4.43136 22.1805 3.81944 21.5686 3.43595 20.816C3.18866 20.3306 3.09009 19.8139 3.04417 19.2518C2.99995 18.7106 2.99996 18.0463 2.99997 17.2413L2.99997 8.00001C2.99997 7.95347 2.99995 7.90762 2.99993 7.86242C2.99949 7.06704 2.99917 6.47638 3.13627 5.96473C3.50614 4.58436 4.58433 3.50617 5.9647 3.1363C6.27421 3.05337 6.61264 3.02072 7.00782 3.00796C7.01012 2.95756 7.01308 2.90871 7.01692 2.86178C7.0356 2.63318 7.07966 2.36345 7.21796 2.09202C7.40971 1.7157 7.71567 1.40974 8.09199 1.21799C8.36342 1.07969 8.63315 1.03563 8.86174 1.01695C9.0699 0.999943 9.31569 0.999973 9.56808 1ZM7.00865 5.00956C6.74556 5.01867 6.60245 5.03597 6.48234 5.06815C5.79215 5.25309 5.25306 5.79218 5.06812 6.48237C5.00856 6.70465 4.99997 7.00565 4.99997 8.00001V17.2C4.99997 18.0566 5.00075 18.6389 5.03753 19.089C5.07335 19.5274 5.13827 19.7516 5.21796 19.908C5.40971 20.2843 5.71567 20.5903 6.09199 20.782C6.24839 20.8617 6.4726 20.9266 6.91101 20.9625C7.3611 20.9992 7.94339 21 8.79997 21H15.2C16.0566 21 16.6388 20.9992 17.0889 20.9625C17.5274 20.9266 17.7516 20.8617 17.908 20.782C18.2843 20.5903 18.5902 20.2843 18.782 19.908C18.8617 19.7516 18.9266 19.5274 18.9624 19.089C18.9992 18.6389 19 18.0566 19 17.2V8.00001C19 7.00565 18.9914 6.70465 18.9318 6.48237C18.7469 5.79218 18.2078 5.25309 17.5176 5.06815C17.3975 5.03597 17.2544 5.01867 16.9913 5.00956C16.9891 5.05378 16.9864 5.09676 16.983 5.13824C16.9644 5.36683 16.9203 5.63656 16.782 5.90799C16.5902 6.28431 16.2843 6.59027 15.908 6.78202C15.6365 6.92032 15.3668 6.96438 15.1382 6.98306C14.93 7.00007 14.6843 7.00004 14.4319 7.00001L9.59997 7.00001C9.58933 7.00001 9.5787 7.00001 9.56808 7.00001C9.31569 7.00004 9.0699 7.00007 8.86174 6.98306C8.63315 6.96438 8.36342 6.92032 8.09199 6.78202C7.71567 6.59027 7.40971 6.28431 7.21796 5.90799C7.07966 5.63656 7.0356 5.36683 7.01692 5.13824C7.01353 5.09676 7.01082 5.05378 7.00865 5.00956ZM15 3.60001C15 3.30348 14.9992 3.14122 14.9897 3.02464C14.9893 3.02 14.9889 3.0156 14.9885 3.01145C14.9844 3.01107 14.98 3.01069 14.9753 3.01031C14.8588 3.00078 14.6965 3.00001 14.4 3.00001H9.59997C9.30345 3.00001 9.14119 3.00078 9.02461 3.01031C9.01997 3.01069 9.01557 3.01107 9.01142 3.01145C9.01104 3.0156 9.01066 3.02 9.01028 3.02464C9.00075 3.14122 8.99997 3.30348 8.99997 3.60001V4.40001C8.99997 4.69653 9.00075 4.85879 9.01028 4.97537C9.01066 4.98001 9.01104 4.98441 9.01142 4.98856C9.01557 4.98894 9.01997 4.98932 9.02461 4.9897C9.14119 4.99923 9.30345 5.00001 9.59997 5.00001H14.4C14.6965 5.00001 14.8588 4.99923 14.9753 4.9897C14.98 4.98932 14.9844 4.98894 14.9885 4.98856C14.9889 4.98441 14.9893 4.98001 14.9897 4.97537C14.9992 4.85879 15 4.69653 15 4.40001V3.60001Z" />
</svg>
