<svg viewBox="0 0 24 24" fill="black" xmlns="http://www.w3.org/2000/svg">
    <path fill-rule="evenodd" clip-rule="evenodd"
        d="M5.24923 9.14303C6.0632 6.17816 8.7764 4 12 4C15.2236 4 17.9368 6.17816 18.7508 9.14303C21.1861 9.70961 23 11.8925 23 14.5C23 17.5376 20.5376 20 17.5 20H6.5C3.46243 20 1 17.5376 1 14.5C1 11.8925 2.8139 9.70961 5.24923 9.14303ZM12 6C9.51785 6 7.45643 7.80968 7.0665 10.1816C6.99268 10.6306 6.62505 10.9731 6.17196 11.0151C4.39329 11.1798 3 12.6778 3 14.5C3 16.433 4.567 18 6.5 18H17.5C19.433 18 21 16.433 21 14.5C21 12.6778 19.6067 11.1798 17.828 11.0151C17.375 10.9731 17.0073 10.6306 16.9335 10.1816C16.5436 7.80968 14.4822 6 12 6Z" />
</svg>
