<svg viewBox="0 0 24 24" fill="black" xmlns="http://www.w3.org/2000/svg">
    <path fill-rule="evenodd" clip-rule="evenodd"
        d="M5.24923 6.14303C6.0632 3.17816 8.7764 1 12 1C15.2236 1 17.9368 3.17816 18.7508 6.14303C21.1861 6.70961 23 8.8925 23 11.5C23 13.8963 21.4681 15.9322 19.3332 16.6868C18.8125 16.8708 18.2412 16.5979 18.0572 16.0772C17.8731 15.5565 18.146 14.9851 18.6668 14.8011C20.0275 14.3201 21 13.0224 21 11.5C21 9.67779 19.6067 8.17984 17.828 8.01511C17.375 7.97315 17.0073 7.63059 16.9335 7.18159C16.5436 4.80968 14.4822 3 12 3C9.51785 3 7.45643 4.80968 7.0665 7.18159C6.99268 7.63059 6.62505 7.97315 6.17196 8.01511C4.39329 8.17984 3 9.67779 3 11.5C3 13.0224 3.97251 14.3201 5.33325 14.8011C5.85396 14.9851 6.12689 15.5565 5.94284 16.0772C5.75879 16.5979 5.18747 16.8708 4.66675 16.6868C2.53192 15.9322 1 13.8963 1 11.5C1 8.8925 2.8139 6.70961 5.24923 6.14303Z" />
    <path fill-rule="evenodd" clip-rule="evenodd"
        d="M9 12C8.44772 12 8 12.4477 8 13C8 13.5523 8.44772 14 9 14C9.55228 14 10 13.5523 10 13C10 12.4477 9.55228 12 9 12ZM6 13C6 11.3431 7.34315 10 9 10C10.6569 10 12 11.3431 12 13C12 14.3062 11.1652 15.4175 10 15.8293V17C10 18.1046 10.8954 19 12 19H14V21H12C9.79086 21 8 19.2091 8 17V15.8293C6.83481 15.4175 6 14.3062 6 13Z" />
    <path fill-rule="evenodd" clip-rule="evenodd"
        d="M16 19C15.4477 19 15 19.4477 15 20C15 20.5523 15.4477 21 16 21C16.5523 21 17 20.5523 17 20C17 19.4477 16.5523 19 16 19ZM13 20C13 18.3431 14.3431 17 16 17C17.6569 17 19 18.3431 19 20C19 21.6569 17.6569 23 16 23C14.3431 23 13 21.6569 13 20Z" />
</svg>
