<svg viewBox="0 0 24 24" fill="black" xmlns="http://www.w3.org/2000/svg">
    <path fill-rule="evenodd" clip-rule="evenodd"
        d="M12 3C7.02944 3 3 7.02944 3 12C3 16.9706 7.02944 21 12 21C16.9706 21 21 16.9706 21 12C21 7.02944 16.9706 3 12 3ZM1 12C1 5.92487 5.92487 1 12 1C18.0751 1 23 5.92487 23 12C23 18.0751 18.0751 23 12 23C5.92487 23 1 18.0751 1 12ZM12 4.5C12.5523 4.5 13 4.94772 13 5.5V6H13.1667C15.0076 6 16.5 7.49238 16.5 9.33333C16.5 9.88562 16.0523 10.3333 15.5 10.3333C14.9477 10.3333 14.5 9.88562 14.5 9.33333C14.5 8.59695 13.903 8 13.1667 8H11C10.1716 8 9.5 8.67157 9.5 9.5C9.5 10.3284 10.1716 11 11 11H13C14.933 11 16.5 12.567 16.5 14.5C16.5 16.433 14.933 18 13 18V18.5C13 19.0523 12.5523 19.5 12 19.5C11.4477 19.5 11 19.0523 11 18.5V18H10.8333C8.99238 18 7.5 16.5076 7.5 14.6667C7.5 14.1144 7.94772 13.6667 8.5 13.6667C9.05228 13.6667 9.5 14.1144 9.5 14.6667C9.5 15.403 10.097 16 10.8333 16H13C13.8284 16 14.5 15.3284 14.5 14.5C14.5 13.6716 13.8284 13 13 13H11C9.067 13 7.5 11.433 7.5 9.5C7.5 7.567 9.067 6 11 6V5.5C11 4.94772 11.4477 4.5 12 4.5Z" />
</svg>
