<svg width="82" height="48" viewBox="0 0 82 48" fill="none" xmlns="http://www.w3.org/2000/svg">
<path d="M15.1727 15.2106L7.03864 7.04199C2.55137 11.5389 0.03125 17.6322 0.03125 23.985C0.03125 30.3378 2.55137 36.4311 7.03864 40.928L15.2073 32.7593C12.8798 30.4346 11.5691 27.2818 11.5626 23.9921C11.5561 20.7025 12.8544 17.5445 15.1727 15.2106Z" fill="#D9782F"/>
<path d="M7.04102 7.04196L15.175 15.2106C16.3291 14.0552 17.6996 13.1386 19.2081 12.5132C20.7167 11.8878 22.3337 11.566 23.9667 11.566C25.5997 11.566 27.2168 11.8878 28.7253 12.5132C30.2338 13.1386 31.6043 14.0552 32.7584 15.2106L38.6772 5.06903L38.331 4.79213C33.7143 1.34779 28.0124 -0.320257 22.2672 0.0928344C16.5221 0.505925 11.1174 2.97257 7.04102 7.04196Z" fill="#EEAE3C"/>
<path d="M38.7118 42.901L32.7584 32.794C31.6043 33.9494 30.2338 34.866 28.7253 35.4914C27.2168 36.1168 25.5997 36.4386 23.9667 36.4386C22.3337 36.4386 20.7167 36.1168 19.2081 35.4914C17.6996 34.866 16.3291 33.9494 15.175 32.794L7.04102 40.9626C11.1093 44.9957 16.4867 47.4397 22.2005 47.8523C27.9142 48.265 33.587 46.6191 38.1926 43.2125L38.5733 42.901" fill="#EEAE3C"/>
<path d="M40.9976 7.042C36.5104 11.5389 33.9902 17.6322 33.9902 23.985C33.9902 30.3378 36.5104 36.4311 40.9976 40.928L49.1663 32.7594C46.8346 30.4277 45.5246 27.2652 45.5246 23.9677C45.5246 20.6702 46.8346 17.5077 49.1663 15.176C51.498 12.8443 54.6604 11.5344 57.9579 11.5344C61.2554 11.5344 64.4179 12.8443 66.7496 15.176L74.9528 7.042C72.7249 4.8097 70.0785 3.03869 67.1653 1.83033C64.2521 0.621977 61.1291 0 57.9752 0C54.8213 0 51.6984 0.621977 48.7852 1.83033C45.8719 3.03869 43.2256 4.8097 40.9976 7.042Z" fill="#EEAE3C"/>
<path d="M74.9474 7.04199L66.8134 15.2106C69.1451 17.5423 70.455 20.7048 70.455 24.0023C70.455 27.2998 69.1451 30.4623 66.8134 32.794C64.4817 35.1257 61.3192 36.4356 58.0217 36.4356C54.7242 36.4356 51.5617 35.1257 49.23 32.794L40.9922 40.9626C45.4903 45.4653 51.593 47.9968 57.9576 48C61.109 48.0016 64.2299 47.3825 67.142 46.178C70.0542 44.9735 72.7006 43.2072 74.9301 40.9799C77.1596 38.7526 78.9286 36.1081 80.1361 33.1971C81.3436 30.2862 81.9659 27.166 81.9675 24.0145C81.9691 20.8631 81.35 17.7422 80.1455 14.8301C78.941 11.9179 77.1747 9.27152 74.9474 7.04199Z" fill="#D9782F"/>
</svg>
