<svg viewBox="0 0 24 24" fill="currentColor" xmlns="http://www.w3.org/2000/svg">
    <path
        d="M11 22V18.4141L9.70703 19.707C9.31651 20.0976 8.68349 20.0976 8.29297 19.707C7.90244 19.3165 7.90244 18.6835 8.29297 18.293L11.293 15.293L11.3662 15.2266C11.5442 15.0807 11.7679 15 12 15C12.2652 15 12.5195 15.1054 12.707 15.293L15.707 18.293C16.0976 18.6835 16.0976 19.3165 15.707 19.707C15.3165 20.0976 14.6835 20.0976 14.293 19.707L13 18.4141V22C13 22.5523 12.5523 23 12 23C11.4477 23 11 22.5523 11 22ZM4 11C4.55228 11 5 11.4477 5 12C5 12.5523 4.55228 13 4 13H2C1.44772 13 1 12.5523 1 12C1 11.4477 1.44772 11 2 11H4ZM10 11C10.5523 11 11 11.4477 11 12C11 12.5523 10.5523 13 10 13H8C7.44772 13 7 12.5523 7 12C7 11.4477 7.44772 11 8 11H10ZM16 11C16.5523 11 17 11.4477 17 12C17 12.5523 16.5523 13 16 13H14C13.4477 13 13 12.5523 13 12C13 11.4477 13.4477 11 14 11H16ZM22 11C22.5523 11 23 11.4477 23 12C23 12.5523 22.5523 13 22 13H20C19.4477 13 19 12.5523 19 12C19 11.4477 19.4477 11 20 11H22ZM11 2C11 1.44772 11.4477 1 12 1C12.5523 1 13 1.44772 13 2V5.58594L14.293 4.29297C14.6835 3.90244 15.3165 3.90244 15.707 4.29297C16.0976 4.68349 16.0976 5.31651 15.707 5.70703L12.707 8.70703C12.3165 9.09756 11.6835 9.09756 11.293 8.70703L8.29297 5.70703C7.90244 5.31651 7.90244 4.68349 8.29297 4.29297C8.68349 3.90244 9.31651 3.90244 9.70703 4.29297L11 5.58594V2Z" />
</svg>