<svg viewBox="0 0 24 24" fill="black" xmlns="http://www.w3.org/2000/svg">
    <path fill-rule="evenodd" clip-rule="evenodd"
        d="M4.56811 2C4.57873 2 4.58936 2.00001 4.60001 2.00001H5.40001C5.41065 2.00001 5.42128 2 5.4319 2C5.68429 1.99997 5.93008 1.99994 6.13824 2.01695C6.36683 2.03563 6.63656 2.07969 6.90799 2.21799C7.28431 2.40974 7.59027 2.7157 7.78202 3.09202C7.92032 3.36345 7.96438 3.63318 7.98306 3.86178C7.98669 3.90624 7.98955 3.95241 7.99179 4.00001L16.0082 4.00001C16.0105 3.95241 16.0133 3.90624 16.0169 3.86178C16.0356 3.63318 16.0797 3.36345 16.218 3.09202C16.4097 2.7157 16.7157 2.40974 17.092 2.21799C17.3634 2.07969 17.6332 2.03563 17.8618 2.01695C18.0699 1.99994 18.3157 1.99997 18.5681 2H19.4319C19.6843 1.99997 19.9301 1.99994 20.1382 2.01695C20.3668 2.03563 20.6366 2.07969 20.908 2.21799C21.2843 2.40974 21.5903 2.7157 21.782 3.09202C21.9203 3.36345 21.9644 3.63318 21.9831 3.86178C22.0001 4.06993 22 4.31571 22 4.56809V5.43192C22 5.6843 22.0001 5.93008 21.9831 6.13824C21.9644 6.36683 21.9203 6.63656 21.782 6.90799C21.5903 7.28431 21.2843 7.59027 20.908 7.78202C20.6366 7.92032 20.3668 7.96438 20.1382 7.98306C20.0938 7.98669 20.0476 7.98955 20 7.99179V11C20 11.5523 19.5523 12 19 12C18.4477 12 18 11.5523 18 11V7.99179C17.9524 7.98955 17.9062 7.98669 17.8618 7.98306C17.6332 7.96438 17.3634 7.92032 17.092 7.78202C16.7157 7.59027 16.4097 7.28431 16.218 6.90799C16.0797 6.63656 16.0356 6.36683 16.0169 6.13824C16.0133 6.09377 16.0105 6.0476 16.0082 6.00001L7.99179 6.00001C7.98955 6.0476 7.98669 6.09377 7.98306 6.13824C7.96438 6.36683 7.92032 6.63656 7.78202 6.90799C7.59027 7.28431 7.28431 7.59027 6.90799 7.78202C6.63656 7.92032 6.36683 7.96438 6.13824 7.98306C6.09377 7.98669 6.0476 7.98955 6.00001 7.99179V16.0082C6.0476 16.0105 6.09377 16.0133 6.13824 16.0169C6.36683 16.0356 6.63656 16.0797 6.90799 16.218C7.28431 16.4097 7.59027 16.7157 7.78202 17.092C7.92032 17.3634 7.96438 17.6332 7.98306 17.8618C7.98669 17.9062 7.98955 17.9524 7.99179 18H11C11.5523 18 12 18.4477 12 19C12 19.5523 11.5523 20 11 20H7.99179C7.98955 20.0476 7.98669 20.0938 7.98306 20.1382C7.96438 20.3668 7.92032 20.6366 7.78202 20.908C7.59027 21.2843 7.28431 21.5903 6.90799 21.782C6.63656 21.9203 6.36683 21.9644 6.13824 21.9831C5.93008 22.0001 5.6843 22 5.43192 22H4.56809C4.31571 22 4.06993 22.0001 3.86178 21.9831C3.63318 21.9644 3.36345 21.9203 3.09202 21.782C2.7157 21.5903 2.40974 21.2843 2.21799 20.908C2.07969 20.6366 2.03563 20.3668 2.01695 20.1382C1.99994 19.9301 1.99997 19.6843 2 19.4319V18.5681C1.99997 18.3157 1.99994 18.0699 2.01695 17.8618C2.03563 17.6332 2.07969 17.3634 2.21799 17.092C2.40974 16.7157 2.7157 16.4097 3.09202 16.218C3.36345 16.0797 3.63318 16.0356 3.86178 16.0169C3.90624 16.0133 3.95241 16.0105 4.00001 16.0082V7.99179C3.95241 7.98955 3.90624 7.98669 3.86178 7.98306C3.63318 7.96438 3.36345 7.92032 3.09202 7.78202C2.7157 7.59027 2.40974 7.28431 2.21799 6.90799C2.07969 6.63656 2.03563 6.36683 2.01695 6.13824C1.99994 5.93008 1.99997 5.68429 2 5.4319C2 5.42128 2.00001 5.41065 2.00001 5.40001V4.60001C2.00001 4.58936 2 4.57873 2 4.56811C1.99997 4.31572 1.99994 4.06993 2.01695 3.86178C2.03563 3.63318 2.07969 3.36345 2.21799 3.09202C2.40974 2.7157 2.7157 2.40974 3.09202 2.21799C3.36345 2.07969 3.63318 2.03563 3.86178 2.01695C4.06993 1.99994 4.31572 1.99997 4.56811 2ZM5.40001 6.00001C5.69653 6.00001 5.85879 5.99923 5.97537 5.9897C5.98001 5.98932 5.98441 5.98894 5.98856 5.98856C5.98894 5.98441 5.98932 5.98001 5.9897 5.97537C5.99923 5.85879 6.00001 5.69653 6.00001 5.40001V4.60001C6.00001 4.30348 5.99923 4.14122 5.9897 4.02464C5.98932 4.02 5.98894 4.0156 5.98856 4.01145C5.98441 4.01107 5.98001 4.01069 5.97537 4.01031C5.85879 4.00078 5.69653 4.00001 5.40001 4.00001H4.60001C4.30348 4.00001 4.14122 4.00078 4.02464 4.01031C4.02 4.01069 4.0156 4.01107 4.01145 4.01145C4.01107 4.0156 4.01069 4.02 4.01031 4.02464C4.00078 4.14122 4.00001 4.30348 4.00001 4.60001V5.40001C4.00001 5.69653 4.00078 5.85879 4.01031 5.97537C4.01069 5.98001 4.01107 5.98441 4.01145 5.98856C4.0156 5.98894 4.02 5.98932 4.02464 5.9897C4.14122 5.99923 4.30348 6.00001 4.60001 6.00001H5.40001ZM4.60001 18C4.30348 18 4.14122 18.0008 4.02464 18.0103C4.02 18.0107 4.0156 18.0111 4.01145 18.0115C4.01107 18.0156 4.01069 18.02 4.01031 18.0246C4.00078 18.1412 4.00001 18.3035 4.00001 18.6V19.4C4.00001 19.6965 4.00078 19.8588 4.01031 19.9754C4.01069 19.98 4.01107 19.9844 4.01145 19.9885C4.0156 19.9889 4.02 19.9893 4.02464 19.9897C4.14122 19.9992 4.30348 20 4.60001 20H5.40001C5.69653 20 5.85879 19.9992 5.97537 19.9897C5.98001 19.9893 5.98441 19.9889 5.98856 19.9885C5.98894 19.9844 5.98932 19.98 5.9897 19.9754C5.99923 19.8588 6.00001 19.6965 6.00001 19.4V18.6C6.00001 18.3035 5.99923 18.1412 5.9897 18.0246C5.98932 18.02 5.98894 18.0156 5.98856 18.0115C5.98441 18.0111 5.98001 18.0107 5.97537 18.0103C5.85879 18.0008 5.69653 18 5.40001 18H4.60001ZM18 5.40001C18 5.69653 18.0008 5.85879 18.0103 5.97537C18.0107 5.98001 18.0111 5.98441 18.0115 5.98856C18.0156 5.98894 18.02 5.98932 18.0246 5.9897C18.1412 5.99923 18.3035 6.00001 18.6 6.00001H19.4C19.6965 6.00001 19.8588 5.99923 19.9754 5.9897C19.98 5.98932 19.9844 5.98893 19.9886 5.98855C19.9889 5.9844 19.9893 5.98001 19.9897 5.97537C19.9992 5.85879 20 5.69653 20 5.40001V4.60001C20 4.30348 19.9992 4.14122 19.9897 4.02464C19.9893 4.02 19.9889 4.0156 19.9885 4.01145C19.9844 4.01107 19.98 4.01069 19.9754 4.01031C19.8588 4.00078 19.6965 4.00001 19.4 4.00001H18.6C18.3035 4.00001 18.1412 4.00078 18.0246 4.01031C18.02 4.01069 18.0156 4.01107 18.0115 4.01145C18.0111 4.0156 18.0107 4.02 18.0103 4.02464C18.0008 4.14122 18 4.30348 18 4.60001V5.40001ZM18 14C18.5523 14 19 14.4477 19 15V17H21C21.5523 17 22 17.4477 22 18C22 18.5523 21.5523 19 21 19H19V21C19 21.5523 18.5523 22 18 22C17.4477 22 17 21.5523 17 21V19H15C14.4477 19 14 18.5523 14 18C14 17.4477 14.4477 17 15 17H17V15C17 14.4477 17.4477 14 18 14Z" />
</svg>
