<svg viewBox="0 0 33 33" fill="white" xmlns="http://www.w3.org/2000/svg">
    <path fill-rule="evenodd" clip-rule="evenodd"
        d="M7.38194 5.81673H25.6181C26.3209 5.81671 26.9273 5.81669 27.4267 5.85749C27.9538 5.90056 28.4781 5.99565 28.9826 6.25271C29.7353 6.6362 30.3472 7.24812 30.7307 8.00077C30.9878 8.50528 31.0828 9.02957 31.1259 9.5567C31.1667 10.0561 31.1667 10.6625 31.1667 11.3653V16.4834C31.1667 17.2198 30.5697 17.8167 29.8333 17.8167C29.097 17.8167 28.5 17.2198 28.5 16.4834V15.1501H4.5V21.5501C4.5 22.3188 4.50103 22.8152 4.5319 23.1929C4.56149 23.5552 4.61173 23.6895 4.64532 23.7554C4.77315 24.0063 4.97713 24.2102 5.22801 24.3381C5.29394 24.3717 5.42823 24.4219 5.79045 24.4515C6.16823 24.4824 6.66459 24.4834 7.43333 24.4834H16.5C17.2364 24.4834 17.8333 25.0803 17.8333 25.8167C17.8333 26.5531 17.2364 27.1501 16.5 27.1501H7.38197C6.67909 27.1501 6.07273 27.1501 5.57329 27.1093C5.04617 27.0662 4.52187 26.9711 4.01737 26.7141C3.26472 26.3306 2.6528 25.7187 2.2693 24.966C2.01225 24.4615 1.91716 23.9372 1.87409 23.4101C1.83328 22.9107 1.83331 22.3043 1.83333 21.6015V11.3653C1.83331 10.6625 1.83328 10.0561 1.87409 9.55669C1.91716 9.02957 2.01225 8.50528 2.26931 8.00077C2.6528 7.24812 3.26472 6.6362 4.01737 6.25271C4.52188 5.99565 5.04617 5.90056 5.57329 5.85749C6.07272 5.81669 6.67907 5.81671 7.38194 5.81673ZM4.5 12.4834H28.5V11.4167C28.5 10.648 28.499 10.1516 28.4681 9.77385C28.4385 9.41163 28.3883 9.27734 28.3547 9.21141C28.2268 8.96053 28.0229 8.75656 27.772 8.62873C27.7061 8.59513 27.5718 8.5449 27.2095 8.5153C26.8318 8.48444 26.3354 8.4834 25.5667 8.4834H7.43333C6.66459 8.4834 6.16823 8.48444 5.79045 8.5153C5.42823 8.5449 5.29394 8.59513 5.22801 8.62872C4.97713 8.75655 4.77315 8.96053 4.64532 9.21141C4.61173 9.27734 4.56149 9.41163 4.5319 9.77385C4.50103 10.1516 4.5 10.648 4.5 11.4167V12.4834ZM21.5572 20.8739C22.0779 20.3532 22.9221 20.3532 23.4428 20.8739L25.8333 23.2644L28.2239 20.8739C28.7446 20.3532 29.5888 20.3532 30.1095 20.8739C30.6302 21.3946 30.6302 22.2388 30.1095 22.7595L27.7189 25.1501L30.1095 27.5406C30.6302 28.0613 30.6302 28.9055 30.1095 29.4262C29.5888 29.9469 28.7446 29.9469 28.2239 29.4262L25.8333 27.0357L23.4428 29.4262C22.9221 29.9469 22.0779 29.9469 21.5572 29.4262C21.0365 28.9055 21.0365 28.0613 21.5572 27.5406L23.9477 25.1501L21.5572 22.7595C21.0365 22.2388 21.0365 21.3946 21.5572 20.8739Z" />
</svg>
