<svg viewBox="0 0 60 60" fill="black" xmlns="http://www.w3.org/2000/svg">
    <g id="dataflow-02">
        <path fill-rule="evenodd" clip-rule="evenodd"
            d="M12.5 7.5C11.1193 7.5 10 8.61929 10 10C10 11.3807 11.1193 12.5 12.5 12.5C13.8807 12.5 15 11.3807 15 10C15 8.61929 13.8807 7.5 12.5 7.5ZM5 10C5 5.85786 8.35787 2.5 12.5 2.5C15.7655 2.5 18.5436 4.58702 19.5732 7.5L40.4268 7.5C41.4564 4.58702 44.2345 2.5 47.5 2.5C51.6421 2.5 55 5.85786 55 10C55 14.1421 51.6421 17.5 47.5 17.5C44.2345 17.5 41.4564 15.413 40.4268 12.5L32.5 12.5V27.5H40.4268C41.4564 24.587 44.2345 22.5 47.5 22.5C51.6421 22.5 55 25.8579 55 30C55 34.1421 51.6421 37.5 47.5 37.5C44.2345 37.5 41.4564 35.413 40.4268 32.5H32.5V38C32.5 40.1415 32.502 41.5972 32.5939 42.7224C32.6834 43.8185 32.8457 44.379 33.045 44.77C33.5243 45.7108 34.2892 46.4757 35.2301 46.955C35.6211 47.1543 36.1816 47.3166 37.2776 47.4061C38.103 47.4736 39.1062 47.4926 40.4275 47.4979C41.4577 44.586 44.2352 42.5 47.5 42.5C51.6421 42.5 55 45.8579 55 50C55 54.1421 51.6421 57.5 47.5 57.5C44.2338 57.5 41.4552 55.4121 40.4261 52.4982C39.0579 52.4929 37.8787 52.4719 36.8704 52.3895C35.4652 52.2747 34.1734 52.0283 32.9601 51.4101C31.0785 50.4513 29.5487 48.9215 28.5899 47.0399C27.9717 45.8266 27.7253 44.5348 27.6105 43.1296C27.4999 41.7766 27.5 40.1157 27.5 38.1032V12.5L19.5732 12.5C18.5436 15.413 15.7655 17.5 12.5 17.5C8.35787 17.5 5 14.1421 5 10ZM47.5 7.5C46.1193 7.5 45 8.61929 45 10C45 11.3807 46.1193 12.5 47.5 12.5C48.8807 12.5 50 11.3807 50 10C50 8.61929 48.8807 7.5 47.5 7.5ZM47.5 27.5C46.1193 27.5 45 28.6193 45 30C45 31.3807 46.1193 32.5 47.5 32.5C48.8807 32.5 50 31.3807 50 30C50 28.6193 48.8807 27.5 47.5 27.5ZM47.5 47.5C46.1193 47.5 45 48.6193 45 50C45 51.3807 46.1193 52.5 47.5 52.5C48.8807 52.5 50 51.3807 50 50C50 48.6193 48.8807 47.5 47.5 47.5Z" />
    </g>
</svg>
