<svg  viewBox="0 0 24 25" fill="none" xmlns="http://www.w3.org/2000/svg">
<path fill-rule="evenodd" clip-rule="evenodd" d="M7.7587 2.5H16.2413C17.0463 2.49999 17.7106 2.49998 18.2518 2.54419C18.8139 2.59012 19.3306 2.68868 19.816 2.93598C20.5686 3.31947 21.1805 3.93139 21.564 4.68404C21.8113 5.16937 21.9099 5.68608 21.9558 6.24817C22 6.78936 22 7.45372 22 8.25868V16.7413C22 17.5463 22 18.2106 21.9558 18.7518C21.9099 19.3139 21.8113 19.8306 21.564 20.316C21.1805 21.0686 20.5686 21.6805 19.816 22.064C19.3306 22.3113 18.8139 22.4099 18.2518 22.4558C17.7106 22.5 17.0463 22.5 16.2413 22.5H7.75868C6.95372 22.5 6.28936 22.5 5.74817 22.4558C5.18608 22.4099 4.66937 22.3113 4.18404 22.064C3.43139 21.6805 2.81947 21.0686 2.43598 20.316C2.18868 19.8306 2.09012 19.3139 2.04419 18.7518C1.99998 18.2106 1.99999 17.5463 2 16.7413V8.2587C1.99999 7.45373 1.99998 6.78937 2.04419 6.24817C2.09012 5.68608 2.18868 5.16937 2.43597 4.68404C2.81947 3.93139 3.43139 3.31947 4.18404 2.93597C4.66937 2.68868 5.18608 2.59012 5.74817 2.54419C6.28937 2.49998 6.95373 2.49999 7.7587 2.5ZM10 20.5H16.2C17.0566 20.5 17.6389 20.4992 18.089 20.4624C18.5274 20.4266 18.7516 20.3617 18.908 20.282C19.2843 20.0903 19.5903 19.7843 19.782 19.408C19.8617 19.2516 19.9266 19.0274 19.9624 18.589C19.9992 18.1389 20 17.5566 20 16.7V8.3C20 7.44342 19.9992 6.86113 19.9624 6.41104C19.9266 5.97262 19.8617 5.74842 19.782 5.59202C19.5903 5.2157 19.2843 4.90973 18.908 4.71799C18.7516 4.6383 18.5274 4.57337 18.089 4.53755C17.6389 4.50078 17.0566 4.5 16.2 4.5H10L10 20.5ZM8 4.5L8 20.5H7.8C6.94342 20.5 6.36113 20.4992 5.91104 20.4624C5.47262 20.4266 5.24842 20.3617 5.09202 20.282C4.7157 20.0903 4.40973 19.7843 4.21799 19.408C4.1383 19.2516 4.07337 19.0274 4.03755 18.589C4.00078 18.1389 4 17.5566 4 16.7V8.3C4 7.44342 4.00078 6.86113 4.03755 6.41104C4.07337 5.97262 4.1383 5.74842 4.21799 5.59202C4.40973 5.2157 4.7157 4.90973 5.09202 4.71799C5.24842 4.6383 5.47262 4.57337 5.91104 4.53755C6.36113 4.50078 6.94342 4.5 7.8 4.5H8ZM11.5 7.5C11.5 6.94772 11.9477 6.5 12.5 6.5H17.5C18.0523 6.5 18.5 6.94772 18.5 7.5C18.5 8.05229 18.0523 8.5 17.5 8.5H12.5C11.9477 8.5 11.5 8.05229 11.5 7.5ZM11.5 11.5C11.5 10.9477 11.9477 10.5 12.5 10.5H17.5C18.0523 10.5 18.5 10.9477 18.5 11.5C18.5 12.0523 18.0523 12.5 17.5 12.5H12.5C11.9477 12.5 11.5 12.0523 11.5 11.5ZM11.5 15.5C11.5 14.9477 11.9477 14.5 12.5 14.5H17.5C18.0523 14.5 18.5 14.9477 18.5 15.5C18.5 16.0523 18.0523 16.5 17.5 16.5H12.5C11.9477 16.5 11.5 16.0523 11.5 15.5Z" />
</svg>
