<svg width="16" height="16" viewBox="0 0 16 16" fill="none" xmlns="http://www.w3.org/2000/svg">
<path fill-rule="evenodd" clip-rule="evenodd" d="M10.862 1.5286C11.8587 0.531869 13.4747 0.53187 14.4714 1.5286C15.4682 2.52533 15.4682 4.14135 14.4714 5.13808L12.4732 7.13632C12.4726 7.13691 12.472 7.13749 12.4714 7.13808C12.4708 7.13866 12.4703 7.13924 12.4697 7.13982L5.66723 13.9423C5.65605 13.9534 5.64498 13.9645 5.63399 13.9755C5.47073 14.1391 5.32671 14.2833 5.1556 14.3961C5.00516 14.4953 4.842 14.5738 4.67056 14.6293C4.47555 14.6924 4.27295 14.7147 4.04326 14.7401C4.02781 14.7418 4.01224 14.7435 3.99654 14.7452L1.74029 14.9959C1.53901 15.0183 1.33847 14.9479 1.19527 14.8047C1.05206 14.6615 0.981717 14.461 1.00408 14.2597L1.25478 12.0035C1.25652 11.9878 1.25824 11.9722 1.25994 11.9567C1.28528 11.7271 1.30763 11.5244 1.37075 11.3294C1.42626 11.158 1.50467 10.9948 1.60388 10.8444C1.71671 10.6733 1.86096 10.5293 2.02449 10.366C2.03549 10.355 2.04658 10.344 2.05775 10.3328L10.862 1.5286ZM9.33335 4.94281L3.00056 11.2756C2.78556 11.4906 2.74564 11.535 2.71698 11.5784C2.68391 11.6286 2.65777 11.683 2.63927 11.7401C2.62324 11.7896 2.61353 11.8485 2.57995 12.1507L2.42129 13.5787L3.8493 13.4201C4.15149 13.3865 4.21037 13.3768 4.25991 13.3607C4.31706 13.3422 4.37144 13.3161 4.42159 13.283C4.46505 13.2544 4.50941 13.2145 4.72442 12.9994L11.0572 6.66667L9.33335 4.94281ZM12 5.72386L10.2762 4L11.8048 2.47141C12.2808 1.99538 13.0526 1.99538 13.5286 2.47141C14.0046 2.94744 14.0046 3.71924 13.5286 4.19527L12 5.72386Z" fill="#9CA3AF"/>
</svg>
