<svg viewBox="0 0 24 24" fill="black" xmlns="http://www.w3.org/2000/svg">
    <path fill-rule="evenodd" clip-rule="evenodd"
        d="M16.2929 2.29295C17.788 0.797857 20.212 0.797859 21.7071 2.29295C23.2022 3.78805 23.2022 6.21207 21.7071 7.70717L18.7097 10.7045C18.7088 10.7054 18.708 10.7063 18.7071 10.7072C18.7062 10.708 18.7053 10.7089 18.7044 10.7098L8.50078 20.9134C8.48402 20.9302 8.46741 20.9468 8.45093 20.9633C8.20603 21.2086 7.99001 21.425 7.73334 21.5943C7.50768 21.7431 7.26295 21.8607 7.00578 21.9439C6.71327 22.0386 6.40936 22.0722 6.06483 22.1102C6.04165 22.1127 6.01829 22.1153 5.99474 22.1179L2.61038 22.4939C2.30845 22.5275 2.00765 22.422 1.79284 22.2072C1.57803 21.9924 1.47251 21.6916 1.50606 21.3896L1.8821 18.0053C1.88472 17.9817 1.8873 17.9583 1.88985 17.9352C1.92786 17.5906 1.96138 17.2867 2.05607 16.9942C2.13932 16.7371 2.25695 16.4923 2.40576 16.2667C2.57501 16.01 2.79138 15.794 3.03667 15.5491C3.05317 15.5326 3.06981 15.516 3.08657 15.4992L16.2929 2.29295ZM14 7.41427L4.50078 16.9134C4.17827 17.2359 4.1184 17.3025 4.07541 17.3677C4.02581 17.4429 3.9866 17.5245 3.95885 17.6102C3.9348 17.6845 3.92024 17.7728 3.86987 18.2261L3.63187 20.3681L5.77388 20.1301C6.22718 20.0798 6.3155 20.0652 6.3898 20.0412C6.47553 20.0134 6.5571 19.9742 6.63232 19.9246C6.69752 19.8816 6.76406 19.8217 7.08657 19.4992L16.5858 10.0001L14 7.41427ZM18 8.58584L15.4142 6.00006L17.7071 3.70716C18.4211 2.99312 19.5788 2.99312 20.2929 3.70717C21.0069 4.42121 21.0069 5.57891 20.2929 6.29295L18 8.58584Z" />
</svg>
