<svg viewBox="0 0 24 24" fill="currentColor" xmlns="http://www.w3.org/2000/svg">
    <path
        d="M11 16C11 15.4477 11.4477 15 12 15C12.5523 15 13 15.4477 13 16V19.5859L14.293 18.293C14.6835 17.9024 15.3165 17.9024 15.707 18.293C16.0976 18.6835 16.0976 19.3165 15.707 19.707L12.707 22.707C12.3165 23.0976 11.6835 23.0976 11.293 22.707L8.29297 19.707C7.90244 19.3165 7.90244 18.6835 8.29297 18.293C8.68349 17.9024 9.31651 17.9024 9.70703 18.293L11 19.5859V16ZM4 11C4.55228 11 5 11.4477 5 12C5 12.5523 4.55228 13 4 13H2C1.44772 13 1 12.5523 1 12C1 11.4477 1.44772 11 2 11H4ZM10 11C10.5523 11 11 11.4477 11 12C11 12.5523 10.5523 13 10 13H8C7.44772 13 7 12.5523 7 12C7 11.4477 7.44772 11 8 11H10ZM16 11C16.5523 11 17 11.4477 17 12C17 12.5523 16.5523 13 16 13H14C13.4477 13 13 12.5523 13 12C13 11.4477 13.4477 11 14 11H16ZM22 11C22.5523 11 23 11.4477 23 12C23 12.5523 22.5523 13 22 13H20C19.4477 13 19 12.5523 19 12C19 11.4477 19.4477 11 20 11H22ZM11 8V4.41406L9.70703 5.70703C9.31651 6.09756 8.68349 6.09756 8.29297 5.70703C7.90244 5.31651 7.90244 4.68349 8.29297 4.29297L11.293 1.29297L11.3662 1.22656C11.5442 1.08073 11.7679 1 12 1C12.2652 1 12.5195 1.10543 12.707 1.29297L15.707 4.29297C16.0976 4.68349 16.0976 5.31651 15.707 5.70703C15.3165 6.09756 14.6835 6.09756 14.293 5.70703L13 4.41406V8C13 8.55228 12.5523 9 12 9C11.4477 9 11 8.55228 11 8Z" />
</svg>