<svg viewBox="0 0 24 24" fill="black" xmlns="http://www.w3.org/2000/svg">
    <path fill-rule="evenodd" clip-rule="evenodd"
        d="M3 2C3.55228 2 4 2.44772 4 3V21C4 21.5523 3.55228 22 3 22C2.44772 22 2 21.5523 2 21V3C2 2.44772 2.44772 2 3 2ZM14.7071 4.29289C15.0976 4.68342 15.0976 5.31658 14.7071 5.70711L9.41421 11H21C21.5523 11 22 11.4477 22 12C22 12.5523 21.5523 13 21 13H9.41421L14.7071 18.2929C15.0976 18.6834 15.0976 19.3166 14.7071 19.7071C14.3166 20.0976 13.6834 20.0976 13.2929 19.7071L6.29289 12.7071C5.90237 12.3166 5.90237 11.6834 6.29289 11.2929L13.2929 4.29289C13.6834 3.90237 14.3166 3.90237 14.7071 4.29289Z" />
</svg>
