<svg viewBox="0 0 24 24" fill="black" xmlns="http://www.w3.org/2000/svg">
    <path fill-rule="evenodd" clip-rule="evenodd"
        d="M13 3.01991C12.8143 3.00299 12.5391 3.00006 12.0118 3.00006H8.8C7.94342 3.00006 7.36113 3.00084 6.91104 3.03761C6.47262 3.07343 6.24842 3.13836 6.09202 3.21805C5.7157 3.4098 5.40973 3.71576 5.21799 4.09208C5.1383 4.24848 5.07337 4.47269 5.03755 4.9111C5.00078 5.36119 5 5.94348 5 6.80006V17.2001C5 18.0566 5.00078 18.6389 5.03755 19.089C5.07337 19.5274 5.1383 19.7516 5.21799 19.908C5.40973 20.2844 5.7157 20.5903 6.09202 20.7821C6.24842 20.8618 6.47262 20.9267 6.91104 20.9625C7.36113 20.9993 7.94342 21.0001 8.8 21.0001H15.2C16.0566 21.0001 16.6389 20.9993 17.089 20.9625C17.5274 20.9267 17.7516 20.8618 17.908 20.7821C18.2843 20.5903 18.5903 20.2844 18.782 19.908C18.8617 19.7516 18.9266 19.5274 18.9624 19.089C18.9992 18.6389 19 18.0566 19 17.2001V9.98829C19 9.46092 18.9971 9.18576 18.9802 9.00006L15.5681 9.00007C15.3157 9.0001 15.0699 9.00012 14.8618 8.98312C14.6332 8.96444 14.3634 8.92037 14.092 8.78208C13.7157 8.59033 13.4097 8.28437 13.218 7.90804C13.0797 7.63662 13.0356 7.36689 13.0169 7.13829C12.9999 6.93013 13 6.68433 13 6.43195L13 3.01991ZM14.3903 1.34854C14.1654 1.24798 13.9314 1.16826 13.6911 1.11058C13.2284 0.9995 12.7487 0.999729 12.1137 1.00003C12.0801 1.00005 12.0462 1.00006 12.0118 1.00006L8.7587 1.00006C7.95373 1.00005 7.28937 1.00004 6.74817 1.04426C6.18608 1.09018 5.66937 1.18875 5.18404 1.43604C4.43139 1.81953 3.81947 2.43145 3.43597 3.1841C3.18868 3.66944 3.09012 4.18614 3.04419 4.74824C2.99998 5.28943 2.99999 5.95379 3 6.75876V17.2414C2.99999 18.0463 2.99998 18.7107 3.04419 19.2519C3.09012 19.814 3.18868 20.3307 3.43597 20.816C3.81947 21.5687 4.43139 22.1806 5.18404 22.5641C5.66937 22.8114 6.18608 22.9099 6.74817 22.9559C7.28936 23.0001 7.95372 23.0001 8.75868 23.0001H15.2413C16.0463 23.0001 16.7106 23.0001 17.2518 22.9559C17.8139 22.9099 18.3306 22.8114 18.816 22.5641C19.5686 22.1806 20.1805 21.5687 20.564 20.816C20.8113 20.3307 20.9099 19.814 20.9558 19.2519C21 18.7107 21 18.0463 21 17.2414V9.98829C21 9.95389 21 9.91994 21 9.88642C21.0003 9.25142 21.0006 8.77162 20.8895 8.30892C20.8318 8.06868 20.7521 7.83466 20.6515 7.60979C20.6449 7.59413 20.6378 7.57867 20.6304 7.56343C20.5653 7.42257 20.4919 7.28542 20.4106 7.15271C20.1619 6.74698 19.8225 6.40788 19.3733 5.95907C19.3496 5.93539 19.3255 5.91139 19.3012 5.88707L16.113 2.69884C16.0887 2.67452 16.0647 2.6505 16.041 2.62678C15.5922 2.17756 15.2531 1.83813 14.8474 1.5895C14.7146 1.50818 14.5775 1.43479 14.4367 1.36964C14.4214 1.36222 14.4059 1.35519 14.3903 1.34854ZM15 4.41428V6.40006C15 6.69659 15.0008 6.85884 15.0103 6.97543C15.0107 6.98007 15.0111 6.98446 15.0114 6.98861C15.0156 6.989 15.02 6.98938 15.0246 6.98976C15.1412 6.99929 15.3035 7.00006 15.6 7.00006H17.5858L15 4.41428Z" />
</svg>
