<svg width="60" height="60" viewBox="0 0 60 60" fill="black" xmlns="http://www.w3.org/2000/svg">
    <path fill-rule="evenodd" clip-rule="evenodd"
        d="M21.8968 2.5L35 2.5C35.663 2.5 36.2989 2.76339 36.7678 3.23224L51.7678 18.2322C52.2366 18.7011 52.5 19.337 52.5 20V43.1033C52.5 45.1157 52.5001 46.7766 52.3895 48.1296C52.2747 49.5348 52.0283 50.8266 51.4101 52.0399C50.4513 53.9215 48.9215 55.4513 47.0399 56.4101C45.8266 57.0283 44.5348 57.2747 43.1296 57.3895C41.7766 57.5001 40.1157 57.5 38.1033 57.5H21.8967C19.8843 57.5 18.2234 57.5001 16.8704 57.3895C15.4652 57.2747 14.1734 57.0283 12.9601 56.4101C11.0785 55.4513 9.54867 53.9215 8.58994 52.0399C7.97171 50.8266 7.7253 49.5348 7.61049 48.1296C7.49994 46.7766 7.49997 45.1157 7.5 43.1032V16.8968C7.49997 14.8843 7.49994 13.2234 7.61049 11.8704C7.7253 10.4652 7.97171 9.17344 8.58994 7.9601C9.54867 6.07848 11.0785 4.54867 12.9601 3.58994C14.1734 2.97171 15.4652 2.7253 16.8704 2.61049C18.2234 2.49994 19.8843 2.49997 21.8968 2.5ZM17.2776 7.59388C16.1816 7.68343 15.621 7.84575 15.2301 8.04497C14.2892 8.52434 13.5243 9.28924 13.045 10.23C12.8457 10.621 12.6834 11.1816 12.5939 12.2776C12.5019 13.4028 12.5 14.8586 12.5 17V43C12.5 45.1414 12.5019 46.5972 12.5939 47.7224C12.6834 48.8184 12.8457 49.3789 13.045 49.7699C13.5243 50.7108 14.2892 51.4757 15.2301 51.955C15.621 52.1543 16.1816 52.3166 17.2776 52.4061C18.4028 52.4981 19.8586 52.5 22 52.5H38C40.1415 52.5 41.5972 52.4981 42.7224 52.4061C43.8184 52.3166 44.379 52.1543 44.77 51.955C45.7108 51.4757 46.4757 50.7108 46.955 49.7699C47.1543 49.3789 47.3166 48.8184 47.4061 47.7224C47.4981 46.5972 47.5 45.1414 47.5 43V22.5002L38.9203 22.5002C38.2893 22.5003 37.6748 22.5003 37.1544 22.4578C36.5829 22.4111 35.9086 22.301 35.23 21.9552C34.2892 21.4758 33.5243 20.7109 33.045 19.7701C32.6992 19.0916 32.5891 18.4172 32.5424 17.8458C32.4998 17.3253 32.4999 16.7109 32.5 16.0799L32.5 7.5H22C19.8586 7.5 18.4028 7.50195 17.2776 7.59388ZM37.5 11.0355L43.9646 17.5002H39C38.2587 17.5002 37.8531 17.4982 37.5616 17.4744C37.55 17.4735 37.539 17.4725 37.5286 17.4716C37.5277 17.4612 37.5267 17.4502 37.5258 17.4386C37.5019 17.1471 37.5 16.7415 37.5 16.0002V11.0355ZM30.4548 28.7949C29.7284 28.6703 28.9814 28.8068 28.346 29.1803C27.7106 29.5537 27.2278 30.14 26.9833 30.8352C26.5251 32.1377 25.0978 32.8221 23.7953 32.3639C22.4929 31.9057 21.8084 30.4785 22.2666 29.176C22.903 27.3668 24.1592 25.8413 25.8126 24.8696C27.466 23.8979 29.4099 23.5427 31.3001 23.8669C33.1903 24.1911 34.9048 25.1738 36.1399 26.641C37.3746 28.1078 38.0506 29.9642 38.048 31.8815C38.0469 35.081 35.6802 37.1377 34.1244 38.1749C33.2702 38.7444 32.4338 39.1608 31.8208 39.4332C31.5108 39.571 31.2489 39.6759 31.0587 39.7484C30.9634 39.7847 30.8855 39.8131 30.8279 39.8336L30.7568 39.8585L30.7331 39.8666L30.7244 39.8695L30.7209 39.8707C30.7201 39.8709 30.7178 39.8717 29.9633 37.6083L30.7178 39.8717C29.4079 40.3083 27.9921 39.6004 27.5555 38.2906C27.1197 36.983 27.8243 35.5698 29.1298 35.1306L29.1528 35.1225C29.1775 35.1137 29.2204 35.0982 29.2788 35.076C29.396 35.0313 29.5732 34.9606 29.7901 34.8642C30.2311 34.6682 30.7999 34.382 31.3509 34.0147C32.6051 33.1785 33.048 32.4256 33.048 31.8792L33.048 31.8755C33.0491 31.1385 32.7894 30.4248 32.3147 29.861C31.8401 29.2972 31.1812 28.9195 30.4548 28.7949ZM27.5 45C27.5 43.6193 28.6193 42.5 30 42.5H30.025C31.4057 42.5 32.525 43.6193 32.525 45C32.525 46.3807 31.4057 47.5 30.025 47.5H30C28.6193 47.5 27.5 46.3807 27.5 45Z" />
</svg>