<svg viewBox="0 0 24 24" fill="none" xmlns="http://www.w3.org/2000/svg">
    <path fill-rule="evenodd" clip-rule="evenodd"
        d="M10.09 4.05463C9.96938 4.01302 9.8127 3.99997 9.02229 3.99997H5.2C4.62345 3.99997 4.25117 4.00075 3.96784 4.0239C3.69617 4.04609 3.59546 4.08377 3.54601 4.10896C3.35785 4.20484 3.20487 4.35782 3.109 4.54598C3.0838 4.59542 3.04612 4.69614 3.02393 4.96781C3.00357 5.21695 3.00052 5.53487 3.00007 5.99997H11.382L10.99 5.2161C10.6366 4.50915 10.5548 4.37484 10.4637 4.28555C10.3578 4.18184 10.2301 4.10296 10.09 4.05463ZM13.618 5.99997L12.7789 4.32168C12.7602 4.28429 12.7417 4.24719 12.7234 4.2104C12.4586 3.67916 12.2258 3.21196 11.8631 2.85672C11.5454 2.54557 11.1625 2.30893 10.7421 2.16394C10.2622 1.99839 9.74022 1.99908 9.14666 1.99986C9.10555 1.99992 9.0641 1.99997 9.02229 1.99997L5.16146 1.99997C4.63431 1.99995 4.17955 1.99994 3.80497 2.03054C3.40963 2.06284 3.01641 2.13416 2.63803 2.32695C2.07354 2.61457 1.6146 3.07351 1.32698 3.638C1.13419 4.01638 1.06287 4.4096 1.03057 4.80494C0.999967 5.17952 0.999983 5.63428 1 6.16143L1 16.2413C0.999989 17.0462 0.999978 17.7106 1.0442 18.2518C1.09012 18.8139 1.18868 19.3306 1.43598 19.8159C1.81947 20.5686 2.43139 21.1805 3.18404 21.564C3.66938 21.8113 4.18608 21.9099 4.74818 21.9558C5.28937 22 5.95372 22 6.75868 22H17.2413C18.0463 22 18.7106 22 19.2518 21.9558C19.8139 21.9099 20.3306 21.8113 20.816 21.564C21.5686 21.1805 22.1805 20.5686 22.564 19.8159C22.8113 19.3306 22.9099 18.8139 22.9558 18.2518C23 17.7106 23 17.0463 23 16.2413V11.7586C23 10.9537 23 10.2893 22.9558 9.74815C22.9099 9.18605 22.8113 8.66934 22.564 8.18401C22.1805 7.43136 21.5686 6.81944 20.816 6.43595C20.3306 6.18865 19.8139 6.09009 19.2518 6.04417C18.7106 5.99995 18.0463 5.99996 17.2413 5.99997L13.618 5.99997ZM12.9799 7.99997C12.9938 8.00026 13.0077 8.00026 13.0217 7.99997H17.2C18.0566 7.99997 18.6389 8.00075 19.089 8.03752C19.5274 8.07334 19.7516 8.13827 19.908 8.21796C20.2843 8.40971 20.5903 8.71567 20.782 9.09199C20.8617 9.24839 20.9266 9.47259 20.9625 9.91101C20.9992 10.3611 21 10.9434 21 11.8V16.2C21 17.0566 20.9992 17.6388 20.9625 18.0889C20.9266 18.5273 20.8617 18.7516 20.782 18.908C20.5903 19.2843 20.2843 19.5902 19.908 19.782C19.7516 19.8617 19.5274 19.9266 19.089 19.9624C18.6389 19.9992 18.0566 20 17.2 20H6.8C5.94342 20 5.36113 19.9992 4.91104 19.9624C4.47262 19.9266 4.24842 19.8617 4.09202 19.782C3.7157 19.5902 3.40974 19.2843 3.21799 18.908C3.1383 18.7516 3.07337 18.5273 3.03755 18.0889C3.00078 17.6388 3 17.0566 3 16.2V7.99997H12.9799Z" />
</svg>
