<svg width="24" height="24" viewBox="0 0 24 24" fill="none" xmlns="http://www.w3.org/2000/svg">
<path d="M11.9993 21.4496L15.6838 10.0985H8.32019L11.9993 21.4496Z" fill="#E24329"/>
<path d="M3.1594 10.0985L2.03738 13.5471C1.93585 13.8603 2.0455 14.2059 2.31349 14.4011L11.9993 21.4496L3.1594 10.0985Z" fill="#FCA326"/>
<path d="M3.15942 10.0985H8.32019L6.09914 3.26231C5.98547 2.91256 5.49006 2.91256 5.3723 3.26231L3.15942 10.0985Z" fill="#E24329"/>
<path d="M20.8446 10.0985L21.9626 13.5471C22.0641 13.8603 21.9545 14.2059 21.6865 14.4011L11.9993 21.4496L20.8446 10.0985Z" fill="#FCA326"/>
<path d="M20.8446 10.0985H15.6838L17.9008 3.26231C18.0145 2.91256 18.5099 2.91256 18.6276 3.26231L20.8446 10.0985Z" fill="#E24329"/>
<path d="M11.9993 21.4496L15.6838 10.0985H20.8446L11.9993 21.4496Z" fill="#FC6D26"/>
<path d="M11.9993 21.4496L3.15942 10.0985H8.32019L11.9993 21.4496Z" fill="#FC6D26"/>
</svg>
