<svg width="40" height="41" viewBox="0 0 40 41" fill="none" xmlns="http://www.w3.org/2000/svg">
<path fill-rule="evenodd" clip-rule="evenodd" d="M19.671 8.03408L19.6711 8.03409L19.671 8.03408ZM20 8.19672L32.9399 14.6667L32.6203 14.8265C32.5993 14.8364 32.5785 14.8468 32.558 14.8576L28.3333 16.9699L20.7454 13.176C19.9221 12.7643 18.9209 13.098 18.5093 13.9213C18.0976 14.7446 18.4314 15.7457 19.2546 16.1574L24.6066 18.8333L20 21.1366L7.44201 14.8576C7.4215 14.8468 7.40074 14.8364 7.37974 14.8265L7.06012 14.6667L20 8.19672ZM5 17.3634L2.58798 16.1574C2.02334 15.8751 1.66667 15.298 1.66667 14.6667C1.66667 14.0354 2.02334 13.4583 2.58798 13.176L18.6584 5.14077C18.6707 5.13459 18.685 5.12732 18.701 5.11914C18.8565 5.0398 19.1783 4.87558 19.539 4.8079C19.8437 4.75074 20.1563 4.75074 20.461 4.8079C20.8217 4.87558 21.1435 5.0398 21.299 5.11915C21.315 5.12732 21.3293 5.13459 21.3416 5.14077L37.412 13.176C37.9767 13.4583 38.3333 14.0354 38.3333 14.6667C38.3333 15.298 37.9767 15.8751 37.412 16.1574L35 17.3634V27.6777C35 27.7202 35.0002 27.7638 35.0003 27.8086C35.0022 28.2846 35.0046 28.8828 34.8066 29.4383C34.6356 29.9181 34.357 30.3523 33.9921 30.7076C33.5696 31.119 33.0248 31.3661 32.5913 31.5628C32.5505 31.5812 32.5108 31.5993 32.4722 31.617L21.8055 36.5059C21.7778 36.5186 21.7493 36.5317 21.7201 36.5452C21.4038 36.6913 21.0056 36.8752 20.5702 36.9508C20.1929 37.0163 19.8071 37.0163 19.4298 36.9508C18.9944 36.8752 18.5962 36.6913 18.2799 36.5452C18.2507 36.5317 18.2222 36.5186 18.1945 36.5059L7.52783 31.617L8.22226 30.1019L7.52783 31.617C7.48923 31.5993 7.44946 31.5812 7.4087 31.5628C6.97517 31.3661 6.43044 31.119 6.00793 30.7076C5.64301 30.3523 5.36437 29.9181 5.1934 29.4383C4.99545 28.8828 4.99779 28.2846 4.99966 27.8086C4.99983 27.7638 5 27.7202 5 27.6777V17.3634ZM8.33334 19.0301V27.6777C8.33334 28.0084 8.33412 28.179 8.34202 28.3025C8.34226 28.3063 8.34251 28.3099 8.34275 28.3133C8.34578 28.315 8.34897 28.3167 8.35231 28.3185C8.46126 28.3772 8.61609 28.449 8.91669 28.5868L19.5833 33.4756C19.8021 33.5759 19.9121 33.6258 19.9937 33.6584C19.9959 33.6593 19.998 33.6601 20 33.6609C20.002 33.6601 20.0041 33.6593 20.0063 33.6584C20.0879 33.6258 20.1979 33.5759 20.4167 33.4756L31.0833 28.5868C31.3839 28.449 31.5388 28.3772 31.6477 28.3185C31.651 28.3167 31.6542 28.315 31.6573 28.3133C31.6575 28.3099 31.6577 28.3063 31.658 28.3025C31.6659 28.1791 31.6667 28.0084 31.6667 27.6777V19.0301L30 19.8634V24.6667C30 25.5871 29.2538 26.3333 28.3333 26.3333C27.4129 26.3333 26.6667 25.5871 26.6667 24.6667V21.5301L21.3416 24.1926C21.3293 24.1987 21.315 24.206 21.299 24.2142C21.1435 24.2935 20.8217 24.4578 20.461 24.5254C20.1563 24.5826 19.8437 24.5826 19.539 24.5254C19.1783 24.4578 18.8565 24.2935 18.701 24.2142C18.685 24.206 18.6707 24.1987 18.6584 24.1926L8.33334 19.0301ZM19.671 21.2993C19.6707 21.2994 19.6707 21.2994 19.6711 21.2992L19.671 21.2993ZM20.3289 21.2992C20.3293 21.2994 20.3293 21.2994 20.329 21.2993L20.3289 21.2992ZM20.3289 8.03409L20.329 8.03408L20.3289 8.03409Z" fill="#7A3EF4"/>
</svg>
