<svg viewBox="0 0 24 24" fill="black" xmlns="http://www.w3.org/2000/svg">
    <path fill-rule="evenodd" clip-rule="evenodd"
        d="M9.66438 2.01352C10.2092 2.10431 10.5772 2.61954 10.4864 3.16431L9.84711 6.99991H15.8195L16.5136 2.83551C16.6044 2.29074 17.1196 1.92272 17.6644 2.01352C18.2091 2.10431 18.5772 2.61954 18.4864 3.16431L17.8471 6.99991H20.5C21.0523 6.99991 21.5 7.44763 21.5 7.99991C21.5 8.5522 21.0523 8.99991 20.5 8.99991H17.5138L16.5138 14.9999H19.5C20.0523 14.9999 20.5 15.4476 20.5 15.9999C20.5 16.5522 20.0523 16.9999 19.5 16.9999H16.1804L15.4864 21.1643C15.3956 21.7091 14.8803 22.0771 14.3356 21.9863C13.7908 21.8955 13.4228 21.3803 13.5136 20.8355L14.1528 16.9999H8.18045L7.48638 21.1643C7.39558 21.7091 6.88036 22.0771 6.33559 21.9863C5.79082 21.8955 5.4228 21.3803 5.51359 20.8355L6.15286 16.9999H2.5C1.94772 16.9999 1.5 16.5522 1.5 15.9999C1.5 15.4476 1.94772 14.9999 2.5 14.9999H6.48619L7.48619 8.99991H3.5C2.94772 8.99991 2.5 8.5522 2.5 7.99991C2.5 7.44763 2.94772 6.99991 3.5 6.99991H7.81953L8.51359 2.83551C8.60439 2.29074 9.11961 1.92272 9.66438 2.01352ZM9.51378 8.99991L8.51378 14.9999H14.4862L15.4862 8.99991H9.51378Z" />
</svg>
