<svg viewBox="0 0 24 24" fill="none" xmlns="http://www.w3.org/2000/svg">
    <path fill-rule="evenodd" clip-rule="evenodd"
        d="M11.8026 4.52039L11.8026 4.52039L11.8026 4.52039ZM12 4.61798L19.7639 8.49994L19.5721 8.59583C19.5596 8.6018 19.5471 8.60803 19.5348 8.6145L17 9.88191L12.4472 7.60552C11.9532 7.35853 11.3526 7.55875 11.1056 8.05273C10.8586 8.54671 11.0588 9.14738 11.5528 9.39437L14.7639 10.9999L12 12.3819L4.4652 8.61451C4.4529 8.60803 4.44044 8.6018 4.42784 8.59583L4.23607 8.49994L12 4.61798ZM3 10.118L1.55279 9.39437C1.214 9.22498 1 8.87872 1 8.49994C1 8.12117 1.214 7.77491 1.55279 7.60552L11.195 2.7844C11.2024 2.7807 11.211 2.77633 11.2206 2.77143C11.3139 2.72382 11.507 2.62529 11.7234 2.58468C11.9062 2.55039 12.0938 2.55039 12.2766 2.58468C12.493 2.62529 12.6861 2.72382 12.7794 2.77143C12.789 2.77633 12.7976 2.7807 12.805 2.7844L22.4472 7.60552C22.786 7.77491 23 8.12117 23 8.49994C23 8.87872 22.786 9.22498 22.4472 9.39437L21 10.118V16.3066C21 16.332 21.0001 16.3582 21.0002 16.3851C21.0013 16.6707 21.0027 17.0296 20.884 17.3629C20.7814 17.6508 20.6142 17.9113 20.3952 18.1245C20.1417 18.3713 19.8149 18.5196 19.5548 18.6376C19.5303 18.6487 19.5065 18.6595 19.4833 18.6701L13.0833 21.6035C13.0667 21.6111 13.0496 21.619 13.0321 21.6271C12.8423 21.7147 12.6034 21.8251 12.3421 21.8704C12.1157 21.9097 11.8843 21.9097 11.6579 21.8704C11.3966 21.8251 11.1577 21.7147 10.9679 21.6271C10.9504 21.619 10.9333 21.6111 10.9167 21.6035L4.5167 18.6701L4.93335 17.7611L4.51669 18.6701C4.49354 18.6595 4.46967 18.6487 4.44522 18.6376C4.1851 18.5196 3.85826 18.3713 3.60476 18.1245C3.3858 17.9113 3.21862 17.6508 3.11604 17.3629C2.99727 17.0296 2.99867 16.6707 2.99979 16.3851C2.9999 16.3582 3 16.332 3 16.3066V10.118ZM5 11.118V16.3066C5 16.505 5.00047 16.6074 5.00521 16.6814C5.00536 16.6837 5.0055 16.6859 5.00565 16.688C5.00747 16.6889 5.00938 16.69 5.01138 16.6911C5.07675 16.7262 5.16965 16.7693 5.35001 16.852L11.75 19.7853C11.8813 19.8455 11.9473 19.8754 11.9962 19.895C11.9975 19.8955 11.9988 19.896 12 19.8965C12.0012 19.896 12.0025 19.8955 12.0038 19.895C12.0527 19.8754 12.1187 19.8455 12.25 19.7853L18.65 16.852C18.8304 16.7693 18.9233 16.7262 18.9886 16.6911C18.9906 16.69 18.9925 16.6889 18.9944 16.688C18.9945 16.6859 18.9946 16.6837 18.9948 16.6814C18.9995 16.6074 19 16.505 19 16.3066V11.118L18 11.618V14.4999C18 15.0522 17.5523 15.4999 17 15.4999C16.4477 15.4999 16 15.0522 16 14.4999V12.618L12.805 14.2155C12.7976 14.2192 12.789 14.2236 12.7794 14.2285C12.6861 14.2761 12.493 14.3746 12.2766 14.4152C12.0938 14.4495 11.9062 14.4495 11.7234 14.4152C11.507 14.3746 11.3139 14.2761 11.2206 14.2285C11.211 14.2236 11.2024 14.2192 11.195 14.2155L5 11.118ZM11.8026 12.4795C11.8024 12.4796 11.8024 12.4796 11.8026 12.4795L11.8026 12.4795ZM12.1974 12.4795C12.1976 12.4796 12.1976 12.4796 12.1974 12.4795L12.1974 12.4795ZM12.1974 4.52039L12.1974 4.52039L12.1974 4.52039Z" />
</svg>
