<svg viewBox="0 0 24 24" fill="black" xmlns="http://www.w3.org/2000/svg">
    <path fill-rule="evenodd" clip-rule="evenodd"
        d="M11.4909 1.31589C11.8246 1.22804 12.1754 1.22804 12.5091 1.31589C12.8964 1.41782 13.2249 1.66653 13.487 1.8649C13.5119 1.88378 13.5363 1.9022 13.56 1.92L14.1669 2.37517C14.2433 2.4319 14.3206 2.49009 14.3993 2.5493C14.4381 2.57848 14.4772 2.60791 14.5167 2.63752C14.5178 2.63835 14.5189 2.63917 14.52 2.64L20.6 7.2C20.5999 7.19995 20.6001 7.20005 20.6 7.2L22.6 8.7C23.0418 9.03137 23.1314 9.65817 22.8 10.1C22.4686 10.5418 21.8418 10.6314 21.4 10.3L21 10V17.8386C21 18.3657 21 18.8205 20.9694 19.195C20.9371 19.5904 20.8658 19.9836 20.673 20.362C20.3854 20.9265 19.9265 21.3854 19.362 21.673C18.9836 21.8658 18.5904 21.9371 18.195 21.9694C17.8205 22 17.3657 22 16.8386 22H7.16143C6.6343 22 6.17954 22 5.80497 21.9694C5.40963 21.9371 5.01641 21.8658 4.63803 21.673C4.07355 21.3854 3.6146 20.9265 3.32698 20.362C3.13419 19.9836 3.06287 19.5904 3.03057 19.195C2.99997 18.8205 2.99998 18.3657 3 17.8385L3 10L2.6 10.3C2.15817 10.6314 1.53137 10.5418 1.2 10.1C0.868627 9.65817 0.95817 9.03137 1.4 8.7L9.48 2.64C9.48167 2.63875 9.48334 2.6375 9.485 2.63625C9.52391 2.60706 9.56245 2.57806 9.60067 2.5493C9.67935 2.49011 9.75669 2.43192 9.83307 2.3752L10.44 1.92C10.4637 1.9022 10.4881 1.88378 10.513 1.8649C10.7751 1.66653 11.1036 1.41782 11.4909 1.31589ZM5 8.5V17.8C5 18.3766 5.00078 18.7488 5.02393 19.0322C5.04612 19.3038 5.0838 19.4045 5.109 19.454C5.20487 19.6422 5.35785 19.7951 5.54601 19.891C5.59546 19.9162 5.69617 19.9539 5.96784 19.9761C6.25117 19.9992 6.62345 20 7.2 20H8L8 13.5681C7.99997 13.3157 7.99994 13.0699 8.01695 12.8618C8.03562 12.6332 8.07969 12.3634 8.21799 12.092C8.40973 11.7157 8.7157 11.4097 9.09202 11.218C9.36345 11.0797 9.63318 11.0356 9.86177 11.0169C10.0699 10.9999 10.3157 11 10.5681 11H13.4319C13.6843 11 13.9301 10.9999 14.1382 11.0169C14.3668 11.0356 14.6366 11.0797 14.908 11.218C15.2843 11.4097 15.5903 11.7157 15.782 12.092C15.9203 12.3634 15.9644 12.6332 15.9831 12.8618C16.0001 13.0699 16 13.3157 16 13.5681L16 20H16.8C17.3766 20 17.7488 19.9992 18.0322 19.9761C18.3038 19.9539 18.4045 19.9162 18.454 19.891C18.6422 19.7951 18.7951 19.6422 18.891 19.454C18.9162 19.4045 18.9539 19.3038 18.9761 19.0322C18.9992 18.7488 19 18.3766 19 17.8V8.5L13.32 4.24C12.5603 3.67022 12.3976 3.57061 12.2546 3.53295C12.0877 3.48902 11.9123 3.48902 11.7454 3.53295C11.6024 3.57061 11.4397 3.67022 10.68 4.24L5 8.5ZM14 20V13.6C14 13.3035 13.9992 13.1412 13.9897 13.0246C13.9893 13.02 13.9889 13.0156 13.9886 13.0114C13.9844 13.0111 13.98 13.0107 13.9754 13.0103C13.8588 13.0008 13.6965 13 13.4 13H10.6C10.3035 13 10.1412 13.0008 10.0246 13.0103C10.02 13.0107 10.0156 13.0111 10.0115 13.0114C10.0111 13.0156 10.0107 13.02 10.0103 13.0246C10.0008 13.1412 10 13.3035 10 13.6V20H14Z" />
</svg>
