<svg viewBox="0 0 24 24" fill="currentColor" xmlns="http://www.w3.org/2000/svg">
    <path
        d="M18 3.59962C18 3.30334 17.9988 3.14096 17.9892 3.02443C17.9889 3.01994 17.9876 3.01576 17.9873 3.01173C17.9836 3.01139 17.9797 3.01109 17.9756 3.01076C17.859 3.00124 17.6966 3.00001 17.4004 3.00001H6.59958C6.30331 3.00001 6.14092 3.00124 6.02439 3.01076C6.01993 3.01112 6.0157 3.01136 6.01169 3.01173C6.01132 3.01574 6.01108 3.01997 6.01072 3.02443C6.0012 3.14096 5.99998 3.30334 5.99997 3.59962V5.67482C5.99998 6.21135 6.00612 6.31699 6.02732 6.40529C6.05182 6.50726 6.09264 6.60493 6.14744 6.69435C6.19489 6.77172 6.26533 6.85131 6.64451 7.23048L9.57615 10.1611C9.76247 10.3475 9.94507 10.5294 10.0859 10.6953C10.2343 10.8702 10.3941 11.0921 10.4883 11.3819C10.6188 11.7835 10.6188 12.2165 10.4883 12.6182C10.3941 12.9079 10.2343 13.1299 10.0859 13.3047C9.94507 13.4706 9.76247 13.6526 9.57615 13.8389L6.64451 16.7695C6.26533 17.1487 6.19489 17.2283 6.14744 17.3057C6.09264 17.3951 6.05182 17.4928 6.02732 17.5947C6.00612 17.683 5.99998 17.7887 5.99997 18.3252V20.4004C5.99998 20.6967 6.0012 20.8591 6.01072 20.9756C6.01105 20.9797 6.01135 20.9836 6.01169 20.9873C6.01572 20.9877 6.0199 20.9889 6.02439 20.9893C6.14092 20.9988 6.30331 21 6.59958 21H17.4004C17.6966 21 17.859 20.9988 17.9756 20.9893C17.9797 20.9889 17.9835 20.9877 17.9873 20.9873C17.9876 20.9836 17.9889 20.9797 17.9892 20.9756C17.9988 20.8591 18 20.6967 18 20.4004V18.3252C18 17.7887 17.9938 17.683 17.9726 17.5947C17.9481 17.4928 17.9073 17.3951 17.8525 17.3057C17.8051 17.2283 17.7346 17.1487 17.3554 16.7695L14.4238 13.8389C14.2375 13.6526 14.0549 13.4706 13.914 13.3047C13.7656 13.1299 13.6058 12.9079 13.5117 12.6182C13.3812 12.2165 13.3812 11.7835 13.5117 11.3819C13.6058 11.0921 13.7656 10.8702 13.914 10.6953C14.0549 10.5294 14.2375 10.3475 14.4238 10.1611L17.3554 7.23048C17.7346 6.85131 17.8051 6.77172 17.8525 6.69435C17.9073 6.60493 17.9481 6.50726 17.9726 6.40529C17.9938 6.31698 18 6.21135 18 5.67482V3.59962ZM15 17.5C15.5523 17.5 16 17.9477 16 18.5C16 19.0523 15.5523 19.5 15 19.5H8.99997C8.44769 19.5 7.99997 19.0523 7.99997 18.5C7.99997 17.9477 8.44769 17.5 8.99997 17.5H15ZM20 5.67482C20 6.11628 20.0063 6.50013 19.917 6.87208C19.8435 7.17813 19.722 7.47091 19.5576 7.73927C19.3577 8.06537 19.0817 8.33239 18.7695 8.64455L15.8388 11.5762C15.6292 11.7858 15.5142 11.9011 15.4385 11.9902C15.4356 11.9936 15.4332 11.997 15.4306 12C15.4332 12.0031 15.4356 12.0064 15.4385 12.0098C15.5142 12.099 15.6292 12.2142 15.8388 12.4238L18.7695 15.3555C19.0817 15.6676 19.3577 15.9347 19.5576 16.2608C19.722 16.5291 19.8435 16.8219 19.917 17.1279C20.0063 17.4999 20 17.8837 20 18.3252V20.4004C20 20.6638 20.0011 20.9219 19.9834 21.1387C19.9647 21.3672 19.9204 21.637 19.7822 21.9082C19.5905 22.2845 19.2844 22.5905 18.9082 22.7822C18.6369 22.9205 18.3672 22.9647 18.1386 22.9834C17.9218 23.0011 17.6638 23 17.4004 23H6.59958C6.33619 23 6.07811 23.0011 5.8613 22.9834C5.6328 22.9647 5.36303 22.9205 5.09177 22.7822C4.71552 22.5905 4.40948 22.2845 4.21775 21.9082C4.07953 21.637 4.03527 21.3672 4.01658 21.1387C3.99886 20.9219 3.99997 20.6638 3.99997 20.4004V18.3252C3.99997 17.8837 3.99368 17.4999 4.08298 17.1279C4.15648 16.8219 4.2779 16.5291 4.44236 16.2608C4.64225 15.9347 4.91828 15.6676 5.23044 15.3555L8.16111 12.4238C8.37077 12.2142 8.4858 12.099 8.5615 12.0098C8.56419 12.0066 8.56593 12.0029 8.56833 12C8.56593 11.9971 8.56419 11.9934 8.5615 11.9902C8.4858 11.9011 8.37077 11.7858 8.16111 11.5762L5.23044 8.64455C4.91829 8.33239 4.64225 8.06537 4.44236 7.73927C4.2779 7.47091 4.15648 7.17813 4.08298 6.87208C3.99368 6.50013 3.99997 6.11628 3.99997 5.67482V3.59962C3.99997 3.33623 3.99886 3.07815 4.01658 2.86134C4.03527 2.63284 4.07953 2.36307 4.21775 2.09181C4.40948 1.71556 4.71552 1.40952 5.09177 1.21779C5.36303 1.07957 5.6328 1.03531 5.8613 1.01662C6.07811 0.998901 6.33619 1.00001 6.59958 1.00001H17.4004C17.6638 1.00001 17.9218 0.998901 18.1386 1.01662C18.3672 1.03531 18.6369 1.07957 18.9082 1.21779C19.2374 1.38556 19.5129 1.64086 19.7051 1.95412L19.7822 2.09181L19.8691 2.29494C19.9406 2.49578 19.9694 2.69006 19.9834 2.86134C20.0011 3.07815 20 3.33623 20 3.59962V5.67482Z" />
</svg>