<svg width="24" height="24" viewBox="0 0 24 24" fill="none" xmlns="http://www.w3.org/2000/svg">
<path d="M21.9315 15.6039C21.8794 15.4077 21.7949 15.2216 21.6816 15.053C21.7058 14.9641 21.7243 14.8739 21.7367 14.7828C21.8171 14.2044 21.616 13.6749 21.2368 13.2651C21.0314 13.0414 20.8113 12.8937 20.5781 12.803C20.7312 12.1503 20.8086 11.4824 20.809 10.8122C20.809 10.5061 20.7917 10.2063 20.7625 9.91088C20.7473 9.76338 20.7289 9.61616 20.7075 9.46943C20.6407 9.03651 20.5416 8.60913 20.4111 8.19088C20.3255 7.91607 20.2266 7.64558 20.1146 7.38039C19.9467 6.98766 19.7507 6.60746 19.528 6.24275C19.3818 6.00017 19.2228 5.76556 19.0514 5.53998C18.9674 5.42606 18.8799 5.31484 18.7888 5.20645C18.519 4.87964 18.226 4.57276 17.9116 4.28824C17.8073 4.19259 17.7 4.10025 17.5898 4.01133C17.4813 3.92114 17.3704 3.83384 17.2573 3.74952C17.0296 3.58061 16.7942 3.42213 16.552 3.27459C15.2138 2.46448 13.6444 2 11.9671 2C7.08342 2 3.12521 5.94523 3.12521 10.8125C3.12508 11.4912 3.20397 12.1676 3.3603 12.828C3.15055 12.9188 2.94944 13.0602 2.76309 13.2649C2.38398 13.6744 2.18277 14.2021 2.26328 14.7804C2.27541 14.8724 2.29386 14.9634 2.31834 15.0528C2.20508 15.2215 2.12062 15.4077 2.06838 15.6039C1.95185 16.0453 1.99021 16.4434 2.1383 16.7921C1.97739 17.2481 2.01759 17.7336 2.22725 18.1557C2.37971 18.4639 2.59791 18.7023 2.8668 18.9156C3.18658 19.1688 3.58686 19.3842 4.06977 19.5906C4.64582 19.8355 5.34888 20.0656 5.66866 20.15C6.49466 20.3632 7.28667 20.4983 8.08945 20.5048C9.23299 20.5154 10.2179 20.2473 10.9231 19.5614C11.2694 19.6037 11.6181 19.6249 11.9671 19.6248C12.3358 19.624 12.7041 19.6008 13.07 19.5555C13.7735 20.2458 14.7621 20.5163 15.9099 20.5054C16.7125 20.4991 17.5046 20.364 18.3284 20.1505C18.6503 20.0661 19.3532 19.836 19.9295 19.5912C20.4124 19.3843 20.8126 19.169 21.1346 18.916C21.4015 18.7029 21.6195 18.4644 21.7721 18.1562C21.9838 17.7341 22.022 17.2486 21.8631 16.7926C22.0099 16.4439 22.0479 16.0449 21.9315 15.6039ZM21.112 16.7626C21.2743 17.0695 21.2847 17.4163 21.1414 17.7393C20.9243 18.2288 20.385 18.6143 19.3375 19.0283C18.6862 19.2859 18.0896 19.4504 18.0844 19.4519C17.2228 19.6746 16.4436 19.7877 15.7691 19.7877C14.6522 19.7877 13.8211 19.4806 13.294 18.8739C12.4027 19.0252 11.4925 19.0303 10.5995 18.8891C10.0718 19.4857 9.24533 19.7877 8.13781 19.7877C7.46321 19.7877 6.68411 19.6746 5.82257 19.4519C5.81723 19.4504 5.22109 19.2859 4.56949 19.0283C3.52199 18.6143 2.98255 18.229 2.76552 17.7393C2.62228 17.4163 2.63267 17.0695 2.79494 16.7626C2.80999 16.7342 2.82602 16.7063 2.8432 16.6795C2.74594 16.5339 2.68071 16.3694 2.65178 16.1969C2.62287 16.0244 2.63092 15.8477 2.6754 15.6785C2.73988 15.4344 2.87311 15.2314 3.05393 15.0855C2.96686 14.9428 2.90971 14.7841 2.88593 14.6188C2.83388 14.2593 2.95352 13.9003 3.2229 13.6078C3.43255 13.38 3.72902 13.2547 4.05734 13.2547H4.06608C3.81858 12.464 3.69308 11.6405 3.69387 10.8123C3.69387 6.29502 7.36814 2.63279 11.9008 2.63279C16.4336 2.63279 20.1078 6.29473 20.1078 10.8123C20.1084 11.6427 19.9821 12.4684 19.7331 13.2609C19.7727 13.257 19.8115 13.255 19.8496 13.255C20.1778 13.255 20.4744 13.3802 20.6841 13.6079C20.9532 13.9003 21.0732 14.2596 21.021 14.619C20.9972 14.7843 20.9401 14.9431 20.853 15.0858C21.0338 15.2315 21.1671 15.4346 21.2316 15.6788C21.2759 15.848 21.284 16.0246 21.2551 16.1972C21.2261 16.3697 21.161 16.5341 21.0638 16.6798C21.0809 16.7063 21.0972 16.7342 21.112 16.7626Z" fill="white"/>
<path d="M21.0637 16.6798C21.1609 16.5342 21.2261 16.3697 21.255 16.1972C21.284 16.0247 21.2759 15.848 21.2315 15.6789C21.167 15.4348 21.0338 15.2317 20.853 15.0858C20.94 14.9432 20.9972 14.7844 21.021 14.6191C21.073 14.2597 20.9534 13.9007 20.684 13.6081C20.4744 13.3804 20.1778 13.255 19.8496 13.255C19.8114 13.255 19.7727 13.2569 19.733 13.2609C19.9817 12.4684 20.1079 11.6427 20.1071 10.8124C20.1071 6.29525 16.4328 2.63293 11.9005 2.63293C7.3682 2.63293 3.69354 6.29486 3.69354 10.8124C3.69275 11.6406 3.81825 12.4642 4.06575 13.2548H4.05701C3.72879 13.2548 3.43232 13.3802 3.22266 13.6079C2.95348 13.9003 2.83365 14.2595 2.8857 14.6189C2.90946 14.7842 2.96661 14.943 3.05369 15.0856C2.87288 15.2315 2.73965 15.4346 2.67526 15.6788C2.63081 15.8479 2.62279 16.0247 2.65174 16.1972C2.6807 16.3697 2.74597 16.5343 2.84326 16.6798C2.82588 16.7066 2.80995 16.7345 2.795 16.763C2.63283 17.0699 2.62234 17.4167 2.76557 17.7396C2.98261 18.2291 3.52205 18.6148 4.56955 19.0286C5.22085 19.2862 5.81738 19.4507 5.82263 19.4523C6.68417 19.675 7.46327 19.7881 8.13778 19.7881C9.24539 19.7881 10.0718 19.4862 10.5996 18.8895C11.4926 19.0307 12.4028 19.0255 13.2941 18.8743C13.8211 19.4809 14.6523 19.7881 15.7692 19.7881C16.4437 19.7881 17.2229 19.675 18.0844 19.4523C18.0897 19.4507 18.6859 19.2862 19.3375 19.0286C20.385 18.6148 20.9245 18.2291 21.1415 17.7396C21.2847 17.4167 21.2743 17.0699 21.1121 16.763C21.0972 16.7342 21.0809 16.7064 21.0637 16.6798ZM10.2219 17.9555C10.1765 18.0347 10.1278 18.1121 10.076 18.1873C9.93952 18.3864 9.76006 18.5384 9.55186 18.6516C9.15362 18.8679 8.64973 18.9436 8.13768 18.9436C7.32897 18.9436 6.49986 18.7549 6.0351 18.6347C6.01228 18.6288 3.18654 17.8333 3.54428 17.1562C3.60449 17.0424 3.70364 16.9969 3.82832 16.9969C4.33202 16.9969 5.24922 17.7445 5.64347 17.7445C5.73145 17.7445 5.79359 17.707 5.81894 17.6159C5.98694 17.0154 3.26568 16.763 3.49485 15.8934C3.53535 15.7395 3.64498 15.6771 3.79929 15.6771C4.46516 15.677 5.95984 16.8443 6.27243 16.8443C6.29642 16.8443 6.31361 16.8373 6.32293 16.8226L6.32701 16.8159C6.47364 16.5744 6.38954 16.3988 5.38428 15.7852L5.28776 15.7267C4.1817 15.0593 3.40522 14.6578 3.84687 14.1787C3.89766 14.1234 3.96962 14.0989 4.05711 14.0989C4.16092 14.0989 4.28648 14.1335 4.42476 14.1915C5.00896 14.4371 5.81865 15.1067 6.15687 15.3988C6.2566 15.4854 6.31535 15.5382 6.31535 15.5382C6.31535 15.5382 6.7436 15.9821 7.00259 15.9821C7.06221 15.9821 7.11271 15.9588 7.14699 15.9008C7.33071 15.5922 5.44148 14.1654 5.33495 13.5767C5.2628 13.1778 5.38564 12.9758 5.61297 12.9758C5.72096 12.9758 5.85283 13.0216 5.99839 13.1136C6.44995 13.3993 7.32178 14.8926 7.64097 15.4734C7.74799 15.6681 7.93065 15.7504 8.09525 15.7504C8.42182 15.7504 8.67712 15.4268 8.12515 15.0157C7.29556 14.3969 7.58669 13.3857 7.9826 13.3234C7.9995 13.3208 8.01659 13.3195 8.03358 13.3194C8.39366 13.3194 8.55253 13.9378 8.55253 13.9378C8.55253 13.9378 9.01797 15.103 9.81765 15.8993C10.5433 16.6222 10.6446 17.2155 10.2219 17.9555ZM12.8078 18.0919L12.7663 18.0969L12.6955 18.105C12.6583 18.1088 12.6212 18.1125 12.5838 18.1159L12.5473 18.1192L12.514 18.122L12.4668 18.1258C12.4494 18.1271 12.432 18.1284 12.4146 18.1295L12.3626 18.133L12.3511 18.1337L12.3101 18.1361L12.2927 18.1369L12.2442 18.1394L12.1878 18.1417L12.1365 18.1434L12.1023 18.1444H12.085C12.0743 18.1444 12.0638 18.145 12.0531 18.1451H12.0361C12.0254 18.1451 12.0148 18.1451 12.0041 18.1457L11.9607 18.1461H11.8999C11.8523 18.1461 11.8048 18.1457 11.7573 18.1448L11.7188 18.1439C11.708 18.1439 11.697 18.1433 11.6861 18.143L11.6454 18.1418L11.5947 18.1399L11.5492 18.1379L11.5373 18.1374L11.4939 18.1351C11.4819 18.1344 11.4698 18.1339 11.4579 18.1331L11.4298 18.1314C11.3946 18.1292 11.3593 18.1267 11.3241 18.124L11.2872 18.1211L11.2406 18.1171L11.1861 18.1121C11.1557 18.1093 11.1253 18.1062 11.0949 18.1028H11.0935C11.5372 17.116 11.3128 16.1945 10.416 15.3014C9.82794 14.716 9.4366 13.8514 9.35551 13.6616C9.19121 13.0998 8.75626 12.4752 8.03407 12.4752C7.97299 12.4753 7.9121 12.4801 7.8518 12.4896C7.53532 12.5392 7.25876 12.7207 7.06143 12.9939C6.84828 12.7296 6.64096 12.5194 6.45354 12.4007C6.17095 12.2222 5.88905 12.1316 5.61424 12.1316C5.27144 12.1316 4.96487 12.2719 4.75124 12.5265L4.7459 12.533L4.73385 12.4826L4.73337 12.4804C4.69274 12.3072 4.65861 12.1324 4.63102 11.9566C4.63102 11.9554 4.63102 11.9542 4.63043 11.953L4.62441 11.9133C4.62116 11.8918 4.61799 11.8702 4.6149 11.8487C4.61237 11.8308 4.60985 11.8129 4.60752 11.7951C4.60519 11.7773 4.60266 11.7594 4.60053 11.7415C4.59819 11.7235 4.59606 11.7056 4.59392 11.6876C4.59187 11.6706 4.5899 11.6536 4.588 11.6365L4.58743 11.6322C4.57867 11.5536 4.57116 11.4749 4.56489 11.3961L4.56149 11.3505C4.56052 11.338 4.55964 11.3255 4.55887 11.3128C4.55887 11.3099 4.55848 11.3069 4.55828 11.3042L4.55509 11.2537C4.55392 11.2354 4.55304 11.2171 4.55207 11.1988C4.5511 11.1806 4.55013 11.1623 4.54935 11.1439L4.54741 11.096L4.54682 11.0815L4.54537 11.0371L4.54431 10.9996C4.54431 10.9846 4.54362 10.9695 4.54333 10.9545L4.54255 10.9072C4.54236 10.8914 4.54255 10.8757 4.54216 10.8599C4.54168 10.844 4.54216 10.8283 4.54216 10.8124C4.54216 6.76166 7.83713 3.47758 11.9017 3.47758C15.9662 3.47758 19.2611 6.76147 19.2611 10.8124V10.9072C19.2611 10.9229 19.2607 10.9388 19.2603 10.9545C19.2603 10.9676 19.2598 10.9805 19.2595 10.9937C19.2595 11.0054 19.259 11.017 19.2585 11.0283C19.2585 11.0431 19.2576 11.0579 19.2571 11.0727V11.0739C19.2559 11.1061 19.2545 11.1382 19.2531 11.1703L19.2526 11.181L19.25 11.229L19.2477 11.267C19.2423 11.3571 19.2352 11.4472 19.2265 11.5371V11.5384C19.225 11.5552 19.2232 11.5722 19.2214 11.589C19.2171 11.6282 19.2127 11.6674 19.2084 11.7066L19.2034 11.746L19.1973 11.7923C19.1952 11.8092 19.1928 11.826 19.1904 11.8429C19.1878 11.8618 19.185 11.8805 19.1823 11.8993L19.1755 11.9436L19.1675 11.994C19.1648 12.0107 19.1621 12.0274 19.1588 12.0441C19.1555 12.0608 19.153 12.0774 19.1501 12.0942C19.1443 12.1274 19.1383 12.1606 19.1318 12.1938C19.1188 12.2599 19.1053 12.3259 19.0911 12.3917C19.0875 12.408 19.0838 12.4245 19.08 12.4408C18.8729 12.2402 18.5986 12.1309 18.296 12.1309C18.0215 12.1309 17.7393 12.2214 17.4568 12.4C17.2693 12.5187 17.0622 12.7289 16.8488 12.9932C16.6512 12.72 16.3747 12.5385 16.0586 12.4888C15.9983 12.4795 15.9373 12.4746 15.8762 12.4745C15.1538 12.4745 14.7192 13.0991 14.5548 13.6609C14.4733 13.8507 14.0819 14.7152 13.4932 15.3016C12.5971 16.1918 12.3709 17.1093 12.8078 18.0919ZM20.4055 16.1167L20.4026 16.1253C20.4006 16.1308 20.3985 16.1364 20.3963 16.1418C20.3928 16.15 20.3891 16.158 20.3852 16.1661C20.3758 16.1852 20.3651 16.2038 20.3534 16.2216C20.3372 16.2457 20.3194 16.2688 20.3001 16.2904C20.2956 16.2955 20.2913 16.3004 20.2863 16.3054C20.2795 16.3128 20.2722 16.3201 20.265 16.3273C20.1342 16.4565 19.9349 16.5697 19.7096 16.6736C19.6841 16.6851 19.6583 16.6967 19.6321 16.7082L19.606 16.7197C19.5886 16.7273 19.5714 16.735 19.5531 16.7424C19.5353 16.75 19.5175 16.7574 19.4996 16.7648L19.4454 16.7872C19.3187 16.8391 19.1889 16.8886 19.0621 16.9376L19.008 16.9585L18.9544 16.9794C18.9189 16.9932 18.8837 17.0071 18.8491 17.0209L18.7975 17.0416L18.7469 17.0623L18.722 17.0727C18.7055 17.0796 18.6891 17.0864 18.673 17.0934C18.3003 17.2527 18.0323 17.4148 18.0886 17.616C18.0902 17.6218 18.0919 17.6272 18.0939 17.6324C18.0989 17.6473 18.1058 17.6614 18.1144 17.6746C18.1194 17.6825 18.1252 17.69 18.1317 17.6968C18.198 17.7653 18.3185 17.7544 18.4704 17.7001C18.4828 17.6956 18.4954 17.6909 18.5081 17.6858C18.5169 17.6825 18.5255 17.679 18.5342 17.6756L18.5474 17.67C18.5821 17.6553 18.6189 17.639 18.6566 17.6211C18.666 17.6167 18.6755 17.6125 18.6851 17.6074C18.8708 17.5169 19.0815 17.3949 19.2904 17.2839C19.3225 17.2665 19.3546 17.25 19.3866 17.2335C19.4388 17.2065 19.4915 17.1805 19.5448 17.1556C19.7427 17.0629 19.9286 16.9971 20.0783 16.9971C20.1484 16.9971 20.2104 17.0114 20.262 17.0443L20.2706 17.05C20.2968 17.0684 20.3195 17.091 20.338 17.1169C20.3423 17.123 20.3468 17.1293 20.3506 17.1358C20.3546 17.1425 20.3585 17.1493 20.3622 17.1563C20.4361 17.2961 20.3743 17.441 20.2296 17.5829C20.0906 17.7192 19.8744 17.8529 19.6287 17.9767C19.6105 17.9859 19.5921 17.9951 19.5737 18.004C18.8424 18.3619 17.8849 18.6314 17.8715 18.6348C17.6163 18.7007 17.2514 18.7874 16.8403 18.8521L16.7794 18.8615L16.7695 18.8629C16.6763 18.8769 16.5828 18.8892 16.4891 18.8998L16.4804 18.9007C16.31 18.9201 16.1352 18.9341 15.9601 18.94H15.9575C15.8946 18.9423 15.8317 18.9434 15.7688 18.9434H15.6964C15.6004 18.942 15.5046 18.9378 15.4089 18.9304C15.4067 18.9304 15.4044 18.9304 15.402 18.9299C15.3679 18.9273 15.3336 18.9241 15.2995 18.9203C15.2408 18.9141 15.1823 18.9063 15.1239 18.8972C15.1012 18.8934 15.0769 18.8895 15.0535 18.8854C15.0428 18.8835 15.0322 18.8815 15.0217 18.8794L15.0191 18.8789C14.9854 18.8725 14.9519 18.8655 14.9185 18.8578C14.8992 18.8535 14.8798 18.8491 14.8607 18.844L14.8492 18.841C14.8397 18.8387 14.8304 18.8361 14.821 18.8336L14.8159 18.8323L14.7859 18.8237C14.775 18.8206 14.7642 18.8174 14.7534 18.8142L14.7495 18.813L14.7212 18.8044C14.7105 18.8011 14.6999 18.7976 14.6894 18.7942C14.6806 18.7913 14.672 18.7883 14.6632 18.7855L14.6441 18.7788C14.6257 18.7725 14.6074 18.7657 14.5891 18.7587L14.5719 18.752L14.5576 18.7463C14.5301 18.7353 14.5027 18.7238 14.4756 18.7117L14.4576 18.7031L14.4546 18.7017C14.4481 18.6987 14.4418 18.6957 14.4354 18.693C14.4229 18.687 14.4105 18.6808 14.3981 18.6745L14.3944 18.6727L14.3766 18.6633C14.3448 18.6468 14.3136 18.6292 14.2832 18.6104L14.2665 18.6003C14.2578 18.595 14.2499 18.5897 14.2417 18.5844L14.2199 18.57C14.2121 18.5647 14.2042 18.5594 14.1965 18.5539L14.1826 18.544C14.1678 18.5335 14.1533 18.5227 14.139 18.5116C14.1315 18.5058 14.124 18.4998 14.1165 18.4943C14.0999 18.481 14.0837 18.4674 14.0677 18.4533L14.067 18.4528C14.0514 18.4393 14.0361 18.4254 14.0213 18.4111L14.0205 18.4102C14.0127 18.4028 14.0051 18.3955 13.9976 18.3878C13.9901 18.3802 13.9825 18.3726 13.9752 18.365C13.9678 18.3572 13.9605 18.3494 13.9533 18.3414C13.9463 18.3338 13.9395 18.3262 13.9327 18.3184L13.9304 18.3158C13.8953 18.2753 13.8625 18.2328 13.8321 18.1885L13.82 18.1708C13.8121 18.1591 13.8042 18.1473 13.7965 18.1355L13.7735 18.1004C13.7623 18.0832 13.7513 18.0659 13.7406 18.0485C13.7329 18.0361 13.7254 18.0237 13.7179 18.0112C13.7116 18.0006 13.7053 17.99 13.6992 17.9796C13.6958 17.9739 13.6926 17.9681 13.6894 17.9622C13.6862 17.9562 13.6824 17.9501 13.679 17.9441L13.6736 17.9345C13.6718 17.9313 13.6712 17.9303 13.6702 17.9282C13.6636 17.9167 13.6572 17.905 13.651 17.893C13.6482 17.8879 13.6454 17.8827 13.6423 17.8776L13.6336 17.8609L13.625 17.8444L13.6083 17.8108C13.6055 17.8053 13.6029 17.7997 13.6003 17.7942C13.5946 17.7823 13.5891 17.7706 13.5837 17.7589C13.5816 17.7542 13.5793 17.7494 13.5774 17.7447C13.5699 17.7285 13.5628 17.7121 13.5561 17.6956C13.5515 17.6847 13.5474 17.6738 13.5429 17.663C13.5304 17.631 13.5186 17.5988 13.5078 17.5662C13.5046 17.5565 13.5014 17.5469 13.4986 17.5373C13.4916 17.5153 13.4853 17.4931 13.4797 17.4708C13.4728 17.4447 13.4667 17.4184 13.4615 17.392C13.4582 17.3764 13.4553 17.3607 13.4529 17.3449C13.4503 17.3294 13.448 17.3138 13.4462 17.2983C13.4422 17.2674 13.4394 17.2364 13.4377 17.2054C13.4377 17.2002 13.4372 17.195 13.4372 17.1899C13.4367 17.1796 13.4364 17.1694 13.4363 17.1591C13.4308 16.7456 13.6409 16.3479 14.0898 15.9007C14.8894 15.1044 15.3549 13.9392 15.3549 13.9392C15.3549 13.9392 15.3675 13.8903 15.3936 13.8201C15.4023 13.7967 15.4115 13.7735 15.4211 13.7506C15.432 13.7246 15.4438 13.699 15.4564 13.6738L15.4601 13.6665C15.4763 13.6343 15.4939 13.6031 15.513 13.5726C15.5174 13.5655 15.5217 13.5584 15.5267 13.5515C15.5409 13.5304 15.5559 13.51 15.5718 13.4901C15.584 13.4749 15.597 13.4602 15.6107 13.4463C15.6571 13.3986 15.7101 13.3597 15.77 13.3389L15.7775 13.3365C15.7826 13.3349 15.7876 13.3333 15.7927 13.3319C15.7987 13.3303 15.8047 13.3289 15.8108 13.3276L15.8135 13.3271C15.8262 13.3246 15.8389 13.3229 15.8518 13.322H15.853C15.8597 13.322 15.8664 13.3213 15.8733 13.3213C15.8905 13.3214 15.9076 13.3228 15.9246 13.3254C15.9966 13.3367 16.0653 13.3795 16.1243 13.4455L16.1323 13.4548C16.1515 13.4772 16.169 13.5012 16.1845 13.5264C16.1962 13.5451 16.2072 13.5647 16.2175 13.5853C16.2217 13.5941 16.2257 13.602 16.2297 13.6105C16.2316 13.6149 16.2336 13.6191 16.2354 13.6236C16.2393 13.6322 16.2429 13.6409 16.2465 13.65C16.2668 13.7019 16.2825 13.7554 16.2936 13.81C16.3053 13.8689 16.3121 13.9287 16.3141 13.9889C16.3148 14.0153 16.3148 14.042 16.3141 14.0691C16.3136 14.0793 16.3131 14.0897 16.3123 14.1001C16.3044 14.2151 16.2792 14.3284 16.2376 14.4361C16.2335 14.4468 16.2289 14.4576 16.2246 14.4684C16.2038 14.5182 16.1795 14.5664 16.1521 14.6128C16.1365 14.6394 16.1196 14.6657 16.1015 14.6918L16.0904 14.7075C16.0476 14.7671 15.9998 14.8231 15.9476 14.8747C15.8961 14.9261 15.841 14.9737 15.7826 15.0171C15.724 15.0602 15.6692 15.108 15.6185 15.16C15.4725 15.3127 15.4385 15.4473 15.4714 15.5494C15.4753 15.561 15.4798 15.5723 15.4851 15.5832C15.4972 15.6069 15.5129 15.6287 15.5318 15.6477L15.5369 15.6528C15.5423 15.6579 15.5479 15.6629 15.5536 15.6676L15.5594 15.6724C15.5736 15.6832 15.5886 15.6929 15.6042 15.7013C15.6087 15.7037 15.6129 15.7061 15.618 15.7085C15.6395 15.7191 15.6619 15.7276 15.685 15.7341L15.6914 15.7358L15.7001 15.7381L15.7076 15.7399L15.7157 15.7417L15.7238 15.7433L15.7314 15.7446C15.7372 15.7456 15.743 15.7465 15.7487 15.7473L15.7543 15.7481L15.7643 15.7491L15.7706 15.7497L15.7809 15.7505H15.7868L15.7975 15.751H15.8312L15.8408 15.7505L15.8518 15.7498L15.8653 15.7485L15.878 15.747C15.8808 15.747 15.8837 15.7462 15.8866 15.7457C15.9311 15.7392 15.9744 15.7268 16.0154 15.7086C16.0241 15.7049 16.0327 15.7008 16.0407 15.6966C16.0578 15.688 16.0744 15.6785 16.0903 15.6679C16.1126 15.6534 16.1335 15.637 16.1533 15.6192L16.167 15.6063C16.1691 15.6041 16.1713 15.6021 16.1734 15.5999C16.1868 15.5865 16.1994 15.5724 16.2111 15.5576C16.2319 15.5314 16.2504 15.5037 16.2664 15.4744C16.4564 15.1301 16.6556 14.7907 16.8637 14.4569L16.8923 14.4113L16.9211 14.3656C16.9356 14.3426 16.95 14.3198 16.9645 14.2972L16.9792 14.2745L17.0084 14.2291C17.0476 14.1686 17.087 14.1088 17.1266 14.0495L17.1562 14.0054C17.2156 13.9177 17.275 13.8323 17.3336 13.7511L17.3629 13.7111C17.4267 13.6232 17.4933 13.5373 17.5623 13.4535L17.5898 13.4208C17.5942 13.4153 17.5984 13.41 17.6034 13.4046L17.6303 13.3736C17.6347 13.3684 17.639 13.3634 17.6437 13.3585L17.6697 13.3292L17.6828 13.315C17.6954 13.3014 17.7082 13.2879 17.7213 13.2746C17.73 13.266 17.7381 13.2572 17.7465 13.2492C17.7957 13.199 17.85 13.154 17.9086 13.115L17.9221 13.1063L17.9358 13.0976C17.9445 13.0922 17.9534 13.087 17.9624 13.0821C18.1919 12.9523 18.3821 12.9427 18.4914 13.0517C18.5577 13.1178 18.5944 13.2272 18.5924 13.3795C18.5924 13.3863 18.5924 13.3929 18.5918 13.3999V13.4075C18.5918 13.4143 18.5913 13.4214 18.5908 13.4285C18.5908 13.4371 18.5897 13.4458 18.5888 13.4544C18.5879 13.4631 18.5876 13.4697 18.5867 13.4773C18.5867 13.4796 18.5862 13.4818 18.5859 13.484C18.5852 13.4908 18.5844 13.4977 18.5835 13.5044C18.5835 13.5066 18.5835 13.5086 18.5826 13.5107C18.5816 13.5199 18.5803 13.5291 18.5786 13.5382C18.5776 13.5466 18.5762 13.5551 18.5745 13.5635C18.5739 13.5683 18.5729 13.5731 18.5721 13.5779C18.5696 13.5916 18.5663 13.6053 18.5623 13.6186C18.5548 13.6436 18.5457 13.6681 18.5349 13.6919C18.5303 13.7023 18.5253 13.7126 18.5203 13.7228C18.5098 13.7438 18.4979 13.7653 18.4849 13.7875C18.4784 13.7985 18.4717 13.8098 18.4645 13.8211L18.4536 13.8383C18.4426 13.8557 18.431 13.8732 18.419 13.8909C18.4069 13.9086 18.394 13.9267 18.3801 13.945C18.3622 13.9694 18.3432 13.9943 18.3232 14.0194L18.3081 14.0385C18.2653 14.0916 18.2214 14.1439 18.1765 14.1953L18.1409 14.2355L18.1227 14.2558C18.0979 14.2834 18.0731 14.3108 18.048 14.338L18.0288 14.3587C18.0161 14.3724 18.0028 14.3864 17.9901 14.4002C17.977 14.4142 17.9638 14.4282 17.9506 14.4421L17.9106 14.4841L17.8701 14.5262C17.8566 14.5402 17.843 14.5545 17.8293 14.5685L17.7469 14.6532C17.3531 15.0557 16.9382 15.4569 16.7978 15.707C16.7884 15.7234 16.78 15.7401 16.7723 15.7572C16.7524 15.8027 16.7441 15.8416 16.7497 15.8731C16.7515 15.8835 16.7552 15.8934 16.7606 15.9024C16.7685 15.9161 16.7781 15.9287 16.7892 15.9399C16.7944 15.9449 16.7997 15.9497 16.8055 15.9539C16.8344 15.9744 16.8693 15.985 16.9048 15.9839H16.9158L16.9272 15.9831L16.9387 15.9818L16.9481 15.9804C16.9494 15.9803 16.9506 15.9801 16.9519 15.9798L16.9605 15.9781L16.9628 15.9775L16.9724 15.9755L16.9758 15.9746L16.986 15.972L16.9981 15.9684C17.0061 15.966 17.014 15.9633 17.0222 15.9603C17.0398 15.9541 17.0569 15.9469 17.0737 15.9389C17.078 15.9369 17.0824 15.9349 17.0866 15.9327L17.0995 15.9263C17.1164 15.9178 17.1332 15.9086 17.1501 15.8987C17.1636 15.8907 17.177 15.8826 17.1904 15.874L17.2034 15.8654C17.2077 15.8626 17.212 15.8598 17.2163 15.8566L17.2292 15.848L17.236 15.8433L17.2547 15.8303C17.272 15.8183 17.2883 15.806 17.3048 15.7935L17.3062 15.7925L17.3322 15.7723C17.3679 15.7443 17.4018 15.716 17.4324 15.6894L17.4528 15.6715L17.4547 15.6698L17.4653 15.6604C17.4903 15.638 17.5127 15.6171 17.5313 15.5998L17.5389 15.5924L17.5572 15.5751L17.5682 15.5644L17.572 15.5606L17.5731 15.5595C17.5824 15.5502 17.5824 15.5502 17.5917 15.5408L17.5925 15.5401L17.596 15.537C17.5971 15.5358 17.5985 15.5346 17.6002 15.5332L17.6015 15.5319L17.6052 15.5286L17.6249 15.5113L17.636 15.5013C17.6414 15.4967 17.6474 15.4914 17.6534 15.4857L17.6667 15.474C17.669 15.4721 17.6713 15.4699 17.6738 15.4678L17.6877 15.4557L17.7082 15.4378L17.7189 15.4285C17.7612 15.3918 17.8126 15.3475 17.8716 15.2977L17.8958 15.2774L17.9358 15.244L17.9766 15.2099C18.03 15.1658 18.0875 15.1188 18.1482 15.0701L18.1882 15.0381C18.2221 15.0112 18.2571 14.9836 18.2925 14.9559C18.3066 14.9448 18.3211 14.9337 18.3359 14.9227C18.3721 14.8948 18.4085 14.867 18.445 14.8396C18.5283 14.7769 18.6143 14.7141 18.7012 14.6528L18.7386 14.627C18.7646 14.609 18.7906 14.5911 18.8167 14.5735L18.8403 14.5576C18.887 14.5262 18.9341 14.4955 18.9816 14.4655L19.0052 14.4507L19.0286 14.4362C19.052 14.4218 19.0754 14.4075 19.0985 14.3936L19.1218 14.3799L19.1683 14.3529C19.1835 14.3441 19.1987 14.3354 19.2138 14.3269L19.2229 14.3218L19.2591 14.3022C19.274 14.294 19.2891 14.2862 19.3039 14.2785L19.3263 14.2671L19.3478 14.2562C19.3972 14.2315 19.4474 14.2087 19.4984 14.1877C19.5054 14.1848 19.5123 14.182 19.5192 14.179C19.5329 14.1733 19.5465 14.1681 19.56 14.1635C19.5735 14.1589 19.5868 14.1542 19.5999 14.1495C19.6119 14.1455 19.6234 14.1419 19.6347 14.1384L19.6385 14.1372C19.6445 14.1354 19.6505 14.1336 19.6565 14.1321L19.6583 14.1316C19.6705 14.1281 19.6827 14.1249 19.6951 14.122H19.696C19.7142 14.1177 19.7319 14.114 19.7492 14.1111C19.7551 14.1101 19.7609 14.1092 19.7665 14.1084C19.7833 14.1059 19.8002 14.1041 19.8171 14.103C19.8278 14.1022 19.8386 14.1019 19.8493 14.1019H19.8574C19.8683 14.1019 19.8788 14.1026 19.8892 14.1036C19.894 14.1036 19.8987 14.1045 19.9034 14.1052H19.9053C19.91 14.1057 19.9147 14.1064 19.9193 14.1074C19.9239 14.1084 19.9285 14.1091 19.933 14.1101H19.9345C19.939 14.1111 19.9432 14.1124 19.9478 14.1136C19.9849 14.1236 20.019 14.1424 20.0473 14.1683L20.0498 14.1708L20.0548 14.1757L20.0596 14.1808C20.0986 14.2216 20.1308 14.2684 20.1551 14.3193L20.1589 14.3279C20.1671 14.3473 20.1736 14.3673 20.1782 14.3878C20.1908 14.445 20.1874 14.5046 20.1683 14.56C20.16 14.5841 20.1499 14.6075 20.138 14.63L20.13 14.6443C20.0997 14.6949 20.064 14.742 20.0233 14.7848L20.0146 14.794C19.9954 14.8143 19.9755 14.8339 19.955 14.8528C19.9485 14.8589 19.9418 14.865 19.935 14.8711L19.9247 14.8804C19.9034 14.8992 19.8815 14.9176 19.8594 14.9356C19.8555 14.9387 19.8515 14.9418 19.8477 14.9451C19.8323 14.9575 19.8164 14.9701 19.7999 14.9827C19.743 15.026 19.685 15.0678 19.6259 15.1082C19.5912 15.1319 19.5552 15.1558 19.5181 15.1801C19.449 15.2253 19.3794 15.2695 19.3091 15.3129C19.2888 15.3254 19.2684 15.3381 19.2476 15.3506C19.0566 15.4678 18.8448 15.593 18.6189 15.7292L18.5605 15.7646C18.4965 15.8035 18.4361 15.8407 18.3793 15.876L18.3506 15.894L18.2964 15.9287C18.275 15.9422 18.2541 15.9556 18.2338 15.9687C18.2185 15.9785 18.2035 15.9882 18.1888 15.9978L18.1599 16.0167C18.1458 16.0259 18.1318 16.0351 18.1179 16.0445L18.1043 16.0531C18.0899 16.0627 18.0759 16.0721 18.0623 16.0814L18.0401 16.0965L18.0139 16.1146L17.9899 16.1313C17.9518 16.1579 17.9142 16.1851 17.8769 16.2128L17.8639 16.2227C17.8492 16.2337 17.8351 16.2448 17.8214 16.2555L17.8035 16.2697C17.7734 16.2938 17.7461 16.317 17.7215 16.339L17.7094 16.3501C17.7025 16.3564 17.6957 16.3626 17.6893 16.3688C17.6847 16.3731 17.6806 16.3775 17.676 16.3817L17.6697 16.3879C17.6558 16.4018 17.6423 16.416 17.6292 16.4306L17.6228 16.4379C17.6085 16.4544 17.5961 16.4702 17.5851 16.4856L17.5803 16.4925C17.5676 16.5109 17.5565 16.5304 17.547 16.5506L17.5437 16.5577L17.5416 16.5626L17.54 16.5669L17.5377 16.5728C17.537 16.5748 17.5357 16.5784 17.5349 16.5815C17.5309 16.593 17.528 16.6049 17.5261 16.617L17.5251 16.6235L17.5243 16.6294L17.5238 16.6351V16.6655C17.5238 16.668 17.5238 16.6706 17.5244 16.6732C17.5245 16.6748 17.5247 16.6763 17.5249 16.6779C17.5249 16.6804 17.5256 16.6829 17.5259 16.6855L17.5277 16.6962V16.6967C17.5284 16.7 17.5291 16.7034 17.53 16.7068C17.5308 16.7102 17.5317 16.714 17.5328 16.7176C17.5359 16.7285 17.5397 16.7393 17.544 16.7499C17.544 16.7507 17.5447 16.7515 17.545 16.7523C17.5462 16.7549 17.5472 16.7576 17.5485 16.7602C17.5533 16.7713 17.5586 16.782 17.5644 16.7926L17.5705 16.8035L17.577 16.8145L17.5837 16.8256C17.5848 16.8274 17.5861 16.8291 17.5875 16.8307L17.5898 16.833L17.5921 16.8352L17.5947 16.8372C17.5965 16.8385 17.5983 16.8395 17.6003 16.8406C17.6022 16.8415 17.6043 16.8424 17.6065 16.8432C17.6088 16.844 17.6111 16.8446 17.6135 16.8452C17.6695 16.8578 17.7847 16.8115 17.9376 16.731L17.9651 16.7165L18.0116 16.6912L18.0344 16.6787C18.0506 16.6699 18.0672 16.6603 18.084 16.6507L18.1147 16.6334C18.317 16.5173 18.5587 16.3682 18.8085 16.2226C18.8318 16.209 18.8553 16.1954 18.8788 16.1819L18.926 16.1518C18.9496 16.1383 18.9731 16.1249 18.9967 16.1118C19.0971 16.0549 19.1989 16.0002 19.3017 15.9478L19.3478 15.9245C19.3785 15.9094 19.4089 15.8947 19.4389 15.8804C19.4971 15.8529 19.5558 15.8268 19.6152 15.8022L19.6477 15.789L19.6517 15.7874C19.8239 15.7194 19.9802 15.6773 20.1066 15.6773C20.134 15.6771 20.1613 15.6793 20.1883 15.684H20.1891C20.1978 15.6855 20.2057 15.6873 20.2136 15.6893H20.2151C20.2267 15.6921 20.2382 15.6957 20.2493 15.7001C20.2581 15.7033 20.2667 15.7071 20.2749 15.7116C20.3111 15.7299 20.3421 15.7569 20.3652 15.7902C20.3672 15.793 20.369 15.7959 20.3708 15.7989C20.3793 15.8118 20.3867 15.8255 20.3927 15.8398C20.3963 15.848 20.3996 15.8566 20.4027 15.8657C20.4058 15.875 20.4085 15.8839 20.4113 15.8935C20.4319 15.9669 20.4299 16.0445 20.4055 16.1167Z" fill="#FF9D00"/>
<path fill-rule="evenodd" clip-rule="evenodd" d="M19.26 10.8598V10.8123C19.26 6.76142 15.9663 3.47754 11.9016 3.47754C7.83717 3.47754 4.54221 6.76162 4.54221 10.8123L4.54211 10.8282C4.54201 10.8388 4.54192 10.8492 4.54211 10.8598C4.54258 10.8755 4.54274 10.8913 4.54259 10.9071L4.54318 10.9419L4.54337 10.9545L4.54386 10.9718C4.54405 10.981 4.54434 10.9902 4.54434 10.9995L4.54531 11.0372L4.54687 11.0814L4.54735 11.0959L4.5493 11.1417V11.1438L4.55201 11.1974V11.1987C4.55299 11.217 4.55396 11.2353 4.55512 11.2535C4.55609 11.2704 4.55716 11.2873 4.55833 11.3041L4.55862 11.3071C4.55947 11.3215 4.56044 11.3361 4.56153 11.3505L4.56182 11.3543C4.56279 11.3682 4.56386 11.3822 4.56503 11.3961L4.56522 11.3988L4.56716 11.423C4.57298 11.4928 4.57978 11.5625 4.58756 11.6321L4.58804 11.6365L4.59387 11.6876L4.60057 11.7414C4.60506 11.7772 4.60986 11.8129 4.61494 11.8486C4.61797 11.8702 4.62112 11.8917 4.62436 11.9132L4.62485 11.9158C4.6321 11.9644 4.63993 12.013 4.64835 12.0614C4.6725 12.2018 4.70086 12.3416 4.73341 12.4804L4.7339 12.4826L4.73701 12.4957C4.73992 12.5081 4.74283 12.5204 4.74594 12.5329L4.75128 12.5264C4.96492 12.2719 5.27139 12.1316 5.61428 12.1316C5.88909 12.1316 6.1711 12.222 6.45358 12.4006C6.641 12.5193 6.84823 12.7295 7.06148 12.9938C7.2588 12.7206 7.53536 12.5391 7.85173 12.4896C7.91214 12.4801 7.97312 12.4752 8.0341 12.4751C8.75629 12.4751 9.19124 13.0998 9.35555 13.6616C9.43663 13.8515 9.82798 14.7159 10.418 15.3006C11.3148 16.1937 11.5392 17.1153 11.0954 18.102H11.0969C11.1272 18.1053 11.1576 18.1084 11.1881 18.1112C11.2062 18.113 11.2244 18.1147 11.2425 18.1163L11.249 18.1169C11.2623 18.1181 11.2757 18.1193 11.2891 18.1202L11.326 18.1232C11.3611 18.126 11.3964 18.1284 11.4318 18.1307L11.4598 18.1323L11.482 18.1336L11.4959 18.1344L11.5392 18.1367L11.5511 18.1372L11.5967 18.1391L11.6473 18.1411L11.6881 18.1422L11.6949 18.1425C11.7034 18.1428 11.7122 18.1432 11.7208 18.1432L11.73 18.1434C11.7873 18.1447 11.8445 18.1454 11.9018 18.1454H11.9626L12.0061 18.1449C12.0168 18.1443 12.0274 18.1443 12.0381 18.1443H12.055L12.0696 18.1441C12.0753 18.1439 12.0812 18.1437 12.0869 18.1437H12.1043L12.1384 18.1427L12.1896 18.141L12.2462 18.1385C12.2624 18.1379 12.2785 18.1371 12.2947 18.1362L12.3121 18.1352L12.3378 18.1338L12.3531 18.1329L12.3644 18.1322L12.4166 18.1288C12.434 18.1277 12.4514 18.1263 12.4687 18.125L12.5159 18.1213L12.5492 18.1185L12.5857 18.1152C12.623 18.1117 12.6603 18.1081 12.6974 18.1042C12.7211 18.1016 12.7446 18.099 12.7682 18.0961L12.8097 18.0912C12.3728 17.1085 12.599 16.1911 13.4922 15.3015C14.0808 14.7153 14.4722 13.8507 14.5537 13.6609C14.7181 13.099 15.1527 12.4745 15.8751 12.4745C15.9362 12.4746 15.9972 12.4793 16.0575 12.4889C16.3735 12.5384 16.6502 12.72 16.8478 12.9931C17.0612 12.7288 17.2683 12.5186 17.4557 12.3999C17.7382 12.2214 18.0204 12.1309 18.2949 12.1309C18.5975 12.1309 18.8718 12.2402 19.079 12.4408C19.0903 12.3903 19.1013 12.3397 19.1118 12.289C19.1182 12.2574 19.1245 12.2256 19.1307 12.1938C19.1383 12.1547 19.1455 12.1154 19.1521 12.0761C19.1538 12.0654 19.1557 12.0548 19.1577 12.0441C19.1609 12.0273 19.1637 12.0108 19.1664 11.9939L19.1674 11.9875L19.1743 11.9437L19.1811 11.8993C19.1838 11.8807 19.1868 11.8615 19.1893 11.8428C19.1913 11.8287 19.1933 11.8146 19.1951 11.8003L19.1963 11.7922L19.2023 11.746L19.2073 11.7066C19.2103 11.6806 19.2132 11.6547 19.216 11.6286C19.2173 11.6183 19.2183 11.6078 19.2194 11.5974L19.2204 11.589C19.2222 11.5716 19.2239 11.5544 19.2254 11.5371L19.2293 11.4968C19.2374 11.4076 19.2439 11.3183 19.2489 11.2289L19.2515 11.1809L19.252 11.1703L19.254 11.1253C19.2547 11.1083 19.2554 11.0912 19.256 11.0739V11.0726L19.2565 11.0601C19.257 11.0495 19.2574 11.0388 19.2574 11.0283L19.2576 11.0239C19.2579 11.0141 19.2583 11.0038 19.2583 10.9936L19.2586 10.9849C19.2589 10.9748 19.2592 10.9647 19.2592 10.9545L19.2594 10.9459C19.2597 10.9329 19.26 10.9201 19.26 10.9071V10.8598ZM10.0764 18.1872C10.6591 17.3353 10.6179 16.6959 9.81817 15.8994C9.01849 15.1028 8.55305 13.9379 8.55305 13.9379C8.55305 13.9379 8.37932 13.2612 7.98312 13.3234C7.58692 13.3855 7.29629 14.3967 8.12577 15.0156C8.95527 15.6346 7.96079 16.0542 7.6415 15.4734C7.32212 14.8925 6.45048 13.3994 5.99844 13.1137C5.5465 12.8281 5.22866 12.9882 5.33519 13.5769C5.38811 13.8691 5.88026 14.3677 6.34006 14.8337C6.80657 15.3065 7.23977 15.7454 7.14723 15.9007C6.9634 16.2093 6.31598 15.5383 6.31598 15.5383C6.31598 15.5383 4.28875 13.6996 3.8474 14.1788C3.44061 14.6204 4.06793 14.9959 5.03474 15.5745C5.11699 15.6237 5.20167 15.6744 5.28838 15.7267C6.39444 16.3941 6.48048 16.5702 6.32356 16.8227C6.26558 16.916 5.89531 16.6945 5.43987 16.4219C4.66349 15.9573 3.63969 15.3448 3.49519 15.8931C3.37002 16.3676 4.12319 16.6584 4.80624 16.9221C5.3753 17.1418 5.89579 17.3428 5.81927 17.6155C5.73994 17.8982 5.30985 17.6624 4.83965 17.4046C4.31187 17.1151 3.73359 16.7979 3.54442 17.1559C3.18668 17.8324 6.01194 18.6289 6.03514 18.6347C6.94796 18.8706 9.26611 19.3706 10.0764 18.1872ZM13.831 18.1872C13.2481 17.3353 13.2895 16.6959 14.0892 15.8994C14.8889 15.1028 15.3544 13.9379 15.3544 13.9379C15.3544 13.9379 15.528 13.2612 15.9242 13.3234C16.3204 13.3855 16.6112 14.3967 15.7816 15.0156C14.952 15.6346 15.9466 16.0542 16.2659 15.4734C16.5852 14.8925 17.4565 13.3994 17.9084 13.1137C18.3604 12.8281 18.6783 12.9882 18.5718 13.5769C18.5189 13.8691 18.0267 14.3678 17.5668 14.8337C17.1004 15.3065 16.6672 15.7454 16.7597 15.9007C16.9435 16.2093 17.5915 15.5379 17.5915 15.5379C17.5915 15.5379 19.6186 13.6992 20.06 14.1784C20.4667 14.62 19.8393 14.9956 18.8725 15.5743C18.7903 15.6234 18.7057 15.6741 18.619 15.7264C17.5128 16.3938 17.4269 16.5699 17.5838 16.8223C17.6418 16.9156 18.012 16.6941 18.4674 16.4216C19.2439 15.9571 20.2677 15.3444 20.4122 15.8927C20.5373 16.3672 19.7842 16.6581 19.101 16.9218C18.532 17.1415 18.0116 17.3424 18.088 17.6152C18.1673 17.8979 18.5972 17.6621 19.0672 17.4042C19.595 17.1147 20.1734 16.7975 20.3626 17.1555C20.7204 17.8325 17.8947 18.6281 17.8718 18.634C16.959 18.8706 14.6408 19.3706 13.831 18.1872Z" fill="#FFD21E"/>
<path fill-rule="evenodd" clip-rule="evenodd" d="M14.2917 8.81581C14.4064 8.85627 14.4918 8.97948 14.573 9.09659C14.6827 9.25503 14.7848 9.40234 14.9416 9.3193C15.1266 9.22135 15.2782 9.07094 15.3773 8.88705C15.4764 8.7032 15.5186 8.49416 15.4985 8.28639C15.4835 8.13104 15.4342 7.98091 15.354 7.84686C15.2738 7.7128 15.1647 7.59815 15.0348 7.51115C14.9048 7.42415 14.757 7.36699 14.6022 7.34377C14.4473 7.32055 14.2892 7.33187 14.1393 7.37688C13.9387 7.43707 13.7606 7.55515 13.6274 7.71619C13.4943 7.87722 13.4119 8.074 13.3909 8.28165C13.3699 8.48934 13.4112 8.69857 13.5094 8.88289C13.5821 9.01907 13.7433 8.9549 13.9134 8.88705C14.0468 8.83391 14.1857 8.77855 14.2917 8.81581ZM9.30271 8.81591C9.18803 8.85637 9.10257 8.97958 9.02139 9.09669C8.91166 9.25503 8.8095 9.40244 8.65277 9.3194C8.51458 9.24613 8.39446 9.14315 8.30094 9.018C8.20743 8.89286 8.14295 8.74864 8.11207 8.59564C8.08119 8.44267 8.08469 8.28479 8.12236 8.13335C8.16014 7.98191 8.23103 7.84067 8.32998 7.7198C8.42913 7.599 8.55381 7.50159 8.6952 7.43459C8.83659 7.36758 8.99119 7.33266 9.14773 7.33231C9.30426 7.33197 9.45896 7.36623 9.60064 7.4326C9.74232 7.49899 9.86749 7.59585 9.96712 7.71622C10.1004 7.87725 10.1827 8.07407 10.2038 8.28176C10.2248 8.48946 10.1835 8.69869 10.0851 8.88298C10.0123 9.01916 9.85108 8.9549 9.68095 8.88705C9.54762 8.83391 9.40875 8.77855 9.30271 8.81591ZM13.5199 13.3408C14.3107 12.7198 14.6011 11.7062 14.6011 11.0817C14.6011 10.5881 14.2678 10.7434 13.7344 11.0066L13.7044 11.0215C13.2147 11.2632 12.5629 11.5849 11.8474 11.5849C11.1318 11.5849 10.48 11.2631 9.99053 11.0214C9.43983 10.7495 9.09441 10.579 9.09441 11.0818C9.09441 11.7259 9.40341 12.7837 10.2516 13.3983C10.3635 13.1718 10.521 12.9708 10.7145 12.8078C10.9078 12.6448 11.1329 12.5234 11.3756 12.4511C11.4603 12.426 11.5475 12.5712 11.6368 12.7199C11.7229 12.8634 11.8109 13.0102 11.9005 13.0102C11.9959 13.0102 12.0897 12.8656 12.1813 12.7244C12.2769 12.5769 12.3702 12.433 12.4604 12.4618C12.9144 12.6071 13.2942 12.9221 13.5199 13.3408Z" fill="#32343D"/>
<path d="M13.5196 13.3408C13.1078 13.6642 12.5604 13.8811 11.8476 13.8811C11.1779 13.8811 10.654 13.6897 10.2516 13.3983C10.3636 13.1719 10.5212 12.9708 10.7146 12.808C10.9079 12.645 11.133 12.5235 11.3756 12.4511C11.5419 12.4016 11.7181 13.0101 11.9004 13.0101C12.0957 13.0101 12.2838 12.4055 12.4604 12.4617C12.9143 12.6071 13.2939 12.9222 13.5196 13.3408Z" fill="#FF323D"/>
<path fill-rule="evenodd" clip-rule="evenodd" d="M7.41195 9.69414C7.3368 9.74457 7.25242 9.7797 7.16363 9.79751C7.07484 9.81532 6.98339 9.81552 6.89452 9.79809C6.80566 9.78058 6.72113 9.74583 6.64577 9.69579C6.57042 9.64565 6.50572 9.58129 6.45539 9.50618C6.40506 9.43117 6.37009 9.34687 6.35249 9.25841C6.33488 9.16985 6.33498 9.07868 6.35278 8.99012C6.37058 8.90165 6.40574 8.81754 6.45623 8.74253C6.50672 8.6676 6.57156 8.60333 6.64703 8.5534C6.79881 8.45301 6.98433 8.41666 7.16294 8.45235C7.34155 8.48803 7.49869 8.59283 7.59994 8.74379C7.70112 8.89478 7.73822 9.07955 7.70297 9.25764C7.66772 9.43582 7.56304 9.59281 7.41195 9.69414ZM17.2598 9.69414C17.1847 9.74457 17.1003 9.7797 17.0115 9.79751C16.9228 9.81532 16.8313 9.81552 16.7425 9.79809C16.6536 9.78058 16.569 9.74583 16.4937 9.69579C16.4183 9.64565 16.3536 9.58129 16.3033 9.50618C16.2529 9.43117 16.218 9.34687 16.2004 9.25841C16.1828 9.16985 16.1829 9.07868 16.2007 8.99012C16.2185 8.90165 16.2536 8.81754 16.3041 8.74253C16.3546 8.6676 16.4195 8.60333 16.4949 8.5534C16.6467 8.45301 16.8323 8.41666 17.0109 8.45235C17.1894 8.48803 17.3466 8.59283 17.4478 8.74379C17.549 8.89478 17.5861 9.07955 17.5509 9.25764C17.5156 9.43582 17.4109 9.59281 17.2598 9.69414Z" fill="#FFAD03"/>
</svg>
