<svg width="182" height="104" viewBox="0 0 182 104" fill="none" xmlns="http://www.w3.org/2000/svg">
<path d="M35 8C35 5.79086 36.7909 4 39 4H151C153.209 4 155 5.79086 155 8V100C155 102.209 153.209 104 151 104H39C36.7909 104 35 102.209 35 100V8Z" fill="#F1EBFE"/>
<path d="M1 56H181" stroke="#7A3EF4" stroke-linecap="round"/>
<path d="M16 61H166" stroke="#7A3EF4" stroke-linecap="round"/>
<g clip-path="url(#clip0_7816_8064)">
<path d="M31 4C31 1.79086 32.7909 0 35 0H147C149.209 0 151 1.79086 151 4V96C151 98.2091 149.209 100 147 100H35C32.7909 100 31 98.2091 31 96V4Z" fill="white"/>
<mask id="path-6-inside-1_7816_8064" fill="white">
<path d="M31 0H151V12H31V0Z"/>
</mask>
<path d="M31 0H151V12H31V0Z" fill="#FBF9FF"/>
<path d="M151 11H31V13H151V11Z" fill="#7A3EF4" mask="url(#path-6-inside-1_7816_8064)"/>
<circle cx="41" cy="6" r="2" fill="#AF8BF8"/>
<circle cx="47" cy="6" r="2" fill="#AF8BF8"/>
<circle cx="53" cy="6" r="2" fill="#AF8BF8"/>
<path d="M57 56C57 37.2223 72.2223 22 91 22C109.778 22 125 37.2223 125 56C125 74.7777 109.778 90 91 90C72.2223 90 57 74.7777 57 56Z" fill="#F1EBFE"/>
<path fill-rule="evenodd" clip-rule="evenodd" d="M91 42.5C83.5442 42.5 77.5 48.5442 77.5 56C77.5 63.4558 83.5442 69.5 91 69.5C98.4558 69.5 104.5 63.4558 104.5 56C104.5 48.5442 98.4558 42.5 91 42.5ZM74.5 56C74.5 46.8873 81.8873 39.5 91 39.5C100.113 39.5 107.5 46.8873 107.5 56C107.5 65.1127 100.113 72.5 91 72.5C81.8873 72.5 74.5 65.1127 74.5 56ZM89.5 50C89.5 49.1716 90.1716 48.5 91 48.5H91.015C91.8434 48.5 92.515 49.1716 92.515 50C92.515 50.8284 91.8434 51.5 91.015 51.5H91C90.1716 51.5 89.5 50.8284 89.5 50ZM91 54.5C91.8284 54.5 92.5 55.1716 92.5 56V62C92.5 62.8284 91.8284 63.5 91 63.5C90.1716 63.5 89.5 62.8284 89.5 62V56C89.5 55.1716 90.1716 54.5 91 54.5Z" fill="#7A3EF4"/>
</g>
<path d="M31.5 4C31.5 2.06701 33.067 0.5 35 0.5H147C148.933 0.5 150.5 2.067 150.5 4V96C150.5 97.933 148.933 99.5 147 99.5H35C33.067 99.5 31.5 97.933 31.5 96V4Z" stroke="#7A3EF4"/>
<defs>
<clipPath id="clip0_7816_8064">
<path d="M31 4C31 1.79086 32.7909 0 35 0H147C149.209 0 151 1.79086 151 4V96C151 98.2091 149.209 100 147 100H35C32.7909 100 31 98.2091 31 96V4Z" fill="white"/>
</clipPath>
</defs>
</svg>
