<svg width="16" height="16" viewBox="0 0 16 16" fill="none" xmlns="http://www.w3.org/2000/svg">
<path fill-rule="evenodd" clip-rule="evenodd" d="M7.44101 0.666672H8.55907C8.9105 0.66666 9.21368 0.66665 9.46339 0.687053C9.72696 0.708587 9.9891 0.756131 10.2414 0.88466C10.6177 1.07641 10.9236 1.38237 11.1154 1.75869C11.2439 2.01094 11.2915 2.27309 11.313 2.53665C11.3313 2.76051 11.3332 3.02732 11.3334 3.33334H14C14.3682 3.33334 14.6667 3.63182 14.6667 4.00001C14.6667 4.3682 14.3682 4.66667 14 4.66667H13.3334V11.4942C13.3334 12.0309 13.3334 12.4738 13.3039 12.8346C13.2733 13.2093 13.2076 13.5538 13.0427 13.8773C12.7871 14.3791 12.3791 14.787 11.8773 15.0427C11.5538 15.2076 11.2093 15.2733 10.8346 15.3039C10.4738 15.3334 10.0309 15.3333 9.49426 15.3333H6.50583C5.96919 15.3333 5.52628 15.3334 5.16549 15.3039C4.79076 15.2733 4.44629 15.2076 4.12273 15.0427C3.62097 14.787 3.21302 14.3791 2.95736 13.8773C2.7925 13.5538 2.72679 13.2093 2.69617 12.8346C2.66669 12.4738 2.6667 12.0309 2.66671 11.4942L2.66671 4.66667H2.00004C1.63185 4.66667 1.33337 4.3682 1.33337 4.00001C1.33337 3.63182 1.63185 3.33334 2.00004 3.33334H4.66673C4.66691 3.02732 4.6688 2.76051 4.68709 2.53665C4.70862 2.27309 4.75617 2.01095 4.88469 1.75869C5.07644 1.38237 5.3824 1.07641 5.75873 0.88466C6.01098 0.756131 6.27313 0.708587 6.53669 0.687053C6.7864 0.66665 7.08958 0.66666 7.44101 0.666672ZM4.00004 4.66667V11.4667C4.00004 12.0377 4.00056 12.4259 4.02507 12.726C4.04895 13.0183 4.09224 13.1677 4.14537 13.272C4.2732 13.5229 4.47717 13.7269 4.72805 13.8547C4.83232 13.9078 4.98179 13.9511 5.27407 13.975C5.57413 13.9995 5.96232 14 6.53337 14H9.46671C10.0378 14 10.426 13.9995 10.726 13.975C11.0183 13.9511 11.1678 13.9078 11.272 13.8547C11.5229 13.7269 11.7269 13.5229 11.8547 13.272C11.9078 13.1677 11.9511 13.0183 11.975 12.726C11.9995 12.4259 12 12.0377 12 11.4667V4.66667H4.00004ZM9.99999 3.33334H6.00009C6.00038 3.02327 6.00242 2.81133 6.01599 2.64523C6.03079 2.46412 6.05591 2.39698 6.0727 2.36401C6.13662 2.23857 6.23861 2.13658 6.36405 2.07267C6.39701 2.05587 6.46416 2.03076 6.64526 2.01596C6.83416 2.00052 7.08234 2.00001 7.46671 2.00001H8.53337C8.91774 2.00001 9.16593 2.00052 9.35482 2.01596C9.53593 2.03076 9.60307 2.05587 9.63603 2.07267C9.76148 2.13658 9.86346 2.23857 9.92738 2.36401C9.94417 2.39698 9.96929 2.46412 9.98409 2.64523C9.99766 2.81133 9.9997 3.02327 9.99999 3.33334ZM6.66671 7.00001C7.0349 7.00001 7.33337 7.29848 7.33337 7.66667V11C7.33337 11.3682 7.0349 11.6667 6.66671 11.6667C6.29852 11.6667 6.00004 11.3682 6.00004 11V7.66667C6.00004 7.29848 6.29852 7.00001 6.66671 7.00001ZM9.33337 7.00001C9.70156 7.00001 10 7.29848 10 7.66667V11C10 11.3682 9.70156 11.6667 9.33337 11.6667C8.96518 11.6667 8.66671 11.3682 8.66671 11V7.66667C8.66671 7.29848 8.96518 7.00001 9.33337 7.00001Z" fill="#9CA3AF"/>
</svg>
