<svg width="38" height="35" viewBox="0 0 38 35" fill="none" xmlns="http://www.w3.org/2000/svg">
<path fill-rule="evenodd" clip-rule="evenodd" d="M9.26909 0.83333H15.3976C16.2762 0.8333 17.0341 0.833274 17.6584 0.88428C18.3173 0.938115 18.9727 1.05698 19.6033 1.3783C20.5441 1.85767 21.309 2.62257 21.7884 3.56338C22.1097 4.19401 22.2285 4.84938 22.2824 5.50828C22.3334 6.13258 22.3334 6.89053 22.3333 7.76913V14.1667L28.7309 14.1667C29.6095 14.1666 30.3674 14.1666 30.9917 14.2176C31.6506 14.2714 32.306 14.3903 32.9366 14.7116C33.8774 15.191 34.6423 15.9559 35.1217 16.8967C35.443 17.5273 35.5619 18.1827 35.6157 18.8416C35.6667 19.4659 35.6667 20.2238 35.6667 21.1024V30.8333C36.5871 30.8333 37.3333 31.5795 37.3333 32.5C37.3333 33.4205 36.5871 34.1667 35.6667 34.1667H2.33333C1.41286 34.1667 0.666668 33.4205 0.666668 32.5C0.666668 31.5795 1.41286 30.8333 2.33333 30.8333V7.76909C2.3333 6.89051 2.33328 6.13257 2.38428 5.50828C2.43812 4.84938 2.55698 4.19401 2.8783 3.56338C3.35767 2.62257 4.12257 1.85767 5.06338 1.3783C5.69401 1.05698 6.34938 0.938115 7.00829 0.88428C7.63257 0.833274 8.39051 0.8333 9.26909 0.83333ZM5.66667 30.8333H19V7.83333C19 6.87241 18.9987 6.25195 18.9601 5.77972C18.9231 5.32695 18.8603 5.15909 18.8183 5.07668C18.6586 4.76308 18.4036 4.50811 18.09 4.34832C18.0076 4.30633 17.8397 4.24354 17.3869 4.20654C16.9147 4.16796 16.2943 4.16666 15.3333 4.16666H9.33333C8.37241 4.16666 7.75196 4.16796 7.27973 4.20654C6.82696 4.24354 6.65909 4.30633 6.57668 4.34832C6.26308 4.50811 6.00811 4.76308 5.84832 5.07668C5.80633 5.15909 5.74354 5.32695 5.70655 5.77972C5.66796 6.25195 5.66667 6.87241 5.66667 7.83333V30.8333ZM22.3333 17.5V30.8333H32.3333V21.1667C32.3333 20.2057 32.332 19.5853 32.2935 19.1131C32.2565 18.6603 32.1937 18.4924 32.1517 18.41C31.9919 18.0964 31.7369 17.8414 31.4233 17.6817C31.3409 17.6397 31.173 17.5769 30.7203 17.5399C30.248 17.5013 29.6276 17.5 28.6667 17.5H22.3333ZM8.16667 9.16666C8.16667 8.24619 8.91286 7.5 9.83333 7.5H14.8333C15.7538 7.5 16.5 8.24619 16.5 9.16666C16.5 10.0871 15.7538 10.8333 14.8333 10.8333H9.83333C8.91286 10.8333 8.16667 10.0871 8.16667 9.16666ZM8.16667 15.8333C8.16667 14.9129 8.91286 14.1667 9.83333 14.1667H14.8333C15.7538 14.1667 16.5 14.9129 16.5 15.8333C16.5 16.7538 15.7538 17.5 14.8333 17.5H9.83333C8.91286 17.5 8.16667 16.7538 8.16667 15.8333ZM8.16667 22.5C8.16667 21.5795 8.91286 20.8333 9.83333 20.8333H14.8333C15.7538 20.8333 16.5 21.5795 16.5 22.5C16.5 23.4205 15.7538 24.1667 14.8333 24.1667H9.83333C8.91286 24.1667 8.16667 23.4205 8.16667 22.5Z" fill="#7A3EF4"/>
</svg>
