<svg width="20" height="20" viewBox="0 0 20 20" fill="none" xmlns="http://www.w3.org/2000/svg">
<path fill-rule="evenodd" clip-rule="evenodd" d="M10 2.50001C5.85787 2.50001 2.5 5.85787 2.5 10C2.5 14.1421 5.85787 17.5 10 17.5C14.1421 17.5 17.5 14.1421 17.5 10C17.5 5.85787 14.1421 2.50001 10 2.50001ZM0.833336 10C0.833336 4.9374 4.93739 0.833344 10 0.833344C15.0626 0.833344 19.1667 4.9374 19.1667 10C19.1667 15.0626 15.0626 19.1667 10 19.1667C4.93739 19.1667 0.833336 15.0626 0.833336 10ZM9.16667 6.66668C9.16667 6.20644 9.53976 5.83334 10 5.83334H10.0083C10.4686 5.83334 10.8417 6.20644 10.8417 6.66668C10.8417 7.12691 10.4686 7.50001 10.0083 7.50001H10C9.53976 7.50001 9.16667 7.12691 9.16667 6.66668ZM10 9.16668C10.4602 9.16668 10.8333 9.53977 10.8333 10V13.3333C10.8333 13.7936 10.4602 14.1667 10 14.1667C9.53976 14.1667 9.16667 13.7936 9.16667 13.3333V10C9.16667 9.53977 9.53976 9.16668 10 9.16668Z" fill="#6B7280"/>
</svg>
