<svg viewBox="0 0 24 24" fill="black" xmlns="http://www.w3.org/2000/svg">
    <path
        d="M20.9971 17.0147C20.9969 17.0106 20.9963 17.0064 20.9961 17.0029C20.9929 17.0028 20.9891 17.0031 20.9854 17.0029C20.9201 17 20.8305 17 20.667 17H3.33303C3.16952 17 3.07993 17 3.01467 17.0029C3.01059 17.0031 3.0064 17.0027 3.00295 17.0029C3.00277 17.0064 3.00314 17.0106 3.00295 17.0147C2.99999 17.0799 3.00003 17.1695 3.00003 17.333C3.00003 18.0174 3.00872 18.1637 3.0342 18.2588C3.12667 18.6039 3.39614 18.8734 3.74124 18.9658C3.83635 18.9913 3.98266 19 4.66702 19H19.333C20.0174 19 20.1637 18.9913 20.2588 18.9658C20.6039 18.8734 20.8734 18.6039 20.9658 18.2588C20.9913 18.1637 21 18.0174 21 17.333C21 17.1695 21.0001 17.0799 20.9971 17.0147ZM20 7.2002C20 6.62365 19.9988 6.25112 19.9756 5.96778C19.9534 5.69619 19.9158 5.59534 19.8906 5.5459C19.7948 5.35793 19.6421 5.20522 19.4541 5.10938C19.4047 5.08419 19.3038 5.04662 19.0323 5.02442C18.7489 5.00127 18.3764 5 17.7998 5H6.20022C5.62367 5 5.25114 5.00127 4.9678 5.02442C4.69621 5.04662 4.59536 5.08419 4.54592 5.10938C4.35795 5.20522 4.20524 5.35793 4.1094 5.5459C4.08421 5.59534 4.04664 5.69619 4.02444 5.96778C4.00129 6.25112 4.00003 6.62365 4.00003 7.2002V15H20V7.2002ZM22 15.2676C22.4157 15.5076 22.736 15.8921 22.8936 16.3545L22.9317 16.4824L22.9746 16.7012C23.0046 16.9232 23 17.1487 23 17.333C23 17.8886 23.0083 18.3628 22.8975 18.7764C22.6201 19.8116 21.8117 20.6201 20.7764 20.8975C20.4663 20.9806 20.1223 20.9972 19.7354 21H4.26467C3.87771 20.9972 3.53375 20.9806 3.22366 20.8975C2.18838 20.6201 1.37997 19.8116 1.10256 18.7764C0.991754 18.3628 1.00002 17.8886 1.00002 17.333C1.00002 17.0874 0.991681 16.7687 1.06838 16.4824C1.20749 15.9633 1.5466 15.5293 2.00003 15.2676V7.2002C2.00003 6.65665 1.99895 6.18836 2.0303 5.80469C2.06261 5.40943 2.13442 5.016 2.32717 4.6377C2.61475 4.07348 3.0735 3.61473 3.63772 3.32715C4.01602 3.1344 4.40945 3.06259 4.80471 3.03028C5.18838 2.99893 5.65667 3 6.20022 3H17.7998C18.3434 3 18.8117 2.99893 19.1953 3.03028C19.5906 3.06259 19.984 3.1344 20.3623 3.32715C20.9266 3.61473 21.3853 4.07348 21.6729 4.6377C21.8656 5.016 21.9374 5.40943 21.9698 5.80469C22.0011 6.18836 22 6.65665 22 7.2002V15.2676Z" />
</svg>