<svg width="18" height="20" viewBox="0 0 18 20" fill="none" xmlns="http://www.w3.org/2000/svg">
<path fill-rule="evenodd" clip-rule="evenodd" d="M3 6C3 2.68629 5.68629 0 9 0C12.3137 0 15 2.68629 15 6V7.15032C15.2826 7.21225 15.5539 7.30243 15.816 7.43597C16.5686 7.81947 17.1805 8.43139 17.564 9.18404C17.8113 9.66937 17.9099 10.1861 17.9558 10.7482C18 11.2894 18 11.9537 18 12.7587V14.2413C18 15.0463 18 15.7106 17.9558 16.2518C17.9099 16.8139 17.8113 17.3306 17.564 17.816C17.1805 18.5686 16.5686 19.1805 15.816 19.564C15.3306 19.8113 14.8139 19.9099 14.2518 19.9558C13.7106 20 13.0463 20 12.2413 20H5.75868C4.95372 20 4.28936 20 3.74817 19.9558C3.18608 19.9099 2.66937 19.8113 2.18404 19.564C1.43139 19.1805 0.819468 18.5686 0.435975 17.816C0.188684 17.3306 0.0901197 16.8139 0.0441945 16.2518C-2.28137e-05 15.7106 -1.23241e-05 15.0463 4.31292e-07 14.2413V12.7587C-1.23241e-05 11.9537 -2.28137e-05 11.2894 0.0441945 10.7482C0.0901197 10.1861 0.188684 9.66937 0.435975 9.18404C0.819468 8.43139 1.43139 7.81947 2.18404 7.43597C2.44614 7.30243 2.71739 7.21225 3 7.15032V6ZM5 7.00163C5.23771 6.99999 5.4904 7 5.7587 7H12.2413C12.5096 7 12.7623 6.99999 13 7.00163V6C13 3.79086 11.2091 2 9 2C6.79086 2 5 3.79086 5 6V7.00163ZM3.91104 9.03755C3.47262 9.07337 3.24842 9.1383 3.09202 9.21799C2.7157 9.40973 2.40973 9.71569 2.21799 10.092C2.1383 10.2484 2.07337 10.4726 2.03755 10.911C2.00078 11.3611 2 11.9434 2 12.8V14.2C2 15.0566 2.00078 15.6389 2.03755 16.089C2.07337 16.5274 2.1383 16.7516 2.21799 16.908C2.40973 17.2843 2.7157 17.5903 3.09202 17.782C3.24842 17.8617 3.47262 17.9266 3.91104 17.9624C4.36113 17.9992 4.94342 18 5.8 18H12.2C13.0566 18 13.6389 17.9992 14.089 17.9624C14.5274 17.9266 14.7516 17.8617 14.908 17.782C15.2843 17.5903 15.5903 17.2843 15.782 16.908C15.8617 16.7516 15.9266 16.5274 15.9624 16.089C15.9992 15.6389 16 15.0566 16 14.2V12.8C16 11.9434 15.9992 11.3611 15.9624 10.911C15.9266 10.4726 15.8617 10.2484 15.782 10.092C15.5903 9.71569 15.2843 9.40973 14.908 9.21799C14.7516 9.1383 14.5274 9.07337 14.089 9.03755C13.6389 9.00078 13.0566 9 12.2 9H5.8C4.94342 9 4.36113 9.00078 3.91104 9.03755ZM9 11.5C9.55229 11.5 10 11.9477 10 12.5V14.5C10 15.0523 9.55229 15.5 9 15.5C8.44772 15.5 8 15.0523 8 14.5V12.5C8 11.9477 8.44772 11.5 9 11.5Z" fill="#7A3EF4"/>
</svg>
