<svg viewBox="0 0 24 24" fill="black" xmlns="http://www.w3.org/2000/svg">
    <path
        d="M14.793 16.293C15.1835 15.9024 15.8165 15.9024 16.207 16.293C16.5976 16.6835 16.5976 17.3165 16.207 17.707L14.4141 19.5L16.207 21.293C16.5976 21.6835 16.5976 22.3165 16.207 22.707C15.8165 23.0976 15.1835 23.0976 14.793 22.707L12.293 20.207C11.9024 19.8165 11.9024 19.1835 12.293 18.793L14.793 16.293ZM18.793 16.293C19.1835 15.9024 19.8165 15.9024 20.207 16.293L22.707 18.793C23.0976 19.1835 23.0976 19.8165 22.707 20.207L20.207 22.707C19.8165 23.0976 19.1835 23.0976 18.793 22.707C18.4024 22.3165 18.4024 21.6835 18.793 21.293L20.5859 19.5L18.793 17.707C18.4024 17.3165 18.4024 16.6835 18.793 16.293ZM19.9971 4.98438C19.9936 4.97318 19.9848 4.95153 19.9648 4.91895C19.9224 4.84984 19.8358 4.74586 19.6738 4.61816C19.3437 4.35796 18.8039 4.07918 18.0479 3.82715C16.5461 3.32656 14.4077 3 12 3C9.59229 3 7.45391 3.32656 5.95215 3.82715C5.19606 4.07918 4.65634 4.35796 4.32617 4.61816C4.16419 4.74586 4.07758 4.84984 4.03516 4.91895C4.01518 4.95153 4.00637 4.97318 4.00293 4.98438C3.99978 4.99473 4 4.99927 4 5C4 5.00073 3.99978 5.00527 4.00293 5.01562C4.00637 5.02682 4.01518 5.04847 4.03516 5.08105C4.07758 5.15016 4.16419 5.25414 4.32617 5.38184C4.65634 5.64204 5.19606 5.92082 5.95215 6.17285C7.45391 6.67344 9.59229 7 12 7C14.4077 7 16.5461 6.67344 18.0479 6.17285C18.8039 5.92082 19.3437 5.64204 19.6738 5.38184C19.8358 5.25414 19.9224 5.15016 19.9648 5.08105C19.9848 5.04847 19.9936 5.02682 19.9971 5.01562C20.0002 5.00527 20 5.00073 20 5C20 4.99927 20.0002 4.99473 19.9971 4.98438ZM20 7.52441C19.5986 7.72973 19.154 7.9125 18.6807 8.07031C16.9251 8.65551 14.5629 9 12 9C9.43715 9 7.07494 8.65551 5.31934 8.07031C4.84596 7.9125 4.40136 7.72973 4 7.52441V10C4 10.0019 3.99977 10.007 4.00293 10.0176C4.00647 10.0293 4.01516 10.0521 4.03516 10.085C4.0773 10.1541 4.16351 10.2584 4.32422 10.3857C4.6516 10.6451 5.18794 10.9223 5.94141 11.1738C7.43865 11.6737 9.57677 12 12 12C14.4232 12 16.5613 11.6737 18.0586 11.1738C18.8121 10.9223 19.3484 10.6451 19.6758 10.3857C19.8365 10.2584 19.9227 10.1541 19.9648 10.085C19.9848 10.0521 19.9935 10.0293 19.9971 10.0176C20.0002 10.007 20 10.0019 20 10V7.52441ZM22 14C22 14.5523 21.5523 15 21 15C20.4477 15 20 14.5523 20 14V12.5293C19.6018 12.7331 19.1608 12.9146 18.6914 13.0713C16.9387 13.6564 14.5766 14 12 14C9.42339 14 7.06132 13.6564 5.30859 13.0713C4.83923 12.9146 4.39821 12.7331 4 12.5293V19.0039C4.00173 19.0177 4.03783 19.1805 4.38477 19.4551C4.71488 19.7163 5.21172 19.9838 5.83984 20.2236C7.0948 20.7028 8.6799 21 10 21C10.5523 21 11 21.4477 11 22C11 22.5523 10.5523 23 10 23C8.42972 23 6.60299 22.6559 5.12598 22.0918C4.38829 21.8101 3.68913 21.4552 3.14355 21.0234C2.61762 20.6072 2.09558 20.0069 2.01172 19.2139C2.00425 19.1431 2 19.0716 2 19V5C2 4.14818 2.51859 3.4956 3.08789 3.04688C3.66849 2.58931 4.4469 2.22053 5.31934 1.92969C7.07494 1.34449 9.43715 1 12 1C14.5629 1 16.9251 1.34449 18.6807 1.92969C19.5531 2.22053 20.3315 2.58931 20.9121 3.04688C21.4814 3.4956 22 4.14818 22 5V14Z" />
</svg>