<svg viewBox="0 0 24 24" fill="black" xmlns="http://www.w3.org/2000/svg">
    <path fill-rule="evenodd" clip-rule="evenodd"
        d="M16.0331 3.55266C16.2491 2.10798 17.4952 1 19 1C20.6569 1 22 2.34315 22 4C22 5.65685 20.6569 7 19 7C18.0222 7 17.1537 6.53221 16.606 5.80823L14.7071 7.70711C14.5196 7.89464 14.2652 8 14 8H11.3028L8.5547 9.83205C8.39043 9.94156 8.19742 10 8 10H6C5.44772 10 5 9.55228 5 9C5 8.44772 5.44772 8 6 8H7.69722L10.4453 6.16795C10.6096 6.05844 10.8026 6 11 6H13.5858L16.0331 3.55266ZM19 3C18.4477 3 18 3.44771 18 4C18 4.55228 18.4477 5 19 5C19.5523 5 20 4.55228 20 4C20 3.44772 19.5523 3 19 3ZM4.62228 2.69442C6.62277 1.19905 9.25414 1.36395 11.3162 2.05132C11.8402 2.22596 12.1233 2.79228 11.9487 3.31623C11.774 3.84017 11.2077 4.12333 10.6838 3.94868C8.90412 3.35547 7.06274 3.36718 5.81971 4.29634C4.46575 5.30843 3 7.24435 3 12C3 12.9382 3.05705 13.7667 3.15904 14.5H4.99576C5.16125 14.5 5.32416 14.4589 5.46986 14.3805L11.7479 11H16.1707C16.5825 9.83481 17.6938 9 19 9C20.6569 9 22 10.3431 22 12C22 13.6569 20.6569 15 19 15C17.6938 15 16.5825 14.1652 16.1707 13H12.2521L6.41806 16.1414C5.98094 16.3768 5.49223 16.5 4.99576 16.5H3.61096C4.1633 18.166 5.01143 19.0995 5.81971 19.7037C7.06274 20.6328 8.90412 20.6445 10.6838 20.0513C11.2077 19.8767 11.774 20.1598 11.9487 20.6838C12.1233 21.2077 11.8402 21.774 11.3162 21.9487C9.25414 22.636 6.62277 22.8009 4.62228 21.3056C2.65716 19.8367 1 17.241 1 12C1 6.75899 2.65716 4.16335 4.62228 2.69442ZM19 11C18.4477 11 18 11.4477 18 12C18 12.5523 18.4477 13 19 13C19.5523 13 20 12.5523 20 12C20 11.4477 19.5523 11 19 11ZM8.79289 16.2929C8.98043 16.1054 9.23478 16 9.5 16H14C14.2652 16 14.5196 16.1054 14.7071 16.2929L16.606 18.1918C17.1537 17.4678 18.0222 17 19 17C20.6569 17 22 18.3431 22 20C22 21.6569 20.6569 23 19 23C17.4952 23 16.2491 21.892 16.0331 20.4473L13.5858 18H9.91421L9.20711 18.7071C8.81658 19.0976 8.18342 19.0976 7.79289 18.7071C7.40237 18.3166 7.40237 17.6834 7.79289 17.2929L8.79289 16.2929ZM19 19C18.4477 19 18 19.4477 18 20C18 20.5523 18.4477 21 19 21C19.5523 21 20 20.5523 20 20C20 19.4477 19.5523 19 19 19Z" />
</svg>
