<svg viewBox="0 0 118 44" fill="none" xmlns="http://www.w3.org/2000/svg">
    <g clip-path="url(#clip0_451_1335)">
        <path
            d="M0 33.859V17.1651H3.80971V19.2801C4.77088 17.5663 6.86408 16.6734 8.74938 16.6734C10.9455 16.6734 12.8657 17.6691 13.7591 19.6237C15.066 17.4285 17.0213 16.6734 19.1823 16.6734C22.2038 16.6734 25.0852 18.5949 25.0852 23.0205V33.859H21.2426V23.6707C21.2426 21.7161 20.2464 20.2409 18.0154 20.2409C15.9221 20.2409 14.5494 21.8868 14.5494 23.9442V33.8569H10.6388V23.6707C10.6388 21.751 9.67351 20.2512 7.40949 20.2512C5.28338 20.2512 3.9435 21.8293 3.9435 23.9546V33.8671L0 33.859Z"
            fill="white" />
        <path d="M29.9551 33.859V9.02386H33.9376V33.859H29.9551Z" fill="white" />
        <path
            d="M32.3379 42.9486C33.2332 43.1976 34.038 43.3601 35.7463 43.3601C38.9221 43.3601 42.6679 41.5702 43.6538 36.5459L47.7249 16.4017H53.778L54.5169 13.0502H48.4021L49.2253 9.0465C49.8552 5.93775 51.5758 4.36177 54.3379 4.36177C55.0563 4.36177 54.8545 4.42348 55.4946 4.54487L56.3796 1.1131C55.5275 0.857981 54.764 0.705732 53.101 0.705732C51.3452 0.679343 49.6311 1.2406 48.2312 2.30023C46.6814 3.49765 45.6585 5.25674 45.1913 7.52812L44.0449 13.0502H38.6318L38.1893 16.4039H43.376L39.6383 35.0296C39.2266 37.1426 38.0246 39.6691 34.5752 39.6691C33.793 39.6691 34.077 39.6095 33.3691 39.4942L32.3379 42.9486Z"
            fill="white" />
        <path d="M57.3643 33.7232H53.3838L58.8401 8.66587H62.8206L57.3643 33.7232Z" fill="white" />
        <path
            d="M77.2208 18.2123C73.7467 15.7823 69.0167 16.2601 66.0992 19.3357C63.1816 22.4113 62.9555 27.1583 65.5673 30.4971L68.1751 28.5837C66.8806 26.9785 66.6178 24.7751 67.4982 22.9106C68.3786 21.0462 70.2476 19.8486 72.31 19.8274V21.8642L77.2208 18.2123Z"
            fill="white" />
        <path
            d="M67.3398 32.1821C70.8139 34.6121 75.544 34.1343 78.4615 31.0587C81.379 27.9831 81.6052 23.2361 78.9934 19.8973L76.3856 21.8107C77.6801 23.4159 77.9429 25.6193 77.0625 27.4838C76.182 29.3483 74.3131 30.5458 72.2507 30.567V28.5302L67.3398 32.1821Z"
            fill="white" />
        <path
            d="M83.9805 17.1548H88.3294L89.2144 28.5632L95.4075 17.1548L99.5362 17.2144L101.158 28.5632L106.614 17.1548L110.595 17.2144L102.337 33.8693H98.3569L96.4386 21.93L90.0994 33.8693H85.9707L83.9805 17.1548Z"
            fill="white" />
        <path d="M112.995 17.451H112.171V17.1651H114.155V17.4572H113.332V19.8685H112.995V17.451Z" fill="white" />
        <path
            d="M114.653 17.1651H115.065L115.584 18.6053C115.65 18.7904 115.712 18.9797 115.775 19.169H115.794C115.858 18.9797 115.916 18.7904 115.979 18.6053L116.493 17.1651H116.905V19.8685H116.585V18.3769C116.585 18.1403 116.611 17.8152 116.628 17.5744H116.611L116.405 18.1917L115.894 19.5929H115.671L115.153 18.1937L114.948 17.5766H114.932C114.95 17.8173 114.977 18.1424 114.977 18.379V19.8705H114.664L114.653 17.1651Z"
            fill="white" />
    </g>
    <defs>
        <clipPath id="clip0_451_1335">
            <rect width="117.219" height="43" fill="white" transform="translate(0 0.5)" />
        </clipPath>
    </defs>
</svg>