<svg viewBox="0 0 24 24" fill="none" xmlns="http://www.w3.org/2000/svg">
    <path
        d="M17.7898 3.81267C13.7176 0.964316 8.17331 1.52441 4.75362 5.12943C1.3338 8.73444 1.06871 14.2986 4.13016 18.2122L7.18682 15.9694C5.66952 14.0879 5.36144 11.5052 6.39344 9.31974C7.42544 7.1343 9.6161 5.7306 12.0335 5.70577V8.0932L17.7898 3.81267Z"
        fill="#43C9ED" />
    <path
        d="M6.20703 20.1872C10.2792 23.0356 15.8235 22.4755 19.2432 18.8705C22.663 15.2655 22.9281 9.70132 19.8666 5.78772L16.81 8.03049C18.3273 9.912 18.6353 12.4947 17.6033 14.6802C16.5714 16.8656 14.3807 18.2693 11.9632 18.2941V15.9067L6.20703 20.1872Z"
        fill="#0194E2" />
</svg>
