<svg viewBox="0 0 24 24" fill="black" xmlns="http://www.w3.org/2000/svg">
    <path fill-rule="evenodd" clip-rule="evenodd"
        d="M9 1C9.55228 1 10 1.44772 10 2V4H14V2C14 1.44772 14.4477 1 15 1C15.5523 1 16 1.44772 16 2V4.02714C16.0868 4.03193 16.1707 4.03756 16.2518 4.04419C16.8139 4.09012 17.3306 4.18868 17.816 4.43597C18.5686 4.81947 19.1805 5.43139 19.564 6.18404C19.8113 6.66937 19.9099 7.18608 19.9558 7.74817C19.9624 7.82933 19.9681 7.91325 19.9729 8H22C22.5523 8 23 8.44772 23 9C23 9.55228 22.5523 10 22 10H20V13H22C22.5523 13 23 13.4477 23 14C23 14.5523 22.5523 15 22 15H19.9984C19.9951 15.4755 19.9853 15.891 19.9558 16.2518C19.9099 16.8139 19.8113 17.3306 19.564 17.816C19.1805 18.5686 18.5686 19.1805 17.816 19.564C17.3306 19.8113 16.8139 19.9099 16.2518 19.9558C16.1707 19.9624 16.0868 19.9681 16 19.9729V22C16 22.5523 15.5523 23 15 23C14.4477 23 14 22.5523 14 22V20H10V22C10 22.5523 9.55228 23 9 23C8.44772 23 8 22.5523 8 22V19.9729C7.91325 19.9681 7.82933 19.9624 7.74817 19.9558C7.18608 19.9099 6.66937 19.8113 6.18404 19.564C5.43139 19.1805 4.81947 18.5686 4.43597 17.816C4.18868 17.3306 4.09012 16.8139 4.04419 16.2518C4.01471 15.891 4.00489 15.4755 4.00163 15H2C1.44772 15 1 14.5523 1 14C1 13.4477 1.44772 13 2 13H4V10H2C1.44772 10 1 9.55228 1 9C1 8.44772 1.44772 8 2 8H4.02714C4.03193 7.91325 4.03756 7.82933 4.04419 7.74817C4.09012 7.18608 4.18868 6.66937 4.43597 6.18404C4.81947 5.43139 5.43139 4.81947 6.18404 4.43597C6.66937 4.18868 7.18608 4.09012 7.74817 4.04419C7.82933 4.03756 7.91325 4.03193 8 4.02714V2C8 1.44772 8.44772 1 9 1ZM6 14.2C6 15.0566 6.00078 15.6389 6.03755 16.089C6.07337 16.5274 6.1383 16.7516 6.21799 16.908C6.40973 17.2843 6.71569 17.5903 7.09202 17.782C7.24842 17.8617 7.47262 17.9266 7.91104 17.9624C8.36113 17.9992 8.94342 18 9.8 18H14.2C15.0566 18 15.6389 17.9992 16.089 17.9624C16.5274 17.9266 16.7516 17.8617 16.908 17.782C17.2843 17.5903 17.5903 17.2843 17.782 16.908C17.8617 16.7516 17.9266 16.5274 17.9624 16.089C17.9992 15.6389 18 15.0566 18 14.2V9.8C18 8.94342 17.9992 8.36113 17.9624 7.91104C17.9266 7.47262 17.8617 7.24842 17.782 7.09202C17.5903 6.71569 17.2843 6.40973 16.908 6.21799C16.7516 6.1383 16.5274 6.07337 16.089 6.03755C15.6389 6.00078 15.0566 6 14.2 6H9.8C8.94342 6 8.36113 6.00078 7.91104 6.03755C7.47262 6.07337 7.24842 6.1383 7.09202 6.21799C6.71569 6.40973 6.40973 6.71569 6.21799 7.09202C6.1383 7.24842 6.07337 7.47262 6.03755 7.91104C6.00078 8.36113 6 8.94342 6 9.8V14.2Z" />
    <path fill-rule="evenodd" clip-rule="evenodd"
        d="M10.2929 8.79289C10.6834 8.40237 11.3166 8.40237 11.7071 8.79289L14.2071 11.2929C14.5976 11.6834 14.5976 12.3166 14.2071 12.7071L11.7071 15.2071C11.3166 15.5976 10.6834 15.5976 10.2929 15.2071C9.90237 14.8166 9.90237 14.1834 10.2929 13.7929L12.0858 12L10.2929 10.2071C9.90237 9.81658 9.90237 9.18342 10.2929 8.79289Z" />
</svg>