<svg viewBox="0 0 24 24" fill="black" xmlns="http://www.w3.org/2000/svg">
    <path
        d="M7 12C7 9.63083 8.03052 7.50293 9.66699 6.03809C9.44795 6.01385 9.2255 6 9 6C5.68629 6 3 8.68629 3 12C3 15.3137 5.68629 18 9 18C9.22554 18 9.44791 17.9852 9.66699 17.9609C8.0308 16.4961 7 14.3689 7 12ZM9 12C9 14.2205 10.2071 16.1578 12 17.1953C13.7929 16.1578 15 14.2205 15 12C15 9.77934 13.7932 7.8412 12 6.80371C10.2068 7.8412 9 9.77934 9 12ZM17 12C17 14.3692 15.9685 16.4961 14.332 17.9609C14.5514 17.9852 14.7741 18 15 18C18.3137 18 21 15.3137 21 12C21 8.68629 18.3137 6 15 6C14.7742 6 14.5514 6.01378 14.332 6.03809C15.9688 7.50295 17 9.63057 17 12ZM23 12C23 16.4183 19.4183 20 15 20C13.9388 20 12.9267 19.7912 12 19.416C11.0733 19.7912 10.0612 20 9 20C4.58172 20 1 16.4183 1 12C1 7.58172 4.58172 4 9 4C10.0612 4 11.0733 4.20875 12 4.58398C12.9267 4.20875 13.9388 4 15 4C19.4183 4 23 7.58172 23 12Z" />
</svg>
