<svg viewBox="0 0 24 24" fill="black" xmlns="http://www.w3.org/2000/svg">
    <path fill-rule="evenodd" clip-rule="evenodd"
        d="M11.5971 1.18505C11.8629 1.13038 12.1371 1.13038 12.4029 1.18505C12.7102 1.24824 12.9848 1.40207 13.2032 1.52436C13.2235 1.53575 13.2433 1.54687 13.2627 1.55761L12.7846 2.41823L13.2627 1.55761L20.6627 5.66872C20.6831 5.68009 20.7042 5.6917 20.7258 5.70359C20.9569 5.8309 21.2476 5.99097 21.4707 6.23315L21.1563 6.52296L21.4707 6.23315C21.6637 6.44253 21.8097 6.6907 21.899 6.96105C22.0024 7.27375 22.0011 7.60553 22.0002 7.8694C22.0001 7.89406 22 7.91813 22 7.94153L22 12.5001C22 13.0524 21.5523 13.5001 21 13.5001C20.4477 13.5001 20 13.0524 20 12.5001L20 8.69955L17.0029 10.3646C16.992 10.3709 16.9811 10.377 16.9701 10.3829L13 12.5885L13 20.3006L13.5144 20.0148C13.9971 19.7466 14.6059 19.9205 14.8742 20.4033C15.1424 20.8861 14.9684 21.4949 14.4856 21.7631L13.2627 22.4426C13.2433 22.4533 13.2235 22.4644 13.2032 22.4758C12.9848 22.5981 12.7102 22.7519 12.4029 22.8151C12.1371 22.8698 11.8629 22.8698 11.5971 22.8151C11.2898 22.7519 11.0152 22.5981 10.7968 22.4758C10.7765 22.4644 10.7567 22.4533 10.7373 22.4426L3.33733 18.3314C3.31688 18.3201 3.2958 18.3085 3.27421 18.2966C3.04308 18.1693 2.75245 18.0092 2.52927 17.767C2.33632 17.5576 2.1903 17.3095 2.10097 17.0391C1.99765 16.7264 1.99886 16.3946 1.99982 16.1308C1.99991 16.1061 2 16.082 2 16.0586V7.94153C2 7.91813 1.99991 7.89406 1.99982 7.8694C1.99886 7.60553 1.99765 7.27375 2.10097 6.96105C2.1903 6.69069 2.33632 6.44253 2.52927 6.23315C2.75244 5.99098 3.04306 5.8309 3.27419 5.7036C3.29579 5.6917 3.31687 5.68009 3.33733 5.66872L3.33733 5.66872L6.99904 3.63444C7.00862 3.62891 7.01828 3.62354 7.02802 3.61834L10.7373 1.55761C10.7567 1.54687 10.7765 1.53575 10.7968 1.52437C11.0152 1.40207 11.2898 1.24824 11.5971 1.18505ZM7.5 5.64404L5.05914 7.00008L12 10.8561L14.4408 9.50006L7.5 5.64404ZM16.5 8.3561L9.55913 4.50008L11.7086 3.30592C11.8602 3.22174 11.9375 3.1792 11.9952 3.15136C11.9969 3.15056 11.9985 3.1498 12 3.14907C12.0015 3.1498 12.0031 3.15056 12.0048 3.15136C12.0625 3.1792 12.1398 3.22173 12.2914 3.30592L18.9408 7.00006L16.5 8.3561ZM11 12.5885L4 8.69959V16.0586C4 16.2416 4.00042 16.3353 4.0045 16.4031C4.00462 16.4051 4.00475 16.407 4.00487 16.4088C4.0064 16.4098 4.00802 16.4108 4.00971 16.4119C4.067 16.4484 4.14867 16.4943 4.30862 16.5831L3.82297 17.4573L4.30862 16.5831L11 20.3006L11 12.5885ZM19 14.0001C19.5523 14.0001 20 14.4478 20 15.0001V17.0001H22C22.5523 17.0001 23 17.4478 23 18.0001C23 18.5524 22.5523 19.0001 22 19.0001H20V21.0001C20 21.5524 19.5523 22.0001 19 22.0001C18.4477 22.0001 18 21.5524 18 21.0001V19.0001H16C15.4477 19.0001 15 18.5524 15 18.0001C15 17.4478 15.4477 17.0001 16 17.0001H18V15.0001C18 14.4478 18.4477 14.0001 19 14.0001Z" />
</svg>
