<svg viewBox="0 0 24 24" fill="black" xmlns="http://www.w3.org/2000/svg">
    <path fill-rule="evenodd" clip-rule="evenodd"
        d="M11.5971 1.18505C11.8629 1.13038 12.1371 1.13038 12.4029 1.18505C12.7102 1.24824 12.9848 1.40207 13.2032 1.52436C13.2235 1.53575 13.2433 1.54687 13.2627 1.55761L12.7846 2.41823L13.2627 1.55761L20.6627 5.66872C20.6831 5.68009 20.7042 5.6917 20.7258 5.70359C20.9569 5.8309 21.2476 5.99097 21.4707 6.23315L21.1563 6.52296L21.4707 6.23315C21.6637 6.44253 21.8097 6.6907 21.899 6.96105C22.0024 7.27375 22.0011 7.60553 22.0002 7.8694C22.0001 7.89406 22 7.91813 22 7.94153V12.0001C22 12.5524 21.5523 13.0001 21 13.0001C20.4477 13.0001 20 12.5524 20 12.0001V8.69955L17.0029 10.3646C16.992 10.3709 16.9811 10.377 16.9701 10.3829L13 12.5885L13 20.4443C13.3511 20.4447 13.6916 20.6302 13.8742 20.9589C14.1424 21.4417 13.9684 22.0505 13.4856 22.3187L13.2627 22.4426C13.2433 22.4533 13.2235 22.4644 13.2032 22.4758C12.9848 22.5981 12.7102 22.7519 12.4029 22.8151C12.1371 22.8698 11.8629 22.8698 11.5971 22.8151C11.2898 22.7519 11.0152 22.5981 10.7968 22.4758C10.7765 22.4644 10.7567 22.4533 10.7373 22.4426L3.33733 18.3314C3.31688 18.3201 3.2958 18.3085 3.27421 18.2966C3.04308 18.1693 2.75245 18.0092 2.52927 17.767C2.33632 17.5576 2.1903 17.3095 2.10097 17.0391C1.99765 16.7264 1.99886 16.3946 1.99982 16.1308C1.99991 16.1061 2 16.082 2 16.0586V7.94153C2 7.91813 1.99991 7.89406 1.99982 7.8694C1.99886 7.60553 1.99765 7.27375 2.10097 6.96105C2.1903 6.69069 2.33632 6.44253 2.52927 6.23315C2.75244 5.99098 3.04306 5.8309 3.27419 5.7036C3.29579 5.6917 3.31687 5.68009 3.33733 5.66872L3.33733 5.66872L6.99904 3.63444C7.00862 3.62891 7.01828 3.62354 7.02802 3.61834L10.7373 1.55761C10.7567 1.54687 10.7765 1.53575 10.7968 1.52437C11.0152 1.40207 11.2898 1.24824 11.5971 1.18505ZM7.5 5.64404L5.05914 7.00008L12 10.8561L14.4408 9.50006L7.5 5.64404ZM16.5 8.3561L9.55913 4.50008L11.7086 3.30592C11.8602 3.22174 11.9375 3.1792 11.9952 3.15136C11.9969 3.15056 11.9985 3.1498 12 3.14907C12.0015 3.1498 12.0031 3.15056 12.0048 3.15136C12.0625 3.1792 12.1398 3.22173 12.2914 3.30592L18.9408 7.00006L16.5 8.3561ZM11 12.5885L4 8.69959V16.0586C4 16.2416 4.00042 16.3353 4.0045 16.4031C4.00462 16.4051 4.00475 16.407 4.00487 16.4088C4.0064 16.4098 4.00802 16.4108 4.00971 16.4119C4.067 16.4484 4.14867 16.4943 4.30862 16.5831L3.82297 17.4573L4.30862 16.5831L11 20.3006L11 12.5885ZM19 16.0001C17.8954 16.0001 17 16.8955 17 18.0001C17 19.1047 17.8954 20.0001 19 20.0001C20.1046 20.0001 21 19.1047 21 18.0001C21 16.8955 20.1046 16.0001 19 16.0001ZM15 18.0001C15 15.7909 16.7909 14.0001 19 14.0001C21.2091 14.0001 23 15.7909 23 18.0001C23 18.8713 22.7215 19.6775 22.2486 20.3344L22.7071 20.793C23.0976 21.1835 23.0976 21.8167 22.7071 22.2072C22.3166 22.5977 21.6834 22.5977 21.2929 22.2072L20.7052 21.6195C20.1879 21.8636 19.6099 22.0001 19 22.0001C16.7909 22.0001 15 20.2092 15 18.0001Z" />
</svg>
