<svg viewBox="0 0 24 24" fill="black" xmlns="http://www.w3.org/2000/svg">
<path fill-rule="evenodd" clip-rule="evenodd" d="M8.32406 1C8.33723 1 8.35044 1 8.36368 1L15.6768 1C16.0385 0.999969 16.3745 0.999939 16.6496 1.02491C16.9375 1.05104 17.2968 1.11316 17.6284 1.33301C18.0677 1.62422 18.3743 2.07707 18.4816 2.5931C18.5625 2.98268 18.4868 3.33932 18.4041 3.61632C18.3251 3.88107 18.2003 4.19305 18.0659 4.52883L17.0433 7.0853C17.0204 7.1427 17.0092 7.17072 17.0015 7.1913C17.0014 7.19179 17.0012 7.19225 17.001 7.1927C17.001 7.19318 17.001 7.19368 17.001 7.19419C17.0005 7.21616 17.0004 7.24632 17.0004 7.30814V9.43876C17.0004 9.55027 17.0006 9.60549 17.0022 9.64564C17.0022 9.64665 17.0023 9.64763 17.0023 9.64856C17.0029 9.64932 17.0034 9.6501 17.0041 9.65092C17.0279 9.68326 17.0622 9.7265 17.1319 9.81357L18.7295 11.8106C19.0385 12.1968 19.3122 12.5388 19.504 12.829C19.6913 13.1123 19.9193 13.5133 19.9198 13.9978C19.9205 14.6069 19.6435 15.1831 19.1675 15.5631C18.7888 15.8654 18.3333 15.9379 17.995 15.9686C17.6486 16.0001 17.2106 16 16.7159 16L13.0004 16L13.0004 22C13.0004 22.5523 12.5527 23 12.0004 23C11.4481 23 11.0004 22.5523 11.0004 22L11.0004 16L7.28496 16C6.79028 16 6.35222 16.0001 6.00585 15.9686C5.66758 15.9379 5.21203 15.8654 4.83335 15.5631C4.35733 15.1831 4.0804 14.6069 4.08106 13.9978C4.08158 13.5133 4.30954 13.1123 4.49686 12.829C4.68867 12.5388 4.96234 12.1968 5.27138 11.8105L6.86895 9.81357C6.93861 9.7265 6.97297 9.68327 6.99681 9.65092C6.99741 9.6501 6.99799 9.64932 6.99854 9.64856C6.99858 9.64762 6.99862 9.64665 6.99866 9.64564C7.00025 9.60549 7.00043 9.55027 7.00043 9.43876V7.30814C7.00043 7.24632 7.00037 7.21617 6.99987 7.1942C6.99986 7.19368 6.99985 7.19318 6.99984 7.1927C6.99967 7.19225 6.9995 7.19179 6.99932 7.1913C6.99162 7.17072 6.98047 7.1427 6.95752 7.0853L5.94964 4.56562C5.94473 4.55333 5.93982 4.54107 5.93493 4.52884C5.80058 4.19306 5.67575 3.88107 5.59675 3.61632C5.51409 3.33932 5.43834 2.98268 5.51929 2.5931C5.62652 2.07707 5.93312 1.62422 6.37241 1.33301C6.70406 1.11316 7.06333 1.05104 7.35122 1.02491C7.62638 0.999939 7.9624 0.999969 8.32406 1ZM16.6714 14C17.2242 14 17.5695 13.999 17.8141 13.9768C17.8312 13.9752 17.847 13.9736 17.8615 13.972C17.8537 13.9596 17.8451 13.9463 17.8356 13.932C17.7002 13.7271 17.4853 13.4568 17.14 13.0252L15.5702 11.063C15.5614 11.052 15.5523 11.0407 15.5431 11.0292C15.4416 10.903 15.3139 10.744 15.2194 10.5591C15.1374 10.3987 15.0775 10.2278 15.0413 10.0513C14.9995 9.84793 15 9.64398 15.0004 9.48205C15.0004 9.46725 15.0004 9.45281 15.0004 9.43876V7.30814C15.0004 7.30039 15.0004 7.29243 15.0004 7.28429C15.0003 7.19422 15.0001 7.08077 15.0134 6.96478C15.025 6.86392 15.0442 6.76409 15.071 6.66615C15.1017 6.55352 15.144 6.44823 15.1775 6.36464C15.1806 6.35709 15.1835 6.34971 15.1864 6.34252L16.1943 3.82284C16.3484 3.43753 16.4378 3.21134 16.4876 3.04443C16.4903 3.03549 16.4927 3.02712 16.4949 3.01929C16.4868 3.01843 16.4781 3.01757 16.4689 3.01672C16.2954 3.00098 16.0522 3 15.6372 3H8.36368C7.94869 3 7.70547 3.00098 7.53199 3.01672C7.52271 3.01757 7.51404 3.01843 7.50595 3.01929C7.50815 3.02712 7.51057 3.03549 7.51324 3.04443C7.56305 3.21134 7.65247 3.43753 7.8066 3.82284L8.81447 6.34252C8.81735 6.34971 8.82031 6.35709 8.82334 6.36465C8.8569 6.44823 8.89917 6.55352 8.9299 6.66615C8.95662 6.76409 8.97585 6.86392 8.98741 6.96478C9.00071 7.08077 9.00057 7.19423 9.00045 7.2843C9.00044 7.29244 9.00043 7.30039 9.00043 7.30814V9.43876C9.00043 9.45281 9.00046 9.46725 9.0005 9.48205C9.00087 9.64398 9.00133 9.84793 8.95959 10.0513C8.92337 10.2278 8.86344 10.3987 8.78146 10.5591C8.68701 10.744 8.55923 10.903 8.45778 11.0292C8.44852 11.0407 8.43947 11.052 8.43069 11.063L6.86091 13.0252C6.51558 13.4568 6.30064 13.7271 6.16521 13.932C6.15573 13.9463 6.14712 13.9596 6.13932 13.972C6.15384 13.9736 6.16964 13.9752 6.18677 13.9768C6.43132 13.999 6.77664 14 7.32943 14H16.6714Z" />
</svg>
