<svg viewBox="0 0 24 24" fill="black" xmlns="http://www.w3.org/2000/svg">
    <path fill-rule="evenodd" clip-rule="evenodd"
        d="M5 3C4.44772 3 4 3.44772 4 4C4 4.55228 4.44772 5 5 5C5.55228 5 6 4.55228 6 4C6 3.44772 5.55228 3 5 3ZM2 4C2 2.34315 3.34315 1 5 1C6.30622 1 7.41746 1.83481 7.82929 3L16.1707 3C16.5825 1.83481 17.6938 1 19 1C20.6569 1 22 2.34315 22 4C22 5.65685 20.6569 7 19 7C17.6938 7 16.5825 6.16519 16.1707 5L13 5V11H16.1707C16.5825 9.83481 17.6938 9 19 9C20.6569 9 22 10.3431 22 12C22 13.6569 20.6569 15 19 15C17.6938 15 16.5825 14.1652 16.1707 13H13V15.2C13 16.0566 13.0008 16.6389 13.0376 17.089C13.0734 17.5274 13.1383 17.7516 13.218 17.908C13.4097 18.2843 13.7157 18.5903 14.092 18.782C14.2484 18.8617 14.4726 18.9266 14.911 18.9624C15.2412 18.9894 15.6425 18.997 16.171 18.9992C16.5831 17.8344 17.6941 17 19 17C20.6569 17 22 18.3431 22 20C22 21.6569 20.6569 23 19 23C17.6935 23 16.5821 22.1648 16.1705 20.9993C15.6232 20.9971 15.1515 20.9888 14.7482 20.9558C14.1861 20.9099 13.6694 20.8113 13.184 20.564C12.4314 20.1805 11.8195 19.5686 11.436 18.816C11.1887 18.3306 11.0901 17.8139 11.0442 17.2518C11 16.7106 11 16.0463 11 15.2413V5L7.82929 5C7.41746 6.16519 6.30622 7 5 7C3.34315 7 2 5.65685 2 4ZM19 3C18.4477 3 18 3.44771 18 4C18 4.55228 18.4477 5 19 5C19.5523 5 20 4.55228 20 4C20 3.44772 19.5523 3 19 3ZM19 11C18.4477 11 18 11.4477 18 12C18 12.5523 18.4477 13 19 13C19.5523 13 20 12.5523 20 12C20 11.4477 19.5523 11 19 11ZM19 19C18.4477 19 18 19.4477 18 20C18 20.5523 18.4477 21 19 21C19.5523 21 20 20.5523 20 20C20 19.4477 19.5523 19 19 19Z" />
</svg>
