<svg width="16" height="16" viewBox="0 0 16 16" fill="none" xmlns="http://www.w3.org/2000/svg">
<path fill-rule="evenodd" clip-rule="evenodd" d="M7.99996 0.666668C8.36815 0.666668 8.66663 0.965145 8.66663 1.33333V8C8.66663 8.36819 8.36815 8.66667 7.99996 8.66667C7.63177 8.66667 7.33329 8.36819 7.33329 8V1.33333C7.33329 0.965145 7.63177 0.666668 7.99996 0.666668ZM4.22462 3.95519C4.48501 4.21549 4.48508 4.6376 4.22477 4.89799C3.47907 5.64394 2.97129 6.59426 2.76564 7.62877C2.56 8.66329 2.66572 9.73556 3.06944 10.71C3.47315 11.6844 4.15674 12.5173 5.03377 13.1032C5.91079 13.6892 6.94187 14.0019 7.99663 14.0019C9.05139 14.0019 10.0825 13.6892 10.9595 13.1032C11.8365 12.5173 12.5201 11.6844 12.9238 10.71C13.3275 9.73556 13.4333 8.66329 13.2276 7.62877C13.022 6.59426 12.5142 5.64394 11.7685 4.89799C11.5082 4.6376 11.5082 4.21549 11.7686 3.95519C12.029 3.69488 12.4511 3.69495 12.7114 3.95534C13.6436 4.88778 14.2783 6.07567 14.5354 7.36881C14.7924 8.66196 14.6603 10.0023 14.1556 11.2203C13.651 12.4384 12.7965 13.4795 11.7002 14.2119C10.6039 14.9443 9.31507 15.3353 7.99663 15.3353C6.67818 15.3353 5.38933 14.9443 4.29305 14.2119C3.19677 13.4795 2.34229 12.4384 1.83764 11.2203C1.33299 10.0023 1.20084 8.66196 1.4579 7.36881C1.71496 6.07567 2.34968 4.88778 3.28181 3.95534C3.54212 3.69495 3.96423 3.69488 4.22462 3.95519Z" fill="#9CA3AF"/>
</svg>
