<svg width="20" height="20" viewBox="0 0 20 20" fill="none" xmlns="http://www.w3.org/2000/svg">
<path fill-rule="evenodd" clip-rule="evenodd" d="M5.7587 4.31292e-07L8 9.08129e-07C8.55229 9.08129e-07 9 0.447716 9 1C9 1.55229 8.55229 2 8 2H5.8C4.94342 2 4.36113 2.00078 3.91104 2.03755C3.47262 2.07337 3.24842 2.1383 3.09202 2.21799C2.7157 2.40973 2.40973 2.7157 2.21799 3.09202C2.1383 3.24842 2.07337 3.47262 2.03755 3.91104C2.00078 4.36113 2 4.94342 2 5.8V14.2C2 15.0566 2.00078 15.6389 2.03755 16.089C2.07337 16.5274 2.1383 16.7516 2.21799 16.908C2.40973 17.2843 2.7157 17.5903 3.09202 17.782C3.24842 17.8617 3.47262 17.9266 3.91104 17.9624C4.36113 17.9992 4.94342 18 5.8 18H14.2C15.0566 18 15.6389 17.9992 16.089 17.9624C16.5274 17.9266 16.7516 17.8617 16.908 17.782C17.2843 17.5903 17.5903 17.2843 17.782 16.908C17.8617 16.7516 17.9266 16.5274 17.9624 16.089C17.9992 15.6389 18 15.0566 18 14.2V12C18 11.4477 18.4477 11 19 11C19.5523 11 20 11.4477 20 12V14.2413C20 15.0463 20 15.7106 19.9558 16.2518C19.9099 16.8139 19.8113 17.3306 19.564 17.816C19.1805 18.5686 18.5686 19.1805 17.816 19.564C17.3306 19.8113 16.8139 19.9099 16.2518 19.9558C15.7106 20 15.0463 20 14.2413 20H5.75868C4.95372 20 4.28936 20 3.74817 19.9558C3.18608 19.9099 2.66937 19.8113 2.18404 19.564C1.43139 19.1805 0.819468 18.5686 0.435975 17.816C0.188684 17.3306 0.0901197 16.8139 0.0441945 16.2518C-2.28137e-05 15.7106 -1.23241e-05 15.0463 4.31292e-07 14.2413V5.7587C-1.23241e-05 4.95373 -2.28137e-05 4.28937 0.0441945 3.74817C0.0901197 3.18608 0.188684 2.66937 0.435975 2.18404C0.819468 1.43139 1.43139 0.819468 2.18404 0.435975C2.66937 0.188684 3.18608 0.0901197 3.74817 0.0441945C4.28937 -2.28137e-05 4.95373 -1.23241e-05 5.7587 4.31292e-07ZM12 1.00001C12 0.447726 12.4477 1.04449e-05 13 1.04449e-05H19C19.5523 1.04449e-05 20 0.447725 20 1.00001L20 7.00001C20 7.55229 19.5523 8.00001 19 8.00001C18.4477 8.00001 18 7.5523 18 7.00001L18 3.41422L10.7071 10.7071C10.3166 11.0976 9.68342 11.0976 9.29289 10.7071C8.90237 10.3166 8.90237 9.68342 9.29289 9.29289L16.5858 2.00001H13C12.4477 2.00001 12 1.5523 12 1.00001Z" />
</svg>
