<svg viewBox="0 0 24 24" fill="black" xmlns="http://www.w3.org/2000/svg">
    <path class="arrow"
        d="M2 12C2 6.47715 6.47715 2 12 2C14.7624 2 17.2645 3.12166 19.0732 4.93164C19.7128 5.5716 20.3982 6.3619 21 7.09375V5C21 4.44772 21.4477 4 22 4C22.5523 4 23 4.44772 23 5V10C23 10.5523 22.5523 11 22 11H18C17.4477 11 17 10.5523 17 10C17 9.44772 17.4477 9 18 9H19.9678C19.2756 8.13143 18.4167 7.10277 17.6592 6.34473C16.2102 4.89477 14.2104 4 12 4C7.58172 4 4 7.58172 4 12C4 16.4183 7.58172 20 12 20C15.6457 20 18.7244 17.5604 19.6875 14.2227C19.8407 13.6921 20.3952 13.386 20.9258 13.5391C21.4563 13.6923 21.7625 14.2468 21.6094 14.7773C20.4058 18.9482 16.5605 22 12 22C6.47715 22 2 17.5228 2 12Z" />
    <path
        d="M9.52736 7.00098C9.83303 7.01086 10.0784 7.12561 10.2217 7.2002C10.3932 7.28945 10.5894 7.41683 10.7734 7.53516L15.4942 10.5693C15.652 10.6708 15.8287 10.7831 15.9678 10.8916C16.0898 10.9867 16.2733 11.1458 16.4043 11.3896L16.457 11.5L16.5088 11.6416C16.6123 11.9773 16.5949 12.3404 16.457 12.667C16.3272 12.9742 16.1073 13.1666 15.9678 13.2754C15.8287 13.3838 15.652 13.4962 15.4942 13.5977L10.7734 16.6328C10.5894 16.7511 10.3931 16.8776 10.2217 16.9668C10.0581 17.052 9.76134 17.1902 9.39357 17.1641C8.95957 17.1331 8.5596 16.9147 8.29884 16.5664C8.0782 16.2714 8.03349 15.9474 8.01661 15.7637C7.99896 15.5712 8.00001 15.337 8.00001 15.1182V9.04883C8.00001 8.83015 7.99899 8.59672 8.01661 8.4043C8.03346 8.22057 8.0779 7.89584 8.29884 7.60059L8.40333 7.47656C8.66037 7.20096 9.01372 7.03006 9.39357 7.00293L9.52736 7.00098ZM10 14.751L14.1494 12.083L10 9.41504V14.751Z" />
</svg>