<svg viewBox="0 0 24 24" fill="black" xmlns="http://www.w3.org/2000/svg">
<path d="M1 12C1 6.47715 5.47715 2 11 2C13.7624 2 16.2645 3.12166 18.0732 4.93164C18.7128 5.5716 19.3982 6.3619 20 7.09375V5C20 4.44772 20.4477 4 21 4C21.5523 4 22 4.44772 22 5V10C22 10.5523 21.5523 11 21 11H17C16.4477 11 16 10.5523 16 10C16 9.44772 16.4477 9 17 9H18.9678C18.2756 8.13143 17.4167 7.10277 16.6592 6.34473C15.2102 4.89477 13.2104 4 11 4C6.58172 4 3 7.58172 3 12C3 16.4183 6.58172 20 11 20C11.5523 20 12 20.4477 12 21C12 21.5523 11.5523 22 11 22C5.47715 22 1 17.5228 1 12ZM20.293 13.293C20.6835 12.9024 21.3165 12.9024 21.707 13.293C22.0976 13.6835 22.0976 14.3165 21.707 14.707L15.707 20.707C15.3165 21.0976 14.6835 21.0976 14.293 20.707L11.293 17.707L11.2246 17.6309C10.9043 17.2381 10.9269 16.6591 11.293 16.293C11.6591 15.9269 12.2381 15.9043 12.6309 16.2246L12.707 16.293L15 18.5859L20.293 13.293Z"/>
</svg>
