<svg viewBox="0 0 24 24" fill="black" xmlns="http://www.w3.org/2000/svg">
    <path
        d="M20 12.7998C20 11.9434 19.9997 11.3612 19.9629 10.9111C19.9271 10.4727 19.8619 10.2482 19.7822 10.0918C19.5905 9.71554 19.2845 9.40951 18.9082 9.21777C18.7518 9.13808 18.5273 9.07293 18.0889 9.03711C17.6388 9.00035 17.0566 9 16.2002 9H7.79981C6.94342 9 6.36117 9.00035 5.91113 9.03711C5.47272 9.07293 5.2482 9.13808 5.0918 9.21777C4.71555 9.40951 4.40951 9.71554 4.21778 10.0918C4.13809 10.2482 4.07293 10.4727 4.03711 10.9111C4.00035 11.3612 4 11.9434 4 12.7998V16.2002C4 17.0566 4.00035 17.6388 4.03711 18.0889C4.07293 18.5273 4.13809 18.7518 4.21778 18.9082C4.40951 19.2845 4.71555 19.5905 5.0918 19.7822C5.2482 19.8619 5.47272 19.9271 5.91113 19.9629C6.36117 19.9997 6.94342 20 7.79981 20H16.2002C17.0566 20 17.6388 19.9997 18.0889 19.9629C18.5273 19.9271 18.7518 19.8619 18.9082 19.7822C19.2845 19.5905 19.5905 19.2845 19.7822 18.9082C19.8619 18.7518 19.9271 18.5273 19.9629 18.0889C19.9997 17.6388 20 17.0566 20 16.2002V12.7998ZM22 16.2002C22 17.0237 22.001 17.7016 21.9561 18.252C21.9101 18.814 21.8117 19.3311 21.5645 19.8164C21.181 20.5689 20.5689 21.181 19.8164 21.5645C19.3311 21.8117 18.814 21.9101 18.252 21.9561C17.7016 22.001 17.0237 22 16.2002 22H7.79981C6.97632 22 6.29843 22.001 5.74805 21.9561C5.18599 21.9101 4.6689 21.8117 4.1836 21.5645C3.43109 21.181 2.81902 20.5689 2.43555 19.8164C2.18827 19.3311 2.08988 18.814 2.04395 18.252C1.99898 17.7016 2 17.0237 2 16.2002V12.7998C2 11.9763 1.99898 11.2984 2.04395 10.748C2.08988 10.186 2.18827 9.6689 2.43555 9.18359C2.81902 8.43109 3.43109 7.81902 4.1836 7.43555C4.6689 7.18827 5.18599 7.08987 5.74805 7.04395C6.29843 6.99898 6.97632 7 7.79981 7H16.2002C17.0237 7 17.7016 6.99898 18.252 7.04395C18.814 7.08987 19.3311 7.18827 19.8164 7.43555C20.5689 7.81902 21.181 8.43109 21.5645 9.18359C21.8117 9.6689 21.9101 10.186 21.9561 10.748C22.001 11.2984 22 11.9763 22 12.7998V16.2002Z" />
    <path d="M13 4V8H11V4H13Z" />
    <path
        d="M15 16C15.5523 16 16 16.4477 16 17C16 17.5523 15.5523 18 15 18H9C8.44772 18 8 17.5523 8 17C8 16.4477 8.44772 16 9 16H15ZM9 10.5C9.82843 10.5 10.5 11.1716 10.5 12C10.5 12.8284 9.82843 13.5 9 13.5C8.17157 13.5 7.5 12.8284 7.5 12C7.5 11.1716 8.17157 10.5 9 10.5ZM15 10.5C15.8284 10.5 16.5 11.1716 16.5 12C16.5 12.8284 15.8284 13.5 15 13.5C14.1716 13.5 13.5 12.8284 13.5 12C13.5 11.1716 14.1716 10.5 15 10.5Z" />
    <path
        d="M10 3C10 1.89543 10.8954 1 12 1C13.1046 1 14 1.89543 14 3C14 4.10457 13.1046 5 12 5C10.8954 5 10 4.10457 10 3Z" />
</svg>
