<svg viewBox="0 0 24 24" fill="none" xmlns="http://www.w3.org/2000/svg">
    <path fill-rule="evenodd" clip-rule="evenodd"
        d="M20.6634 4.40771C20.7762 3.73089 20.1894 3.14411 19.5126 3.25691L16.114 3.82335C16.8361 4.39318 17.5361 5.01441 18.2079 5.68618C18.8896 6.36789 19.5193 7.07869 20.096 7.81215L20.6634 4.40771ZM19.3551 10.1804C18.6205 9.10701 17.7659 8.07266 16.7937 7.10039C15.8308 6.13747 14.8069 5.29004 13.7446 4.56019L9.9976 8.56559C9.98958 8.57449 9.9814 8.58322 9.97309 8.5918L7.17626 11.5815C6.05341 12.7818 5.89351 14.5446 6.68049 15.9047L12.2925 10.2927C12.683 9.90216 13.3162 9.90216 13.7067 10.2927C14.0973 10.6832 14.0973 11.3164 13.7067 11.7069L8.11719 17.2965C9.46251 18.0183 11.1682 17.8391 12.3388 16.7441L15.3245 13.9509C15.3357 13.94 15.3472 13.9293 15.3589 13.9188L19.3551 10.1804ZM17.1759 14.9578L20.7743 11.5915C21.327 11.0744 21.694 10.3896 21.8184 9.64298L22.6362 4.7365C22.9746 2.70604 21.2143 0.945715 19.1838 1.28413L14.2773 2.10187C13.5307 2.22631 12.8459 2.59329 12.3288 3.14605L8.96251 6.74448L6.69595 5.98896C6.03378 5.76824 5.30444 5.9087 4.77161 6.35955L1.91445 8.77715C0.744598 9.76702 1.07695 11.6508 2.51492 12.1806L4.32557 12.8477C3.98551 14.3806 4.29093 16.0249 5.23466 17.3505L2.79252 19.7927C2.402 20.1832 2.402 20.8164 2.79252 21.2069C3.18305 21.5974 3.81621 21.5974 4.20674 21.2069L6.66301 18.7506C7.97201 19.6433 9.57553 19.9269 11.0727 19.5947L11.7397 21.4052C12.2695 22.8432 14.1533 23.1756 15.1432 22.0057L17.5608 19.1485C18.0116 18.6157 18.1521 17.8864 17.9314 17.2242L17.1759 14.9578ZM15.5688 16.4611L13.7051 18.2046C13.4573 18.4364 13.1941 18.6417 12.9189 18.8205L13.6164 20.7138L16.034 17.8567L15.5688 16.4611ZM5.09979 11.0015C5.27862 10.7263 5.48391 10.463 5.71572 10.2152L7.45914 8.35154L6.06349 7.88633L3.20634 10.3039L5.09979 11.0015Z" />
</svg>
