<svg width="40" height="40" viewBox="0 0 40 40" fill="none" xmlns="http://www.w3.org/2000/svg">
<path fill-rule="evenodd" clip-rule="evenodd" d="M19.1615 9H20.8385C21.3657 8.99998 21.8205 8.99997 22.195 9.03057C22.5904 9.06287 22.9836 9.13419 23.362 9.32698C23.9265 9.6146 24.3854 10.0735 24.673 10.638C24.8658 11.0164 24.9371 11.4096 24.9694 11.805C24.9969 12.1408 24.9997 12.541 25 13H29C29.5523 13 30 13.4477 30 14C30 14.5523 29.5523 15 29 15H28V25.2413C28 26.0463 28 26.7106 27.9558 27.2518C27.9099 27.8139 27.8113 28.3306 27.564 28.816C27.1805 29.5686 26.5686 30.1805 25.816 30.564C25.3306 30.8113 24.8139 30.9099 24.2518 30.9558C23.7106 31 23.0463 31 22.2413 31H17.7587C16.9537 31 16.2894 31 15.7482 30.9558C15.1861 30.9099 14.6694 30.8113 14.184 30.564C13.4314 30.1805 12.8195 29.5686 12.436 28.816C12.1887 28.3306 12.0901 27.8139 12.0442 27.2518C12 26.7106 12 26.0463 12 25.2413L12 15H11C10.4477 15 10 14.5523 10 14C10 13.4477 10.4477 13 11 13H15C15.0003 12.541 15.0031 12.1408 15.0306 11.805C15.0629 11.4096 15.1342 11.0164 15.327 10.638C15.6146 10.0735 16.0735 9.6146 16.638 9.32698C17.0164 9.13419 17.4096 9.06287 17.805 9.03057C18.1795 8.99997 18.6343 8.99998 19.1615 9ZM14 15V25.2C14 26.0566 14.0008 26.6389 14.0376 27.089C14.0734 27.5274 14.1383 27.7516 14.218 27.908C14.4097 28.2843 14.7157 28.5903 15.092 28.782C15.2484 28.8617 15.4726 28.9266 15.911 28.9625C16.3611 28.9992 16.9434 29 17.8 29H22.2C23.0566 29 23.6389 28.9992 24.089 28.9625C24.5274 28.9266 24.7516 28.8617 24.908 28.782C25.2843 28.5903 25.5903 28.2843 25.782 27.908C25.8617 27.7516 25.9266 27.5274 25.9624 27.089C25.9992 26.6389 26 26.0566 26 25.2V15H14ZM22.9999 13H17.0001C17.0005 12.5349 17.0036 12.217 17.0239 11.9678C17.0461 11.6962 17.0838 11.5955 17.109 11.546C17.2049 11.3578 17.3578 11.2049 17.546 11.109C17.5955 11.0838 17.6962 11.0461 17.9678 11.0239C18.2512 11.0008 18.6234 11 19.2 11H20.8C21.3766 11 21.7488 11.0008 22.0322 11.0239C22.3038 11.0461 22.4045 11.0838 22.454 11.109C22.6422 11.2049 22.7951 11.3578 22.891 11.546C22.9162 11.5955 22.9539 11.6962 22.9761 11.9678C22.9964 12.217 22.9995 12.5349 22.9999 13ZM18 18.5C18.5523 18.5 19 18.9477 19 19.5V24.5C19 25.0523 18.5523 25.5 18 25.5C17.4477 25.5 17 25.0523 17 24.5V19.5C17 18.9477 17.4477 18.5 18 18.5ZM22 18.5C22.5523 18.5 23 18.9477 23 19.5V24.5C23 25.0523 22.5523 25.5 22 25.5C21.4477 25.5 21 25.0523 21 24.5V19.5C21 18.9477 21.4477 18.5 22 18.5Z" fill="#6B7280"/>
</svg>
