<svg width="40" height="40" viewBox="0 0 40 40" fill="none" xmlns="http://www.w3.org/2000/svg">
<path d="M0.5 8C0.5 3.85786 3.85786 0.5 8 0.5H32C36.1421 0.5 39.5 3.85786 39.5 8V32C39.5 36.1421 36.1421 39.5 32 39.5H8C3.85786 39.5 0.5 36.1421 0.5 32V8Z" stroke="#7A3EF4"/>
<path fill-rule="evenodd" clip-rule="evenodd" d="M20 12C20.5523 12 21 12.4477 21 13V19H27C27.5523 19 28 19.4477 28 20C28 20.5523 27.5523 21 27 21H21V27C21 27.5523 20.5523 28 20 28C19.4477 28 19 27.5523 19 27V21H13C12.4477 21 12 20.5523 12 20C12 19.4477 12.4477 19 13 19H19V13C19 12.4477 19.4477 12 20 12Z" fill="#361776"/>
</svg>
