<svg viewBox="0 0 24 24" fill="black" xmlns="http://www.w3.org/2000/svg">
    <path
        d="M21 17.2002C21 16.6236 20.9987 16.2511 20.9756 15.9678C20.9534 15.6962 20.9158 15.5953 20.8906 15.5459C20.7948 15.3579 20.6421 15.2052 20.4541 15.1094C20.4047 15.0842 20.3038 15.0466 20.0322 15.0244C19.7489 15.0013 19.3764 15 18.7998 15H5.2002C4.62365 15 4.25112 15.0013 3.96778 15.0244C3.69619 15.0466 3.59534 15.0842 3.5459 15.1094C3.35793 15.2052 3.20522 15.3579 3.10938 15.5459C3.08419 15.5953 3.04662 15.6962 3.02442 15.9678C3.00127 16.2511 3 16.6236 3 17.2002V18.7998C3 19.3764 3.00127 19.7489 3.02442 20.0322C3.04662 20.3038 3.08419 20.4047 3.10938 20.4541C3.20522 20.6421 3.35793 20.7948 3.5459 20.8906C3.59534 20.9158 3.69619 20.9534 3.96778 20.9756C4.25112 20.9987 4.62365 21 5.2002 21H18.7998C19.3764 21 19.7489 20.9987 20.0322 20.9756C20.3038 20.9534 20.4047 20.9158 20.4541 20.8906C20.6421 20.7948 20.7948 20.6421 20.8906 20.4541C20.9158 20.4047 20.9534 20.3038 20.9756 20.0322C20.9987 19.7489 21 19.3764 21 18.7998V17.2002ZM6.00977 17C6.56205 17 7.00977 17.4477 7.00977 18C7.00977 18.5523 6.56205 19 6.00977 19H6C5.44772 19 5 18.5523 5 18C5 17.4477 5.44772 17 6 17H6.00977ZM21 5.2002C21 4.62365 20.9987 4.25112 20.9756 3.96778C20.9534 3.69619 20.9158 3.59534 20.8906 3.5459C20.7948 3.35793 20.6421 3.20522 20.4541 3.10938C20.4047 3.08419 20.3038 3.04662 20.0322 3.02442C19.7489 3.00127 19.3764 3 18.7998 3H5.2002C4.62365 3 4.25112 3.00127 3.96778 3.02442C3.69619 3.04662 3.59534 3.08419 3.5459 3.10938C3.35793 3.20522 3.20522 3.35793 3.10938 3.5459C3.08419 3.59534 3.04662 3.69619 3.02442 3.96778C3.00127 4.25112 3 4.62365 3 5.2002V6.79981C3 7.37636 3.00127 7.74889 3.02442 8.03223C3.04662 8.30382 3.08419 8.40467 3.10938 8.45411C3.20522 8.64208 3.35793 8.79479 3.5459 8.89063C3.59534 8.91582 3.69619 8.95339 3.96778 8.97559C4.25112 8.99874 4.62365 9 5.2002 9H18.7998C19.3764 9 19.7489 8.99874 20.0322 8.97559C20.3038 8.95339 20.4047 8.91582 20.4541 8.89063C20.6421 8.79479 20.7948 8.64208 20.8906 8.45411C20.9158 8.40467 20.9534 8.30382 20.9756 8.03223C20.9987 7.74889 21 7.37636 21 6.79981V5.2002ZM6.00977 5C6.56205 5 7.00977 5.44772 7.00977 6C7.00977 6.55229 6.56205 7 6.00977 7H6C5.44772 7 5 6.55229 5 6C5 5.44772 5.44772 5 6 5H6.00977ZM23 18.7998C23 19.3434 23.0011 19.8116 22.9697 20.1953C22.9374 20.5906 22.8656 20.984 22.6729 21.3623C22.3853 21.9265 21.9265 22.3853 21.3623 22.6729C20.984 22.8656 20.5906 22.9374 20.1953 22.9697C19.8116 23.0011 19.3434 23 18.7998 23H5.2002C4.65665 23 4.18836 23.0011 3.80469 22.9697C3.40943 22.9374 3.016 22.8656 2.6377 22.6729C2.07348 22.3853 1.61473 21.9265 1.32715 21.3623C1.1344 20.984 1.06259 20.5906 1.03028 20.1953C0.998931 19.8116 1 19.3434 1 18.7998V17.2002C1 16.6566 0.998931 16.1884 1.03028 15.8047C1.06259 15.4094 1.1344 15.016 1.32715 14.6377C1.61473 14.0735 2.07348 13.6147 2.6377 13.3272C3.016 13.1344 3.40943 13.0626 3.80469 13.0303C4.18836 12.9989 4.65665 13 5.2002 13H18.7998C19.3434 13 19.8116 12.9989 20.1953 13.0303C20.5906 13.0626 20.984 13.1344 21.3623 13.3272C21.9265 13.6147 22.3853 14.0735 22.6729 14.6377C22.8656 15.016 22.9374 15.4094 22.9697 15.8047C23.0011 16.1884 23 16.6566 23 17.2002V18.7998ZM23 6.79981C23 7.34336 23.0011 7.81165 22.9697 8.19532C22.9374 8.59057 22.8656 8.98401 22.6729 9.36231C22.3853 9.92653 21.9265 10.3853 21.3623 10.6729C20.984 10.8656 20.5906 10.9374 20.1953 10.9697C19.8116 11.0011 19.3434 11 18.7998 11H5.2002C4.65665 11 4.18836 11.0011 3.80469 10.9697C3.40943 10.9374 3.016 10.8656 2.6377 10.6729C2.07348 10.3853 1.61473 9.92653 1.32715 9.36231C1.1344 8.98401 1.06259 8.59057 1.03028 8.19532C0.998931 7.81165 1 7.34336 1 6.79981V5.2002C1 4.65665 0.998931 4.18836 1.03028 3.80469C1.06259 3.40943 1.1344 3.016 1.32715 2.6377C1.61473 2.07348 2.07348 1.61473 2.6377 1.32715C3.016 1.1344 3.40943 1.06259 3.80469 1.03028C4.18836 0.998931 4.65665 1 5.2002 1H18.7998C19.3434 1 19.8116 0.998931 20.1953 1.03028C20.5906 1.06259 20.984 1.1344 21.3623 1.32715C21.9265 1.61473 22.3853 2.07348 22.6729 2.6377C22.8656 3.016 22.9374 3.40943 22.9697 3.80469C23.0011 4.18836 23 4.65665 23 5.2002V6.79981Z" />
</svg>