<svg viewBox="0 0 24 24" xmlns="http://www.w3.org/2000/svg">
    <g id="settings">
        <g id="Icon (Stroke)">
            <path fill-rule="evenodd" clip-rule="evenodd"
                d="M12 16C14.2091 16 16 14.2091 16 12C16 9.79086 14.2091 8 12 8C9.79084 8 7.99998 9.79086 7.99998 12C7.99998 14.2091 9.79084 16 12 16ZM14 12C14 13.1046 13.1046 14 12 14C10.8954 14 9.99998 13.1046 9.99998 12C9.99998 10.8954 10.8954 10 12 10C13.1046 10 14 10.8954 14 12Z"
                />
            <path fill-rule="evenodd" clip-rule="evenodd"
                d="M14.3426 2.32757C13.1416 0.826354 10.8583 0.826356 9.65737 2.32758L7.8196 4.62479C7.62983 4.86201 7.34251 5.0001 7.03873 5.0001H5.23605C3.0059 5.0001 1.55541 7.34703 2.55277 9.34174L3.65834 11.5529C3.7991 11.8344 3.7991 12.1658 3.65834 12.4473L2.55277 14.6585C1.55542 16.6532 3.0059 19.0001 5.23605 19.0001H7.03873C7.34251 19.0001 7.62983 19.1382 7.8196 19.3754L9.65737 21.6726C10.8584 23.1738 13.1416 23.1738 14.3426 21.6726L16.1804 19.3754C16.3701 19.1382 16.6574 19.0001 16.9612 19.0001H18.7639C20.9941 19.0001 22.4445 16.6532 21.4472 14.6585L20.3416 12.4473C20.2009 12.1658 20.2009 11.8344 20.3416 11.5529L21.4472 9.34174C22.4445 7.34703 20.9941 5.0001 18.7639 5.0001H16.9612C16.6574 5.0001 16.3701 4.86201 16.1804 4.62479L14.3426 2.32757ZM11.2191 3.57697C11.6194 3.07656 12.3805 3.07656 12.7808 3.57696L14.6186 5.87418C15.1879 6.58583 16.0499 7.0001 16.9612 7.0001H18.7639C19.5073 7.0001 19.9908 7.78241 19.6583 8.44731L18.5528 10.6585C18.1305 11.503 18.1305 12.4972 18.5528 13.3417L19.6583 15.5529C19.9908 16.2178 19.5073 17.0001 18.7639 17.0001H16.9612C16.0499 17.0001 15.1879 17.4144 14.6186 18.126L12.7809 20.4232C12.3805 20.9236 11.6194 20.9236 11.2191 20.4232L9.38134 18.126C8.81202 17.4144 7.95008 17.0001 7.03873 17.0001H5.23605C4.49267 17.0001 4.00917 16.2178 4.34162 15.5529L5.44719 13.3417C5.86949 12.4972 5.86949 11.503 5.44719 10.6585L4.34162 8.44731C4.00917 7.78241 4.49267 7.0001 5.23605 7.0001H7.03873C7.95008 7.0001 8.81202 6.58583 9.38134 5.87418L11.2191 3.57697Z"
                />
        </g>
    </g>
</svg>