<svg width="40" height="40" viewBox="0 0 40 40" fill="none" xmlns="http://www.w3.org/2000/svg">
<path fill-rule="evenodd" clip-rule="evenodd" d="M19.2929 10.2929C19.6834 9.90237 20.3166 9.90237 20.7071 10.2929L24.7071 14.2929C25.0976 14.6834 25.0976 15.3166 24.7071 15.7071C24.3166 16.0976 23.6834 16.0976 23.2929 15.7071L21 13.4142V23C21 23.5523 20.5523 24 20 24C19.4477 24 19 23.5523 19 23V13.4142L16.7071 15.7071C16.3166 16.0976 15.6834 16.0976 15.2929 15.7071C14.9024 15.3166 14.9024 14.6834 15.2929 14.2929L19.2929 10.2929ZM11 19C11.5523 19 12 19.4477 12 20V24.2C12 25.0566 12.0008 25.6389 12.0376 26.089C12.0734 26.5274 12.1383 26.7516 12.218 26.908C12.4097 27.2843 12.7157 27.5903 13.092 27.782C13.2484 27.8617 13.4726 27.9266 13.911 27.9624C14.3611 27.9992 14.9434 28 15.8 28H24.2C25.0566 28 25.6389 27.9992 26.089 27.9624C26.5274 27.9266 26.7516 27.8617 26.908 27.782C27.2843 27.5903 27.5903 27.2843 27.782 26.908C27.8617 26.7516 27.9266 26.5274 27.9624 26.089C27.9992 25.6389 28 25.0566 28 24.2V20C28 19.4477 28.4477 19 29 19C29.5523 19 30 19.4477 30 20V24.2413C30 25.0463 30 25.7106 29.9558 26.2518C29.9099 26.8139 29.8113 27.3306 29.564 27.816C29.1805 28.5686 28.5686 29.1805 27.816 29.564C27.3306 29.8113 26.8139 29.9099 26.2518 29.9558C25.7106 30 25.0463 30 24.2413 30H15.7587C14.9537 30 14.2894 30 13.7482 29.9558C13.1861 29.9099 12.6694 29.8113 12.184 29.564C11.4314 29.1805 10.8195 28.5686 10.436 27.816C10.1887 27.3306 10.0901 26.8139 10.0442 26.2518C9.99998 25.7106 9.99999 25.0463 10 24.2413L10 20C10 19.4477 10.4477 19 11 19Z" fill="#6B7280"/>
</svg>
