<svg viewBox="0 0 24 24" fill="currentColor" xmlns="http://www.w3.org/2000/svg">
    <path
        d="M18 18.8564V4.85645C18 4.30416 18.4477 3.85645 19 3.85645C19.5523 3.85645 20 4.30416 20 4.85645V18.8564C20 19.4087 19.5523 19.8564 19 19.8564C18.4477 19.8564 18 19.4087 18 18.8564ZM6.00196 3.9375C6.48634 3.93802 6.88758 4.16525 7.1709 4.35254C7.46969 4.55007 7.8241 4.83486 8.22461 5.15527L14.0625 9.82617C14.3151 10.0282 14.5565 10.2201 14.7412 10.3965C14.9319 10.5786 15.1473 10.821 15.2725 11.1553C15.4417 11.6074 15.4417 12.1055 15.2725 12.5576C15.1473 12.8919 14.9319 13.1343 14.7412 13.3164C14.5565 13.4928 14.3151 13.6847 14.0625 13.8867L8.22461 18.5576C7.8241 18.878 7.46969 19.1628 7.1709 19.3604C6.88758 19.5476 6.48634 19.7749 6.00196 19.7754C5.39295 19.776 4.81646 19.4994 4.43653 19.0234C4.13442 18.6448 4.06197 18.1888 4.03125 17.8506C3.9989 17.4939 4 17.04 4 16.5273V7.18555C4 6.67286 3.9989 6.21895 4.03125 5.8623C4.06197 5.52411 4.13442 5.06808 4.43653 4.68945C4.81646 4.21348 5.39295 3.9369 6.00196 3.9375ZM6 16.5273C6 17.08 6.00124 17.4254 6.02344 17.6699C6.02484 17.6853 6.02784 17.6996 6.0293 17.7129C6.0408 17.7056 6.05518 17.7001 6.06836 17.6914C6.27314 17.556 6.5433 17.3411 6.97461 16.9961L12.8135 12.3252C13.0946 12.1003 13.2541 11.9716 13.3604 11.8701C13.3651 11.8656 13.3689 11.8605 13.3731 11.8564C13.3689 11.8524 13.3651 11.8473 13.3604 11.8428C13.2541 11.7412 13.0946 11.6126 12.8135 11.3877L6.97461 6.7168C6.5433 6.37175 6.27314 6.15691 6.06836 6.02148C6.05501 6.01266 6.04093 6.00639 6.0293 5.99902C6.02781 6.01258 6.02487 6.02721 6.02344 6.04297C6.00124 6.28752 6 6.63288 6 7.18555V16.5273Z" />
</svg>