<svg width="16" height="16" viewBox="0 0 16 16" fill="none" xmlns="http://www.w3.org/2000/svg">
<g id="slash-circle-01" clip-path="url(#clip0_2502_652)">
<path id="Icon (Stroke)" fill-rule="evenodd" clip-rule="evenodd" d="M3.31209 4.25496C2.491 5.2814 2.00002 6.58341 2.00002 8.00008C2.00002 11.3138 4.68631 14.0001 8.00002 14.0001C9.4167 14.0001 10.7187 13.5091 11.7451 12.688L3.31209 4.25496ZM4.2549 3.31215L12.688 11.7452C13.509 10.7188 14 9.41676 14 8.00008C14 4.68637 11.3137 2.00008 8.00002 2.00008C6.58334 2.00008 5.28134 2.49106 4.2549 3.31215ZM0.666687 8.00008C0.666687 3.94999 3.94993 0.666748 8.00002 0.666748C12.0501 0.666748 15.3334 3.94999 15.3334 8.00008C15.3334 12.0502 12.0501 15.3334 8.00002 15.3334C3.94993 15.3334 0.666687 12.0502 0.666687 8.00008Z" fill="#9CA3AF"/>
</g>
<defs>
<clipPath id="clip0_2502_652">
<rect width="16" height="16" fill="white"/>
</clipPath>
</defs>
</svg>
