<svg viewBox="0 0 24 24" fill="black" xmlns="http://www.w3.org/2000/svg">
    <path fill-rule="evenodd" clip-rule="evenodd"
        d="M16.2413 2H7.7587C6.95374 1.99999 6.28937 1.99998 5.74818 2.04419C5.18608 2.09012 4.66937 2.18868 4.18404 2.43598C3.43139 2.81947 2.81947 3.43139 2.43598 4.18404C2.18868 4.66937 2.09012 5.18608 2.04419 5.74818C1.99998 6.28937 1.99999 6.95372 2 7.75869V16.2413C1.99999 17.0463 1.99998 17.7106 2.04419 18.2518C2.09012 18.8139 2.18868 19.3306 2.43598 19.816C2.81947 20.5686 3.43139 21.1805 4.18404 21.564C4.66937 21.8113 5.18608 21.9099 5.74818 21.9558C6.28936 22 6.95372 22 7.75868 22H7.8C8.35229 22 8.8 21.5523 8.8 21C8.8 20.4477 8.35229 20 7.8 20C6.94342 20 6.36113 19.9992 5.91104 19.9624C5.47262 19.9266 5.24842 19.8617 5.09202 19.782C4.7157 19.5903 4.40974 19.2843 4.21799 18.908C4.1383 18.7516 4.07337 18.5274 4.03755 18.089C4.00078 17.6389 4 17.0566 4 16.2V9H20V16.2C20 16.7523 20.4477 17.2 21 17.2C21.5523 17.2 22 16.7523 22 16.2V7.75868C22 6.95372 22 6.28936 21.9558 5.74818C21.9099 5.18608 21.8113 4.66937 21.564 4.18404C21.1805 3.43139 20.5686 2.81947 19.816 2.43598C19.3306 2.18868 18.8139 2.09012 18.2518 2.04419C17.7106 1.99998 17.0463 1.99999 16.2413 2ZM19.9982 7C19.9951 6.55447 19.9864 6.20463 19.9624 5.91104C19.9266 5.47262 19.8617 5.24842 19.782 5.09202C19.5903 4.7157 19.2843 4.40974 18.908 4.21799C18.7516 4.1383 18.5274 4.07337 18.089 4.03755C17.6389 4.00078 17.0566 4 16.2 4H7.8C6.94342 4 6.36113 4.00078 5.91104 4.03755C5.47262 4.07337 5.24842 4.1383 5.09202 4.21799C4.7157 4.40973 4.40973 4.7157 4.21799 5.09202C4.1383 5.24842 4.07337 5.47262 4.03755 5.91104C4.01357 6.20463 4.00489 6.55447 4.00176 7H19.9982Z" />
    <path fill-rule="evenodd" clip-rule="evenodd"
        d="M8 13C8 11.3431 9.34315 10 11 10C12.6569 10 14 11.3431 14 13C14 14.3062 13.1652 15.4175 12 15.8293V17C12 18.1046 12.8954 19 14 19H15.1707C15.5825 17.8348 16.6938 17 18 17C19.6569 17 21 18.3431 21 20C21 21.6569 19.6569 23 18 23C16.6938 23 15.5825 22.1652 15.1707 21H14C11.7909 21 10 19.2091 10 17V15.8293C8.83481 15.4175 8 14.3062 8 13ZM11 12C10.4477 12 10 12.4477 10 13C10 13.5523 10.4477 14 11 14C11.5523 14 12 13.5523 12 13C12 12.4477 11.5523 12 11 12ZM18 19C17.4477 19 17 19.4477 17 20C17 20.5523 17.4477 21 18 21C18.5523 21 19 20.5523 19 20C19 19.4477 18.5523 19 18 19Z" />
</svg>
