<svg width="24" height="24" viewBox="0 0 24 24" fill="none" xmlns="http://www.w3.org/2000/svg">
<path fill-rule="evenodd" clip-rule="evenodd" d="M17.3895 3.96432C17.1492 4.07273 16.824 4.24925 16.3229 4.52237C14.8504 5.32507 12.8498 6.24558 11 6.45575V13.5443C12.8498 13.7544 14.8504 14.6749 16.3229 15.4776C16.824 15.7508 17.1492 15.9273 17.3895 16.0357C17.4214 16.0501 17.4492 16.062 17.4733 16.0719C17.4755 16.0514 17.4777 16.0281 17.4798 16.002C17.4992 15.7574 17.5 15.4134 17.5 14.8737V5.12629C17.5 4.58659 17.4992 4.24259 17.4798 3.99805C17.4777 3.97186 17.4755 3.94863 17.4733 3.92812C17.4492 3.93801 17.4214 3.94994 17.3895 3.96432ZM19.5 5.61151V5.08614C19.5 4.59838 19.5 4.17335 19.4735 3.83964C19.4484 3.52391 19.3906 3.08608 19.1266 2.71707C18.7906 2.24736 18.3164 1.96576 17.7431 1.89555C17.2851 1.83945 16.8593 2.00937 16.5669 2.1413C16.2493 2.28461 15.857 2.49851 15.4002 2.74749L15.3657 2.76634C13.7058 3.67119 11.7411 4.5 10.25 4.5H6.5C3.46243 4.5 0.999998 6.96244 1 10C1 11.7254 1.79451 13.2653 3.03764 14.2736L4.6045 20.5411C4.60714 20.5516 4.60974 20.5621 4.61232 20.5724C4.64879 20.7185 4.68044 20.8453 4.72013 20.9624C5.10397 22.0957 6.1245 22.8925 7.31701 22.99C7.4403 23.0001 7.571 23.0001 7.72156 23C7.73221 23 7.74295 23 7.75379 23C7.7677 23 7.78146 23 7.79509 23C7.98251 23.0001 8.14362 23.0001 8.2896 22.986C9.71748 22.8475 10.8475 21.7175 10.986 20.2896C11.0002 20.1436 11.0001 19.9825 11 19.7951C11 19.7815 11 19.7677 11 19.7538V15.5607C12.3629 15.7675 13.9717 16.4738 15.3657 17.2337L15.4002 17.2525C15.8569 17.5015 16.2493 17.7154 16.5669 17.8587C16.8593 17.9906 17.2851 18.1606 17.7431 18.1045C18.3164 18.0342 18.7906 17.7527 19.1266 17.2829C19.3906 16.9139 19.4484 16.4761 19.4735 16.1604C19.5 15.8267 19.5 15.4016 19.5 14.9139V14.3885C21.504 13.9338 23 12.1416 23 10C23 7.85842 21.504 6.06624 19.5 5.61151ZM19.5 7.70802V12.292C20.383 11.9062 21 11.0252 21 10C21 8.97484 20.383 8.0938 19.5 7.70802ZM9 13.5V6.5H6.5C4.567 6.5 3 8.06701 3 10C3 11.933 4.567 13.5 6.5 13.5H9ZM9 15.5V19.7538C9 20.0059 8.99883 20.0605 8.99533 20.0965C8.94917 20.5725 8.5725 20.9492 8.09654 20.9953C8.06053 20.9988 8.00587 21 7.75379 21C7.55288 21 7.51079 20.9992 7.48004 20.9967C7.08254 20.9642 6.74236 20.6986 6.61441 20.3208C6.60452 20.2916 6.59352 20.2509 6.54479 20.056L5.3771 15.3853C5.73961 15.4605 6.11519 15.5 6.5 15.5H9Z" fill="#9CA3AF"/>
</svg>
