<svg  viewBox="0 0 20 20" xmlns="http://www.w3.org/2000/svg">
<path fill-rule="evenodd" clip-rule="evenodd" d="M10 2.22222C5.70445 2.22222 2.22222 5.70445 2.22222 10C2.22222 14.2955 5.70445 17.7778 10 17.7778C14.2955 17.7778 17.7778 14.2955 17.7778 10C17.7778 5.70445 14.2955 2.22222 10 2.22222ZM0 10C0 4.47715 4.47715 0 10 0C15.5228 0 20 4.47715 20 10C20 15.5228 15.5228 20 10 20C4.47715 20 0 15.5228 0 10Z" fill="#D1D5DB"/>
<path fill-rule="evenodd" clip-rule="evenodd" d="M17.7778 10C17.7778 5.70445 14.2955 2.22222 10 2.22222V0C15.5228 0 20 4.47715 20 10H17.7778Z" fill="#7A3EF4"/>
</svg>
