<svg width="24" height="24" viewBox="0 0 24 24" fill="black" xmlns="http://www.w3.org/2000/svg">
    <path
        d="M9.21864 8.87499C9.56365 8.44373 10.1936 8.37373 10.6249 8.71874C11.0562 9.06375 11.1262 9.69373 10.7811 10.125L9.28114 12L10.7811 13.875C11.1262 14.3063 11.0562 14.9362 10.6249 15.2812C10.1936 15.6263 9.56365 15.5563 9.21864 15.125L7.21864 12.625C6.92647 12.2598 6.92647 11.7402 7.21864 11.375L9.21864 8.87499Z" />
    <path
        d="M15 20C15.5523 20 16 20.4477 16 21C16 21.5523 15.5523 22 15 22H14C13.4477 22 13 21.5523 13 21C13 20.4477 13.4477 20 14 20H15Z" />
    <path
        d="M13.3749 8.71874C13.8062 8.37373 14.4361 8.44373 14.7811 8.87499L16.7811 11.375C17.0733 11.7402 17.0733 12.2598 16.7811 12.625L14.7811 15.125C14.4361 15.5563 13.8062 15.6263 13.3749 15.2812C12.9436 14.9362 12.8736 14.3063 13.2186 13.875L14.7186 12L13.2186 10.125C12.8736 9.69373 12.9436 9.06375 13.3749 8.71874Z" />
    <path
        d="M20 19V5C20 4.73478 19.8946 4.48051 19.707 4.29297C19.5195 4.10543 19.2652 4 19 4H5C4.73478 4 4.4805 4.10543 4.29297 4.29297C4.10543 4.4805 4 4.73478 4 5V19C4 19.2652 4.10543 19.5195 4.29297 19.707C4.48051 19.8946 4.73478 20 5 20C5.55228 20 6 20.4477 6 21C6 21.5523 5.55228 22 5 22C4.20435 22 3.44152 21.6837 2.87891 21.1211C2.3163 20.5585 2 19.7957 2 19V5C2 4.20435 2.3163 3.44152 2.87891 2.87891C3.44152 2.3163 4.20435 2 5 2H19C19.7957 2 20.5585 2.3163 21.1211 2.87891C21.6837 3.44152 22 4.20435 22 5V19C22 19.7957 21.6837 20.5585 21.1211 21.1211C20.5585 21.6837 19.7957 22 19 22C18.4477 22 18 21.5523 18 21C18 20.4477 18.4477 20 19 20C19.2652 20 19.5195 19.8946 19.707 19.707C19.8946 19.5195 20 19.2652 20 19Z" />
    <path
        d="M10 20C10.5523 20 11 20.4477 11 21C11 21.5523 10.5523 22 10 22H9C8.44772 22 8 21.5523 8 21C8 20.4477 8.44772 20 9 20H10Z" />
</svg>