<svg viewBox="0 0 24 24" fill="black" xmlns="http://www.w3.org/2000/svg">
    <path fill-rule="evenodd" clip-rule="evenodd"
        d="M11.8026 3.02051L11.8026 3.02052L11.8026 3.02051ZM12 3.1181L19.7639 7.00006L12 10.882L4.23604 7.00006L12 3.1181ZM11.8026 10.9796C11.8024 10.9797 11.8024 10.9797 11.8026 10.9796L11.8026 10.9796ZM12.1973 10.9796C12.1976 10.9797 12.1976 10.9797 12.1974 10.9796L12.1973 10.9796ZM12.1973 3.02052L12.1974 3.02051L12.1973 3.02052ZM11.7234 1.0848C11.9062 1.05051 12.0938 1.05051 12.2766 1.0848C12.493 1.12541 12.6861 1.22394 12.7794 1.27155C12.789 1.27646 12.7976 1.28082 12.805 1.28452L22.4472 6.10564C22.786 6.27503 23 6.62129 23 7.00006C23 7.37884 22.786 7.7251 22.4472 7.89449L12.805 12.7156C12.7976 12.7193 12.789 12.7237 12.7794 12.7286C12.6861 12.7762 12.493 12.8747 12.2766 12.9153C12.0938 12.9496 11.9062 12.9496 11.7234 12.9153C11.5069 12.8747 11.3139 12.7762 11.2206 12.7286C11.2109 12.7237 11.2024 12.7193 11.195 12.7156L1.55276 7.89449C1.21398 7.7251 0.999975 7.37884 0.999975 7.00006C0.999975 6.62129 1.21398 6.27503 1.55276 6.10564L11.195 1.28452C11.2024 1.28082 11.211 1.27646 11.2206 1.27155C11.3139 1.22394 11.5069 1.12541 11.7234 1.0848ZM1.10555 11.5529C1.35254 11.0589 1.95321 10.8586 2.44719 11.1056L12 15.882L21.5528 11.1056C22.0467 10.8586 22.6474 11.0589 22.8944 11.5529C23.1414 12.0468 22.9412 12.6475 22.4472 12.8945L12.805 17.7156C12.7976 17.7193 12.789 17.7237 12.7794 17.7286C12.6861 17.7762 12.493 17.8747 12.2766 17.9153C12.0938 17.9496 11.9062 17.9496 11.7234 17.9153C11.5069 17.8747 11.3139 17.7762 11.2206 17.7286C11.2109 17.7237 11.2024 17.7193 11.195 17.7156L1.55276 12.8945C1.05878 12.6475 0.858558 12.0468 1.10555 11.5529ZM11.8026 15.9796C11.8024 15.9797 11.8024 15.9797 11.8026 15.9796L11.8026 15.9796ZM12.1973 15.9796C12.1976 15.9797 12.1976 15.9797 12.1974 15.9796L12.1973 15.9796ZM1.10555 16.5529C1.35254 16.0589 1.95321 15.8586 2.44719 16.1056L12 20.882L21.5528 16.1056C22.0467 15.8586 22.6474 16.0589 22.8944 16.5529C23.1414 17.0468 22.9412 17.6475 22.4472 17.8945L12.805 22.7156C12.7976 22.7193 12.789 22.7237 12.7794 22.7286C12.6861 22.7762 12.493 22.8747 12.2766 22.9153C12.0938 22.9496 11.9062 22.9496 11.7234 22.9153C11.5069 22.8747 11.3139 22.7762 11.2206 22.7286C11.211 22.7237 11.2024 22.7193 11.195 22.7156L1.55276 17.8945C1.05878 17.6475 0.858558 17.0468 1.10555 16.5529Z" />
</svg>