<svg viewBox="0 0 24 25" fill="black" xmlns="http://www.w3.org/2000/svg">
    <path fill-rule="evenodd" clip-rule="evenodd"
        d="M15 1.5C15.4138 1.5 15.7848 1.75483 15.9333 2.14102L17.112 5.20544C17.4124 5.98648 17.5068 6.21155 17.6359 6.39315C17.7655 6.57535 17.9246 6.73455 18.1069 6.86411C18.2884 6.99323 18.5135 7.08763 19.2946 7.38803L22.359 8.56665C22.7452 8.71519 23 9.08623 23 9.5C23 9.91377 22.7452 10.2848 22.359 10.4333L19.2946 11.612C18.5135 11.9124 18.2884 12.0068 18.1069 12.1359C17.9246 12.2654 17.7655 12.4246 17.6359 12.6069C17.5068 12.7884 17.4124 13.0135 17.112 13.7946L15.9333 16.859C15.7848 17.2452 15.4138 17.5 15 17.5C14.5862 17.5 14.2152 17.2452 14.0667 16.859L12.888 13.7946C12.5876 13.0135 12.4932 12.7884 12.3641 12.6069C12.2345 12.4246 12.0754 12.2654 11.8931 12.1359C11.7116 12.0068 11.4865 11.9124 10.7054 11.612L7.64102 10.4333C7.25483 10.2848 7 9.91377 7 9.5C7 9.08623 7.25483 8.71519 7.64102 8.56665L10.7054 7.38803C11.4865 7.08763 11.7116 6.99323 11.8931 6.86411C12.0754 6.73455 12.2345 6.57535 12.3641 6.39315C12.4932 6.21155 12.5876 5.98648 12.888 5.20544L14.0667 2.14102C14.2152 1.75483 14.5862 1.5 15 1.5ZM15 5.28568L14.7547 5.9234C14.7415 5.95787 14.7284 5.99189 14.7155 6.02548C14.4719 6.65974 14.2879 7.13886 13.9941 7.55214C13.7349 7.91655 13.4166 8.23494 13.0521 8.49406C12.6389 8.78793 12.1597 8.97192 11.5255 9.2155C11.4919 9.2284 11.4579 9.24147 11.4234 9.25472L10.7857 9.5L11.4234 9.74528C11.4579 9.75854 11.4919 9.7716 11.5255 9.7845C12.1597 10.0281 12.6389 10.2121 13.0521 10.5059C13.4166 10.7651 13.7349 11.0834 13.9941 11.4479C14.2879 11.8611 14.4719 12.3403 14.7155 12.9745C14.7284 13.0081 14.7415 13.0421 14.7547 13.0766L15 13.7143L15.2453 13.0766C15.2585 13.0421 15.2716 13.0081 15.2845 12.9745C15.5281 12.3403 15.7121 11.8611 16.0059 11.4479C16.2651 11.0834 16.5834 10.7651 16.9479 10.5059C17.3611 10.2121 17.8403 10.0281 18.4745 9.7845C18.5081 9.7716 18.5421 9.75854 18.5766 9.74528L19.2143 9.5L18.5766 9.25472C18.5421 9.24146 18.5081 9.2284 18.4745 9.2155C17.8403 8.97192 17.3611 8.78793 16.9479 8.49406C16.5834 8.23494 16.2651 7.91655 16.0059 7.55214C15.7121 7.13886 15.5281 6.65974 15.2845 6.02548C15.2716 5.99189 15.2585 5.95787 15.2453 5.9234L15 5.28568ZM6.5 12.5C6.87877 12.5 7.22503 12.714 7.39443 13.0528L8.17889 14.6217C8.46137 15.1867 8.54745 15.3493 8.65204 15.4849C8.75695 15.621 8.87896 15.7431 9.01506 15.848C9.15075 15.9525 9.31333 16.0386 9.8783 16.3211L11.4472 17.1056C11.786 17.275 12 17.6212 12 18C12 18.3788 11.786 18.725 11.4472 18.8944L9.8783 19.6789C9.31333 19.9614 9.15075 20.0475 9.01506 20.152C8.87896 20.257 8.75695 20.379 8.65204 20.5151C8.54745 20.6507 8.46137 20.8133 8.17889 21.3783L7.39443 22.9472C7.22504 23.286 6.87877 23.5 6.5 23.5C6.12123 23.5 5.77497 23.286 5.60557 22.9472L4.82111 21.3783C4.53863 20.8133 4.45255 20.6507 4.34796 20.5151C4.24305 20.379 4.12104 20.257 3.98494 20.152C3.84925 20.0475 3.68667 19.9614 3.1217 19.6789L1.55279 18.8944C1.214 18.725 1 18.3788 1 18C1 17.6212 1.214 17.275 1.55279 17.1056L3.1217 16.3211C3.68667 16.0386 3.84925 15.9526 3.98494 15.848C4.12104 15.7431 4.24305 15.621 4.34796 15.4849C4.45255 15.3493 4.53863 15.1867 4.82111 14.6217L5.60557 13.0528C5.77496 12.714 6.12123 12.5 6.5 12.5ZM6.5 15.736C6.30478 16.1251 6.14371 16.4313 5.93198 16.706C5.72217 16.9781 5.47815 17.2222 5.20595 17.432C4.93128 17.6437 4.62509 17.8048 4.23604 18C4.62509 18.1952 4.93128 18.3563 5.20595 18.568C5.47814 18.7778 5.72217 19.0219 5.93198 19.294C6.14371 19.5687 6.30478 19.8749 6.5 20.264C6.69522 19.8749 6.85629 19.5687 7.06802 19.294C7.27784 19.0219 7.52186 18.7778 7.79405 18.568C8.06872 18.3563 8.37491 18.1952 8.76396 18C8.37491 17.8048 8.06872 17.6437 7.79405 17.432C7.52185 17.2222 7.27783 16.9781 7.06802 16.706C6.85629 16.4313 6.69522 16.1251 6.5 15.736Z" />
</svg>
