<svg width="16" height="16" viewBox="0 0 16 16" fill="none" xmlns="http://www.w3.org/2000/svg">
<path fill-rule="evenodd" clip-rule="evenodd" d="M7.99999 1.99999C4.68628 1.99999 1.99999 4.68628 1.99999 7.99999C1.99999 11.3137 4.68628 14 7.99999 14C11.3137 14 14 11.3137 14 7.99999C14 4.68628 11.3137 1.99999 7.99999 1.99999ZM0.666656 7.99999C0.666656 3.9499 3.9499 0.666656 7.99999 0.666656C12.0501 0.666656 15.3333 3.9499 15.3333 7.99999C15.3333 12.0501 12.0501 15.3333 7.99999 15.3333C3.9499 15.3333 0.666656 12.0501 0.666656 7.99999ZM12.4714 6.19525C12.7317 6.4556 12.7317 6.87771 12.4714 7.13806L10.1819 9.4276C10.1783 9.43119 10.1746 9.43483 10.1709 9.43852C10.1148 9.49469 10.0478 9.56178 9.98388 9.61602C9.90983 9.67889 9.79743 9.76258 9.64234 9.81297C9.4415 9.87823 9.22515 9.87823 9.02431 9.81297C8.86922 9.76258 8.75682 9.67889 8.68277 9.61602C8.61887 9.56178 8.55183 9.49469 8.4957 9.43852C8.49202 9.43483 8.48838 9.43119 8.48479 9.4276L6.66666 7.60946L4.47139 9.80473C4.21104 10.0651 3.78893 10.0651 3.52859 9.80473C3.26824 9.54438 3.26824 9.12227 3.52859 8.86192L5.81813 6.57238C5.82171 6.56879 5.82535 6.56515 5.82904 6.56146C5.88517 6.50529 5.9522 6.4382 6.0161 6.38396C6.09015 6.32109 6.20255 6.2374 6.35764 6.187C6.55848 6.12175 6.77483 6.12175 6.97567 6.187C7.13076 6.2374 7.24316 6.32109 7.31721 6.38396C7.38111 6.4382 7.44814 6.50529 7.50427 6.56146C7.50796 6.56515 7.5116 6.56879 7.51518 6.57238L9.33332 8.39051L11.5286 6.19525C11.7889 5.9349 12.211 5.9349 12.4714 6.19525Z" fill="#9CA3AF"/>
</svg>
