<svg viewBox="0 0 24 24" fill="black" xmlns="http://www.w3.org/2000/svg">
<path d="M21 12C21 7.02944 16.9706 3 12 3C7.02944 3 3 7.02944 3 12C3 16.9706 7.02944 21 12 21C16.9706 21 21 16.9706 21 12ZM15 9.59961C15 9.30333 14.9988 9.14095 14.9893 9.02441C14.9889 9.01992 14.9877 9.01575 14.9873 9.01172C14.9836 9.01138 14.9797 9.01108 14.9756 9.01074C14.8591 9.00122 14.6967 9 14.4004 9H9.59961C9.30333 9 9.14095 9.00122 9.02441 9.01074C9.01996 9.01111 9.01572 9.01135 9.01172 9.01172C9.01135 9.01572 9.01111 9.01996 9.01074 9.02441C9.00122 9.14095 9 9.30333 9 9.59961V14.4004C9 14.6967 9.00122 14.8591 9.01074 14.9756C9.01108 14.9797 9.01138 14.9836 9.01172 14.9873C9.01575 14.9877 9.01992 14.9889 9.02441 14.9893C9.14095 14.9988 9.30333 15 9.59961 15H14.4004C14.6967 15 14.8591 14.9988 14.9756 14.9893C14.9797 14.9889 14.9836 14.9876 14.9873 14.9873C14.9876 14.9836 14.9889 14.9797 14.9893 14.9756C14.9988 14.8591 15 14.6967 15 14.4004V9.59961ZM23 12C23 18.0751 18.0751 23 12 23C5.92487 23 1 18.0751 1 12C1 5.92487 5.92487 1 12 1C18.0751 1 23 5.92487 23 12ZM17 14.4004C17 14.6638 17.0011 14.9219 16.9834 15.1387C16.9694 15.3099 16.9406 15.5042 16.8691 15.7051L16.7822 15.9082C16.6145 16.2374 16.3592 16.5129 16.0459 16.7051L15.9082 16.7822C15.6369 16.9204 15.3672 16.9647 15.1387 16.9834C14.9219 17.0011 14.6638 17 14.4004 17H9.59961C9.33622 17 9.07814 17.0011 8.86133 16.9834C8.69005 16.9694 8.49576 16.9406 8.29492 16.8691L8.0918 16.7822C7.76256 16.6145 7.48707 16.3592 7.29492 16.0459L7.21777 15.9082C7.07956 15.6369 7.0353 15.3672 7.0166 15.1387C6.99889 14.9219 7 14.6638 7 14.4004V9.59961C7 9.33622 6.99889 9.07814 7.0166 8.86133C7.0353 8.63282 7.07956 8.36306 7.21777 8.0918L7.29492 7.9541C7.48707 7.64085 7.76256 7.38555 8.0918 7.21777L8.29492 7.13086C8.49576 7.05937 8.69005 7.03062 8.86133 7.0166C9.07814 6.99889 9.33622 7 9.59961 7H14.4004C14.6638 7 14.9219 6.99889 15.1387 7.0166C15.3672 7.0353 15.6369 7.07956 15.9082 7.21777L16.0459 7.29492C16.3144 7.45963 16.5404 7.68558 16.7051 7.9541L16.7822 8.0918L16.8691 8.29492C16.9406 8.49576 16.9694 8.69005 16.9834 8.86133C17.0011 9.07814 17 9.33622 17 9.59961V14.4004Z"/>
</svg>