<svg viewBox="0 0 24 24" fill="black" xmlns="http://www.w3.org/2000/svg">
<path d="M18.364 18.364C21.8787 14.8492 21.8787 9.15076 18.364 5.63604C14.8492 2.12132 9.15076 2.12132 5.63604 5.63604C2.12132 9.15076 2.12132 14.8492 5.63604 18.364C9.15076 21.8787 14.8492 21.8787 18.364 18.364ZM7.75736 14.8284L14.8284 7.75736C15.219 7.36683 15.8521 7.36683 16.2426 7.75736C16.6332 8.14788 16.6332 8.78105 16.2426 9.17157L9.17157 16.2426C8.78105 16.6332 8.14788 16.6332 7.75736 16.2426C7.36684 15.8521 7.36684 15.219 7.75736 14.8284ZM19.7782 19.7782C15.4824 24.0739 8.51759 24.0739 4.22183 19.7782C-0.0739417 15.4824 -0.0739422 8.51759 4.22183 4.22183C8.51759 -0.0739419 15.4824 -0.0739419 19.7782 4.22183C24.0739 8.51759 24.0739 15.4824 19.7782 19.7782Z"/>
</svg>