<svg viewBox="0 0 24 24" fill="black" xmlns="http://www.w3.org/2000/svg">
    <path fill-rule="evenodd" clip-rule="evenodd"
        d="M6.16146 2H17.8385C18.3657 1.99998 18.8205 1.99997 19.195 2.03057C19.5904 2.06287 19.9836 2.13419 20.362 2.32698C20.9265 2.6146 21.3854 3.07354 21.673 3.63803C21.8658 4.01641 21.9371 4.40963 21.9694 4.80497C22 5.17954 22 5.6343 22 6.16144V17.8386C22 18.3657 22 18.8205 21.9694 19.195C21.9371 19.5904 21.8658 19.9836 21.673 20.362C21.3854 20.9265 20.9265 21.3854 20.362 21.673C19.9836 21.8658 19.5904 21.9371 19.195 21.9694C18.8205 22 18.3657 22 17.8386 22H6.16144C5.6343 22 5.17954 22 4.80497 21.9694C4.40963 21.9371 4.01641 21.8658 3.63803 21.673C3.07354 21.3854 2.6146 20.9265 2.32698 20.362C2.13419 19.9836 2.06287 19.5904 2.03057 19.195C1.99997 18.8205 1.99998 18.3657 2 17.8385V6.16146C1.99998 5.63431 1.99997 5.17955 2.03057 4.80497C2.06287 4.40963 2.13419 4.01641 2.32698 3.63803C2.6146 3.07354 3.07354 2.6146 3.63803 2.32698C4.01641 2.13419 4.40963 2.06287 4.80497 2.03057C5.17955 1.99997 5.63431 1.99998 6.16146 2ZM4 10.4649V17.8C4 18.3766 4.00078 18.7488 4.02393 19.0322C4.04612 19.3038 4.0838 19.4045 4.109 19.454C4.20487 19.6422 4.35785 19.7951 4.54601 19.891C4.59546 19.9162 4.69617 19.9539 4.96784 19.9761C5.25117 19.9992 5.62345 20 6.2 20H8L8 15.5681C7.99997 15.3157 7.99994 15.0699 8.01695 14.8618C8.03562 14.6332 8.07969 14.3634 8.21799 14.092C8.40974 13.7157 8.7157 13.4097 9.09202 13.218C9.36344 13.0797 9.63318 13.0356 9.86177 13.0169C10.0699 12.9999 10.3157 13 10.5681 13H13.4319C13.6843 13 13.9301 12.9999 14.1382 13.0169C14.3668 13.0356 14.6366 13.0797 14.908 13.218C15.2843 13.4097 15.5903 13.7157 15.782 14.092C15.9203 14.3634 15.9644 14.6332 15.9831 14.8618C16.0001 15.0699 16 15.3157 16 15.5681L16 20H17.8C18.3766 20 18.7488 19.9992 19.0322 19.9761C19.3038 19.9539 19.4045 19.9162 19.454 19.891C19.6422 19.7951 19.7951 19.6422 19.891 19.454C19.9162 19.4045 19.9539 19.3038 19.9761 19.0322C19.9992 18.7488 20 18.3766 20 17.8V10.4649C19.4117 10.8052 18.7286 11 18 11C16.8053 11 15.7329 10.4762 15 9.64583C14.2671 10.4762 13.1947 11 12 11C10.8053 11 9.73295 10.4762 9 9.64582C8.26706 10.4762 7.19469 11 6 11C5.27143 11 4.58835 10.8052 4 10.4649ZM10 7C10 8.10457 10.8954 9 12 9C13.1046 9 14 8.10457 14 7C14 6.44772 14.4477 6 15 6C15.5523 6 16 6.44772 16 7C16 8.10457 16.8954 9 18 9C19.1046 9 20 8.10457 20 7V6.2C20 5.62345 19.9992 5.25118 19.9761 4.96784C19.9539 4.69617 19.9162 4.59546 19.891 4.54601C19.7951 4.35785 19.6422 4.20487 19.454 4.109C19.4045 4.0838 19.3038 4.04612 19.0322 4.02393C18.7488 4.00078 18.3766 4 17.8 4H6.2C5.62345 4 5.25117 4.00078 4.96784 4.02393C4.69617 4.04612 4.59546 4.0838 4.54601 4.109C4.35785 4.20487 4.20487 4.35785 4.109 4.54601C4.0838 4.59546 4.04612 4.69617 4.02393 4.96784C4.00078 5.25117 4 5.62345 4 6.2V7C4 8.10457 4.89543 9 6 9C7.10457 9 8 8.10457 8 7C8 6.44772 8.44772 6 9 6C9.55229 6 10 6.44772 10 7ZM14 20V15.6C14 15.3035 13.9992 15.1412 13.9897 15.0246C13.9893 15.02 13.9889 15.0156 13.9886 15.0115C13.9844 15.0111 13.98 15.0107 13.9754 15.0103C13.8588 15.0008 13.6965 15 13.4 15H10.6C10.3035 15 10.1412 15.0008 10.0246 15.0103C10.02 15.0107 10.0156 15.0111 10.0114 15.0115C10.0111 15.0156 10.0107 15.02 10.0103 15.0246C10.0008 15.1412 10 15.3035 10 15.6V20H14Z" />
</svg>