<svg viewBox="0 0 24 24" fill="black" xmlns="http://www.w3.org/2000/svg">
<path fill-rule="evenodd" clip-rule="evenodd" d="M10.405 3.02761C10.3167 3.00641 10.2113 2.99998 9.67449 2.99998H5.19998C4.62343 2.99998 4.25115 3.00076 3.96782 3.02391C3.69615 3.0461 3.59543 3.08378 3.54599 3.10897C3.35783 3.20485 3.20485 3.35783 3.10897 3.54599C3.08378 3.59543 3.0461 3.69615 3.02391 3.96782C3.00076 4.25115 2.99998 4.62343 2.99998 5.19998L2.99998 9.67449C2.99998 10.2113 3.00641 10.3167 3.02761 10.405C3.05211 10.507 3.09251 10.6046 3.14734 10.694C3.1948 10.7715 3.26478 10.8506 3.64434 11.2301L11.313 18.8988C11.9187 19.5044 12.331 19.9156 12.6752 20.2079C13.0106 20.4926 13.215 20.6052 13.3819 20.6594C13.7836 20.79 14.2163 20.79 14.618 20.6594C14.785 20.6052 14.9894 20.4926 15.3247 20.2079C15.669 19.9156 16.0813 19.5044 16.687 18.8988L18.8988 16.687C19.5044 16.0813 19.9156 15.669 20.2079 15.3247C20.4926 14.9894 20.6052 14.785 20.6594 14.618C20.79 14.2163 20.79 13.7836 20.6594 13.3819C20.6052 13.215 20.4926 13.0106 20.2079 12.6752C19.9156 12.331 19.5044 11.9187 18.8988 11.313L11.2301 3.64434C10.8506 3.26478 10.7715 3.1948 10.694 3.14734C10.6046 3.09251 10.507 3.05211 10.405 3.02761ZM9.7578 0.999928C10.1647 0.99955 10.5234 0.999216 10.8719 1.08287C11.178 1.15636 11.4706 1.27757 11.739 1.44206C12.0446 1.62929 12.298 1.8832 12.5855 2.17119C12.6049 2.19068 12.6245 2.21033 12.6443 2.23013L20.3422 9.92798C20.9114 10.4972 21.3812 10.9669 21.7326 11.3809C22.0976 11.8108 22.3932 12.2459 22.5616 12.7639C22.8226 13.5673 22.8226 14.4327 22.5616 15.236C22.3932 15.7541 22.0976 16.1892 21.7326 16.6191C21.3812 17.033 20.9114 17.5028 20.3422 18.072L18.072 20.3422C17.5028 20.9114 17.033 21.3812 16.6191 21.7326C16.1892 22.0976 15.7541 22.3932 15.236 22.5616C14.4327 22.8226 13.5673 22.8226 12.7639 22.5616C12.2459 22.3932 11.8108 22.0976 11.3809 21.7326C10.9669 21.3812 10.4971 20.9114 9.92793 20.3421L2.23013 12.6443C2.21033 12.6245 2.19069 12.6049 2.17119 12.5855C1.8832 12.298 1.62929 12.0446 1.44206 11.739C1.27757 11.4706 1.15636 11.178 1.08287 10.8719C0.999216 10.5234 0.99955 10.1647 0.999928 9.7578C0.999954 9.73026 0.99998 9.70249 0.99998 9.67449L0.999979 5.16144C0.999961 4.63429 0.999946 4.17952 1.03055 3.80495C1.06285 3.40961 1.13417 3.01639 1.32696 2.63801C1.61458 2.07352 2.07352 1.61458 2.63801 1.32696C3.01639 1.13417 3.40961 1.06285 3.80495 1.03055C4.17952 0.999946 4.63429 0.999961 5.16144 0.999979L9.67449 0.99998C9.70249 0.99998 9.73026 0.999954 9.7578 0.999928ZM6.49998 7.99998C6.49998 7.17155 7.17155 6.49998 7.99998 6.49998C8.82841 6.49998 9.49998 7.17155 9.49998 7.99998C9.49998 8.82841 8.82841 9.49998 7.99998 9.49998C7.17155 9.49998 6.49998 8.82841 6.49998 7.99998Z"/>
</svg>
