<svg viewBox="0 0 56 56" fill="none" xmlns="http://www.w3.org/2000/svg">
<path fill-rule="evenodd" clip-rule="evenodd" d="M28 5.5C15.5736 5.5 5.5 15.5736 5.5 28C5.5 40.4264 15.5736 50.5 28 50.5C40.4264 50.5 50.5 40.4264 50.5 28C50.5 15.5736 40.4264 5.5 28 5.5ZM0.5 28C0.5 12.8122 12.8122 0.5 28 0.5C43.1878 0.5 55.5 12.8122 55.5 28C55.5 43.1878 43.1878 55.5 28 55.5C12.8122 55.5 0.5 43.1878 0.5 28ZM41.0178 18.7322C41.9941 19.7085 41.9941 21.2915 41.0178 22.2678L26.0178 37.2678C25.0415 38.2441 23.4585 38.2441 22.4822 37.2678L14.9822 29.7678C14.0059 28.7915 14.0059 27.2085 14.9822 26.2322C15.9585 25.2559 17.5415 25.2559 18.5178 26.2322L24.25 31.9645L37.4822 18.7322C38.4585 17.7559 40.0415 17.7559 41.0178 18.7322Z"/>
</svg>
