<svg width="24" height="24" viewBox="0 0 24 24" fill="black" xmlns="http://www.w3.org/2000/svg">
    <path fill-rule="evenodd" clip-rule="evenodd"
        d="M2.29292 1.29292C2.56075 1.02509 2.95692 0.931566 3.31625 1.05134L6.31626 2.05134C6.7246 2.18746 7.00003 2.5696 7.00003 3.00003V5.58581L10.11 8.69574C10.0377 8.30745 10 7.9077 10 7.50003C10 3.91018 12.9102 1.00003 16.5 1.00003C17.6867 1.00003 18.8019 1.31894 19.7614 1.87638C20.0298 2.03232 20.2105 2.30406 20.2506 2.61187C20.2907 2.91968 20.1856 3.22865 19.9661 3.44815L17.3385 6.07576C17.1288 6.28544 17.0146 6.40072 16.9389 6.48989C16.9359 6.49344 16.9331 6.49682 16.9304 6.50003C16.9331 6.50323 16.9359 6.50661 16.9389 6.51016C17.0146 6.59933 17.1288 6.71461 17.3385 6.92429L17.5758 7.16155C17.7854 7.37123 17.9007 7.48541 17.9899 7.56111C17.9934 7.56412 17.9968 7.56696 18 7.56962C18.0032 7.56696 18.0066 7.56412 18.0102 7.56111C18.0993 7.48541 18.2146 7.37123 18.4243 7.16155L20.8822 4.70364C21.1187 4.46713 21.4578 4.36452 21.7858 4.43023C22.1137 4.49594 22.3871 4.72126 22.5142 5.03063C22.8277 5.7933 23 6.62779 23 7.50003C23 10.5046 20.9614 13.0331 18.1919 13.7777L21.2071 16.7928C22.4261 18.0117 22.4261 19.9881 21.2071 21.207C19.9882 22.426 18.0119 22.426 16.7929 21.207L12.0001 16.4142L7.20713 21.2071C5.98818 22.4261 4.01187 22.4261 2.79292 21.2071C1.57397 19.9882 1.57397 18.0119 2.79292 16.7929L9.08581 10.5L5.58581 7.00003H3.00003C2.5696 7.00003 2.18746 6.7246 2.05134 6.31626L1.05134 3.31625C0.931566 2.95692 1.02509 2.56075 1.29292 2.29292L2.29292 1.29292ZM5.00003 5.00003V3.72079L3.27012 3.14415L3.14415 3.27012L3.72079 5.00003H5.00003ZM11.2062 11.2081L4.20714 18.2071C3.76923 18.645 3.76923 19.355 4.20714 19.7929C4.64504 20.2308 5.35502 20.2308 5.79292 19.7929L12.9499 12.6359C12.9689 12.617 12.9882 12.5975 13.0079 12.5776C13.0487 12.5366 13.0913 12.4937 13.1355 12.4504L13.2326 12.3533C13.3452 12.2406 13.4665 12.1456 13.5937 12.0668C13.6314 12.0423 13.6697 12.0194 13.7087 11.9985C13.8064 11.9462 13.9249 11.8887 14.0691 11.8448C14.2133 11.8009 14.3438 11.7827 14.4541 11.7718C14.4756 11.7696 14.497 11.768 14.5184 11.7668C14.7885 11.7445 15.0574 11.7719 15.3055 11.84C15.4095 11.8686 15.515 11.8935 15.622 11.9146C15.6224 11.9147 15.6228 11.9148 15.6233 11.9149C15.6427 11.9187 15.6621 11.9224 15.6816 11.926C15.8091 11.9493 15.9384 11.9674 16.0696 11.9798C16.211 11.9932 16.3546 12 16.5 12C18.9853 12 21 9.98531 21 7.50003C21 7.47163 20.9998 7.44329 20.9992 7.41502L19.816 8.5983C19.6375 8.77679 19.4637 8.95062 19.3045 9.08579C19.1297 9.23422 18.9078 9.39379 18.6181 9.48793C18.2164 9.61844 17.7837 9.61844 17.382 9.48793C17.0923 9.39379 16.8704 9.23422 16.6955 9.08579C16.5363 8.95062 16.3625 8.7768 16.1841 8.59832L15.9017 8.31596C15.7233 8.13751 15.5494 7.96373 15.4143 7.80452C15.2658 7.62967 15.1063 7.40778 15.0121 7.11806C14.8816 6.71637 14.8816 6.28368 15.0121 5.88199C15.1063 5.59228 15.2658 5.37038 15.4143 5.19554C15.5494 5.03633 15.7232 4.86255 15.9017 4.68412L17.4792 3.10665C17.1643 3.03685 16.8367 3.00003 16.5 3.00003C14.0147 3.00003 12 5.01475 12 7.50003C12 7.80093 12.0294 8.09398 12.0852 8.37677L12.0888 8.39527C12.1337 8.62253 12.1727 8.82052 12.1978 8.97939C12.2214 9.12834 12.2493 9.33506 12.2283 9.54599C12.2173 9.65623 12.1991 9.78675 12.1552 9.93093C12.1114 10.0751 12.0538 10.1937 12.0015 10.2913C11.8581 10.5594 11.6197 10.7962 11.4224 10.9921C11.4025 11.0119 11.3831 11.0312 11.3642 11.0501L11.2081 11.2062C11.2078 11.2065 11.2074 11.2068 11.2071 11.2071C11.2068 11.2074 11.2065 11.2078 11.2062 11.2081ZM13.4143 15L18.2071 19.7928C18.645 20.2307 19.355 20.2307 19.7929 19.7928C20.2308 19.3549 20.2308 18.6449 19.7929 18.207L15.5109 13.9251C15.4187 13.911 15.3272 13.895 15.2363 13.8771C14.9852 13.8275 14.825 13.7961 14.7082 13.7777C14.6855 13.7741 14.667 13.7714 14.652 13.7694C14.6484 13.7726 14.6444 13.7762 14.64 13.7802C14.5816 13.8331 14.5053 13.9089 14.3727 14.0416C14.3699 14.0444 14.367 14.0472 14.3642 14.0501L13.4143 15Z" />
</svg>
