<svg  viewBox="0 0 22 23" fill="none" xmlns="http://www.w3.org/2000/svg">
<path fill-rule="evenodd" clip-rule="evenodd" d="M11 0.5C11.5523 0.5 12 0.947715 12 1.5V2.55493C16.1716 3.01608 19.4839 6.32838 19.9451 10.5H21C21.5523 10.5 22 10.9477 22 11.5C22 12.0523 21.5523 12.5 21 12.5H19.9451C19.4839 16.6716 16.1716 19.9839 12 20.4451V21.5C12 22.0523 11.5523 22.5 11 22.5C10.4477 22.5 10 22.0523 10 21.5V20.4451C5.82838 19.9839 2.51608 16.6716 2.05493 12.5H1C0.447715 12.5 0 12.0523 0 11.5C0 10.9477 0.447715 10.5 1 10.5H2.05493C2.51608 6.32838 5.82838 3.01608 10 2.55493V1.5C10 0.947715 10.4477 0.5 11 0.5ZM11 4.5C7.13401 4.5 4 7.63401 4 11.5C4 15.366 7.13401 18.5 11 18.5C14.866 18.5 18 15.366 18 11.5C18 7.63401 14.866 4.5 11 4.5ZM11 9.5C9.89543 9.5 9 10.3954 9 11.5C9 12.6046 9.89543 13.5 11 13.5C12.1046 13.5 13 12.6046 13 11.5C13 10.3954 12.1046 9.5 11 9.5ZM7 11.5C7 9.29086 8.79086 7.5 11 7.5C13.2091 7.5 15 9.29086 15 11.5C15 13.7091 13.2091 15.5 11 15.5C8.79086 15.5 7 13.7091 7 11.5Z"/>
</svg>
