<svg viewBox="0 0 24 25" fill="black" xmlns="http://www.w3.org/2000/svg">
<path fill-rule="evenodd" clip-rule="evenodd" d="M13.3982 1.5827C13.8054 1.75947 14.0473 2.18353 13.9923 2.62403L13.1328 9.5L19.3277 9.49999C19.5687 9.49995 19.8128 9.4999 20.0123 9.51796C20.2009 9.53504 20.562 9.58021 20.8753 9.83332C21.2338 10.1231 21.4392 10.5616 21.4323 11.0226C21.4262 11.4253 21.2297 11.7316 21.1221 11.8875C21.0083 12.0522 20.852 12.2397 20.6977 12.4248L11.7682 23.1402C11.484 23.4812 11.009 23.5941 10.6018 23.4173C10.1946 23.2405 9.95264 22.8165 10.0077 22.376L10.8672 15.5L4.67221 15.5C4.43122 15.5 4.18713 15.5001 3.9877 15.482C3.79909 15.465 3.43793 15.4198 3.12471 15.1667C2.76614 14.8769 2.56072 14.4384 2.56768 13.9774C2.57375 13.5747 2.77026 13.2684 2.87788 13.1125C2.99169 12.9478 3.14799 12.7603 3.30231 12.5751C3.30996 12.566 3.31759 12.5568 3.32522 12.5477L12.2318 1.85981C12.516 1.51878 12.991 1.40593 13.3982 1.5827ZM5.13503 13.5H12C12.2868 13.5 12.5598 13.6232 12.7497 13.8382C12.9395 14.0532 13.0278 14.3394 12.9923 14.624L12.4153 19.2395L18.8649 11.5H12C11.7132 11.5 11.4401 11.3768 11.2503 11.1618C11.0605 10.9468 10.9721 10.6606 11.0077 10.376L11.5846 5.76046L5.13503 13.5Z"/>
</svg>
