<svg viewBox="0 0 24 24" fill="black" xmlns="http://www.w3.org/2000/svg">
    <path
        d="M1.00003 21C1.00003 19.6774 0.988833 18.7943 1.21487 18.0488C1.69962 16.4508 2.95085 15.1996 4.54886 14.7148C5.29431 14.4888 6.17743 14.5 7.50003 14.5H10C10.5523 14.5 11 14.9477 11 15.5C11 16.0523 10.5523 16.5 10 16.5H7.50003C6.03171 16.5 5.519 16.5106 5.12894 16.6289C4.17025 16.9198 3.4198 17.6702 3.12894 18.6289C3.01061 19.019 3.00003 19.5317 3.00003 21C3.00003 21.5523 2.55231 22 2.00003 22C1.44775 22 1.00003 21.5523 1.00003 21ZM13.5 7.5C13.5 5.567 11.933 4 10 4C8.06703 4 6.50003 5.567 6.50003 7.5C6.50003 9.433 8.06703 11 10 11C11.933 11 13.5 9.433 13.5 7.5ZM15.5 7.5C15.5 10.5376 13.0376 13 10 13C6.96246 13 4.50003 10.5376 4.50003 7.5C4.50003 4.46243 6.96246 2 10 2C13.0376 2 15.5 4.46243 15.5 7.5Z" />
    <path
        d="M18 12.25C18.2908 12.25 18.5552 12.4184 18.6787 12.6816L19.7442 14.9521L22.1143 15.3164C22.3919 15.3592 22.6219 15.5539 22.711 15.8203C22.8 16.0868 22.7334 16.381 22.5371 16.582L20.8008 18.3594L21.2119 20.8789C21.2582 21.1623 21.139 21.4479 20.9043 21.6133C20.6696 21.7786 20.3607 21.7951 20.1094 21.6562L18 20.4893L15.8907 21.6562C15.6393 21.7951 15.3305 21.7786 15.0957 21.6133C14.861 21.4479 14.7419 21.1623 14.7881 20.8789L15.1983 18.3594L13.4629 16.582C13.2667 16.381 13.2001 16.0868 13.2891 15.8203C13.3781 15.5539 13.6081 15.3592 13.8858 15.3164L16.2549 14.9521L17.3213 12.6816L17.3741 12.5869C17.5115 12.3786 17.7457 12.25 18 12.25ZM17.4434 15.9521C17.3372 16.1782 17.1248 16.3361 16.878 16.374L15.5557 16.5771L16.5371 17.582C16.7033 17.7523 16.7785 17.9917 16.7403 18.2266L16.5166 19.5957L17.6367 18.9766C17.8626 18.8517 18.1375 18.8517 18.3633 18.9766L19.4825 19.5957L19.2598 18.2266C19.2216 17.9917 19.2967 17.7523 19.4629 17.582L20.4434 16.5771L19.1221 16.374C18.8752 16.3361 18.6629 16.1782 18.5567 15.9521L18 14.7646L17.4434 15.9521Z" />
</svg>
