<svg viewBox="0 0 24 24" fill="black" xmlns="http://www.w3.org/2000/svg">
    <path
        d="M1.00003 20C1.00003 18.6774 0.988833 17.7943 1.21487 17.0488C1.69962 15.4508 2.95085 14.1996 4.54886 13.7148C5.29431 13.4888 6.17743 13.5 7.50003 13.5H10C10.5523 13.5 11 13.9477 11 14.5C11 15.0523 10.5523 15.5 10 15.5H7.50003C6.03171 15.5 5.519 15.5106 5.12894 15.6289C4.17025 15.9198 3.4198 16.6702 3.12894 17.6289C3.01061 18.019 3.00003 18.5317 3.00003 20C3.00003 20.5523 2.55231 21 2.00003 21C1.44775 21 1.00003 20.5523 1.00003 20ZM13.5 6.5C13.5 4.567 11.933 3 10 3C8.06703 3 6.50003 4.567 6.50003 6.5C6.50003 8.433 8.06703 10 10 10C11.933 10 13.5 8.433 13.5 6.5ZM15.5 6.5C15.5 9.53757 13.0376 12 10 12C6.96246 12 4.50003 9.53757 4.50003 6.5C4.50003 3.46243 6.96246 1 10 1C13.0376 1 15.5 3.46243 15.5 6.5Z" />
    <path
        d="M19.5489 10.25C20.1638 10.2501 20.75 10.3831 21.2784 10.6221C21.5026 10.7236 21.6629 10.9287 21.7071 11.1709C21.7511 11.413 21.6731 11.6609 21.4991 11.835L19.7461 13.5879C19.7798 13.6222 19.8186 13.6614 19.8662 13.709L20.291 14.1338C20.3382 14.1809 20.3771 14.2195 20.4112 14.2529C20.4454 14.2194 20.4849 14.1812 20.5323 14.1338L22.1651 12.501L22.2334 12.4395C22.4008 12.3088 22.6174 12.2545 22.8291 12.293C23.0713 12.3371 23.2765 12.4975 23.378 12.7217C23.6169 13.25 23.75 13.8362 23.75 14.4512C23.75 16.7715 21.8691 18.6531 19.5489 18.6533C19.2061 18.6533 18.8713 18.6122 18.5508 18.5342C18.4432 18.508 18.3673 18.4895 18.3096 18.4766L18.3067 18.4805C18.2792 18.5074 18.2479 18.5392 18.208 18.5791L14.6133 22.1729C13.8438 22.9422 12.5966 22.9423 11.8272 22.1729C11.0578 21.4034 11.0578 20.1562 11.8272 19.3867L15.4209 15.792C15.4608 15.7521 15.4926 15.7208 15.5196 15.6934L15.5225 15.6895C15.5096 15.6319 15.4919 15.5561 15.4659 15.4492C15.3878 15.1288 15.3467 14.7939 15.3467 14.4512C15.347 12.1309 17.2285 10.25 19.5489 10.25ZM16.8467 14.4512C16.8467 14.6734 16.8739 14.8887 16.9239 15.0938C16.9566 15.228 16.9858 15.3513 17.0059 15.4512C17.0241 15.5416 17.0504 15.683 17.0401 15.834C17.0267 16.0293 16.9846 16.1787 16.8946 16.3525C16.7864 16.5613 16.5962 16.7388 16.4825 16.8525L12.8877 20.4473C12.7042 20.631 12.7041 20.9287 12.8877 21.1123C13.0714 21.2959 13.3691 21.2959 13.5528 21.1123L17.1475 17.5176C17.2612 17.4038 17.4387 17.2137 17.6475 17.1055L17.7744 17.0469C17.8989 16.9965 18.0196 16.97 18.166 16.96C18.3171 16.9496 18.4585 16.976 18.5489 16.9941C18.6488 17.0142 18.7721 17.0435 18.9063 17.0762C19.1114 17.1261 19.3267 17.1533 19.5489 17.1533C21.0108 17.1531 22.1979 15.9915 22.2451 14.541L21.5928 15.1943C21.4876 15.2995 21.3766 15.4103 21.2744 15.4971C21.1656 15.5894 21.0176 15.6976 20.8203 15.7617C20.5544 15.848 20.2679 15.8481 20.002 15.7617C19.8047 15.6976 19.6567 15.5895 19.5479 15.4971C19.4458 15.4104 19.3356 15.2994 19.2305 15.1943L18.8057 14.7695C18.7006 14.6645 18.5896 14.5542 18.503 14.4521C18.4106 14.3433 18.3024 14.1954 18.2383 13.998C18.152 13.7321 18.152 13.4456 18.2383 13.1797L18.294 13.04C18.3556 12.9103 18.4337 12.8071 18.503 12.7256C18.5897 12.6234 18.7005 12.5124 18.8057 12.4072L19.458 11.7539C18.008 11.8016 16.847 12.9896 16.8467 14.4512Z" />
</svg>
