<svg viewBox="0 0 164 41" fill="none" xmlns="http://www.w3.org/2000/svg">
    <path
        d="M38.5687 26.4372C39.4273 23.8199 39.7307 21.0524 39.4596 18.3113C39.1886 15.5701 38.3491 12.9156 36.9947 10.5171L23.4049 10.173V10.0031L36.4855 9.67167C34.9057 7.18479 32.7925 5.08049 30.2989 3.51124L19.8021 3.24783V3.0786L29.1313 2.8428C25.3086 0.793659 20.9177 0.0601015 16.6366 0.755425C12.3555 1.45075 8.42238 3.53627 5.44477 6.68988L17.1843 6.98728V7.15723L4.74305 7.46879C1.7071 11.0361 0.0427692 15.5691 0.0490902 20.2534C0.0490902 20.4659 0.04909 20.6712 0.0597115 20.8794C0.0589416 20.8933 0.0589416 20.9073 0.0597115 20.9212L4.74872 21.0401V21.2101L0.0752896 21.3283C0.076044 21.3422 0.076044 21.3562 0.0752896 21.3701C0.246059 24.4527 1.14097 27.4516 2.68745 30.1236L10.5027 30.3211V30.4911L3.02238 30.6809C4.8572 33.6267 7.43286 36.0395 10.4921 37.6782C10.7357 37.8107 10.9821 37.936 11.232 38.0564V21.6477H13.1269C13.1998 21.6476 13.2721 21.6619 13.3395 21.6898C13.4068 21.7176 13.4681 21.7585 13.5197 21.8101C13.5712 21.8616 13.6121 21.9229 13.64 21.9903C13.6678 22.0577 13.6821 22.1299 13.682 22.2028V39.0399C17.6605 40.3291 21.9444 40.3291 25.9229 39.0399V22.2028C25.9228 22.1299 25.9371 22.0577 25.9649 21.9903C25.9928 21.9229 26.0337 21.8616 26.0853 21.8101C26.1368 21.7585 26.1981 21.7176 26.2655 21.6898C26.3329 21.6619 26.4051 21.6476 26.478 21.6477H28.3715V38.0585C28.6179 37.9395 28.8636 37.8149 29.1036 37.6853C31.0356 36.6534 32.7824 35.3073 34.2727 33.7023L29.3663 33.5777V33.4077L34.6601 33.2739C36.2841 31.4243 37.5472 29.2867 38.3839 26.9718L31.32 26.7927V26.6228L38.5687 26.4372ZM31.1118 21.1265H8.49312L8.08455 19.4937H11.232V17.7432H11.875C12.1045 17.7433 12.3317 17.7886 12.5437 17.8765C12.7557 17.9645 12.9483 18.0933 13.1105 18.2556C13.2727 18.4179 13.4014 18.6106 13.4891 18.8227C13.5768 19.0348 13.6219 19.262 13.6219 19.4915H18.5785V17.1605H6.57065C6.33627 15.2947 5.22881 13.8374 5.22881 13.8374C8.49312 14.5943 19.8021 14.6531 19.8021 14.6531C19.8021 14.6531 31.1111 14.5943 34.374 13.8374C34.374 13.8374 33.2687 15.2947 33.0343 17.1605H21.0271V19.4922H25.9838C25.9838 19.2626 26.029 19.0352 26.1169 18.823C26.2048 18.6109 26.3337 18.4181 26.4961 18.2558C26.6585 18.0934 26.8513 17.9646 27.0635 17.8768C27.2757 17.789 27.5031 17.7439 27.7328 17.744H28.3743V19.4922H31.5232L31.1118 21.1265Z"
        fill="#431D93" />
    <path
        d="M0.0490723 39.59L0.35851 39.493L0.665823 39.4038L1.28328 39.231C1.69468 39.1248 2.10609 39.0185 2.5182 38.93C3.34101 38.7388 4.16452 38.5795 4.98733 38.428C6.63365 38.1327 8.27926 37.9118 9.92558 37.7326C13.2066 37.3907 16.5033 37.2226 19.8021 37.2292C23.1009 37.2278 26.3975 37.398 29.6786 37.739C31.3249 37.9196 32.9705 38.1398 34.6169 38.4344C35.4397 38.5852 36.2632 38.7438 37.086 38.9336C37.4974 39.0249 37.9088 39.1276 38.3209 39.2331L38.9384 39.4045L39.2471 39.4908L39.5558 39.5879V39.8654L34.6176 39.9362L29.6793 39.961L19.8028 40.0078L9.92629 39.9617L4.98803 39.9377L0.0497802 39.8668L0.0490723 39.59Z"
        fill="#431D93" />
    <path
        d="M152.071 15.7328L151.578 15.2329H147.642L147.146 15.7328V33.7425C147.146 38.2453 150.591 40.2464 154.035 40.2464H163.459L163.951 39.7465V36.2442L163.459 35.7443H154.039C153.056 35.7443 152.071 35.2437 152.071 33.7432L152.071 15.7328Z"
        fill="#431D93" />
    <path
        d="M134.744 14.9824C131.299 14.9824 128.839 16.4836 127.363 18.4847H126.871C125.887 16.9835 124.41 14.9824 120.475 14.9824C120.153 14.9824 118.168 15.0214 118.168 15.0214L117.672 15.5213V19.0327L118.168 19.5326H119.874C123.008 19.8867 123.427 22.2234 123.427 24.985V39.9966L123.919 40.4965H127.855L128.347 39.9966V25.9883C128.347 21.9862 130.315 19.4852 133.76 19.4852C137.696 19.4852 138.188 21.9869 138.188 24.9885V40.0001L138.684 40.5H142.615L143.107 40.0001V24.9885C143.11 19.4852 141.632 14.9824 134.744 14.9824Z"
        fill="#431D93" />
    <path
        d="M111.184 15.4829L110.692 15.9828V39.9965L111.184 40.4964H115.12L115.612 39.9965V15.9828L115.12 15.4829H111.184Z"
        fill="#431D93" />
    <path
        d="M93.6855 39.7536L93.3265 40.1126H89.0121L88.6523 39.7536V22.5023L89.0121 22.1426H93.3244L93.6841 22.5023V39.7536H93.6855Z"
        fill="#431D93" />
    <path
        d="M96.7196 26.0967L96.3599 25.7377V22.1434L96.7196 21.7837H98.7185C103.032 21.7837 105.547 24.6593 105.547 28.9716V39.7537L105.188 40.1127H100.875L100.516 39.7537V29.3313C100.516 27.5341 99.797 26.0967 97.6401 26.0967H96.7196Z"
        fill="#431D93" />
    <path
        d="M68.2981 32.9253C68.2118 32.3301 68.169 31.7295 68.1699 31.1281C68.1699 26.0964 71.0455 21.7812 76.796 21.7812C82.5464 21.7812 85.4213 26.0943 85.4213 31.1281V32.5655L85.0623 32.9245H73.9204M79.6708 35.0842L80.0305 34.7245H84.3435L84.7033 35.0842M80.0298 28.9741C80.0298 28.6144 79.6701 26.0985 76.7952 26.0985C73.9204 26.0985 73.5607 28.6144 73.5607 28.9741L73.9197 29.3338H79.6701L80.0298 28.9741Z"
        fill="#431D93" />
    <path
        d="M84.7024 35.0843C84.3427 37.2405 82.5463 40.4751 77.1548 40.4751C71.7634 40.4751 69.2723 37.2405 68.9126 35.0843L69.2723 34.7246H74.1058L74.4655 35.0843C74.8245 35.803 76.0764 36.1628 77.1562 36.1628C78.2347 36.1628 79.3131 35.803 79.6721 35.0843"
        fill="#431D93" />
    <path d="M64.2167 19.2676H47.3243L46.9653 18.9086V15.3143L47.3243 14.9546H64.2167L64.5764 15.3143V18.9086"
        fill="#431D93" />
    <path
        d="M52.7156 35.441V35.8007H64.9352L65.2949 36.1604V39.754L64.9352 40.1137H46.9652L46.6055 39.754V35.8007L46.9652 35.0819L51.1812 29.4448L56.9175 22.0572L57.2772 21.6982H62.231L62.5907 22.0572L52.7156 35.441Z"
        fill="#431D93" />
</svg>
