<svg viewBox="0 0 3918 600" fill="none" xmlns="http://www.w3.org/2000/svg">
    <path
        d="M577.795 389.059C590.673 349.799 595.224 308.286 591.159 267.169C587.093 226.052 574.5 186.234 554.184 150.257L350.337 145.095V142.546L546.547 137.575C522.85 100.272 491.151 68.7074 453.748 45.1687L296.296 41.2175V38.679L436.233 35.142C378.894 4.40489 313.029 -6.59848 248.813 3.83138C184.596 14.2612 125.6 45.5441 80.9355 92.8482L257.028 97.3092V99.8584L70.4097 104.532C24.8704 158.042 -0.0945457 226.037 0.000269083 296.302C0.000269083 299.488 0.00026664 302.568 0.159588 305.691C0.14804 305.9 0.14804 306.109 0.159588 306.318L70.4947 308.102V310.651L0.393261 312.425C0.404576 312.634 0.404576 312.843 0.393261 313.052C2.9548 359.29 16.3785 404.273 39.5757 444.354L156.804 447.317V449.866L44.5996 452.713C72.1219 496.9 110.757 533.092 156.645 557.674C160.299 559.66 163.995 561.54 167.744 563.346V317.215H196.167C197.261 317.214 198.345 317.428 199.356 317.846C200.367 318.264 201.285 318.878 202.059 319.651C202.832 320.425 203.446 321.343 203.864 322.354C204.282 323.365 204.496 324.448 204.495 325.542V578.099C264.171 597.437 328.43 597.437 388.107 578.099V325.542C388.106 324.448 388.32 323.365 388.738 322.354C389.156 321.343 389.769 320.425 390.543 319.651C391.317 318.878 392.235 318.264 393.246 317.846C394.257 317.428 395.34 317.214 396.434 317.215H424.836V563.377C428.532 561.593 432.218 559.724 435.819 557.78C464.797 542.301 491 522.11 513.355 498.034L439.759 496.165V493.616L519.165 491.608C543.525 463.864 562.472 431.8 575.023 397.078L469.064 394.391V391.841L577.795 389.059ZM465.941 309.398H126.661L120.532 284.905H167.744V258.649H177.389C180.831 258.65 184.24 259.33 187.419 260.648C190.599 261.967 193.488 263.899 195.921 266.334C198.355 268.769 200.284 271.66 201.6 274.841C202.917 278.022 203.593 281.431 203.592 284.873H277.942V249.907H97.8236C94.3079 221.92 77.696 200.061 77.696 200.061C126.661 211.415 296.296 212.297 296.296 212.297C296.296 212.297 465.93 211.415 514.874 200.061C514.874 200.061 498.294 221.92 494.778 249.907H314.671V284.884H389.021C389.021 281.439 389.699 278.028 391.018 274.846C392.336 271.663 394.269 268.772 396.705 266.336C399.142 263.901 402.034 261.97 405.217 260.652C408.4 259.335 411.811 258.658 415.256 258.659H424.879V284.884H472.112L465.941 309.398Z"
        fill="white" />
    <path
        d="M0 586.352L4.64156 584.897L9.25126 583.558L18.5131 580.967C24.6842 579.373 30.8552 577.78 37.0369 576.452C49.379 573.585 61.7317 571.195 74.0738 568.922C98.7687 564.493 123.453 561.179 148.148 558.492C197.362 553.362 246.814 550.841 296.295 550.94C345.777 550.919 395.226 553.472 444.443 558.587C469.138 561.296 493.822 564.599 518.517 569.017C530.859 571.28 543.212 573.659 555.554 576.506C561.725 577.876 567.896 579.416 574.078 580.998L583.339 583.569L587.97 584.865L592.601 586.32V590.483L518.527 591.546L444.454 591.917L296.306 592.618L148.158 591.928L74.0845 591.567L0.0106196 590.505L0 586.352Z"
        fill="white" />
    <path
        d="M2280.32 228.494L2272.94 220.996H2213.9L2206.46 228.494V498.64C2206.46 566.181 2258.13 596.198 2309.79 596.198H2451.15L2458.53 588.699V536.165L2451.15 528.667H2309.85C2295.1 528.667 2280.34 521.157 2280.34 498.65L2280.32 228.494Z"
        fill="white" />
    <path
        d="M2020.42 217.236C1968.76 217.236 1931.85 239.753 1909.71 269.769H1902.33C1887.57 247.252 1865.42 217.236 1806.39 217.236C1801.55 217.236 1771.78 217.82 1771.78 217.82L1764.35 225.319V277.99L1771.78 285.489H1797.38C1844.38 290.8 1850.67 325.85 1850.67 367.274V592.448L1858.05 599.947H1917.09L1924.48 592.448V382.325C1924.48 322.292 1953.99 284.777 2005.67 284.777C2064.71 284.777 2072.09 322.303 2072.09 367.327V592.501L2079.53 600H2138.49L2145.87 592.501V367.327C2145.92 284.777 2123.74 217.236 2020.42 217.236Z"
        fill="white" />
    <path
        d="M1667.02 224.745L1659.64 232.244V592.448L1667.02 599.947H1726.07L1733.45 592.448V232.244L1726.07 224.745H1667.02Z"
        fill="white" />
    <path
        d="M1404.55 588.805L1399.16 594.19H1334.44L1329.05 588.805V330.035L1334.44 324.64H1399.13L1404.52 330.035V588.805H1404.55Z"
        fill="white" />
    <path
        d="M1450.06 383.95L1444.66 378.565V324.65L1450.06 319.255H1480.04C1544.74 319.255 1582.48 362.388 1582.48 427.073V588.805L1577.08 594.19H1512.39L1507 588.805V432.468C1507 405.511 1496.22 383.95 1463.87 383.95H1450.06Z"
        fill="white" />
    <path
        d="M1023.74 486.383C1022.44 477.455 1021.8 468.446 1021.81 459.425C1021.81 383.95 1064.95 319.223 1151.2 319.223C1237.46 319.223 1280.58 383.918 1280.58 459.425V480.987L1275.2 486.372H1108.07M1194.33 518.767L1199.72 513.372H1264.42L1269.81 518.767M1199.71 427.115C1199.71 421.719 1194.32 383.981 1151.19 383.981C1108.07 383.981 1102.67 421.719 1102.67 427.115L1108.06 432.511H1194.32L1199.71 427.115Z"
        fill="white" />
    <path
        d="M1269.8 518.767C1264.41 551.11 1237.46 599.628 1156.59 599.628C1075.72 599.628 1038.35 551.11 1032.95 518.767L1038.35 513.372H1110.85L1116.25 518.767C1121.63 529.548 1140.41 534.944 1156.61 534.944C1172.79 534.944 1188.96 529.548 1194.35 518.767"
        fill="white" />
    <path d="M962.514 281.517H709.129L703.744 276.131V222.217L709.129 216.821H962.514L967.909 222.217V276.131"
        fill="white" />
    <path
        d="M790 524.11V529.506H973.294L978.69 534.901V588.805L973.294 594.201H703.744L698.348 588.805V529.506L703.744 518.725L766.984 434.168L853.028 323.354L858.423 317.969H932.731L938.127 323.354L790 524.11Z"
        fill="white" />
    <path
        d="M2765 599.49C2739.5 599.49 2715.99 594.849 2694.47 585.568C2672.94 575.955 2654.07 562.529 2637.84 545.292C2621.95 528.055 2609.53 507.834 2600.59 484.63C2591.98 461.425 2587.67 435.901 2587.67 408.056C2587.67 380.542 2591.98 355.184 2600.59 331.979C2609.53 308.444 2621.95 288.223 2637.84 271.317C2654.07 254.08 2672.94 240.82 2694.47 231.539C2715.99 221.925 2739.5 217.119 2765 217.119C2789.84 217.119 2812.19 221.594 2832.06 230.544C2851.92 239.494 2868.65 250.931 2882.22 264.853C2895.8 278.776 2905.57 293.195 2911.53 308.112L2881.23 321.538C2871.3 299.328 2856.23 281.428 2836.03 267.837C2816.16 254.246 2792.48 247.45 2765 247.45C2736.85 247.45 2711.69 254.246 2689.5 267.837C2667.64 281.428 2650.59 300.322 2638.34 324.521C2626.09 348.388 2619.96 376.233 2619.96 408.056C2619.96 439.879 2626.09 467.89 2638.34 492.088C2650.59 516.287 2667.64 535.182 2689.5 548.773C2711.69 562.032 2736.85 568.662 2765 568.662C2792.48 568.662 2816.16 562.032 2836.03 548.773C2856.23 535.182 2871.3 517.281 2881.23 495.072L2911.53 508.497C2905.57 523.082 2895.8 537.336 2882.22 551.259C2868.65 565.181 2851.92 576.783 2832.06 586.065C2812.19 595.015 2789.84 599.49 2765 599.49Z"
        fill="#E4D8FD" />
    <path d="M2973.2 593.523V217.119H3003V593.523H2973.2Z" fill="#E4D8FD" />
    <path
        d="M3197.52 599.49C3172.35 599.49 3149.67 593.523 3129.47 581.59C3109.27 569.656 3093.21 553.248 3081.29 532.364C3069.7 511.149 3063.9 487.447 3063.9 461.26C3063.9 435.072 3069.7 411.537 3081.29 390.653C3093.21 369.769 3109.1 353.36 3128.97 341.427C3149.17 329.493 3172.02 323.527 3197.52 323.527C3222.69 323.527 3245.37 329.493 3265.57 341.427C3285.77 353.36 3301.66 369.769 3313.25 390.653C3324.84 411.205 3330.64 434.741 3330.64 461.26C3330.64 487.779 3324.68 511.48 3312.76 532.364C3300.84 553.248 3284.78 569.656 3264.58 581.59C3244.71 593.523 3222.36 599.49 3197.52 599.49ZM3197.52 570.154C3216.39 570.154 3233.45 565.513 3248.68 556.231C3264.24 546.618 3276.5 533.524 3285.44 516.95C3294.38 500.375 3298.85 481.812 3298.85 461.26C3298.85 440.708 3294.38 422.31 3285.44 406.067C3276.5 389.824 3264.41 376.896 3249.18 367.283C3233.95 357.67 3216.73 352.863 3197.52 352.863C3178.31 352.863 3160.93 357.67 3145.36 367.283C3130.13 376.565 3118.05 389.493 3109.1 406.067C3100.16 422.31 3095.69 440.708 3095.69 461.26C3095.69 481.812 3100.16 500.375 3109.1 516.95C3118.38 533.524 3130.63 546.618 3145.86 556.231C3161.09 565.513 3178.31 570.154 3197.52 570.154Z"
        fill="#E4D8FD" />
    <path
        d="M3485.7 599.49C3467.82 599.49 3451.26 595.347 3436.03 587.059C3421.13 578.772 3409.21 567.17 3400.27 552.253C3391.33 537.005 3386.86 518.939 3386.86 498.055V329.493H3416.66V495.569C3416.66 511.149 3419.8 524.574 3426.1 535.845C3432.72 546.784 3441.49 555.237 3452.42 561.203C3463.68 567.17 3476.26 570.154 3490.17 570.154C3505.4 570.154 3518.48 566.673 3529.41 559.712C3540.67 552.75 3549.28 543.137 3555.24 530.872C3561.2 518.276 3564.18 504.022 3564.18 488.11V329.493H3593.98V593.523H3564.18V539.822L3571.63 542.309C3565.67 559.546 3555.08 573.468 3539.84 584.076C3524.61 594.352 3506.56 599.49 3485.7 599.49Z"
        fill="#E4D8FD" />
    <path
        d="M3785.35 599.49C3760.85 599.49 3738.66 593.523 3718.79 581.59C3699.25 569.325 3683.86 552.75 3672.6 531.867C3661.34 510.983 3655.71 487.447 3655.71 461.26C3655.71 435.072 3661.34 411.537 3672.6 390.653C3683.86 369.769 3699.25 353.36 3718.79 341.427C3738.66 329.493 3760.85 323.527 3785.35 323.527C3809.52 323.527 3831.05 329.328 3849.92 340.93C3868.8 352.2 3883.04 367.449 3892.64 386.675L3887.67 396.122V217.119H3917.48V593.523H3887.67V526.397L3892.64 533.358C3883.37 553.911 3869.13 570.154 3849.92 582.087C3831.05 593.689 3809.52 599.49 3785.35 599.49ZM3786.34 569.656C3805.55 569.656 3822.6 565.015 3837.51 555.734C3852.74 546.121 3864.82 533.193 3873.77 516.95C3882.71 500.375 3887.18 481.812 3887.18 461.26C3887.18 440.708 3882.71 422.31 3873.77 406.067C3864.82 389.824 3852.74 377.062 3837.51 367.78C3822.6 358.167 3805.55 353.36 3786.34 353.36C3767.47 353.36 3750.58 358.167 3735.68 367.78C3720.78 377.062 3709.02 389.824 3700.41 406.067C3691.8 422.31 3687.5 440.708 3687.5 461.26C3687.5 481.812 3691.8 500.375 3700.41 516.95C3709.02 533.193 3720.78 546.121 3735.68 555.734C3750.58 565.015 3767.47 569.656 3786.34 569.656Z"
        fill="#E4D8FD" />
</svg>
