<svg viewBox="0 0 2000 307" fill="none" xmlns="http://www.w3.org/2000/svg">
    <path
        d="M294.983 198.627C301.558 178.584 303.881 157.39 301.806 136.399C299.73 115.407 293.301 95.0788 282.929 76.7112L178.859 74.0758V72.7743L279.03 70.2366C266.932 51.1921 250.749 35.0774 231.653 23.0601L151.269 21.0429V19.7469L222.711 17.9412C193.438 2.24884 159.812 -3.36874 127.027 1.95605C94.2423 7.28083 64.1227 23.2517 41.3202 47.4021L131.221 49.6796V50.981L35.9465 53.3669C12.6972 80.6854 -0.0482687 115.399 0.000137376 151.272C0.000137376 152.898 0.000136129 154.471 0.0814749 156.065C0.075579 156.172 0.075579 156.279 0.0814749 156.385L35.9898 157.296V158.598L0.200772 159.503C0.206549 159.61 0.206549 159.717 0.200772 159.823C1.50852 183.429 8.36178 206.395 20.2047 226.857L80.0538 228.37V229.671L22.7696 231.125C36.8206 253.684 56.545 272.161 79.9724 284.711C81.8378 285.725 83.7249 286.685 85.639 287.606V161.949H100.15C100.708 161.948 101.262 162.058 101.778 162.271C102.294 162.484 102.763 162.797 103.158 163.192C103.553 163.587 103.866 164.056 104.079 164.572C104.292 165.088 104.402 165.642 104.401 166.2V295.138C134.868 305.011 167.675 305.011 198.141 295.138V166.2C198.141 165.642 198.25 165.088 198.464 164.572C198.677 164.056 198.99 163.587 199.385 163.192C199.78 162.797 200.249 162.484 200.765 162.271C201.281 162.058 201.834 161.948 202.393 161.949H216.893V287.623C218.78 286.712 220.661 285.757 222.5 284.765C237.294 276.862 250.672 266.554 262.085 254.263L224.511 253.309V252.007L265.051 250.982C277.488 236.818 287.16 220.448 293.568 202.721L239.472 201.349V200.048L294.983 198.627ZM237.878 157.958H64.6645L61.5356 145.453H85.639V132.049H90.5627C92.3202 132.049 94.0603 132.396 95.6838 133.069C97.3072 133.743 98.7821 134.729 100.024 135.972C101.267 137.215 102.252 138.691 102.924 140.315C103.596 141.939 103.941 143.68 103.94 145.437H141.898V127.586H49.9422C48.1473 113.297 39.6664 102.138 39.6664 102.138C64.6645 107.934 151.269 108.384 151.269 108.384C151.269 108.384 237.873 107.934 262.86 102.138C262.86 102.138 254.395 113.297 252.6 127.586H160.65V145.442H198.608C198.608 143.684 198.954 141.942 199.627 140.318C200.301 138.693 201.287 137.217 202.531 135.973C203.775 134.73 205.251 133.744 206.876 133.072C208.501 132.399 210.243 132.053 212.002 132.054H216.914V145.442H241.029L237.878 157.958Z"
        fill="#431D93" />
    <path
        d="M0 299.352L2.36967 298.609L4.72307 297.926L9.45157 296.602C12.6021 295.789 15.7526 294.976 18.9086 294.298C25.2096 292.834 31.5161 291.614 37.8171 290.453C50.4246 288.192 63.0267 286.5 75.6342 285.128C100.76 282.509 126.007 281.222 151.268 281.273C176.53 281.262 201.776 282.565 226.903 285.177C239.51 286.56 252.112 288.246 264.72 290.502C271.021 291.657 277.327 292.872 283.628 294.325C286.779 295.024 289.929 295.811 293.085 296.619L297.814 297.931L300.178 298.593L302.542 299.335V301.461L264.725 302.003L226.908 302.193L151.274 302.551L75.6396 302.199L37.8225 302.014L0.00542168 301.472L0 299.352Z"
        fill="#431D93" />
    <path
        d="M1164.18 116.654L1160.41 112.826H1130.27L1126.47 116.654V254.572C1126.47 289.054 1152.85 304.378 1179.22 304.378H1251.39L1255.16 300.55V273.73L1251.39 269.902H1179.26C1171.72 269.902 1164.19 266.068 1164.19 254.577L1164.18 116.654Z"
        fill="#431D93" />
    <path
        d="M1031.49 110.906C1005.11 110.906 986.271 122.402 974.97 137.726H971.202C963.664 126.23 952.358 110.906 922.219 110.906C919.752 110.906 904.553 111.204 904.553 111.204L900.757 115.033V141.923L904.553 145.751H917.621C941.616 148.463 944.826 166.357 944.826 187.505V302.464L948.595 306.293H978.739L982.508 302.464V195.189C982.508 164.541 997.577 145.388 1023.96 145.388C1054.1 145.388 1057.87 164.546 1057.87 187.533V302.491L1061.67 306.32H1091.77L1095.54 302.491V187.533C1095.56 145.388 1084.24 110.906 1031.49 110.906Z"
        fill="#431D93" />
    <path
        d="M851.07 114.74L847.301 118.568V302.464L851.07 306.293H881.214L884.983 302.464V118.568L881.214 114.74H851.07Z"
        fill="#431D93" />
    <path
        d="M717.066 300.604L714.317 303.354H681.277L678.523 300.604V168.494L681.277 165.739H714.301L717.056 168.494V300.604H717.066Z"
        fill="#431D93" />
    <path
        d="M740.303 196.019L737.548 193.27V165.745L740.303 162.99H755.611C788.639 162.99 807.906 185.011 807.906 218.035V300.604L805.151 303.354H772.122L769.373 300.604V220.789C769.373 207.027 763.869 196.019 747.352 196.019H740.303Z"
        fill="#431D93" />
    <path
        d="M522.651 248.314C521.99 243.757 521.662 239.157 521.669 234.552C521.669 196.019 543.69 162.974 587.727 162.974C631.764 162.974 653.78 196.003 653.78 234.552V245.56L651.03 248.309H565.706M609.743 264.848L612.497 262.093H645.526L648.281 264.848M612.492 218.056C612.492 215.302 609.737 196.035 587.722 196.035C565.706 196.035 562.951 215.302 562.951 218.056L565.7 220.811H609.737L612.492 218.056Z"
        fill="#431D93" />
    <path
        d="M648.276 264.848C645.521 281.36 631.764 306.13 590.476 306.13C549.189 306.13 530.112 281.36 527.357 264.848L530.112 262.093H567.127L569.881 264.848C572.63 270.352 582.218 273.106 590.487 273.106C598.746 273.106 607.004 270.352 609.753 264.848"
        fill="#431D93" />
    <path d="M491.395 143.723H362.034L359.284 140.974V113.449L362.034 110.694H491.395L494.15 113.449V140.974"
        fill="#431D93" />
    <path
        d="M403.321 267.575V270.33H496.899L499.653 273.085V300.604L496.899 303.359H359.284L356.529 300.604V270.33L359.284 264.826L391.57 221.657L435.499 165.083L438.253 162.334H476.19L478.944 165.083L403.321 267.575Z"
        fill="#431D93" />
    <path
        d="M1411.62 306.059C1398.61 306.059 1386.6 303.69 1375.61 298.952C1364.62 294.044 1354.99 287.19 1346.7 278.389C1338.59 269.589 1332.25 259.266 1327.69 247.419C1323.29 235.573 1321.09 222.542 1321.09 208.326C1321.09 194.279 1323.29 181.333 1327.69 169.486C1332.25 157.471 1338.59 147.147 1346.7 138.516C1354.99 129.716 1364.62 122.947 1375.61 118.208C1386.6 113.3 1398.61 110.846 1411.62 110.846C1424.3 110.846 1435.71 113.131 1445.86 117.7C1456 122.27 1464.54 128.108 1471.47 135.216C1478.4 142.324 1483.39 149.686 1486.43 157.301L1470.96 164.155C1465.89 152.817 1458.2 143.678 1447.89 136.739C1437.74 129.801 1425.65 126.331 1411.62 126.331C1397.25 126.331 1384.4 129.801 1373.08 136.739C1361.92 143.678 1353.21 153.324 1346.96 165.679C1340.7 177.864 1337.58 192.079 1337.58 208.326C1337.58 224.573 1340.7 238.873 1346.96 251.227C1353.21 263.581 1361.92 273.228 1373.08 280.166C1384.4 286.936 1397.25 290.321 1411.62 290.321C1425.65 290.321 1437.74 286.936 1447.89 280.166C1458.2 273.228 1465.89 264.089 1470.96 252.75L1486.43 259.604C1483.39 267.051 1478.4 274.328 1471.47 281.436C1464.54 288.544 1456 294.467 1445.86 299.205C1435.71 303.775 1424.3 306.059 1411.62 306.059Z"
        fill="#6B7280" />
    <path d="M1517.92 303.013V110.846H1533.13V303.013H1517.92Z" fill="#6B7280" />
    <path
        d="M1632.44 306.059C1619.59 306.059 1608.01 303.013 1597.7 296.921C1587.38 290.828 1579.19 282.451 1573.1 271.789C1567.18 260.958 1564.22 248.858 1564.22 235.488C1564.22 222.119 1567.18 210.103 1573.1 199.441C1579.19 188.779 1587.3 180.402 1597.44 174.31C1607.76 168.217 1619.42 165.171 1632.44 165.171C1645.29 165.171 1656.87 168.217 1667.18 174.31C1677.49 180.402 1685.61 188.779 1691.52 199.441C1697.44 209.934 1700.4 221.949 1700.4 235.488C1700.4 249.027 1697.36 261.127 1691.27 271.789C1685.18 282.451 1676.99 290.828 1666.67 296.921C1656.53 303.013 1645.12 306.059 1632.44 306.059ZM1632.44 291.082C1642.07 291.082 1650.78 288.713 1658.56 283.974C1666.5 279.066 1672.76 272.382 1677.32 263.92C1681.89 255.458 1684.17 245.981 1684.17 235.488C1684.17 224.996 1681.89 215.603 1677.32 207.311C1672.76 199.018 1666.59 192.418 1658.81 187.51C1651.03 182.602 1642.24 180.148 1632.44 180.148C1622.63 180.148 1613.76 182.602 1605.81 187.51C1598.04 192.249 1591.86 198.849 1587.3 207.311C1582.74 215.603 1580.45 224.996 1580.45 235.488C1580.45 245.981 1582.74 255.458 1587.3 263.92C1592.03 272.382 1598.29 279.066 1606.07 283.974C1613.84 288.713 1622.63 291.082 1632.44 291.082Z"
        fill="#6B7280" />
    <path
        d="M1779.56 306.059C1770.44 306.059 1761.98 303.944 1754.21 299.713C1746.6 295.482 1740.51 289.559 1735.95 281.943C1731.38 274.159 1729.1 264.935 1729.1 254.273V168.217H1744.32V253.004C1744.32 260.958 1745.92 267.812 1749.13 273.566C1752.52 279.151 1757 283.466 1762.57 286.513C1768.32 289.559 1774.75 291.082 1781.85 291.082C1789.62 291.082 1796.3 289.305 1801.88 285.751C1807.63 282.197 1812.02 277.289 1815.07 271.028C1818.11 264.597 1819.63 257.32 1819.63 249.196V168.217H1834.85V303.013H1819.63V275.597L1823.44 276.866C1820.39 285.667 1814.98 292.774 1807.21 298.19C1799.43 303.436 1790.22 306.059 1779.56 306.059Z"
        fill="#6B7280" />
    <path
        d="M1932.55 306.059C1920.04 306.059 1908.71 303.013 1898.56 296.921C1888.59 290.659 1880.73 282.197 1874.98 271.535C1869.23 260.874 1866.36 248.858 1866.36 235.488C1866.36 222.119 1869.23 210.103 1874.98 199.441C1880.73 188.779 1888.59 180.402 1898.56 174.31C1908.71 168.217 1920.04 165.171 1932.55 165.171C1944.89 165.171 1955.88 168.133 1965.51 174.056C1975.15 179.81 1982.42 187.595 1987.32 197.41L1984.78 202.233V110.846H2000V303.013H1984.78V268.743L1987.32 272.297C1982.59 282.79 1975.32 291.082 1965.51 297.175C1955.88 303.098 1944.89 306.059 1932.55 306.059ZM1933.05 290.828C1942.86 290.828 1951.56 288.459 1959.17 283.72C1966.95 278.812 1973.12 272.212 1977.68 263.92C1982.25 255.458 1984.53 245.981 1984.53 235.488C1984.53 224.996 1982.25 215.603 1977.68 207.311C1973.12 199.018 1966.95 192.502 1959.17 187.764C1951.56 182.856 1942.86 180.402 1933.05 180.402C1923.42 180.402 1914.79 182.856 1907.19 187.764C1899.58 192.502 1893.58 199.018 1889.18 207.311C1884.79 215.603 1882.59 224.996 1882.59 235.488C1882.59 245.981 1884.79 255.458 1889.18 263.92C1893.58 272.212 1899.58 278.812 1907.19 283.72C1914.79 288.459 1923.42 290.828 1933.05 290.828Z"
        fill="#6B7280" />
</svg>
