<svg viewBox="0 0 32 32" fill="none" xmlns="http://www.w3.org/2000/svg">
    <path
        d="M31.2004 21.0088C31.8958 18.8888 32.1416 16.6472 31.922 14.4269C31.7025 12.2066 31.0225 10.0565 29.9254 8.11375L18.9179 7.835V7.69735L29.5131 7.42893C28.2334 5.41459 26.5217 3.71014 24.502 2.43907L15.9997 2.22571V2.08863L23.5562 1.89764C20.4599 0.23786 16.9033 -0.356312 13.4357 0.206891C9.96802 0.770094 6.78227 2.45934 4.37045 5.01372L13.8793 5.25461V5.39226L3.80206 5.64463C1.34298 8.53411 -0.00510539 12.2058 1.45302e-05 16C1.45302e-05 16.1721 1.43983e-05 16.3384 0.00861761 16.507C0.007994 16.5183 0.007994 16.5296 0.00861761 16.5409L3.80665 16.6372V16.7749L0.0212357 16.8707C0.0218467 16.8819 0.0218467 16.8932 0.0212357 16.9045C0.159556 19.4013 0.884426 21.8304 2.13705 23.9947L8.4673 24.1547V24.2924L2.40834 24.4461C3.89452 26.8322 5.98077 28.7865 8.4587 30.1139C8.656 30.2211 8.85559 30.3227 9.05805 30.4202V17.1293H10.5929C10.6519 17.1293 10.7104 17.1408 10.765 17.1634C10.8196 17.186 10.8692 17.2191 10.911 17.2609C10.9528 17.3026 10.9859 17.3522 11.0085 17.4068C11.031 17.4614 11.0426 17.5199 11.0425 17.579V31.2168C14.265 32.2611 17.735 32.2611 20.9574 31.2168V17.579C20.9574 17.5199 20.9689 17.4614 20.9915 17.4068C21.0141 17.3522 21.0472 17.3026 21.089 17.2609C21.1307 17.2191 21.1803 17.186 21.2349 17.1634C21.2895 17.1408 21.348 17.1293 21.4071 17.1293H22.9408V30.4219C23.1404 30.3255 23.3394 30.2246 23.5338 30.1196C25.0986 29.2837 26.5136 28.1935 27.7207 26.8934L23.7466 26.7925V26.6548L28.0344 26.5464C29.3499 25.0482 30.373 23.3168 31.0507 21.4418L25.329 21.2967V21.1591L31.2004 21.0088ZM25.1604 16.7072H6.83957L6.50863 15.3846H9.05805V13.9668H9.57883C9.76472 13.9669 9.94877 14.0036 10.1205 14.0748C10.2922 14.146 10.4482 14.2503 10.5796 14.3818C10.711 14.5133 10.8152 14.6694 10.8862 14.8412C10.9573 15.0129 10.9939 15.197 10.9938 15.3829H15.0086V13.4948H5.28239C5.09254 11.9835 4.19552 10.8031 4.19552 10.8031C6.83957 11.4162 15.9997 11.4638 15.9997 11.4638C15.9997 11.4638 25.1598 11.4162 27.8027 10.8031C27.8027 10.8031 26.9074 11.9835 26.7176 13.4948H16.9919V15.3835H21.0068C21.0068 15.1975 21.0434 15.0133 21.1146 14.8414C21.1858 14.6696 21.2902 14.5134 21.4217 14.3819C21.5533 14.2504 21.7095 14.1461 21.8813 14.075C22.0532 14.0039 22.2374 13.9673 22.4234 13.9674H22.9431V15.3835H25.4936L25.1604 16.7072Z"
        fill="#431D93" />
</svg>
