<svg viewBox="0 0 132 32" fill="none" xmlns="http://www.w3.org/2000/svg">
    <path
        d="M30.8157 20.7498C31.5026 18.656 31.7453 16.4419 31.5285 14.249C31.3116 12.0561 30.64 9.9325 29.5565 8.01371L18.6847 7.7384V7.60245L29.1492 7.33734C27.8853 5.34783 26.1947 3.66439 24.1999 2.40899L15.8024 2.19827V2.06288L23.2658 1.87424C20.2077 0.234927 16.6949 -0.351919 13.27 0.20434C9.84512 0.760599 6.69865 2.42902 4.31656 4.95191L13.7082 5.18983V5.32578L3.75518 5.57503C1.32642 8.42888 -0.00504244 12.0553 1.43511e-05 15.8028C1.43511e-05 15.9727 1.42208e-05 16.137 0.00851136 16.3035C0.00789544 16.3147 0.00789544 16.3258 0.00851136 16.3369L3.75972 16.4321V16.5681L0.0209739 16.6627C0.0215774 16.6738 0.0215774 16.685 0.0209739 16.6961C0.157589 19.1621 0.873522 21.5612 2.1107 23.6989L8.3629 23.8569V23.9929L2.37865 24.1447C3.8465 26.5013 5.90703 28.4316 8.3544 29.7426C8.54927 29.8485 8.74641 29.9488 8.94637 30.0451V16.9181H10.4623C10.5206 16.9181 10.5784 16.9295 10.6323 16.9518C10.6862 16.9741 10.7352 17.0068 10.7765 17.0481C10.8177 17.0893 10.8504 17.1383 10.8727 17.1922C10.895 17.2461 10.9065 17.3039 10.9064 17.3623V30.8319C14.0891 31.8633 17.5163 31.8633 20.6991 30.8319V17.3623C20.699 17.3039 20.7104 17.2461 20.7327 17.1922C20.755 17.1383 20.7877 17.0893 20.829 17.0481C20.8702 17.0068 20.9192 16.9741 20.9731 16.9518C21.027 16.9295 21.0848 16.9181 21.1432 16.9181H22.6579V30.0468C22.8551 29.9516 23.0516 29.8519 23.2437 29.7483C24.7892 28.9227 26.1867 27.8459 27.3789 26.5618L23.4538 26.4621V26.3262L27.6888 26.2191C28.988 24.7394 29.9985 23.0294 30.6679 21.1775L25.0167 21.0342V20.8982L30.8157 20.7498ZM24.8502 16.5012H6.75524L6.42839 15.1949H8.94637V13.7946H9.46073C9.64433 13.7947 9.82611 13.8309 9.9957 13.9012C10.1653 13.9716 10.3194 14.0746 10.4491 14.2045C10.5789 14.3344 10.6818 14.4885 10.752 14.6582C10.8222 14.8278 10.8583 15.0096 10.8582 15.1932H14.8236V13.3284H5.21726C5.02976 11.8357 4.14379 10.6699 4.14379 10.6699C6.75524 11.2755 15.8024 11.3225 15.8024 11.3225C15.8024 11.3225 24.8496 11.2755 27.4599 10.6699C27.4599 10.6699 26.5757 11.8357 26.3882 13.3284H16.7824V15.1938H20.7478C20.7478 15.0101 20.784 14.8282 20.8543 14.6584C20.9246 14.4887 21.0277 14.3345 21.1576 14.2046C21.2876 14.0747 21.4418 13.9717 21.6116 13.9015C21.7813 13.8312 21.9632 13.7951 22.147 13.7952H22.6602V15.1938H25.1793L24.8502 16.5012Z"
        fill="white" />
    <path
        d="M0 31.2721L0.24755 31.1945L0.493401 31.1231L0.987368 30.9849C1.31649 30.8999 1.64561 30.8149 1.9753 30.7441C2.63355 30.5912 3.29236 30.4637 3.9506 30.3425C5.26766 30.1063 6.58415 29.9295 7.90121 29.7862C10.526 29.5126 13.1634 29.3782 15.8024 29.3835C18.4414 29.3823 21.0787 29.5185 23.7036 29.7913C25.0207 29.9358 26.3372 30.1119 27.6542 30.3476C28.3125 30.4683 28.9713 30.5951 29.6295 30.747C29.9587 30.82 30.2878 30.9022 30.6175 30.9866L31.1114 31.1237L31.3584 31.1928L31.6054 31.2704V31.4924L27.6548 31.5491L23.7042 31.5689L15.803 31.6063L7.90178 31.5695L3.95117 31.5502L0.000566381 31.4936L0 31.2721Z"
        fill="white" />
    <path
        d="M121.616 12.1864L121.222 11.7864H118.073L117.677 12.1864V26.5941C117.677 30.1964 120.432 31.7972 123.187 31.7972H130.727L131.12 31.3973V28.5955L130.727 28.1956H123.191C122.404 28.1956 121.617 27.7951 121.617 26.5947L121.616 12.1864Z"
        fill="white" />
    <path
        d="M107.756 11.5859C105 11.5859 103.032 12.7868 101.851 14.3877H101.458C100.67 13.1868 99.4892 11.5859 96.3407 11.5859C96.083 11.5859 94.4952 11.6171 94.4952 11.6171L94.0986 12.017V14.8261L94.4952 15.2261H95.8604C98.367 15.5093 98.7024 17.3787 98.7024 19.5879V31.5972L99.0961 31.9972H102.245L102.639 31.5972V20.3906C102.639 17.1889 104.213 15.1881 106.969 15.1881C110.118 15.1881 110.512 17.1895 110.512 19.5908V31.6001L110.908 32H114.053L114.446 31.6001V19.5908C114.449 15.1881 113.266 11.5859 107.756 11.5859Z"
        fill="white" />
    <path
        d="M88.9093 11.9864L88.5156 12.3863V31.5972L88.9093 31.9972H92.0584L92.4521 31.5972V12.3863L92.0584 11.9864H88.9093Z"
        fill="white" />
    <path
        d="M74.9103 31.4029L74.6231 31.6901H71.1716L70.8838 31.4029V17.6019L71.1716 17.3141H74.6214L74.9092 17.6019V31.4029H74.9103Z"
        fill="white" />
    <path
        d="M77.3346 20.4773L77.0469 20.1901V17.3147L77.3346 17.0269H78.9338C82.3842 17.0269 84.3969 19.3274 84.3969 22.7772V31.4029L84.1091 31.6901H80.6587L80.3715 31.4029V23.065C80.3715 21.6273 79.7965 20.4773 78.0711 20.4773H77.3346Z"
        fill="white" />
    <path
        d="M54.5986 25.9404C54.5296 25.4643 54.4954 24.9838 54.4961 24.5027C54.4961 20.4773 56.7966 17.0252 61.3969 17.0252C65.9973 17.0252 68.2972 20.4756 68.2972 24.5027V25.6526L68.01 25.9399H59.0965M63.6968 27.6676L63.9846 27.3798H67.435L67.7228 27.6676M63.984 22.7795C63.984 22.4917 63.6962 20.479 61.3964 20.479C59.0965 20.479 58.8087 22.4917 58.8087 22.7795L59.0959 23.0673H63.6962L63.984 22.7795Z"
        fill="white" />
    <path
        d="M67.7217 27.6676C67.4339 29.3925 65.9968 31.9802 61.6836 31.9802C57.3705 31.9802 55.3776 29.3925 55.0898 27.6676L55.3776 27.3798H59.2444L59.5321 27.6676C59.8193 28.2426 60.8209 28.5303 61.6848 28.5303C62.5475 28.5303 63.4102 28.2426 63.6974 27.6676"
        fill="white" />
    <path d="M51.3352 15.0142H37.8214L37.5342 14.727V11.8516L37.8214 11.5638H51.3352L51.623 11.8516V14.727"
        fill="white" />
    <path
        d="M42.1332 27.9525V28.2403H51.9089L52.1967 28.5281V31.4029L51.9089 31.6907H37.5329L37.2451 31.4029V28.2403L37.5329 27.6653L40.9057 23.1556L45.4947 17.2456L45.7825 16.9584H49.7455L50.0333 17.2456L42.1332 27.9525Z"
        fill="white" />
</svg>