<svg viewBox="0 0 400 240" fill="none" xmlns="http://www.w3.org/2000/svg">
    <rect x="106" y="106" width="24" height="24" rx="4" fill="#F1EBFE" />
    <rect x="266" y="130" width="24" height="24" rx="4" fill="#DBCAFF" />
    <rect x="300" y="140" width="80" height="80" rx="10" fill="#CAB2FB" />
    <path fill-rule="evenodd" clip-rule="evenodd"
        d="M326.667 168.333C326.667 168.335 326.668 168.343 326.672 168.359C326.678 168.377 326.692 168.414 326.726 168.469C326.797 168.584 326.941 168.758 327.211 168.971C327.761 169.404 328.661 169.868 329.921 170.288C332.424 171.122 335.988 171.667 340.001 171.667C344.014 171.667 347.577 171.122 350.08 170.288C351.34 169.868 352.24 169.404 352.79 168.971C353.061 168.758 353.205 168.584 353.276 168.469C353.309 168.414 353.323 168.377 353.329 168.359C353.334 168.343 353.334 168.336 353.334 168.334C353.334 168.334 353.334 168.334 353.334 168.334C353.334 168.333 353.334 168.325 353.329 168.308C353.323 168.289 353.309 168.253 353.276 168.198C353.205 168.082 353.061 167.909 352.79 167.696C352.24 167.262 351.34 166.799 350.08 166.379C347.577 165.545 344.014 165 340.001 165C335.988 165 332.424 165.545 329.921 166.379C328.661 166.799 327.761 167.262 327.211 167.696C326.941 167.909 326.797 168.082 326.726 168.198C326.692 168.253 326.678 168.289 326.672 168.308C326.667 168.325 326.667 168.332 326.667 168.333ZM353.334 172.544C352.665 172.886 351.923 173.187 351.134 173.45C348.208 174.425 344.272 175 340.001 175C335.729 175 331.793 174.425 328.867 173.45C328.078 173.187 327.336 172.886 326.667 172.544V180C326.667 180.003 326.667 180.012 326.673 180.03C326.679 180.05 326.693 180.087 326.727 180.142C326.797 180.257 326.94 180.43 327.208 180.642C327.753 181.075 328.647 181.537 329.903 181.957C332.399 182.79 335.962 183.333 340.001 183.333C344.039 183.333 347.602 182.79 350.098 181.957C351.354 181.537 352.248 181.075 352.794 180.642C353.062 180.43 353.204 180.257 353.275 180.142C353.308 180.087 353.322 180.05 353.328 180.03C353.334 180.012 353.334 180.003 353.334 180V172.544ZM356.667 168.333C356.667 166.913 355.802 165.826 354.854 165.078C353.886 164.315 352.589 163.701 351.134 163.217C348.208 162.241 344.272 161.667 340.001 161.667C335.729 161.667 331.793 162.241 328.867 163.217C327.413 163.701 326.116 164.315 325.148 165.078C324.199 165.826 323.334 166.913 323.334 168.333V191.667C323.334 193.082 324.189 194.17 325.137 194.921C326.102 195.686 327.396 196.3 328.848 196.785C331.769 197.76 335.706 198.333 340.001 198.333C344.295 198.333 348.232 197.76 351.153 196.785C352.605 196.3 353.899 195.686 354.864 194.921C355.812 194.17 356.667 193.082 356.667 191.667V168.333ZM353.334 184.22C352.671 184.559 351.935 184.857 351.153 185.118C348.232 186.094 344.295 186.667 340.001 186.667C335.706 186.667 331.769 186.094 328.848 185.118C328.066 184.857 327.331 184.559 326.667 184.22V191.667C326.667 191.67 326.667 191.678 326.673 191.697C326.679 191.716 326.693 191.754 326.727 191.809C326.797 191.924 326.94 192.097 327.208 192.309C327.753 192.741 328.647 193.204 329.903 193.623C332.399 194.456 335.962 195 340.001 195C344.039 195 347.602 194.456 350.098 193.623C351.354 193.204 352.248 192.741 352.794 192.309C353.062 192.097 353.204 191.924 353.275 191.809C353.308 191.754 353.322 191.716 353.328 191.697C353.334 191.678 353.334 191.67 353.334 191.667V184.22Z"
        fill="#9565F6" />
    <rect x="30" y="132" width="60" height="60" rx="10" fill="#DBCAFF" />
    <path fill-rule="evenodd" clip-rule="evenodd"
        d="M54.9993 143.667C55.9198 143.667 56.666 144.413 56.666 145.333V148.667H63.3327V145.333C63.3327 144.413 64.0789 143.667 64.9993 143.667C65.9198 143.667 66.666 144.413 66.666 145.333V148.712C66.8106 148.72 66.9505 148.729 67.0857 148.74C68.0226 148.817 68.8837 148.981 69.6926 149.393C70.947 150.032 71.9669 151.052 72.6061 152.307C73.0182 153.116 73.1825 153.977 73.259 154.914C73.2701 155.049 73.2795 155.189 73.2875 155.333H76.666C77.5865 155.333 78.3327 156.08 78.3327 157C78.3327 157.92 77.5865 158.667 76.666 158.667H73.3327V163.667H76.666C77.5865 163.667 78.3327 164.413 78.3327 165.333C78.3327 166.254 77.5865 167 76.666 167H73.33C73.3245 167.792 73.3082 168.485 73.259 169.086C73.1825 170.023 73.0182 170.884 72.6061 171.693C71.9669 172.948 70.947 173.968 69.6926 174.607C68.8837 175.019 68.0226 175.183 67.0857 175.26C66.9505 175.271 66.8106 175.28 66.666 175.288V178.667C66.666 179.587 65.9198 180.333 64.9993 180.333C64.0789 180.333 63.3327 179.587 63.3327 178.667V175.333H56.666V178.667C56.666 179.587 55.9198 180.333 54.9993 180.333C54.0789 180.333 53.3327 179.587 53.3327 178.667V175.288C53.1881 175.28 53.0482 175.271 52.913 175.26C51.9761 175.183 51.115 175.019 50.3061 174.607C49.0517 173.968 48.0318 172.948 47.3926 171.693C46.9805 170.884 46.8162 170.023 46.7397 169.086C46.6905 168.485 46.6742 167.792 46.6687 167H43.3327C42.4122 167 41.666 166.254 41.666 165.333C41.666 164.413 42.4122 163.667 43.3327 163.667H46.666V158.667H43.3327C42.4122 158.667 41.666 157.92 41.666 157C41.666 156.08 42.4122 155.333 43.3327 155.333H46.7112C46.7192 155.189 46.7286 155.049 46.7397 154.914C46.8162 153.977 46.9805 153.116 47.3926 152.307C48.0318 151.052 49.0517 150.032 50.3061 149.393C51.115 148.981 51.9761 148.817 52.913 148.74C53.0482 148.729 53.1881 148.72 53.3327 148.712V145.333C53.3327 144.413 54.0789 143.667 54.9993 143.667ZM49.9993 165.667C49.9993 167.094 50.0006 168.065 50.0619 168.815C50.1216 169.546 50.2298 169.919 50.3627 170.18C50.6822 170.807 51.1922 171.317 51.8194 171.637C52.08 171.77 52.4537 171.878 53.1844 171.937C53.9346 171.999 54.9051 172 56.3327 172H63.666C65.0936 172 66.0641 171.999 66.8143 171.937C67.545 171.878 67.9186 171.77 68.1793 171.637C68.8065 171.317 69.3165 170.807 69.636 170.18C69.7689 169.919 69.8771 169.546 69.9368 168.815C69.998 168.065 69.9993 167.094 69.9993 165.667V158.333C69.9993 156.906 69.998 155.935 69.9368 155.185C69.8771 154.454 69.7689 154.081 69.636 153.82C69.3165 153.193 68.8065 152.683 68.1793 152.363C67.9186 152.231 67.545 152.122 66.8143 152.063C66.0641 152.001 65.0936 152 63.666 152H56.3327C54.905 152 53.9346 152.001 53.1844 152.063C52.4537 152.122 52.08 152.231 51.8194 152.363C51.1922 152.683 50.6822 153.193 50.3627 153.82C50.2298 154.081 50.1216 154.454 50.0619 155.185C50.0006 155.935 49.9993 156.906 49.9993 158.333V165.667Z"
        fill="#F1EBFE" />
    <rect x="320" y="20" width="60" height="60" rx="10" fill="#CAB2FB" />
    <path fill-rule="evenodd" clip-rule="evenodd"
        d="M338.748 45.2384C340.105 40.297 344.627 36.6667 349.999 36.6667C355.372 36.6667 359.894 40.297 361.251 45.2384C365.31 46.1827 368.333 49.8208 368.333 54.1667C368.333 59.2293 364.229 63.3334 359.166 63.3334H340.833C335.77 63.3334 331.666 59.2293 331.666 54.1667C331.666 49.8208 334.689 46.1827 338.748 45.2384ZM349.999 40C345.862 40 342.427 43.0161 341.777 46.9693C341.654 47.7177 341.041 48.2886 340.286 48.3585C337.321 48.6331 334.999 51.1297 334.999 54.1667C334.999 57.3883 337.611 60 340.833 60H359.166C362.388 60 364.999 57.3883 364.999 54.1667C364.999 51.1297 362.677 48.6331 359.713 48.3585C358.958 48.2886 358.345 47.7177 358.222 46.9693C357.572 43.0161 354.136 40 349.999 40Z"
        fill="#E4D8FD" />
    <rect x="242" y="180" width="48" height="48" rx="10" fill="#DBCAFF" />
    <path fill-rule="evenodd" clip-rule="evenodd"
        d="M255.239 191.167C255.248 191.167 255.257 191.167 255.266 191.167H259.233C259.242 191.167 259.251 191.167 259.26 191.167C259.399 191.167 259.565 191.167 259.711 191.178C259.88 191.192 260.123 191.228 260.377 191.357C260.706 191.525 260.974 191.793 261.142 192.122C261.272 192.376 261.307 192.619 261.321 192.789C261.333 192.935 261.333 193.101 261.333 193.24C261.333 193.249 261.333 193.258 261.333 193.267V197.233C261.333 197.242 261.333 197.251 261.333 197.26C261.333 197.399 261.333 197.565 261.321 197.711C261.307 197.881 261.272 198.124 261.142 198.378C260.974 198.707 260.706 198.975 260.377 199.143C260.123 199.272 259.88 199.308 259.711 199.321C259.565 199.333 259.399 199.333 259.26 199.333C259.251 199.333 259.242 199.333 259.233 199.333H255.266C255.257 199.333 255.248 199.333 255.239 199.333C255.1 199.333 254.934 199.333 254.788 199.321C254.618 199.308 254.376 199.272 254.122 199.143C253.792 198.975 253.525 198.707 253.357 198.378C253.227 198.124 253.192 197.881 253.178 197.711C253.166 197.565 253.166 197.399 253.166 197.26C253.166 197.251 253.166 197.242 253.166 197.233V193.267C253.166 193.258 253.166 193.249 253.166 193.24C253.166 193.101 253.166 192.935 253.178 192.789C253.192 192.619 253.227 192.376 253.357 192.122C253.525 191.793 253.792 191.525 254.122 191.357C254.376 191.228 254.618 191.192 254.788 191.178C254.934 191.167 255.1 191.167 255.239 191.167ZM255.499 193.5V197H258.999V193.5H255.499ZM274.787 196.445C274.456 196.418 274.022 196.417 273.349 196.417H264.833C264.188 196.417 263.666 195.894 263.666 195.25C263.666 194.606 264.188 194.083 264.833 194.083L273.394 194.083C274.009 194.083 274.54 194.083 274.977 194.119C275.438 194.157 275.897 194.24 276.338 194.465C276.997 194.8 277.532 195.336 277.868 195.994C278.093 196.436 278.176 196.895 278.214 197.356C278.249 197.793 278.249 198.323 278.249 198.938V200.537C278.249 201.049 278.249 201.491 278.224 201.856C278.198 202.241 278.14 202.626 277.983 203.006C277.628 203.864 276.946 204.545 276.089 204.9C275.709 205.058 275.324 205.115 274.939 205.142C274.573 205.167 274.132 205.167 273.62 205.167H273.583C272.938 205.167 272.416 204.644 272.416 204C272.416 203.356 272.938 202.833 273.583 202.833C274.142 202.833 274.503 202.833 274.78 202.814C275.046 202.796 275.147 202.765 275.196 202.744C275.482 202.626 275.709 202.399 275.827 202.113C275.847 202.065 275.878 201.963 275.897 201.697C275.915 201.421 275.916 201.06 275.916 200.5V198.983C275.916 198.311 275.915 197.876 275.888 197.546C275.862 197.229 275.818 197.111 275.789 197.054C275.677 196.834 275.499 196.656 275.279 196.544C275.221 196.514 275.104 196.47 274.787 196.445ZM263.989 199.917C263.998 199.917 264.007 199.917 264.016 199.917H267.983C267.992 199.917 268.001 199.917 268.01 199.917C268.149 199.917 268.315 199.917 268.461 199.928C268.63 199.942 268.873 199.978 269.127 200.107C269.456 200.275 269.724 200.543 269.892 200.872C270.022 201.126 270.057 201.369 270.071 201.539C270.083 201.685 270.083 201.851 270.083 201.99C270.083 201.999 270.083 202.008 270.083 202.017V205.983C270.083 205.992 270.083 206.001 270.083 206.01C270.083 206.149 270.083 206.315 270.071 206.461C270.057 206.631 270.022 206.874 269.892 207.128C269.724 207.457 269.456 207.725 269.127 207.893C268.873 208.022 268.63 208.058 268.461 208.071C268.315 208.083 268.149 208.083 268.01 208.083C268.001 208.083 267.992 208.083 267.983 208.083H264.016C264.007 208.083 263.998 208.083 263.989 208.083C263.85 208.083 263.684 208.083 263.538 208.071C263.368 208.058 263.126 208.022 262.872 207.893C262.542 207.725 262.275 207.457 262.107 207.128C261.977 206.874 261.942 206.631 261.928 206.461C261.916 206.315 261.916 206.149 261.916 206.01C261.916 206.001 261.916 205.992 261.916 205.983V202.017C261.916 202.008 261.916 201.999 261.916 201.99C261.916 201.851 261.916 201.685 261.928 201.539C261.942 201.369 261.977 201.126 262.107 200.872C262.275 200.543 262.542 200.275 262.872 200.107C263.126 199.978 263.368 199.942 263.538 199.928C263.684 199.917 263.85 199.917 263.989 199.917ZM264.249 202.25V205.75H267.749V202.25H264.249ZM258.379 202.833H258.416C259.06 202.833 259.583 203.356 259.583 204C259.583 204.644 259.06 205.167 258.416 205.167C257.856 205.167 257.495 205.167 257.219 205.186C256.953 205.204 256.851 205.235 256.803 205.255C256.517 205.374 256.29 205.601 256.172 205.887C256.151 205.935 256.12 206.037 256.102 206.303C256.083 206.579 256.083 206.94 256.083 207.5V209.017C256.083 209.689 256.084 210.124 256.111 210.454C256.137 210.771 256.18 210.889 256.21 210.946C256.322 211.166 256.5 211.344 256.72 211.456C256.777 211.486 256.895 211.529 257.212 211.555C257.542 211.582 257.977 211.583 258.649 211.583H267.166C267.81 211.583 268.333 212.106 268.333 212.75C268.333 213.394 267.81 213.917 267.166 213.917H258.604C257.989 213.917 257.459 213.917 257.022 213.881C256.561 213.843 256.102 213.76 255.66 213.535C255.002 213.2 254.466 212.664 254.131 212.006C253.906 211.564 253.823 211.105 253.785 210.644C253.749 210.207 253.749 209.677 253.749 209.062L253.749 207.463C253.749 206.951 253.749 206.509 253.774 206.144C253.801 205.759 253.858 205.374 254.016 204.994C254.371 204.136 255.052 203.455 255.91 203.1C256.29 202.942 256.675 202.884 257.06 202.858C257.425 202.833 257.867 202.833 258.379 202.833ZM272.739 208.667H276.76C276.899 208.667 277.065 208.667 277.211 208.678C277.38 208.692 277.623 208.728 277.877 208.857C278.206 209.025 278.474 209.293 278.642 209.622C278.772 209.876 278.807 210.119 278.821 210.289C278.833 210.435 278.833 210.601 278.833 210.74C278.833 210.749 278.833 210.758 278.833 210.767V214.733C278.833 214.742 278.833 214.751 278.833 214.76C278.833 214.899 278.833 215.065 278.821 215.211C278.807 215.381 278.772 215.624 278.642 215.878C278.474 216.207 278.206 216.475 277.877 216.643C277.623 216.772 277.38 216.808 277.211 216.821C277.065 216.833 276.899 216.833 276.76 216.833C276.751 216.833 276.742 216.833 276.733 216.833H272.766C272.757 216.833 272.748 216.833 272.739 216.833C272.6 216.833 272.434 216.833 272.288 216.821C272.118 216.808 271.876 216.772 271.622 216.643C271.292 216.475 271.025 216.207 270.857 215.878C270.727 215.624 270.692 215.381 270.678 215.211C270.666 215.065 270.666 214.899 270.666 214.76V210.74C270.666 210.601 270.666 210.435 270.678 210.289C270.692 210.119 270.727 209.876 270.857 209.622C271.025 209.293 271.292 209.025 271.622 208.857C271.876 208.728 272.118 208.692 272.288 208.678C272.434 208.667 272.6 208.667 272.739 208.667ZM272.999 211V214.5H276.499V211H272.999Z"
        fill="#AF8BF8" />
    <rect x="112" y="12" width="48" height="48" rx="10" fill="#DBCAFF" />
    <rect x="230" y="26" width="80" height="80" rx="10" fill="#DBCAFF" />
    <path fill-rule="evenodd" clip-rule="evenodd"
        d="M258.334 51C257.414 51 256.667 51.7462 256.667 52.6667C256.667 53.5872 257.414 54.3334 258.334 54.3334C259.254 54.3334 260.001 53.5872 260.001 52.6667C260.001 51.7462 259.254 51 258.334 51ZM253.334 52.6667C253.334 49.9053 255.573 47.6667 258.334 47.6667C260.511 47.6667 262.363 49.058 263.049 51L276.952 51C277.638 49.058 279.49 47.6667 281.667 47.6667C284.429 47.6667 286.667 49.9053 286.667 52.6667C286.667 55.4281 284.429 57.6667 281.667 57.6667C279.49 57.6667 277.638 56.2753 276.952 54.3334L271.667 54.3334V64.3334H276.952C277.638 62.3914 279.49 61 281.667 61C284.429 61 286.667 63.2386 286.667 66C286.667 68.7614 284.429 71 281.667 71C279.49 71 277.638 69.6087 276.952 67.6667H271.667V71.3334C271.667 72.761 271.669 73.7315 271.73 74.4816C271.79 75.2123 271.898 75.586 272.031 75.8467C272.35 76.4739 272.86 76.9838 273.487 77.3034C273.748 77.4362 274.122 77.5444 274.852 77.6041C275.403 77.6491 276.071 77.6617 276.952 77.6653C277.639 75.724 279.491 74.3334 281.667 74.3334C284.429 74.3334 286.667 76.5719 286.667 79.3334C286.667 82.0948 284.429 84.3334 281.667 84.3334C279.49 84.3334 277.637 82.9414 276.951 80.9988C276.039 80.9953 275.253 80.9813 274.581 80.9264C273.644 80.8498 272.783 80.6855 271.974 80.2734C270.72 79.6342 269.7 78.6144 269.061 77.36C268.648 76.5511 268.484 75.6899 268.408 74.7531C268.334 73.8511 268.334 72.7438 268.334 71.4022V54.3334L263.049 54.3334C262.363 56.2753 260.511 57.6667 258.334 57.6667C255.573 57.6667 253.334 55.4281 253.334 52.6667ZM281.667 51C280.747 51 280.001 51.7462 280.001 52.6667C280.001 53.5872 280.747 54.3334 281.667 54.3334C282.588 54.3334 283.334 53.5872 283.334 52.6667C283.334 51.7462 282.588 51 281.667 51ZM281.667 64.3334C280.747 64.3334 280.001 65.0795 280.001 66C280.001 66.9205 280.747 67.6667 281.667 67.6667C282.588 67.6667 283.334 66.9205 283.334 66C283.334 65.0795 282.588 64.3334 281.667 64.3334ZM281.667 77.6667C280.747 77.6667 280.001 78.4129 280.001 79.3334C280.001 80.2538 280.747 81 281.667 81C282.588 81 283.334 80.2538 283.334 79.3334C283.334 78.4129 282.588 77.6667 281.667 77.6667Z"
        fill="#CAB2FB" />
    <rect x="20" y="20" width="80" height="80" rx="10" fill="#CAB2FB" />
    <path fill-rule="evenodd" clip-rule="evenodd"
        d="M51.5174 40H68.4826C70.0925 40 71.4213 40 72.5037 40.0884C73.6278 40.1802 74.6612 40.3774 75.6319 40.8719C77.1372 41.6389 78.3611 42.8628 79.128 44.3681C79.6226 45.3387 79.8198 46.3722 79.9116 47.4963C80 48.5787 80 49.9074 80 51.5174V68.4826C80 70.0926 80 71.4213 79.9116 72.5037C79.8198 73.6278 79.6226 74.6612 79.128 75.6319C78.3611 77.1372 77.1372 78.3611 75.6319 79.128C74.6612 79.6226 73.6278 79.8198 72.5036 79.9116C71.4213 80 70.0926 80 68.4826 80H51.5174C49.9074 80 48.5787 80 47.4963 79.9116C46.3722 79.8198 45.3387 79.6226 44.3681 79.128C42.8628 78.3611 41.6389 77.1372 40.8719 75.6319C40.3774 74.6612 40.1802 73.6278 40.0884 72.5036C40 71.4213 40 70.0925 40 68.4826V51.5174C40 49.9075 40 48.5787 40.0884 47.4963C40.1802 46.3722 40.3774 45.3387 40.8719 44.3681C41.6389 42.8628 42.8628 41.6389 44.3681 40.8719C45.3387 40.3774 46.3722 40.1802 47.4963 40.0884C48.5787 40 49.9075 40 51.5174 40ZM47.8221 44.0751C46.9452 44.1467 46.4968 44.2766 46.184 44.436C45.4314 44.8195 44.8195 45.4314 44.436 46.184C44.2766 46.4968 44.1467 46.9452 44.0751 47.8221C44.0016 48.7223 44 49.8868 44 51.6V68.4C44 70.1132 44.0016 71.2777 44.0751 72.1779C44.1467 73.0548 44.2766 73.5032 44.436 73.816C44.8195 74.5686 45.4314 75.1805 46.184 75.564C46.4968 75.7234 46.9452 75.8533 47.8221 75.9249C48.7223 75.9984 49.8868 76 51.6 76H68.4C70.1132 76 71.2777 75.9984 72.1779 75.9249C73.0548 75.8533 73.5032 75.7234 73.816 75.564C74.5686 75.1805 75.1805 74.5686 75.564 73.816C75.7234 73.5032 75.8533 73.0547 75.9249 72.1779C75.9984 71.2777 76 70.1132 76 68.4V51.6C76 49.8868 75.9984 48.7223 75.9249 47.8221C75.8533 46.9452 75.7234 46.4968 75.564 46.184C75.1805 45.4314 74.5686 44.8195 73.816 44.436C73.5032 44.2766 73.0547 44.1467 72.1779 44.0751C71.2777 44.0016 70.1132 44 68.4 44H51.6C49.8868 44 48.7223 44.0016 47.8221 44.0751ZM56.4142 52.5858C57.1953 53.3668 57.1953 54.6332 56.4142 55.4142L51.8284 60L56.4142 64.5858C57.1953 65.3668 57.1953 66.6332 56.4142 67.4142C55.6332 68.1953 54.3668 68.1953 53.5858 67.4142L47.5858 61.4142C46.8047 60.6332 46.8047 59.3668 47.5858 58.5858L53.5858 52.5858C54.3668 51.8047 55.6332 51.8047 56.4142 52.5858ZM63.5858 52.5858C64.3668 51.8047 65.6332 51.8047 66.4142 52.5858L72.4142 58.5858C73.1953 59.3668 73.1953 60.6332 72.4142 61.4142L66.4142 67.4142C65.6332 68.1953 64.3668 68.1953 63.5858 67.4142C62.8047 66.6332 62.8047 65.3668 63.5858 64.5858L68.1716 60L63.5858 55.4142C62.8047 54.6332 62.8047 53.3668 63.5858 52.5858Z"
        fill="#E4D8FD" />
    <rect x="150" y="70" width="100" height="100" rx="20" fill="#F1EBFE" />
    <path fill-rule="evenodd" clip-rule="evenodd"
        d="M183.123 105.358C185.158 97.9454 191.941 92.5 200 92.5C208.059 92.5 214.842 97.9454 216.877 105.358C222.965 106.774 227.5 112.231 227.5 118.75C227.5 124.741 223.67 129.831 218.333 131.717C217.031 132.177 215.603 131.495 215.143 130.193C214.683 128.891 215.365 127.463 216.667 127.003C220.069 125.8 222.5 122.556 222.5 118.75C222.5 114.194 219.017 110.45 214.57 110.038C213.437 109.933 212.518 109.076 212.334 107.954C211.359 102.024 206.205 97.5 200 97.5C193.795 97.5 188.641 102.024 187.666 107.954C187.482 109.076 186.563 109.933 185.43 110.038C180.983 110.45 177.5 114.194 177.5 118.75C177.5 122.556 179.931 125.8 183.333 127.003C184.635 127.463 185.317 128.891 184.857 130.193C184.397 131.495 182.969 132.177 181.667 131.717C176.33 129.831 172.5 124.741 172.5 118.75C172.5 112.231 177.035 106.774 183.123 105.358Z"
        fill="#CAB2FB" />
    <path fill-rule="evenodd" clip-rule="evenodd"
        d="M192.5 120C191.119 120 190 121.119 190 122.5C190 123.881 191.119 125 192.5 125C193.881 125 195 123.881 195 122.5C195 121.119 193.881 120 192.5 120ZM185 122.5C185 118.358 188.358 115 192.5 115C196.642 115 200 118.358 200 122.5C200 125.766 197.913 128.544 195 129.573V132.5C195 135.261 197.239 137.5 200 137.5H205V142.5H200C194.477 142.5 190 138.023 190 132.5V129.573C187.087 128.544 185 125.766 185 122.5Z"
        fill="#CAB2FB" />
    <path fill-rule="evenodd" clip-rule="evenodd"
        d="M210 137.5C208.619 137.5 207.5 138.619 207.5 140C207.5 141.381 208.619 142.5 210 142.5C211.381 142.5 212.5 141.381 212.5 140C212.5 138.619 211.381 137.5 210 137.5ZM202.5 140C202.5 135.858 205.858 132.5 210 132.5C214.142 132.5 217.5 135.858 217.5 140C217.5 144.142 214.142 147.5 210 147.5C205.858 147.5 202.5 144.142 202.5 140Z"
        fill="#CAB2FB" />
    <rect x="100" y="158" width="60" height="60" rx="10" fill="#CAB2FB" />
    <path fill-rule="evenodd" clip-rule="evenodd"
        d="M140.5 174.5C139.672 174.5 139 175.172 139 176C139 176.828 139.672 177.5 140.5 177.5C141.328 177.5 142 176.828 142 176C142 175.172 141.328 174.5 140.5 174.5ZM136.256 174.501C136.873 172.753 138.54 171.5 140.5 171.5C142.985 171.5 145 173.515 145 176C145 178.485 142.985 180.5 140.5 180.5C138.541 180.5 136.875 179.248 136.257 177.501C135.464 177.504 134.862 177.516 134.367 177.556C133.709 177.61 133.373 177.707 133.138 177.827C132.574 178.115 132.115 178.574 131.827 179.138C131.707 179.373 131.61 179.709 131.556 180.367C131.501 181.042 131.5 181.915 131.5 183.2V186.5H136.256C136.874 184.752 138.541 183.5 140.5 183.5C142.985 183.5 145 185.515 145 188C145 190.485 142.985 192.5 140.5 192.5C138.541 192.5 136.874 191.248 136.256 189.5H131.5V192.8C131.5 194.085 131.501 194.958 131.556 195.633C131.61 196.291 131.707 196.627 131.827 196.862C132.115 197.426 132.574 197.885 133.138 198.173C133.373 198.293 133.709 198.39 134.367 198.444C134.862 198.484 135.464 198.496 136.257 198.499C136.875 196.752 138.541 195.5 140.5 195.5C142.985 195.5 145 197.515 145 200C145 202.485 142.985 204.5 140.5 204.5C138.54 204.5 136.873 203.247 136.256 201.499C135.435 201.496 134.727 201.483 134.122 201.434C133.279 201.365 132.504 201.217 131.776 200.846C130.647 200.271 129.729 199.353 129.154 198.224C128.783 197.496 128.635 196.721 128.566 195.878C128.5 195.066 128.5 194.069 128.5 192.862V189.5H123.744C123.126 191.248 121.459 192.5 119.5 192.5C117.015 192.5 115 190.485 115 188C115 185.515 117.015 183.5 119.5 183.5C121.459 183.5 123.126 184.752 123.744 186.5H128.5V183.138C128.5 181.931 128.5 180.934 128.566 180.122C128.635 179.279 128.783 178.504 129.154 177.776C129.729 176.647 130.647 175.729 131.776 175.154C132.504 174.783 133.279 174.635 134.122 174.566C134.727 174.517 135.435 174.504 136.256 174.501ZM119.5 186.5C118.672 186.5 118 187.172 118 188C118 188.828 118.672 189.5 119.5 189.5C120.328 189.5 121 188.828 121 188C121 187.172 120.328 186.5 119.5 186.5ZM140.5 186.5C139.672 186.5 139 187.172 139 188C139 188.828 139.672 189.5 140.5 189.5C141.328 189.5 142 188.828 142 188C142 187.172 141.328 186.5 140.5 186.5ZM140.5 198.5C139.672 198.5 139 199.172 139 200C139 200.828 139.672 201.5 140.5 201.5C141.328 201.5 142 200.828 142 200C142 199.172 141.328 198.5 140.5 198.5Z"
        fill="#F1EBFE" />
</svg>
