<svg width="350" height="240" viewBox="0 0 350 240" fill="none" xmlns="http://www.w3.org/2000/svg">
    <path
        d="M20 28C20 23.5817 23.5817 20 28 20H64C68.4183 20 72 23.5817 72 28V64C72 68.4183 68.4183 72 64 72H28C23.5817 72 20 68.4183 20 64V28Z"
        fill="#AF8BF8" />
    <path fill-rule="evenodd" clip-rule="evenodd"
        d="M37.3296 34.3334C37.342 34.3334 37.3544 34.3334 37.3668 34.3334H38.3002C38.3126 34.3334 38.325 34.3334 38.3374 34.3334C38.6318 34.3333 38.9186 34.3333 39.1614 34.3531C39.4281 34.3749 39.7428 34.4264 40.0595 34.5877C40.4985 34.8114 40.8555 35.1684 41.0792 35.6074C41.2405 35.9241 41.2919 36.2388 41.3137 36.5054C41.318 36.5573 41.3213 36.6112 41.3239 36.6667L50.6764 36.6667C50.679 36.6112 50.6824 36.5573 50.6866 36.5054C50.7084 36.2388 50.7598 35.9241 50.9212 35.6074C51.1449 35.1684 51.5018 34.8114 51.9409 34.5877C52.2575 34.4264 52.5722 34.3749 52.8389 34.3531C53.0818 34.3333 53.3685 34.3333 53.663 34.3334H54.6707C54.9652 34.3333 55.2519 34.3333 55.4948 34.3531C55.7615 34.3749 56.0762 34.4264 56.3928 34.5877C56.8319 34.8114 57.1888 35.1684 57.4125 35.6074C57.5739 35.9241 57.6253 36.2388 57.6471 36.5054C57.6669 36.7483 57.6669 37.035 57.6668 37.3295V38.3373C57.6669 38.6317 57.6669 38.9185 57.6471 39.1613C57.6253 39.428 57.5739 39.7427 57.4125 40.0594C57.1888 40.4984 56.8319 40.8554 56.3928 41.0791C56.0762 41.2404 55.7615 41.2918 55.4948 41.3136C55.4429 41.3178 55.389 41.3212 55.3335 41.3238V50.6763C55.389 50.6789 55.4429 50.6822 55.4948 50.6865C55.7615 50.7083 56.0762 50.7597 56.3928 50.921C56.8319 51.1447 57.1888 51.5017 57.4125 51.9407C57.5739 52.2574 57.6253 52.5721 57.6471 52.8388C57.6669 53.0816 57.6669 53.3684 57.6668 53.6628V54.6706C57.6669 54.9651 57.6669 55.2518 57.6471 55.4946C57.6253 55.7613 57.5739 56.076 57.4125 56.3927C57.1888 56.8317 56.8319 57.1887 56.3928 57.4124C56.0762 57.5737 55.7615 57.6252 55.4948 57.6469C55.2519 57.6668 54.9652 57.6668 54.6707 57.6667H53.6629C53.3685 57.6668 53.0817 57.6668 52.8389 57.6469C52.5722 57.6252 52.2575 57.5737 51.9409 57.4124C51.5018 57.1887 51.1449 56.8317 50.9212 56.3927C50.7598 56.076 50.7084 55.7613 50.6866 55.4946C50.6824 55.4428 50.679 55.3889 50.6764 55.3334H41.3239C41.3213 55.3889 41.318 55.4428 41.3137 55.4946C41.2919 55.7613 41.2405 56.076 41.0792 56.3927C40.8555 56.8317 40.4985 57.1887 40.0595 57.4124C39.7428 57.5737 39.4281 57.6252 39.1614 57.6469C38.9186 57.6668 38.6318 57.6668 38.3374 57.6667H37.3296C37.0352 57.6668 36.7484 57.6668 36.5056 57.6469C36.2389 57.6252 35.9242 57.5737 35.6075 57.4124C35.1685 57.1887 34.8115 56.8317 34.5878 56.3927C34.4265 56.076 34.3751 55.7613 34.3533 55.4946C34.3334 55.2518 34.3335 54.965 34.3335 54.6706V53.6628C34.3335 53.3684 34.3334 53.0816 34.3533 52.8388C34.3751 52.5721 34.4265 52.2574 34.5878 51.9407C34.8115 51.5017 35.1685 51.1447 35.6075 50.921C35.9242 50.7597 36.2389 50.7083 36.5056 50.6865C36.5574 50.6822 36.6113 50.6789 36.6668 50.6763V41.3238C36.6113 41.3212 36.5574 41.3178 36.5056 41.3136C36.2389 41.2918 35.9242 41.2404 35.6075 41.0791C35.1685 40.8554 34.8115 40.4984 34.5878 40.0594C34.4265 39.7427 34.3751 39.428 34.3533 39.1613C34.3334 38.9185 34.3335 38.6317 34.3335 38.3373C34.3335 38.3249 34.3335 38.3125 34.3335 38.3V37.3667C34.3335 37.3543 34.3335 37.3419 34.3335 37.3295C34.3335 37.0351 34.3334 36.7483 34.3533 36.5054C34.3751 36.2388 34.4265 35.9241 34.5878 35.6074C34.8115 35.1684 35.1685 34.8114 35.6075 34.5877C35.9242 34.4264 36.2389 34.3749 36.5056 34.3531C36.7484 34.3333 37.0352 34.3333 37.3296 34.3334ZM39.0002 41.3238V50.6763C39.0557 50.6789 39.1096 50.6822 39.1614 50.6865C39.4281 50.7083 39.7428 50.7597 40.0595 50.921C40.4985 51.1447 40.8555 51.5017 41.0792 51.9407C41.2405 52.2574 41.2919 52.5721 41.3137 52.8388C41.318 52.8907 41.3213 52.9445 41.3239 53H50.6764C50.679 52.9445 50.6824 52.8907 50.6866 52.8388C50.7084 52.5721 50.7598 52.2574 50.9212 51.9407C51.1449 51.5017 51.5018 51.1447 51.9409 50.921C52.2575 50.7597 52.5722 50.7083 52.8389 50.6865C52.8908 50.6822 52.9446 50.6789 53.0002 50.6763V41.3238C52.9446 41.3212 52.8908 41.3178 52.8389 41.3136C52.5722 41.2918 52.2575 41.2404 51.9409 41.0791C51.5018 40.8554 51.1449 40.4984 50.9212 40.0594C50.7598 39.7427 50.7084 39.428 50.6866 39.1613C50.6824 39.1094 50.679 39.0556 50.6764 39L41.3239 39C41.3213 39.0556 41.318 39.1094 41.3137 39.1613C41.2919 39.428 41.2405 39.7427 41.0792 40.0594C40.8555 40.4984 40.4985 40.8554 40.0595 41.0791C39.7428 41.2404 39.4281 41.2918 39.1614 41.3136C39.1096 41.3178 39.0557 41.3212 39.0002 41.3238ZM39.0002 37.3667C39.0002 37.0208 38.9993 36.8315 38.9881 36.6955C38.9877 36.69 38.9873 36.6849 38.9868 36.6801C38.982 36.6796 38.9768 36.6792 38.9714 36.6787C38.8354 36.6676 38.6461 36.6667 38.3002 36.6667H37.3668C37.0209 36.6667 36.8316 36.6676 36.6956 36.6787C36.6902 36.6792 36.685 36.6796 36.6802 36.6801C36.6797 36.6849 36.6793 36.69 36.6789 36.6955C36.6677 36.8315 36.6668 37.0208 36.6668 37.3667V38.3C36.6668 38.646 36.6677 38.8353 36.6789 38.9713C36.6793 38.9767 36.6797 38.9818 36.6802 38.9867C36.685 38.9871 36.6902 38.9876 36.6956 38.988C36.8316 38.9991 37.0209 39 37.3668 39H38.3002C38.6461 39 38.8354 38.9991 38.9714 38.988C38.9768 38.9876 38.982 38.9871 38.9868 38.9867C38.9873 38.9818 38.9877 38.9767 38.9881 38.9713C38.9993 38.8353 39.0002 38.646 39.0002 38.3V37.3667ZM53.0002 38.3C53.0002 38.646 53.0011 38.8353 53.0122 38.9713C53.0126 38.9767 53.0131 38.9818 53.0135 38.9867C53.0184 38.9871 53.0235 38.9876 53.0289 38.988C53.1649 38.9991 53.3542 39 53.7002 39H54.6335C54.9795 39 55.1687 38.9991 55.3048 38.988C55.3102 38.9876 55.3153 38.9871 55.3201 38.9867C55.3206 38.9818 55.321 38.9767 55.3215 38.9713C55.3326 38.8353 55.3335 38.646 55.3335 38.3V37.3667C55.3335 37.0208 55.3326 36.8315 55.3215 36.6955C55.321 36.69 55.3206 36.6849 55.3201 36.6801C55.3153 36.6796 55.3102 36.6792 55.3048 36.6787C55.1687 36.6676 54.9795 36.6667 54.6335 36.6667H53.7002C53.3542 36.6667 53.1649 36.6676 53.0289 36.6787C53.0235 36.6792 53.0184 36.6796 53.0135 36.6801C53.0131 36.6849 53.0126 36.69 53.0122 36.6955C53.0011 36.8315 53.0002 37.0208 53.0002 37.3667V38.3ZM53.7002 53C53.3542 53 53.1649 53.001 53.0289 53.0121C53.0235 53.0125 53.0184 53.013 53.0135 53.0134C53.0131 53.0182 53.0126 53.0234 53.0122 53.0288C53.0011 53.1648 53.0002 53.3541 53.0002 53.7V54.6334C53.0002 54.9793 53.0011 55.1686 53.0122 55.3046C53.0126 55.3101 53.0131 55.3152 53.0135 55.32C53.0184 55.3205 53.0235 55.3209 53.0289 55.3214C53.1649 55.3325 53.3542 55.3334 53.7002 55.3334H54.6335C54.9795 55.3334 55.1687 55.3325 55.3048 55.3214C55.3102 55.3209 55.3153 55.3205 55.3201 55.32C55.3206 55.3152 55.321 55.3101 55.3215 55.3046C55.3326 55.1686 55.3335 54.9793 55.3335 54.6334V53.7C55.3335 53.3541 55.3326 53.1648 55.3215 53.0288C55.321 53.0234 55.3206 53.0182 55.3201 53.0134C55.3153 53.013 55.3102 53.0125 55.3048 53.0121C55.1687 53.001 54.9795 53 54.6335 53H53.7002ZM39.0002 53.7C39.0002 53.3541 38.9993 53.1648 38.9881 53.0288C38.9877 53.0234 38.9873 53.0182 38.9868 53.0134C38.982 53.013 38.9768 53.0125 38.9714 53.0121C38.8354 53.001 38.6461 53 38.3002 53H37.3668C37.0209 53 36.8316 53.001 36.6956 53.0121C36.6902 53.0125 36.685 53.013 36.6802 53.0134C36.6797 53.0182 36.6793 53.0234 36.6789 53.0288C36.6677 53.1648 36.6668 53.3541 36.6668 53.7V54.6334C36.6668 54.9793 36.6677 55.1686 36.6789 55.3046C36.6793 55.3101 36.6797 55.3152 36.6802 55.32C36.685 55.3205 36.6902 55.3209 36.6956 55.3214C36.8316 55.3325 37.0209 55.3334 37.3668 55.3334H38.3002C38.6461 55.3334 38.8354 55.3325 38.9714 55.3214C38.9768 55.3209 38.982 55.3205 38.9868 55.32C38.9873 55.3152 38.9877 55.3101 38.9881 55.3046C38.9993 55.1686 39.0002 54.9793 39.0002 54.6334V53.7Z"
        fill="white" />
    <path
        d="M96.568 59.384C94.8827 59.384 93.3147 59.0747 91.864 58.456C90.4347 57.8373 89.1867 56.984 88.12 55.896C87.0747 54.7867 86.2533 53.4853 85.656 51.992C85.0587 50.4987 84.76 48.856 84.76 47.064C84.76 45.2933 85.048 43.6613 85.624 42.168C86.2213 40.6533 87.0533 39.352 88.12 38.264C89.1867 37.1547 90.4347 36.3013 91.864 35.704C93.2933 35.0853 94.8613 34.776 96.568 34.776C98.2533 34.776 99.7573 35.064 101.08 35.64C102.424 36.216 103.555 36.9733 104.472 37.912C105.389 38.8293 106.051 39.832 106.456 40.92L103.064 42.52C102.552 41.24 101.731 40.2053 100.6 39.416C99.4907 38.6053 98.1467 38.2 96.568 38.2C94.9893 38.2 93.592 38.5733 92.376 39.32C91.16 40.0667 90.2107 41.1013 89.528 42.424C88.8667 43.7467 88.536 45.2933 88.536 47.064C88.536 48.8347 88.8667 50.392 89.528 51.736C90.2107 53.0587 91.16 54.0933 92.376 54.84C93.592 55.5653 94.9893 55.928 96.568 55.928C98.1467 55.928 99.4907 55.5333 100.6 54.744C101.731 53.9547 102.552 52.92 103.064 51.64L106.456 53.24C106.051 54.3067 105.389 55.3093 104.472 56.248C103.555 57.1867 102.424 57.944 101.08 58.52C99.7573 59.096 98.2533 59.384 96.568 59.384ZM117.067 59.384C115.403 59.384 113.877 58.9893 112.491 58.2C111.125 57.4107 110.037 56.3333 109.227 54.968C108.416 53.6027 108.011 52.056 108.011 50.328C108.011 48.5787 108.416 47.032 109.227 45.688C110.037 44.3227 111.125 43.256 112.491 42.488C113.856 41.6987 115.381 41.304 117.067 41.304C118.773 41.304 120.299 41.6987 121.643 42.488C123.008 43.256 124.085 44.3227 124.875 45.688C125.685 47.032 126.091 48.5787 126.091 50.328C126.091 52.0773 125.685 53.6347 124.875 55C124.064 56.3653 122.976 57.4427 121.611 58.232C120.245 59 118.731 59.384 117.067 59.384ZM117.067 56.024C118.091 56.024 118.997 55.7787 119.787 55.288C120.576 54.7973 121.195 54.1253 121.643 53.272C122.112 52.3973 122.347 51.416 122.347 50.328C122.347 49.24 122.112 48.2693 121.643 47.416C121.195 46.5627 120.576 45.8907 119.787 45.4C118.997 44.9093 118.091 44.664 117.067 44.664C116.064 44.664 115.157 44.9093 114.347 45.4C113.557 45.8907 112.928 46.5627 112.459 47.416C112.011 48.2693 111.787 49.24 111.787 50.328C111.787 51.416 112.011 52.3973 112.459 53.272C112.928 54.1253 113.557 54.7973 114.347 55.288C115.157 55.7787 116.064 56.024 117.067 56.024ZM128.661 59V41.688H132.117V45.08L131.701 44.632C132.127 43.544 132.81 42.7227 133.749 42.168C134.687 41.592 135.775 41.304 137.013 41.304C138.293 41.304 139.423 41.5813 140.405 42.136C141.386 42.6907 142.154 43.4587 142.709 44.44C143.263 45.4213 143.541 46.552 143.541 47.832V59H139.957V48.792C139.957 47.9173 139.797 47.1813 139.477 46.584C139.157 45.9653 138.698 45.496 138.101 45.176C137.525 44.8347 136.863 44.664 136.117 44.664C135.37 44.664 134.698 44.8347 134.101 45.176C133.525 45.496 133.077 45.9653 132.757 46.584C132.437 47.2027 132.277 47.9387 132.277 48.792V59H128.661ZM146.451 59V41.688H149.907V45.08L149.491 44.632C149.917 43.544 150.6 42.7227 151.539 42.168C152.477 41.592 153.565 41.304 154.803 41.304C156.083 41.304 157.213 41.5813 158.195 42.136C159.176 42.6907 159.944 43.4587 160.499 44.44C161.053 45.4213 161.331 46.552 161.331 47.832V59H157.747V48.792C157.747 47.9173 157.587 47.1813 157.267 46.584C156.947 45.9653 156.488 45.496 155.891 45.176C155.315 44.8347 154.653 44.664 153.907 44.664C153.16 44.664 152.488 44.8347 151.891 45.176C151.315 45.496 150.867 45.9653 150.547 46.584C150.227 47.2027 150.067 47.9387 150.067 48.792V59H146.451ZM172.369 59.384C170.641 59.384 169.105 58.9893 167.761 58.2C166.438 57.3893 165.403 56.3013 164.657 54.936C163.91 53.5493 163.537 52.0027 163.537 50.296C163.537 48.5467 163.91 47 164.657 45.656C165.425 44.312 166.449 43.256 167.729 42.488C169.009 41.6987 170.459 41.304 172.081 41.304C173.382 41.304 174.545 41.528 175.569 41.976C176.593 42.424 177.457 43.0427 178.161 43.832C178.865 44.6 179.398 45.4853 179.761 46.488C180.145 47.4907 180.337 48.5573 180.337 49.688C180.337 49.9653 180.326 50.2533 180.305 50.552C180.283 50.8507 180.241 51.128 180.177 51.384H166.385V48.504H178.129L176.401 49.816C176.614 48.7707 176.539 47.8427 176.177 47.032C175.835 46.2 175.302 45.5493 174.577 45.08C173.873 44.5893 173.041 44.344 172.081 44.344C171.121 44.344 170.267 44.5893 169.521 45.08C168.774 45.5493 168.198 46.232 167.793 47.128C167.387 48.0027 167.227 49.0693 167.313 50.328C167.206 51.5013 167.366 52.5253 167.793 53.4C168.241 54.2747 168.859 54.9573 169.649 55.448C170.459 55.9387 171.377 56.184 172.401 56.184C173.446 56.184 174.331 55.9493 175.057 55.48C175.803 55.0107 176.39 54.4027 176.817 53.656L179.761 55.096C179.419 55.9067 178.886 56.6427 178.161 57.304C177.457 57.944 176.603 58.456 175.601 58.84C174.619 59.2027 173.542 59.384 172.369 59.384ZM191.13 59.384C189.402 59.384 187.866 58.9893 186.522 58.2C185.199 57.3893 184.143 56.3013 183.354 54.936C182.586 53.5707 182.202 52.024 182.202 50.296C182.202 48.5893 182.586 47.0533 183.354 45.688C184.122 44.3227 185.178 43.256 186.522 42.488C187.866 41.6987 189.402 41.304 191.13 41.304C192.303 41.304 193.402 41.5173 194.426 41.944C195.45 42.3493 196.335 42.9147 197.082 43.64C197.85 44.3653 198.415 45.208 198.778 46.168L195.61 47.64C195.247 46.744 194.66 46.0293 193.85 45.496C193.06 44.9413 192.154 44.664 191.13 44.664C190.148 44.664 189.263 44.9093 188.474 45.4C187.706 45.8693 187.098 46.5413 186.65 47.416C186.202 48.2693 185.978 49.24 185.978 50.328C185.978 51.416 186.202 52.3973 186.65 53.272C187.098 54.1253 187.706 54.7973 188.474 55.288C189.263 55.7787 190.148 56.024 191.13 56.024C192.175 56.024 193.082 55.7573 193.85 55.224C194.639 54.6693 195.226 53.9333 195.61 53.016L198.778 54.52C198.436 55.4373 197.882 56.2693 197.114 57.016C196.367 57.7413 195.482 58.3173 194.458 58.744C193.434 59.1707 192.324 59.384 191.13 59.384ZM208.84 59.192C207.027 59.192 205.619 58.68 204.616 57.656C203.613 56.632 203.112 55.192 203.112 53.336V44.952H200.072V41.688H200.552C201.363 41.688 201.992 41.4533 202.44 40.984C202.888 40.5147 203.112 39.8747 203.112 39.064V37.72H206.728V41.688H210.664V44.952H206.728V53.176C206.728 53.7733 206.824 54.2853 207.016 54.712C207.208 55.1173 207.517 55.4373 207.944 55.672C208.371 55.8853 208.925 55.992 209.608 55.992C209.779 55.992 209.971 55.9813 210.184 55.96C210.397 55.9387 210.6 55.9173 210.792 55.896V59C210.493 59.0427 210.163 59.0853 209.8 59.128C209.437 59.1707 209.117 59.192 208.84 59.192ZM221.4 59.384C219.736 59.384 218.211 58.9893 216.824 58.2C215.459 57.4107 214.371 56.3333 213.56 54.968C212.75 53.6027 212.344 52.056 212.344 50.328C212.344 48.5787 212.75 47.032 213.56 45.688C214.371 44.3227 215.459 43.256 216.824 42.488C218.19 41.6987 219.715 41.304 221.4 41.304C223.107 41.304 224.632 41.6987 225.976 42.488C227.342 43.256 228.419 44.3227 229.208 45.688C230.019 47.032 230.424 48.5787 230.424 50.328C230.424 52.0773 230.019 53.6347 229.208 55C228.398 56.3653 227.31 57.4427 225.944 58.232C224.579 59 223.064 59.384 221.4 59.384ZM221.4 56.024C222.424 56.024 223.331 55.7787 224.12 55.288C224.91 54.7973 225.528 54.1253 225.976 53.272C226.446 52.3973 226.68 51.416 226.68 50.328C226.68 49.24 226.446 48.2693 225.976 47.416C225.528 46.5627 224.91 45.8907 224.12 45.4C223.331 44.9093 222.424 44.664 221.4 44.664C220.398 44.664 219.491 44.9093 218.68 45.4C217.891 45.8907 217.262 46.5627 216.792 47.416C216.344 48.2693 216.12 49.24 216.12 50.328C216.12 51.416 216.344 52.3973 216.792 53.272C217.262 54.1253 217.891 54.7973 218.68 55.288C219.491 55.7787 220.398 56.024 221.4 56.024ZM232.995 59V41.688H236.451V45.176L236.131 44.664C236.515 43.5333 237.133 42.7227 237.987 42.232C238.84 41.72 239.864 41.464 241.059 41.464H242.115V44.76H240.611C239.416 44.76 238.445 45.1333 237.699 45.88C236.973 46.6053 236.611 47.6507 236.611 49.016V59H232.995ZM250.028 59.384C248.258 59.384 246.7 58.9467 245.356 58.072C244.034 57.1973 243.106 56.024 242.572 54.552L245.356 53.24C245.826 54.2213 246.466 55 247.276 55.576C248.108 56.152 249.026 56.44 250.028 56.44C250.882 56.44 251.575 56.248 252.108 55.864C252.642 55.48 252.908 54.9573 252.908 54.296C252.908 53.8693 252.791 53.528 252.556 53.272C252.322 52.9947 252.023 52.7707 251.66 52.6C251.319 52.4293 250.967 52.3013 250.604 52.216L247.884 51.448C246.391 51.0213 245.271 50.3813 244.524 49.528C243.799 48.6533 243.436 47.64 243.436 46.488C243.436 45.4427 243.703 44.536 244.236 43.768C244.77 42.9787 245.506 42.3707 246.444 41.944C247.383 41.5173 248.439 41.304 249.612 41.304C251.191 41.304 252.599 41.6987 253.836 42.488C255.074 43.256 255.948 44.3333 256.46 45.72L253.676 47.032C253.335 46.2 252.791 45.5387 252.044 45.048C251.319 44.5573 250.498 44.312 249.58 44.312C248.791 44.312 248.162 44.504 247.692 44.888C247.223 45.2507 246.988 45.7307 246.988 46.328C246.988 46.7333 247.095 47.0747 247.308 47.352C247.522 47.608 247.799 47.8213 248.14 47.992C248.482 48.1413 248.834 48.2693 249.196 48.376L252.012 49.208C253.442 49.6133 254.54 50.2533 255.308 51.128C256.076 51.9813 256.46 53.0053 256.46 54.2C256.46 55.224 256.183 56.1307 255.628 56.92C255.095 57.688 254.348 58.296 253.388 58.744C252.428 59.1707 251.308 59.384 250.028 59.384Z"
        fill="#431D93" />
    <path
        d="M184.408 207.192C183.661 207.192 182.968 207.053 182.328 206.776C181.688 206.488 181.144 206.099 180.696 205.608C180.248 205.117 179.917 204.552 179.704 203.912L181.304 203.24C181.592 203.976 182.013 204.541 182.568 204.936C183.123 205.331 183.763 205.528 184.488 205.528C184.915 205.528 185.288 205.464 185.608 205.336C185.928 205.197 186.173 205.005 186.344 204.76C186.525 204.515 186.616 204.232 186.616 203.912C186.616 203.475 186.493 203.128 186.248 202.872C186.003 202.616 185.64 202.413 185.16 202.264L182.92 201.56C182.024 201.283 181.341 200.861 180.872 200.296C180.403 199.72 180.168 199.048 180.168 198.28C180.168 197.608 180.333 197.021 180.664 196.52C180.995 196.008 181.448 195.608 182.024 195.32C182.611 195.032 183.277 194.888 184.024 194.888C184.739 194.888 185.389 195.016 185.976 195.272C186.563 195.517 187.064 195.859 187.48 196.296C187.907 196.733 188.216 197.24 188.408 197.816L186.84 198.504C186.605 197.875 186.237 197.389 185.736 197.048C185.245 196.707 184.675 196.536 184.024 196.536C183.629 196.536 183.283 196.605 182.984 196.744C182.685 196.872 182.451 197.064 182.28 197.32C182.12 197.565 182.04 197.853 182.04 198.184C182.04 198.568 182.163 198.909 182.408 199.208C182.653 199.507 183.027 199.731 183.528 199.88L185.608 200.536C186.557 200.824 187.272 201.24 187.752 201.784C188.232 202.317 188.472 202.984 188.472 203.784C188.472 204.445 188.296 205.032 187.944 205.544C187.603 206.056 187.128 206.461 186.52 206.76C185.912 207.048 185.208 207.192 184.408 207.192ZM193.999 207.096C193.093 207.096 192.389 206.84 191.887 206.328C191.386 205.816 191.135 205.096 191.135 204.168V199.976H189.615V198.344H189.855C190.261 198.344 190.575 198.227 190.799 197.992C191.023 197.757 191.135 197.437 191.135 197.032V196.36H192.943V198.344H194.911V199.976H192.943V204.088C192.943 204.387 192.991 204.643 193.087 204.856C193.183 205.059 193.338 205.219 193.551 205.336C193.765 205.443 194.042 205.496 194.383 205.496C194.469 205.496 194.565 205.491 194.671 205.48C194.778 205.469 194.879 205.459 194.975 205.448V207C194.826 207.021 194.661 207.043 194.479 207.064C194.298 207.085 194.138 207.096 193.999 207.096ZM199.094 207.192C198.507 207.192 197.99 207.091 197.542 206.888C197.104 206.675 196.763 206.387 196.518 206.024C196.272 205.651 196.15 205.213 196.15 204.712C196.15 204.243 196.251 203.821 196.454 203.448C196.667 203.075 196.992 202.76 197.43 202.504C197.867 202.248 198.416 202.067 199.078 201.96L202.086 201.464V202.888L199.43 203.352C198.95 203.437 198.598 203.592 198.374 203.816C198.15 204.029 198.038 204.307 198.038 204.648C198.038 204.979 198.16 205.251 198.406 205.464C198.662 205.667 198.987 205.768 199.382 205.768C199.872 205.768 200.299 205.661 200.662 205.448C201.035 205.235 201.323 204.952 201.526 204.6C201.728 204.237 201.83 203.837 201.83 203.4V201.176C201.83 200.749 201.67 200.403 201.35 200.136C201.04 199.859 200.624 199.72 200.102 199.72C199.622 199.72 199.2 199.848 198.838 200.104C198.486 200.349 198.224 200.669 198.054 201.064L196.55 200.312C196.71 199.885 196.971 199.512 197.334 199.192C197.696 198.861 198.118 198.605 198.598 198.424C199.088 198.243 199.606 198.152 200.15 198.152C200.832 198.152 201.435 198.28 201.958 198.536C202.491 198.792 202.902 199.149 203.19 199.608C203.488 200.056 203.638 200.579 203.638 201.176V207H201.91V205.432L202.278 205.48C202.075 205.832 201.814 206.136 201.494 206.392C201.184 206.648 200.827 206.845 200.422 206.984C200.027 207.123 199.584 207.192 199.094 207.192ZM205.592 207V198.344H207.32V200.088L207.16 199.832C207.352 199.267 207.661 198.861 208.088 198.616C208.514 198.36 209.026 198.232 209.624 198.232H210.152V199.88H209.4C208.802 199.88 208.317 200.067 207.944 200.44C207.581 200.803 207.4 201.325 207.4 202.008V207H205.592ZM215.129 207.096C214.222 207.096 213.518 206.84 213.017 206.328C212.515 205.816 212.265 205.096 212.265 204.168V199.976H210.745V198.344H210.985C211.39 198.344 211.705 198.227 211.929 197.992C212.153 197.757 212.265 197.437 212.265 197.032V196.36H214.073V198.344H216.041V199.976H214.073V204.088C214.073 204.387 214.121 204.643 214.217 204.856C214.313 205.059 214.467 205.219 214.681 205.336C214.894 205.443 215.171 205.496 215.513 205.496C215.598 205.496 215.694 205.491 215.801 205.48C215.907 205.469 216.009 205.459 216.105 205.448V207C215.955 207.021 215.79 207.043 215.609 207.064C215.427 207.085 215.267 207.096 215.129 207.096ZM221.617 207.192C220.753 207.192 219.985 206.995 219.313 206.6C218.652 206.195 218.134 205.651 217.761 204.968C217.388 204.275 217.201 203.501 217.201 202.648C217.201 201.773 217.388 201 217.761 200.328C218.145 199.656 218.657 199.128 219.297 198.744C219.937 198.349 220.662 198.152 221.473 198.152C222.124 198.152 222.705 198.264 223.217 198.488C223.729 198.712 224.161 199.021 224.513 199.416C224.865 199.8 225.132 200.243 225.313 200.744C225.505 201.245 225.601 201.779 225.601 202.344C225.601 202.483 225.596 202.627 225.585 202.776C225.574 202.925 225.553 203.064 225.521 203.192H218.625V201.752H224.497L223.633 202.408C223.74 201.885 223.702 201.421 223.521 201.016C223.35 200.6 223.084 200.275 222.721 200.04C222.369 199.795 221.953 199.672 221.473 199.672C220.993 199.672 220.566 199.795 220.193 200.04C219.82 200.275 219.532 200.616 219.329 201.064C219.126 201.501 219.046 202.035 219.089 202.664C219.036 203.251 219.116 203.763 219.329 204.2C219.553 204.637 219.862 204.979 220.257 205.224C220.662 205.469 221.121 205.592 221.633 205.592C222.156 205.592 222.598 205.475 222.961 205.24C223.334 205.005 223.628 204.701 223.841 204.328L225.313 205.048C225.142 205.453 224.876 205.821 224.513 206.152C224.161 206.472 223.734 206.728 223.233 206.92C222.742 207.101 222.204 207.192 221.617 207.192ZM227.205 207V198.344H228.933V200.088L228.773 199.832C228.965 199.267 229.275 198.861 229.701 198.616C230.128 198.36 230.64 198.232 231.237 198.232H231.765V199.88H231.013C230.416 199.88 229.931 200.067 229.557 200.44C229.195 200.803 229.013 201.325 229.013 202.008V207H227.205ZM241.239 207.192C240.396 207.192 239.612 207.037 238.887 206.728C238.172 206.419 237.543 205.992 236.999 205.448C236.466 204.893 236.05 204.243 235.751 203.496C235.452 202.749 235.303 201.928 235.303 201.032C235.303 200.147 235.447 199.331 235.735 198.584C236.034 197.827 236.45 197.176 236.983 196.632C237.516 196.077 238.14 195.651 238.855 195.352C239.57 195.043 240.354 194.888 241.207 194.888C242.05 194.888 242.802 195.032 243.463 195.32C244.135 195.608 244.7 195.987 245.159 196.456C245.618 196.915 245.948 197.416 246.151 197.96L244.471 198.776C244.226 198.125 243.82 197.603 243.255 197.208C242.69 196.803 242.007 196.6 241.207 196.6C240.418 196.6 239.719 196.787 239.111 197.16C238.503 197.533 238.028 198.051 237.687 198.712C237.356 199.373 237.191 200.147 237.191 201.032C237.191 201.917 237.362 202.696 237.703 203.368C238.055 204.029 238.535 204.547 239.143 204.92C239.751 205.283 240.45 205.464 241.239 205.464C241.9 205.464 242.503 205.331 243.047 205.064C243.602 204.787 244.044 204.403 244.375 203.912C244.706 203.411 244.871 202.829 244.871 202.168V201.352L245.719 202.12H241.207V200.52H246.743V201.64C246.743 202.515 246.594 203.299 246.295 203.992C245.996 204.675 245.591 205.256 245.079 205.736C244.567 206.216 243.98 206.579 243.319 206.824C242.658 207.069 241.964 207.192 241.239 207.192ZM251.423 207.192C250.772 207.192 250.201 207.048 249.711 206.76C249.22 206.461 248.836 206.051 248.559 205.528C248.292 204.995 248.159 204.381 248.159 203.688V198.344H249.967V203.528C249.967 203.923 250.047 204.269 250.207 204.568C250.367 204.867 250.591 205.101 250.879 205.272C251.167 205.432 251.497 205.512 251.871 205.512C252.255 205.512 252.591 205.427 252.879 205.256C253.167 205.085 253.391 204.845 253.551 204.536C253.721 204.227 253.807 203.864 253.807 203.448V198.344H255.599V207H253.887V205.304L254.079 205.528C253.876 206.061 253.54 206.472 253.071 206.76C252.601 207.048 252.052 207.192 251.423 207.192ZM257.55 207V198.344H259.358V207H257.55ZM257.55 197.16V195.08H259.358V197.16H257.55ZM265.312 207.192C264.48 207.192 263.733 206.995 263.072 206.6C262.421 206.195 261.904 205.651 261.52 204.968C261.146 204.285 260.96 203.517 260.96 202.664C260.96 201.811 261.152 201.043 261.536 200.36C261.92 199.677 262.437 199.139 263.088 198.744C263.738 198.349 264.474 198.152 265.296 198.152C265.989 198.152 266.602 198.291 267.136 198.568C267.669 198.845 268.09 199.229 268.4 199.72L268.128 200.136V194.888H269.92V207H268.208V205.24L268.416 205.576C268.117 206.099 267.69 206.499 267.136 206.776C266.581 207.053 265.973 207.192 265.312 207.192ZM265.488 205.512C265.989 205.512 266.437 205.389 266.832 205.144C267.237 204.899 267.552 204.563 267.776 204.136C268.01 203.699 268.128 203.208 268.128 202.664C268.128 202.12 268.01 201.635 267.776 201.208C267.552 200.781 267.237 200.445 266.832 200.2C266.437 199.955 265.989 199.832 265.488 199.832C264.986 199.832 264.533 199.955 264.128 200.2C263.722 200.445 263.408 200.781 263.184 201.208C262.96 201.635 262.848 202.12 262.848 202.664C262.848 203.208 262.96 203.699 263.184 204.136C263.408 204.563 263.717 204.899 264.112 205.144C264.517 205.389 264.976 205.512 265.488 205.512ZM275.934 207.192C275.07 207.192 274.302 206.995 273.63 206.6C272.969 206.195 272.452 205.651 272.078 204.968C271.705 204.275 271.518 203.501 271.518 202.648C271.518 201.773 271.705 201 272.078 200.328C272.462 199.656 272.974 199.128 273.614 198.744C274.254 198.349 274.98 198.152 275.79 198.152C276.441 198.152 277.022 198.264 277.534 198.488C278.046 198.712 278.478 199.021 278.83 199.416C279.182 199.8 279.449 200.243 279.63 200.744C279.822 201.245 279.918 201.779 279.918 202.344C279.918 202.483 279.913 202.627 279.902 202.776C279.892 202.925 279.87 203.064 279.838 203.192H272.942V201.752H278.814L277.95 202.408C278.057 201.885 278.02 201.421 277.838 201.016C277.668 200.6 277.401 200.275 277.038 200.04C276.686 199.795 276.27 199.672 275.79 199.672C275.31 199.672 274.884 199.795 274.51 200.04C274.137 200.275 273.849 200.616 273.646 201.064C273.444 201.501 273.364 202.035 273.406 202.664C273.353 203.251 273.433 203.763 273.646 204.2C273.87 204.637 274.18 204.979 274.574 205.224C274.98 205.469 275.438 205.592 275.95 205.592C276.473 205.592 276.916 205.475 277.278 205.24C277.652 205.005 277.945 204.701 278.158 204.328L279.63 205.048C279.46 205.453 279.193 205.821 278.83 206.152C278.478 206.472 278.052 206.728 277.55 206.92C277.06 207.101 276.521 207.192 275.934 207.192Z"
        fill="#7A3EF4" />
    <path
        d="M175 150C191.569 150 205 136.569 205 120C205 103.431 191.569 90 175 90C158.431 90 145 103.431 145 120C145 136.569 158.431 150 175 150Z"
        fill="#431D93" />
    <path d="M167.047 132.996V109.203L186.703 121.099L167.047 132.996Z" fill="white" />
    <path
        d="M325.834 205.218C326.558 203.009 326.814 200.674 326.586 198.361C326.357 196.049 325.649 193.809 324.506 191.785L313.04 191.495V191.351L324.076 191.072C322.743 188.974 320.96 187.198 318.856 185.874L310 185.652V185.509L317.871 185.31C314.646 183.581 310.941 182.962 307.329 183.549C303.717 184.136 300.398 185.895 297.886 188.556L307.791 188.807V188.95L297.294 189.213C294.732 192.223 293.328 196.048 293.334 200C293.334 200.179 293.334 200.353 293.342 200.528C293.342 200.54 293.342 200.552 293.342 200.563L297.299 200.664V200.807L293.356 200.907C293.356 200.919 293.356 200.931 293.356 200.942C293.5 203.543 294.255 206.073 295.56 208.328L302.154 208.495V208.638L295.842 208.798C297.39 211.284 299.563 213.319 302.145 214.702C302.35 214.814 302.558 214.919 302.769 215.021V201.176H304.368C304.429 201.176 304.49 201.188 304.547 201.212C304.604 201.235 304.656 201.27 304.699 201.313C304.743 201.357 304.777 201.409 304.801 201.465C304.824 201.522 304.836 201.583 304.836 201.645V215.851C308.193 216.939 311.807 216.939 315.164 215.851V201.645C315.164 201.583 315.176 201.522 315.2 201.465C315.223 201.409 315.258 201.357 315.301 201.313C315.345 201.27 315.396 201.235 315.453 201.212C315.51 201.188 315.571 201.176 315.633 201.176H317.23V215.023C317.438 214.922 317.645 214.817 317.848 214.708C319.478 213.837 320.952 212.702 322.209 211.347L318.07 211.242V211.099L322.536 210.986C323.906 209.425 324.972 207.622 325.678 205.669L319.718 205.517V205.374L325.834 205.218ZM319.542 200.737H300.458L300.113 199.359H302.769V197.882H303.311C303.505 197.882 303.697 197.92 303.876 197.995C304.055 198.069 304.217 198.177 304.354 198.314C304.491 198.451 304.599 198.614 304.673 198.793C304.747 198.972 304.785 199.164 304.785 199.357H308.967V197.39H298.836C298.638 195.816 297.704 194.587 297.704 194.587C300.458 195.225 310 195.275 310 195.275C310 195.275 319.542 195.225 322.295 194.587C322.295 194.587 321.362 195.816 321.164 197.39H311.033V199.358H315.216C315.216 199.164 315.254 198.972 315.328 198.793C315.402 198.614 315.511 198.452 315.648 198.315C315.785 198.178 315.948 198.069 316.127 197.995C316.306 197.921 316.497 197.883 316.691 197.883H317.233V199.358H319.889L319.542 200.737Z"
        fill="#431D93" />
</svg>
