<svg width="120" height="100" viewBox="0 0 120 100" fill="none" xmlns="http://www.w3.org/2000/svg">
<g clip-path="url(#clip0_18607_9162)">
<path d="M0 4C0 1.79086 1.79086 0 4 0H116C118.209 0 120 1.79086 120 4V96C120 98.2091 118.209 100 116 100H4C1.79086 100 0 98.2091 0 96V4Z" fill="white"/>
<mask id="path-3-inside-1_18607_9162" fill="white">
<path d="M0 0H120V12H0V0Z"/>
</mask>
<path d="M0 0H120V12H0V0Z" fill="#FBF9FF"/>
<path d="M120 12V11H0V12V13H120V12Z" fill="#7A3EF4" mask="url(#path-3-inside-1_18607_9162)"/>
<circle cx="10" cy="6" r="2" fill="#AF8BF8"/>
<circle cx="16" cy="6" r="2" fill="#AF8BF8"/>
<circle cx="22" cy="6" r="2" fill="#AF8BF8"/>
<path d="M26 56C26 37.2223 41.2223 22 60 22C78.7777 22 94 37.2223 94 56C94 74.7777 78.7777 90 60 90C41.2223 90 26 74.7777 26 56Z" fill="#F1EBFE"/>
<path fill-rule="evenodd" clip-rule="evenodd" d="M66.3619 41H53.6381C52.4306 41 51.4341 41 50.6223 41.0663C49.7791 41.1352 49.0041 41.283 48.2761 41.654C47.1471 42.2292 46.2292 43.1471 45.654 44.2761C45.283 45.0041 45.1352 45.7791 45.0663 46.6223C45 47.4341 45 48.4306 45 49.638V62.3619C45 63.5694 45 64.566 45.0663 65.3777C45.1352 66.2209 45.283 66.9959 45.654 67.7239C46.2292 68.8529 47.1471 69.7708 48.2761 70.346C49.0041 70.717 49.7791 70.8648 50.6223 70.9337C51.434 71 52.4306 71 53.638 71H53.7C54.5284 71 55.2 70.3284 55.2 69.5C55.2 68.6716 54.5284 68 53.7 68C52.4151 68 51.5417 67.9988 50.8666 67.9437C50.2089 67.8899 49.8726 67.7926 49.638 67.673C49.0735 67.3854 48.6146 66.9265 48.327 66.362C48.2074 66.1274 48.1101 65.7911 48.0563 65.1334C48.0012 64.4583 48 63.5849 48 62.3V51.5H72V62.3C72 63.1284 72.6716 63.8 73.5 63.8C74.3284 63.8 75 63.1284 75 62.3V49.638C75 48.4306 75 47.434 74.9337 46.6223C74.8648 45.7791 74.717 45.0041 74.346 44.2761C73.7708 43.1471 72.8529 42.2292 71.7239 41.654C70.9959 41.283 70.2209 41.1352 69.3777 41.0663C68.566 41 67.5694 41 66.3619 41ZM71.9974 48.5C71.9927 47.8317 71.9797 47.3069 71.9437 46.8666C71.8899 46.2089 71.7926 45.8726 71.673 45.638C71.3854 45.0735 70.9265 44.6146 70.362 44.327C70.1274 44.2074 69.7911 44.1101 69.1334 44.0563C68.4583 44.0012 67.5849 44 66.3 44H53.7C52.4151 44 51.5417 44.0012 50.8666 44.0563C50.2089 44.1101 49.8726 44.2074 49.638 44.327C49.0735 44.6146 48.6146 45.0735 48.327 45.638C48.2074 45.8726 48.1101 46.2089 48.0563 46.8666C48.0203 47.3069 48.0073 47.8317 48.0026 48.5H71.9974Z" fill="#7A3EF4"/>
<path fill-rule="evenodd" clip-rule="evenodd" d="M54 57.5C54 55.0147 56.0147 53 58.5 53C60.9853 53 63 55.0147 63 57.5C63 59.4593 61.7478 61.1262 60 61.7439V63.5C60 65.1569 61.3431 66.5 63 66.5H64.7561C65.3738 64.7522 67.0407 63.5 69 63.5C71.4853 63.5 73.5 65.5147 73.5 68C73.5 70.4853 71.4853 72.5 69 72.5C67.0407 72.5 65.3738 71.2478 64.7561 69.5H63C59.6863 69.5 57 66.8137 57 63.5V61.7439C55.2522 61.1262 54 59.4593 54 57.5ZM58.5 56C57.6716 56 57 56.6716 57 57.5C57 58.3284 57.6716 59 58.5 59C59.3284 59 60 58.3284 60 57.5C60 56.6716 59.3284 56 58.5 56ZM69 66.5C68.1716 66.5 67.5 67.1716 67.5 68C67.5 68.8284 68.1716 69.5 69 69.5C69.8284 69.5 70.5 68.8284 70.5 68C70.5 67.1716 69.8284 66.5 69 66.5Z" fill="#7A3EF4"/>
</g>
<path d="M4 0.5H116C117.933 0.5 119.5 2.067 119.5 4V96C119.5 97.933 117.933 99.5 116 99.5H4C2.067 99.5 0.5 97.933 0.5 96V4C0.500001 2.067 2.067 0.5 4 0.5Z" stroke="#7A3EF4"/>
<defs>
<clipPath id="clip0_18607_9162">
<path d="M0 4C0 1.79086 1.79086 0 4 0H116C118.209 0 120 1.79086 120 4V96C120 98.2091 118.209 100 116 100H4C1.79086 100 0 98.2091 0 96V4Z" fill="white"/>
</clipPath>
</defs>
</svg>
