<svg width="181" height="104" viewBox="0 0 181 104" fill="none" xmlns="http://www.w3.org/2000/svg">
<path d="M34.5 8C34.5 5.79086 36.2909 4 38.5 4H150.5C152.709 4 154.5 5.79086 154.5 8V100C154.5 102.209 152.709 104 150.5 104H38.5C36.2909 104 34.5 102.209 34.5 100V8Z" fill="#F1EBFE"/>
<path d="M0.5 56H180.5" stroke="#7A3EF4" stroke-linecap="round"/>
<path d="M15.5 61H165.5" stroke="#7A3EF4" stroke-linecap="round"/>
<g clip-path="url(#clip0_18736_9213)">
<path d="M30.5 4C30.5 1.79086 32.2909 0 34.5 0H146.5C148.709 0 150.5 1.79086 150.5 4V96C150.5 98.2091 148.709 100 146.5 100H34.5C32.2909 100 30.5 98.2091 30.5 96V4Z" fill="white"/>
<mask id="path-6-inside-1_18736_9213" fill="white">
<path d="M30.5 0H150.5V12H30.5V0Z"/>
</mask>
<path d="M30.5 0H150.5V12H30.5V0Z" fill="#FBF9FF"/>
<path d="M150.5 12V11H30.5V12V13H150.5V12Z" fill="#7A3EF4" mask="url(#path-6-inside-1_18736_9213)"/>
<circle cx="40.5" cy="6" r="2" fill="#AF8BF8"/>
<circle cx="46.5" cy="6" r="2" fill="#AF8BF8"/>
<circle cx="52.5" cy="6" r="2" fill="#AF8BF8"/>
<path d="M56.5 56C56.5 37.2223 71.7223 22 90.5 22C109.278 22 124.5 37.2223 124.5 56C124.5 74.7777 109.278 90 90.5 90C71.7223 90 56.5 74.7777 56.5 56Z" fill="#F1EBFE"/>
<path fill-rule="evenodd" clip-rule="evenodd" d="M96.8619 41H84.1381C82.9306 41 81.9341 41 81.1223 41.0663C80.2791 41.1352 79.5041 41.283 78.7761 41.654C77.6471 42.2292 76.7292 43.1471 76.154 44.2761C75.783 45.0041 75.6352 45.7791 75.5663 46.6223C75.5 47.4341 75.5 48.4306 75.5 49.638V62.3619C75.5 63.5694 75.5 64.566 75.5663 65.3777C75.6352 66.2209 75.783 66.9959 76.154 67.7239C76.7292 68.8529 77.6471 69.7708 78.7761 70.346C79.5041 70.717 80.2791 70.8648 81.1223 70.9337C81.934 71 82.9306 71 84.138 71H84.2C85.0284 71 85.7 70.3284 85.7 69.5C85.7 68.6716 85.0284 68 84.2 68C82.9151 68 82.0417 67.9988 81.3666 67.9437C80.7089 67.8899 80.3726 67.7926 80.138 67.673C79.5735 67.3854 79.1146 66.9265 78.827 66.362C78.7074 66.1274 78.6101 65.7911 78.5563 65.1334C78.5012 64.4583 78.5 63.5849 78.5 62.3V51.5H102.5V62.3C102.5 63.1284 103.172 63.8 104 63.8C104.828 63.8 105.5 63.1284 105.5 62.3V49.638C105.5 48.4306 105.5 47.434 105.434 46.6223C105.365 45.7791 105.217 45.0041 104.846 44.2761C104.271 43.1471 103.353 42.2292 102.224 41.654C101.496 41.283 100.721 41.1352 99.8777 41.0663C99.066 41 98.0694 41 96.8619 41ZM102.497 48.5C102.493 47.8317 102.48 47.3069 102.444 46.8666C102.39 46.2089 102.293 45.8726 102.173 45.638C101.885 45.0735 101.426 44.6146 100.862 44.327C100.627 44.2074 100.291 44.1101 99.6334 44.0563C98.9583 44.0012 98.0849 44 96.8 44H84.2C82.9151 44 82.0417 44.0012 81.3666 44.0563C80.7089 44.1101 80.3726 44.2074 80.138 44.327C79.5735 44.6146 79.1146 45.0735 78.827 45.638C78.7074 45.8726 78.6101 46.2089 78.5563 46.8666C78.5203 47.3069 78.5073 47.8317 78.5026 48.5H102.497Z" fill="#7A3EF4"/>
<path fill-rule="evenodd" clip-rule="evenodd" d="M84.5 57.5C84.5 55.0147 86.5147 53 89 53C91.4853 53 93.5 55.0147 93.5 57.5C93.5 59.4593 92.2478 61.1262 90.5 61.7439V63.5C90.5 65.1569 91.8431 66.5 93.5 66.5H95.2561C95.8738 64.7522 97.5407 63.5 99.5 63.5C101.985 63.5 104 65.5147 104 68C104 70.4853 101.985 72.5 99.5 72.5C97.5407 72.5 95.8738 71.2478 95.2561 69.5H93.5C90.1863 69.5 87.5 66.8137 87.5 63.5V61.7439C85.7522 61.1262 84.5 59.4593 84.5 57.5ZM89 56C88.1716 56 87.5 56.6716 87.5 57.5C87.5 58.3284 88.1716 59 89 59C89.8284 59 90.5 58.3284 90.5 57.5C90.5 56.6716 89.8284 56 89 56ZM99.5 66.5C98.6716 66.5 98 67.1716 98 68C98 68.8284 98.6716 69.5 99.5 69.5C100.328 69.5 101 68.8284 101 68C101 67.1716 100.328 66.5 99.5 66.5Z" fill="#7A3EF4"/>
</g>
<path d="M34.5 0.5H146.5C148.433 0.5 150 2.067 150 4V96C150 97.933 148.433 99.5 146.5 99.5H34.5C32.567 99.5 31 97.933 31 96V4C31 2.067 32.567 0.5 34.5 0.5Z" stroke="#7A3EF4"/>
<defs>
<clipPath id="clip0_18736_9213">
<path d="M30.5 4C30.5 1.79086 32.2909 0 34.5 0H146.5C148.709 0 150.5 1.79086 150.5 4V96C150.5 98.2091 148.709 100 146.5 100H34.5C32.2909 100 30.5 98.2091 30.5 96V4Z" fill="white"/>
</clipPath>
</defs>
</svg>
