<svg width="350" height="240" viewBox="0 0 350 240" fill="none" xmlns="http://www.w3.org/2000/svg">
    <path
        d="M20 28C20 23.5817 23.5817 20 28 20H64C68.4183 20 72 23.5817 72 28V64C72 68.4183 68.4183 72 64 72H28C23.5817 72 20 68.4183 20 64V28Z"
        fill="#AF8BF8" />
    <path fill-rule="evenodd" clip-rule="evenodd"
        d="M45.7698 35.5238L45.7698 35.5238ZM46.0001 35.6377L55.058 40.1666L46.0001 44.6956L36.9422 40.1666L46.0001 35.6377ZM45.7698 44.8094C45.7696 44.8095 45.7696 44.8095 45.7698 44.8094ZM46.2303 44.8094C46.2306 44.8095 46.2306 44.8095 46.2304 44.8094ZM46.2304 35.5238L46.2304 35.5238ZM45.6774 33.2655C45.8907 33.2255 46.1095 33.2255 46.3228 33.2655C46.5753 33.3129 46.8006 33.4278 46.9094 33.4834C46.9206 33.4891 46.9306 33.4942 46.9392 33.4985L58.1885 39.1231C58.5838 39.3207 58.8334 39.7247 58.8334 40.1666C58.8334 40.6085 58.5838 41.0125 58.1885 41.2101L46.9392 46.8348C46.9306 46.8391 46.9206 46.8442 46.9094 46.8499C46.8006 46.9054 46.5753 47.0204 46.3228 47.0678C46.1095 47.1078 45.8907 47.1078 45.6774 47.0678C45.4249 47.0204 45.1996 46.9054 45.0908 46.8499C45.0796 46.8442 45.0696 46.8391 45.0609 46.8348L33.8117 41.2101C33.4164 41.0125 33.1668 40.6085 33.1668 40.1666C33.1668 39.7247 33.4164 39.3207 33.8117 39.1231L45.0609 33.4985C45.0696 33.4942 45.0796 33.4891 45.0908 33.4834C45.1996 33.4278 45.4249 33.3129 45.6774 33.2655ZM33.2899 45.4782C33.5781 44.9019 34.2789 44.6683 34.8552 44.9565L46.0001 50.5289L57.145 44.9565C57.7213 44.6683 58.4221 44.9019 58.7103 45.4782C58.9984 46.0545 58.7648 46.7553 58.1885 47.0435L46.9392 52.6681C46.9306 52.6724 46.9206 52.6775 46.9094 52.6832C46.8006 52.7388 46.5753 52.8537 46.3228 52.9011C46.1095 52.9411 45.8907 52.9411 45.6774 52.9011C45.4249 52.8537 45.1996 52.7388 45.0908 52.6832C45.0796 52.6775 45.0696 52.6724 45.0609 52.6681L33.8117 47.0435C33.2354 46.7553 33.0018 46.0545 33.2899 45.4782ZM45.7698 50.6428C45.7696 50.6429 45.7696 50.6429 45.7698 50.6428ZM46.2303 50.6428C46.2306 50.6429 46.2306 50.6429 46.2304 50.6428ZM33.2899 51.3115C33.5781 50.7352 34.2789 50.5016 34.8552 50.7898L46.0001 56.3623L57.145 50.7898C57.7213 50.5016 58.4221 50.7352 58.7103 51.3115C58.9984 51.8878 58.7648 52.5886 58.1885 52.8768L46.9392 58.5014C46.9306 58.5057 46.9206 58.5108 46.9094 58.5166C46.8006 58.5721 46.5753 58.6871 46.3228 58.7344C46.1095 58.7744 45.8907 58.7744 45.6774 58.7344C45.4249 58.6871 45.1996 58.5721 45.0908 58.5166C45.0796 58.5108 45.0696 58.5057 45.0609 58.5014L33.8117 52.8768C33.2354 52.5886 33.0018 51.8878 33.2899 51.3115Z"
        fill="white" />
    <path
        d="M93.816 59.384C92.3227 59.384 90.936 59.1067 89.656 58.552C88.376 57.976 87.288 57.1973 86.392 56.216C85.496 55.2347 84.8347 54.104 84.408 52.824L87.608 51.48C88.184 52.952 89.0267 54.0827 90.136 54.872C91.2453 55.6613 92.5253 56.056 93.976 56.056C94.8293 56.056 95.576 55.928 96.216 55.672C96.856 55.3947 97.3467 55.0107 97.688 54.52C98.0507 54.0293 98.232 53.464 98.232 52.824C98.232 51.9493 97.9867 51.256 97.496 50.744C97.0053 50.232 96.28 49.8267 95.32 49.528L90.84 48.12C89.048 47.5653 87.6827 46.7227 86.744 45.592C85.8053 44.44 85.336 43.096 85.336 41.56C85.336 40.216 85.6667 39.0427 86.328 38.04C86.9893 37.016 87.896 36.216 89.048 35.64C90.2213 35.064 91.5547 34.776 93.048 34.776C94.4773 34.776 95.7787 35.032 96.952 35.544C98.1253 36.0347 99.128 36.7173 99.96 37.592C100.813 38.4667 101.432 39.48 101.816 40.632L98.68 42.008C98.2107 40.7493 97.4747 39.7787 96.472 39.096C95.4907 38.4133 94.3493 38.072 93.048 38.072C92.2587 38.072 91.5653 38.2107 90.968 38.488C90.3707 38.744 89.9013 39.128 89.56 39.64C89.24 40.1307 89.08 40.7067 89.08 41.368C89.08 42.136 89.3253 42.8187 89.816 43.416C90.3067 44.0133 91.0533 44.4613 92.056 44.76L96.216 46.072C98.1147 46.648 99.544 47.48 100.504 48.568C101.464 49.6347 101.944 50.968 101.944 52.568C101.944 53.8907 101.592 55.064 100.888 56.088C100.205 57.112 99.256 57.9227 98.04 58.52C96.824 59.096 95.416 59.384 93.816 59.384ZM112.359 59.192C110.545 59.192 109.137 58.68 108.135 57.656C107.132 56.632 106.631 55.192 106.631 53.336V44.952H103.591V41.688H104.071C104.881 41.688 105.511 41.4533 105.959 40.984C106.407 40.5147 106.631 39.8747 106.631 39.064V37.72H110.247V41.688H114.183V44.952H110.247V53.176C110.247 53.7733 110.343 54.2853 110.535 54.712C110.727 55.1173 111.036 55.4373 111.463 55.672C111.889 55.8853 112.444 55.992 113.127 55.992C113.297 55.992 113.489 55.9813 113.703 55.96C113.916 55.9387 114.119 55.9173 114.311 55.896V59C114.012 59.0427 113.681 59.0853 113.319 59.128C112.956 59.1707 112.636 59.192 112.359 59.192ZM121.907 59.384C120.734 59.384 119.699 59.1813 118.803 58.776C117.929 58.3493 117.246 57.7733 116.755 57.048C116.265 56.3013 116.019 55.4267 116.019 54.424C116.019 53.4853 116.222 52.6427 116.627 51.896C117.054 51.1493 117.705 50.52 118.579 50.008C119.454 49.496 120.553 49.1333 121.875 48.92L127.891 47.928V50.776L122.579 51.704C121.619 51.8747 120.915 52.184 120.467 52.632C120.019 53.0587 119.795 53.6133 119.795 54.296C119.795 54.9573 120.041 55.5013 120.531 55.928C121.043 56.3333 121.694 56.536 122.483 56.536C123.465 56.536 124.318 56.3227 125.043 55.896C125.79 55.4693 126.366 54.904 126.771 54.2C127.177 53.4747 127.379 52.6747 127.379 51.8V47.352C127.379 46.4987 127.059 45.8053 126.419 45.272C125.801 44.7173 124.969 44.44 123.923 44.44C122.963 44.44 122.121 44.696 121.395 45.208C120.691 45.6987 120.169 46.3387 119.827 47.128L116.819 45.624C117.139 44.7707 117.662 44.024 118.387 43.384C119.113 42.7227 119.955 42.2107 120.915 41.848C121.897 41.4853 122.931 41.304 124.019 41.304C125.385 41.304 126.59 41.56 127.635 42.072C128.702 42.584 129.523 43.2987 130.099 44.216C130.697 45.112 130.995 46.1573 130.995 47.352V59H127.539V55.864L128.275 55.96C127.87 56.664 127.347 57.272 126.707 57.784C126.089 58.296 125.374 58.6907 124.563 58.968C123.774 59.2453 122.889 59.384 121.907 59.384ZM142.487 59.384C140.759 59.384 139.223 58.9893 137.879 58.2C136.557 57.3893 135.501 56.3013 134.711 54.936C133.943 53.5707 133.559 52.024 133.559 50.296C133.559 48.5893 133.943 47.0533 134.711 45.688C135.479 44.3227 136.535 43.256 137.879 42.488C139.223 41.6987 140.759 41.304 142.487 41.304C143.661 41.304 144.759 41.5173 145.783 41.944C146.807 42.3493 147.693 42.9147 148.439 43.64C149.207 44.3653 149.773 45.208 150.135 46.168L146.967 47.64C146.605 46.744 146.018 46.0293 145.207 45.496C144.418 44.9413 143.511 44.664 142.487 44.664C141.506 44.664 140.621 44.9093 139.831 45.4C139.063 45.8693 138.455 46.5413 138.007 47.416C137.559 48.2693 137.335 49.24 137.335 50.328C137.335 51.416 137.559 52.3973 138.007 53.272C138.455 54.1253 139.063 54.7973 139.831 55.288C140.621 55.7787 141.506 56.024 142.487 56.024C143.533 56.024 144.439 55.7573 145.207 55.224C145.997 54.6693 146.583 53.9333 146.967 53.016L150.135 54.52C149.794 55.4373 149.239 56.2693 148.471 57.016C147.725 57.7413 146.839 58.3173 145.815 58.744C144.791 59.1707 143.682 59.384 142.487 59.384ZM152.71 59V34.776H156.326V51L154.918 50.648L163.59 41.688H168.102L161.574 48.632L168.39 59H164.23L158.15 49.816L160.294 49.528L155.174 54.968L156.326 52.568V59H152.71ZM176.306 59.384C174.535 59.384 172.978 58.9467 171.634 58.072C170.311 57.1973 169.383 56.024 168.85 54.552L171.634 53.24C172.103 54.2213 172.743 55 173.554 55.576C174.386 56.152 175.303 56.44 176.306 56.44C177.159 56.44 177.852 56.248 178.386 55.864C178.919 55.48 179.186 54.9573 179.186 54.296C179.186 53.8693 179.068 53.528 178.834 53.272C178.599 52.9947 178.3 52.7707 177.938 52.6C177.596 52.4293 177.244 52.3013 176.882 52.216L174.162 51.448C172.668 51.0213 171.548 50.3813 170.802 49.528C170.076 48.6533 169.714 47.64 169.714 46.488C169.714 45.4427 169.98 44.536 170.514 43.768C171.047 42.9787 171.783 42.3707 172.722 41.944C173.66 41.5173 174.716 41.304 175.89 41.304C177.468 41.304 178.876 41.6987 180.114 42.488C181.351 43.256 182.226 44.3333 182.738 45.72L179.954 47.032C179.612 46.2 179.068 45.5387 178.322 45.048C177.596 44.5573 176.775 44.312 175.858 44.312C175.068 44.312 174.439 44.504 173.97 44.888C173.5 45.2507 173.266 45.7307 173.266 46.328C173.266 46.7333 173.372 47.0747 173.586 47.352C173.799 47.608 174.076 47.8213 174.418 47.992C174.759 48.1413 175.111 48.2693 175.474 48.376L178.29 49.208C179.719 49.6133 180.818 50.2533 181.586 51.128C182.354 51.9813 182.738 53.0053 182.738 54.2C182.738 55.224 182.46 56.1307 181.906 56.92C181.372 57.688 180.626 58.296 179.666 58.744C178.706 59.1707 177.586 59.384 176.306 59.384Z"
        fill="#431D93" />
    <path
        d="M184.408 207.192C183.661 207.192 182.968 207.053 182.328 206.776C181.688 206.488 181.144 206.099 180.696 205.608C180.248 205.117 179.917 204.552 179.704 203.912L181.304 203.24C181.592 203.976 182.013 204.541 182.568 204.936C183.123 205.331 183.763 205.528 184.488 205.528C184.915 205.528 185.288 205.464 185.608 205.336C185.928 205.197 186.173 205.005 186.344 204.76C186.525 204.515 186.616 204.232 186.616 203.912C186.616 203.475 186.493 203.128 186.248 202.872C186.003 202.616 185.64 202.413 185.16 202.264L182.92 201.56C182.024 201.283 181.341 200.861 180.872 200.296C180.403 199.72 180.168 199.048 180.168 198.28C180.168 197.608 180.333 197.021 180.664 196.52C180.995 196.008 181.448 195.608 182.024 195.32C182.611 195.032 183.277 194.888 184.024 194.888C184.739 194.888 185.389 195.016 185.976 195.272C186.563 195.517 187.064 195.859 187.48 196.296C187.907 196.733 188.216 197.24 188.408 197.816L186.84 198.504C186.605 197.875 186.237 197.389 185.736 197.048C185.245 196.707 184.675 196.536 184.024 196.536C183.629 196.536 183.283 196.605 182.984 196.744C182.685 196.872 182.451 197.064 182.28 197.32C182.12 197.565 182.04 197.853 182.04 198.184C182.04 198.568 182.163 198.909 182.408 199.208C182.653 199.507 183.027 199.731 183.528 199.88L185.608 200.536C186.557 200.824 187.272 201.24 187.752 201.784C188.232 202.317 188.472 202.984 188.472 203.784C188.472 204.445 188.296 205.032 187.944 205.544C187.603 206.056 187.128 206.461 186.52 206.76C185.912 207.048 185.208 207.192 184.408 207.192ZM193.999 207.096C193.093 207.096 192.389 206.84 191.887 206.328C191.386 205.816 191.135 205.096 191.135 204.168V199.976H189.615V198.344H189.855C190.261 198.344 190.575 198.227 190.799 197.992C191.023 197.757 191.135 197.437 191.135 197.032V196.36H192.943V198.344H194.911V199.976H192.943V204.088C192.943 204.387 192.991 204.643 193.087 204.856C193.183 205.059 193.338 205.219 193.551 205.336C193.765 205.443 194.042 205.496 194.383 205.496C194.469 205.496 194.565 205.491 194.671 205.48C194.778 205.469 194.879 205.459 194.975 205.448V207C194.826 207.021 194.661 207.043 194.479 207.064C194.298 207.085 194.138 207.096 193.999 207.096ZM199.094 207.192C198.507 207.192 197.99 207.091 197.542 206.888C197.104 206.675 196.763 206.387 196.518 206.024C196.272 205.651 196.15 205.213 196.15 204.712C196.15 204.243 196.251 203.821 196.454 203.448C196.667 203.075 196.992 202.76 197.43 202.504C197.867 202.248 198.416 202.067 199.078 201.96L202.086 201.464V202.888L199.43 203.352C198.95 203.437 198.598 203.592 198.374 203.816C198.15 204.029 198.038 204.307 198.038 204.648C198.038 204.979 198.16 205.251 198.406 205.464C198.662 205.667 198.987 205.768 199.382 205.768C199.872 205.768 200.299 205.661 200.662 205.448C201.035 205.235 201.323 204.952 201.526 204.6C201.728 204.237 201.83 203.837 201.83 203.4V201.176C201.83 200.749 201.67 200.403 201.35 200.136C201.04 199.859 200.624 199.72 200.102 199.72C199.622 199.72 199.2 199.848 198.838 200.104C198.486 200.349 198.224 200.669 198.054 201.064L196.55 200.312C196.71 199.885 196.971 199.512 197.334 199.192C197.696 198.861 198.118 198.605 198.598 198.424C199.088 198.243 199.606 198.152 200.15 198.152C200.832 198.152 201.435 198.28 201.958 198.536C202.491 198.792 202.902 199.149 203.19 199.608C203.488 200.056 203.638 200.579 203.638 201.176V207H201.91V205.432L202.278 205.48C202.075 205.832 201.814 206.136 201.494 206.392C201.184 206.648 200.827 206.845 200.422 206.984C200.027 207.123 199.584 207.192 199.094 207.192ZM205.592 207V198.344H207.32V200.088L207.16 199.832C207.352 199.267 207.661 198.861 208.088 198.616C208.514 198.36 209.026 198.232 209.624 198.232H210.152V199.88H209.4C208.802 199.88 208.317 200.067 207.944 200.44C207.581 200.803 207.4 201.325 207.4 202.008V207H205.592ZM215.129 207.096C214.222 207.096 213.518 206.84 213.017 206.328C212.515 205.816 212.265 205.096 212.265 204.168V199.976H210.745V198.344H210.985C211.39 198.344 211.705 198.227 211.929 197.992C212.153 197.757 212.265 197.437 212.265 197.032V196.36H214.073V198.344H216.041V199.976H214.073V204.088C214.073 204.387 214.121 204.643 214.217 204.856C214.313 205.059 214.467 205.219 214.681 205.336C214.894 205.443 215.171 205.496 215.513 205.496C215.598 205.496 215.694 205.491 215.801 205.48C215.907 205.469 216.009 205.459 216.105 205.448V207C215.955 207.021 215.79 207.043 215.609 207.064C215.427 207.085 215.267 207.096 215.129 207.096ZM221.617 207.192C220.753 207.192 219.985 206.995 219.313 206.6C218.652 206.195 218.134 205.651 217.761 204.968C217.388 204.275 217.201 203.501 217.201 202.648C217.201 201.773 217.388 201 217.761 200.328C218.145 199.656 218.657 199.128 219.297 198.744C219.937 198.349 220.662 198.152 221.473 198.152C222.124 198.152 222.705 198.264 223.217 198.488C223.729 198.712 224.161 199.021 224.513 199.416C224.865 199.8 225.132 200.243 225.313 200.744C225.505 201.245 225.601 201.779 225.601 202.344C225.601 202.483 225.596 202.627 225.585 202.776C225.574 202.925 225.553 203.064 225.521 203.192H218.625V201.752H224.497L223.633 202.408C223.74 201.885 223.702 201.421 223.521 201.016C223.35 200.6 223.084 200.275 222.721 200.04C222.369 199.795 221.953 199.672 221.473 199.672C220.993 199.672 220.566 199.795 220.193 200.04C219.82 200.275 219.532 200.616 219.329 201.064C219.126 201.501 219.046 202.035 219.089 202.664C219.036 203.251 219.116 203.763 219.329 204.2C219.553 204.637 219.862 204.979 220.257 205.224C220.662 205.469 221.121 205.592 221.633 205.592C222.156 205.592 222.598 205.475 222.961 205.24C223.334 205.005 223.628 204.701 223.841 204.328L225.313 205.048C225.142 205.453 224.876 205.821 224.513 206.152C224.161 206.472 223.734 206.728 223.233 206.92C222.742 207.101 222.204 207.192 221.617 207.192ZM227.205 207V198.344H228.933V200.088L228.773 199.832C228.965 199.267 229.275 198.861 229.701 198.616C230.128 198.36 230.64 198.232 231.237 198.232H231.765V199.88H231.013C230.416 199.88 229.931 200.067 229.557 200.44C229.195 200.803 229.013 201.325 229.013 202.008V207H227.205ZM241.239 207.192C240.396 207.192 239.612 207.037 238.887 206.728C238.172 206.419 237.543 205.992 236.999 205.448C236.466 204.893 236.05 204.243 235.751 203.496C235.452 202.749 235.303 201.928 235.303 201.032C235.303 200.147 235.447 199.331 235.735 198.584C236.034 197.827 236.45 197.176 236.983 196.632C237.516 196.077 238.14 195.651 238.855 195.352C239.57 195.043 240.354 194.888 241.207 194.888C242.05 194.888 242.802 195.032 243.463 195.32C244.135 195.608 244.7 195.987 245.159 196.456C245.618 196.915 245.948 197.416 246.151 197.96L244.471 198.776C244.226 198.125 243.82 197.603 243.255 197.208C242.69 196.803 242.007 196.6 241.207 196.6C240.418 196.6 239.719 196.787 239.111 197.16C238.503 197.533 238.028 198.051 237.687 198.712C237.356 199.373 237.191 200.147 237.191 201.032C237.191 201.917 237.362 202.696 237.703 203.368C238.055 204.029 238.535 204.547 239.143 204.92C239.751 205.283 240.45 205.464 241.239 205.464C241.9 205.464 242.503 205.331 243.047 205.064C243.602 204.787 244.044 204.403 244.375 203.912C244.706 203.411 244.871 202.829 244.871 202.168V201.352L245.719 202.12H241.207V200.52H246.743V201.64C246.743 202.515 246.594 203.299 246.295 203.992C245.996 204.675 245.591 205.256 245.079 205.736C244.567 206.216 243.98 206.579 243.319 206.824C242.658 207.069 241.964 207.192 241.239 207.192ZM251.423 207.192C250.772 207.192 250.201 207.048 249.711 206.76C249.22 206.461 248.836 206.051 248.559 205.528C248.292 204.995 248.159 204.381 248.159 203.688V198.344H249.967V203.528C249.967 203.923 250.047 204.269 250.207 204.568C250.367 204.867 250.591 205.101 250.879 205.272C251.167 205.432 251.497 205.512 251.871 205.512C252.255 205.512 252.591 205.427 252.879 205.256C253.167 205.085 253.391 204.845 253.551 204.536C253.721 204.227 253.807 203.864 253.807 203.448V198.344H255.599V207H253.887V205.304L254.079 205.528C253.876 206.061 253.54 206.472 253.071 206.76C252.601 207.048 252.052 207.192 251.423 207.192ZM257.55 207V198.344H259.358V207H257.55ZM257.55 197.16V195.08H259.358V197.16H257.55ZM265.312 207.192C264.48 207.192 263.733 206.995 263.072 206.6C262.421 206.195 261.904 205.651 261.52 204.968C261.146 204.285 260.96 203.517 260.96 202.664C260.96 201.811 261.152 201.043 261.536 200.36C261.92 199.677 262.437 199.139 263.088 198.744C263.738 198.349 264.474 198.152 265.296 198.152C265.989 198.152 266.602 198.291 267.136 198.568C267.669 198.845 268.09 199.229 268.4 199.72L268.128 200.136V194.888H269.92V207H268.208V205.24L268.416 205.576C268.117 206.099 267.69 206.499 267.136 206.776C266.581 207.053 265.973 207.192 265.312 207.192ZM265.488 205.512C265.989 205.512 266.437 205.389 266.832 205.144C267.237 204.899 267.552 204.563 267.776 204.136C268.01 203.699 268.128 203.208 268.128 202.664C268.128 202.12 268.01 201.635 267.776 201.208C267.552 200.781 267.237 200.445 266.832 200.2C266.437 199.955 265.989 199.832 265.488 199.832C264.986 199.832 264.533 199.955 264.128 200.2C263.722 200.445 263.408 200.781 263.184 201.208C262.96 201.635 262.848 202.12 262.848 202.664C262.848 203.208 262.96 203.699 263.184 204.136C263.408 204.563 263.717 204.899 264.112 205.144C264.517 205.389 264.976 205.512 265.488 205.512ZM275.934 207.192C275.07 207.192 274.302 206.995 273.63 206.6C272.969 206.195 272.452 205.651 272.078 204.968C271.705 204.275 271.518 203.501 271.518 202.648C271.518 201.773 271.705 201 272.078 200.328C272.462 199.656 272.974 199.128 273.614 198.744C274.254 198.349 274.98 198.152 275.79 198.152C276.441 198.152 277.022 198.264 277.534 198.488C278.046 198.712 278.478 199.021 278.83 199.416C279.182 199.8 279.449 200.243 279.63 200.744C279.822 201.245 279.918 201.779 279.918 202.344C279.918 202.483 279.913 202.627 279.902 202.776C279.892 202.925 279.87 203.064 279.838 203.192H272.942V201.752H278.814L277.95 202.408C278.057 201.885 278.02 201.421 277.838 201.016C277.668 200.6 277.401 200.275 277.038 200.04C276.686 199.795 276.27 199.672 275.79 199.672C275.31 199.672 274.884 199.795 274.51 200.04C274.137 200.275 273.849 200.616 273.646 201.064C273.444 201.501 273.364 202.035 273.406 202.664C273.353 203.251 273.433 203.763 273.646 204.2C273.87 204.637 274.18 204.979 274.574 205.224C274.98 205.469 275.438 205.592 275.95 205.592C276.473 205.592 276.916 205.475 277.278 205.24C277.652 205.005 277.945 204.701 278.158 204.328L279.63 205.048C279.46 205.453 279.193 205.821 278.83 206.152C278.478 206.472 278.052 206.728 277.55 206.92C277.06 207.101 276.521 207.192 275.934 207.192Z"
        fill="#7A3EF4" />
    <path
        d="M175 150C191.569 150 205 136.569 205 120C205 103.431 191.569 90 175 90C158.431 90 145 103.431 145 120C145 136.569 158.431 150 175 150Z"
        fill="#431D93" />
    <path d="M167.047 132.996V109.203L186.703 121.099L167.047 132.996Z" fill="white" />
    <path
        d="M325.834 205.218C326.558 203.009 326.814 200.674 326.585 198.361C326.357 196.049 325.648 193.809 324.506 191.785L313.039 191.495V191.351L324.076 191.072C322.743 188.974 320.96 187.198 318.856 185.874L310 185.652V185.509L317.871 185.31C314.646 183.581 310.941 182.962 307.329 183.549C303.717 184.136 300.398 185.895 297.886 188.556L307.791 188.807V188.95L297.294 189.213C294.732 192.223 293.328 196.048 293.333 200C293.333 200.179 293.333 200.353 293.342 200.528C293.342 200.54 293.342 200.552 293.342 200.563L297.299 200.664V200.807L293.355 200.907C293.356 200.919 293.356 200.931 293.355 200.942C293.499 203.543 294.255 206.073 295.559 208.328L302.153 208.495V208.638L295.842 208.798C297.39 211.284 299.563 213.319 302.144 214.702C302.35 214.814 302.558 214.919 302.769 215.021V201.176H304.367C304.429 201.176 304.49 201.188 304.547 201.212C304.604 201.235 304.655 201.27 304.699 201.313C304.742 201.357 304.777 201.409 304.8 201.465C304.824 201.522 304.836 201.583 304.836 201.645V215.851C308.193 216.939 311.807 216.939 315.164 215.851V201.645C315.164 201.583 315.176 201.522 315.199 201.465C315.223 201.409 315.257 201.357 315.301 201.313C315.344 201.27 315.396 201.235 315.453 201.212C315.51 201.188 315.571 201.176 315.632 201.176H317.23V215.023C317.438 214.922 317.645 214.817 317.848 214.708C319.478 213.837 320.952 212.702 322.209 211.347L318.069 211.242V211.099L322.536 210.986C323.906 209.425 324.972 207.622 325.678 205.669L319.718 205.517V205.374L325.834 205.218ZM319.542 200.737H300.458L300.113 199.359H302.769V197.882H303.311C303.505 197.882 303.697 197.92 303.875 197.995C304.054 198.069 304.217 198.177 304.354 198.314C304.491 198.451 304.599 198.614 304.673 198.793C304.747 198.972 304.785 199.164 304.785 199.357H308.967V197.39H298.836C298.638 195.816 297.704 194.587 297.704 194.587C300.458 195.225 310 195.275 310 195.275C310 195.275 319.541 195.225 322.294 194.587C322.294 194.587 321.362 195.816 321.164 197.39H311.033V199.358H315.215C315.215 199.164 315.253 198.972 315.328 198.793C315.402 198.614 315.511 198.452 315.648 198.315C315.785 198.178 315.947 198.069 316.126 197.995C316.305 197.921 316.497 197.883 316.691 197.883H317.232V199.358H319.889L319.542 200.737Z"
        fill="#431D93" />
</svg>
