<svg viewBox="0 0 24 24" fill="none" xmlns="http://www.w3.org/2000/svg">
    <path
        d="M8.72249 2.00023H14.6895L8.49515 20.3535C8.43149 20.5421 8.31028 20.706 8.1486 20.8221C7.98691 20.9382 7.79289 21.0006 7.59384 21.0007H2.95001C2.79919 21.0007 2.65054 20.9648 2.51635 20.896C2.38217 20.8271 2.2663 20.7273 2.17833 20.6048C2.09036 20.4823 2.03283 20.3406 2.01048 20.1915C1.98814 20.0424 2.00163 19.89 2.04984 19.7471L7.82094 2.6474C7.88458 2.45872 8.00581 2.29477 8.16754 2.17863C8.32928 2.06249 8.52337 2.00024 8.72249 2.00023Z"
        fill="url(#paint0_linear_326_3226)" />
    <path
        d="M17.3935 14.3104H7.93122C7.84325 14.3103 7.75729 14.3367 7.68454 14.3862C7.61178 14.4356 7.55561 14.5059 7.52334 14.5877C7.49106 14.6695 7.48418 14.7592 7.50359 14.845C7.523 14.9308 7.5678 15.0088 7.63216 15.0687L13.7124 20.7438C13.8894 20.909 14.1225 21.0008 14.3646 21.0007H19.7225L17.3935 14.3104Z"
        fill="#0078D4" />
    <path
        d="M8.72249 2.00025C8.5212 1.99948 8.32494 2.06309 8.16237 2.18179C7.99981 2.30049 7.87945 2.46806 7.81889 2.66002L2.05695 19.7316C2.0055 19.875 1.98935 20.0287 2.00986 20.1797C2.03037 20.3306 2.08694 20.4745 2.1748 20.599C2.26265 20.7235 2.37919 20.825 2.51456 20.8949C2.64994 20.9648 2.80017 21.0011 2.95253 21.0007H7.71622C7.89364 20.969 8.05947 20.8908 8.19676 20.774C8.33406 20.6572 8.4379 20.5061 8.49768 20.3361L9.64672 16.9497L13.7511 20.7779C13.9231 20.9202 14.1389 20.9989 14.3621 21.0007H19.7L17.3589 14.3104L10.5341 14.312L14.7111 2.00025H8.72249Z"
        fill="url(#paint1_linear_326_3226)" />
    <path
        d="M16.3439 2.64649C16.2804 2.45813 16.1593 2.29444 15.9978 2.17851C15.8364 2.06257 15.6426 2.00022 15.4438 2.00024H8.79358C8.99237 2.00026 9.18615 2.06262 9.34763 2.17855C9.50911 2.29448 9.63017 2.45815 9.69375 2.64649L15.4651 19.7469C15.5133 19.8898 15.5268 20.0422 15.5045 20.1914C15.4822 20.3406 15.4247 20.4823 15.3367 20.6048C15.2487 20.7274 15.1329 20.8272 14.9987 20.8961C14.8644 20.965 14.7158 21.0009 14.5649 21.0009H21.2153C21.3662 21.0009 21.5148 20.9649 21.649 20.896C21.7832 20.8271 21.899 20.7273 21.987 20.6048C22.0749 20.4822 22.1324 20.3405 22.1547 20.1913C22.177 20.0422 22.1635 19.8898 22.1153 19.7469L16.3439 2.64649Z"
        fill="url(#paint2_linear_326_3226)" />
    <defs>
        <linearGradient id="paint0_linear_326_3226" x1="10.8973" y1="3.40823" x2="4.70038" y2="21.7154"
            gradientUnits="userSpaceOnUse">
            <stop stop-color="#114A8B" />
            <stop offset="1" stop-color="#0669BC" />
        </linearGradient>
        <linearGradient id="paint1_linear_326_3226" x1="12.8331" y1="11.9399" x2="11.3996" y2="12.4246"
            gradientUnits="userSpaceOnUse">
            <stop stop-opacity="0.3" />
            <stop offset="0.071" stop-opacity="0.2" />
            <stop offset="0.321" stop-opacity="0.1" />
            <stop offset="0.623" stop-opacity="0.05" />
            <stop offset="1" stop-opacity="0" />
        </linearGradient>
        <linearGradient id="paint2_linear_326_3226" x1="12.0448" y1="2.87429" x2="18.8471" y2="20.997"
            gradientUnits="userSpaceOnUse">
            <stop stop-color="#3CCBF4" />
            <stop offset="1" stop-color="#2892DF" />
        </linearGradient>
    </defs>
</svg>
