<svg viewBox="0 0 24 24" fill="none" xmlns="http://www.w3.org/2000/svg">
    <path
        d="M21.6613 9.95778C21.6071 9.9147 21.1007 9.53236 20.0329 9.53236C19.7509 9.53359 19.4695 9.55777 19.1914 9.60469C18.9848 8.18806 17.8136 7.49738 17.761 7.46639L17.4743 7.30103L17.2857 7.57317C17.0495 7.93875 16.8771 8.34175 16.7759 8.76504C16.5847 9.5737 16.7009 10.3332 17.1117 10.9826C16.6157 11.259 15.82 11.3271 15.6589 11.3331H2.48463C2.14053 11.3335 1.8613 11.6116 1.85942 11.9557C1.84406 13.1098 2.03959 14.2571 2.43641 15.341C2.89024 16.5311 3.56541 17.4078 4.44382 17.9443C5.42815 18.5472 7.02735 18.8916 8.84013 18.8916C9.65906 18.8942 10.4765 18.8201 11.2816 18.6703C12.4008 18.4648 13.4778 18.0736 14.4679 17.5129C15.2838 17.0404 16.0181 16.4393 16.6424 15.7328C17.6862 14.5513 18.308 13.2354 18.7704 12.0659C18.8324 12.0659 18.8944 12.0659 18.9547 12.0659C20.0975 12.0659 20.8002 11.6086 21.1877 11.2254C21.4453 10.981 21.6463 10.6833 21.7768 10.3531L21.8586 10.1137L21.6613 9.95778Z"
        fill="#0091E2" />
    <path
        d="M3.70578 10.9474H5.47119C5.55634 10.9474 5.62533 10.8783 5.62533 10.7932V9.22068C5.62581 9.13554 5.55717 9.06615 5.47206 9.06567C5.47178 9.06567 5.47147 9.06567 5.47119 9.06567H3.70578C3.62063 9.06567 3.55164 9.1347 3.55164 9.21981C3.55164 9.22009 3.55164 9.2204 3.55164 9.22068V10.7932C3.55164 10.8783 3.62063 10.9474 3.70578 10.9474Z"
        fill="#0091E2" />
    <path
        d="M6.13862 10.9474H7.90403C7.98918 10.9474 8.05817 10.8783 8.05817 10.7932V9.22068C8.05865 9.13554 7.99002 9.06615 7.90487 9.06567C7.90459 9.06567 7.90428 9.06567 7.904 9.06567H6.13859C6.05297 9.06567 5.98358 9.13506 5.98358 9.22068V10.7932C5.98409 10.8785 6.05333 10.9474 6.13862 10.9474Z"
        fill="#0091E2" />
    <path
        d="M8.60845 10.9474H10.3739C10.459 10.9474 10.528 10.8783 10.528 10.7932V9.22068C10.5285 9.13554 10.4599 9.06615 10.3747 9.06567C10.3744 9.06567 10.3741 9.06567 10.3738 9.06567H8.60843C8.52328 9.06567 8.45428 9.1347 8.45428 9.21981C8.45428 9.22009 8.45428 9.2204 8.45428 9.22068V10.7932C8.45431 10.8783 8.52334 10.9474 8.60845 10.9474Z"
        fill="#0091E2" />
    <path
        d="M11.049 10.9474H12.8145C12.8997 10.9474 12.969 10.8785 12.9695 10.7932V9.22068C12.9695 9.13506 12.9001 9.06567 12.8145 9.06567H11.049C10.9639 9.06567 10.8949 9.1347 10.8949 9.21981C10.8949 9.22009 10.8949 9.2204 10.8949 9.22068V10.7932C10.8949 10.8783 10.9639 10.9474 11.049 10.9474Z"
        fill="#0091E2" />
    <path
        d="M6.13859 8.685H7.904C7.98926 8.68452 8.05814 8.61525 8.05814 8.52999V6.95749C8.05814 6.87234 7.98912 6.80334 7.904 6.80334H6.13859C6.05333 6.80334 5.98406 6.8722 5.98358 6.95749V8.52999C5.98406 8.61542 6.05316 8.68452 6.13859 8.685Z"
        fill="#0091E2" />
    <path
        d="M8.60849 8.685H10.3739C10.4592 8.68452 10.528 8.61525 10.528 8.52999V6.95749C10.528 6.87234 10.459 6.80334 10.3739 6.80334H8.60849C8.52334 6.80334 8.45435 6.87237 8.45435 6.95749V8.52999C8.45435 8.61525 8.52323 8.68452 8.60849 8.685Z"
        fill="#0091E2" />
    <path
        d="M11.049 8.685H12.8145C12.8999 8.68452 12.969 8.61542 12.9695 8.52999V6.95749C12.969 6.8722 12.8997 6.80334 12.8145 6.80334H11.049C10.9639 6.80334 10.8949 6.87237 10.8949 6.95749V8.52999C10.8949 8.61525 10.9638 8.68452 11.049 8.685Z"
        fill="#0091E2" />
    <path
        d="M11.049 6.42184H12.8145C12.8997 6.42184 12.969 6.35296 12.9695 6.2677V4.6943C12.969 4.60902 12.8997 4.54016 12.8145 4.54016H11.049C10.9639 4.54016 10.8949 4.60916 10.8949 4.6943V6.26768C10.8949 6.35282 10.9639 6.42184 11.049 6.42184Z"
        fill="#0091E2" />
    <path
        d="M13.5111 10.9474H15.2765C15.3618 10.9474 15.4311 10.8785 15.4316 10.7932V9.22068C15.4316 9.13506 15.3622 9.06567 15.2765 9.06567H13.5111C13.426 9.06567 13.357 9.1347 13.357 9.21981C13.357 9.22009 13.357 9.2204 13.357 9.22068V10.7932C13.357 10.8783 13.426 10.9474 13.5111 10.9474Z"
        fill="#0091E2" />
</svg>
