<svg viewBox="0 0 24 24" fill="none" xmlns="http://www.w3.org/2000/svg">
    <path
        d="M14.96 7.87666H15.631L17.5433 5.96383L17.6373 5.15171C16.5417 4.18453 15.2178 3.51266 13.7905 3.19958C12.3632 2.88649 10.8797 2.94252 9.48005 3.36238C8.08042 3.78224 6.81091 4.55206 5.79143 5.59912C4.77195 6.64619 4.03616 7.93593 3.65356 9.34652C3.86661 9.25917 4.10261 9.24501 4.32457 9.30624L8.14928 8.67535C8.14928 8.67535 8.34387 8.35319 8.44452 8.37332C9.26404 7.47306 10.3966 6.92017 11.6103 6.82784C12.8241 6.73551 14.0272 7.11072 14.9734 7.87666H14.96Z"
        fill="#EA4335" />
    <path
        d="M20.2675 9.34654C19.828 7.72743 18.9255 6.27188 17.6708 5.15845L14.9868 7.84312C15.5461 8.3003 15.9944 8.87856 16.2978 9.53429C16.6012 10.19 16.7517 10.9061 16.7381 11.6285V12.105C17.0518 12.105 17.3624 12.1668 17.6522 12.2869C17.942 12.407 18.2054 12.583 18.4272 12.8049C18.649 13.0267 18.825 13.2901 18.945 13.58C19.0651 13.8699 19.1268 14.1806 19.1268 14.4944C19.1268 14.8082 19.0651 15.1189 18.945 15.4088C18.825 15.6987 18.649 15.9621 18.4272 16.1839C18.2054 16.4058 17.942 16.5818 17.6522 16.7019C17.3624 16.822 17.0518 16.8838 16.7381 16.8838H11.9605L11.4841 17.367V20.2329L11.9605 20.7094H16.7381C18.0722 20.7198 19.3742 20.3004 20.4515 19.5132C21.5289 18.7261 22.3243 17.613 22.7201 16.3386C23.116 15.0642 23.0912 13.6962 22.6495 12.437C22.2078 11.1778 21.3727 10.0942 20.2675 9.34654Z"
        fill="#4285F4" />
    <path
        d="M7.17626 20.6825H11.9538V16.8569H7.17626C6.83588 16.8568 6.49949 16.7835 6.18988 16.6421L5.51888 16.8502L3.5931 18.763L3.42535 19.4341C4.50529 20.2498 5.82303 20.6884 7.17626 20.6825Z"
        fill="#34A853" />
    <path
        d="M7.1763 8.27262C5.88182 8.28036 4.62207 8.6923 3.57302 9.45093C2.52396 10.2096 1.73798 11.277 1.32485 12.5041C0.911727 13.7312 0.892087 15.0567 1.26868 16.2956C1.64527 17.5344 2.39928 18.6246 3.4254 19.414L6.19664 16.6421C5.84447 16.4829 5.53617 16.2407 5.29817 15.9362C5.06017 15.6316 4.89959 15.2739 4.83021 14.8937C4.76082 14.5134 4.78471 14.122 4.89981 13.753C5.01491 13.384 5.21779 13.0484 5.49104 12.7751C5.7643 12.5018 6.09977 12.2989 6.46867 12.1837C6.83757 12.0686 7.22889 12.0447 7.60905 12.1141C7.98921 12.1835 8.34687 12.3441 8.65132 12.5822C8.95578 12.8203 9.19795 13.1286 9.35706 13.4809L12.1283 10.709C11.5466 9.94837 10.797 9.33267 9.9379 8.91001C9.07883 8.48736 8.13366 8.26921 7.1763 8.27262Z"
        fill="#FBBC05" />
</svg>
