<svg viewBox="0 0 25 25" fill="none" xmlns="http://www.w3.org/2000/svg">
    <path
        d="M2.82253 22.4201L12.3982 12.6043C12.4582 12.5428 12.4697 12.4478 12.4196 12.3779C11.8371 11.5648 10.7629 11.4239 10.3647 10.8777C9.18504 9.25951 8.88573 8.34364 8.37885 8.40044C8.34344 8.40442 8.31187 8.42347 8.28699 8.44897L4.82777 11.9949C2.83774 14.0348 2.55236 18.5262 2.50002 22.2871C2.49766 22.457 2.70384 22.5417 2.82253 22.4201Z"
        fill="#017CEE" />
    <path
        d="M22.4202 22.1774L12.6044 12.6017C12.543 12.5418 12.4479 12.5302 12.3781 12.5803C11.565 13.1628 11.424 14.237 10.8778 14.6353C9.25964 15.8148 8.34376 16.1142 8.40057 16.6211C8.40454 16.6565 8.42359 16.6881 8.4491 16.7129L11.9951 20.1721C14.035 22.1622 18.5264 22.4475 22.2872 22.4998C22.4571 22.5023 22.5418 22.2961 22.4202 22.1774Z"
        fill="#00AD46" />
    <path fill-rule="evenodd" clip-rule="evenodd"
        d="M11.9954 20.1722C10.8811 19.0852 10.3641 16.9347 12.5003 12.5C9.02851 14.0515 7.81187 16.0911 8.41038 16.675L11.9954 20.1722Z"
        fill="#04D659" />
    <path
        d="M22.1775 2.57985L12.6019 12.3956C12.5419 12.4571 12.5304 12.5521 12.5804 12.622C13.1629 13.4351 14.2372 13.576 14.6353 14.1223C15.815 15.7404 16.1143 16.6562 16.6211 16.5995C16.6565 16.5955 16.6881 16.5764 16.713 16.5509L20.1722 13.005C22.1623 10.965 22.4477 6.4737 22.5 2.71283C22.5023 2.54288 22.2962 2.45819 22.1775 2.57985Z"
        fill="#00C7D4" />
    <path fill-rule="evenodd" clip-rule="evenodd"
        d="M20.1726 13.005C19.0855 14.1192 16.935 14.6363 12.5002 12.5C14.0518 15.9718 16.0913 17.1885 16.6752 16.5899L20.1726 13.005Z"
        fill="#11E1EE" />
    <path
        d="M2.57973 2.82253L12.3955 12.3982C12.457 12.4581 12.552 12.4697 12.6219 12.4196C13.4349 11.8371 13.5759 10.7629 14.1221 10.3647C15.7403 9.18504 16.6562 8.88574 16.5993 8.37885C16.5954 8.34344 16.5763 8.31187 16.5509 8.28699L13.0049 4.82777C10.9649 2.83774 6.47358 2.55236 2.71271 2.50002C2.54276 2.49765 2.45807 2.70384 2.57973 2.82253Z"
        fill="#E43921" />
    <path fill-rule="evenodd" clip-rule="evenodd"
        d="M13.0052 4.82764C14.1195 5.91469 14.6365 8.06516 12.5002 12.4999C15.972 10.9484 17.1888 8.90882 16.5902 8.32495L13.0052 4.82764Z"
        fill="#FF7557" />
    <path fill-rule="evenodd" clip-rule="evenodd"
        d="M4.828 11.9953C5.91505 10.881 8.06553 10.364 12.5003 12.5002C10.9487 9.02839 8.90919 7.81175 8.32532 8.41025L4.828 11.9953Z"
        fill="#0CB6FF" />
    <path
        d="M12.507 12.9272C12.7434 12.9242 12.9328 12.7302 12.9298 12.4937C12.9269 12.2573 12.7328 12.0679 12.4964 12.0709C12.2599 12.0738 12.0706 12.2679 12.0735 12.5043C12.0765 12.7408 12.2705 12.9301 12.507 12.9272Z"
        fill="#4A4848" />
</svg>
