<svg viewBox="0 0 24 24" fill="none" xmlns="http://www.w3.org/2000/svg">
    <path
        d="M7.25265 9.80525C7.25265 10.073 7.2816 10.2901 7.33226 10.4493C7.39015 10.6085 7.46252 10.7822 7.56383 10.9704C7.60002 11.0283 7.61449 11.0862 7.61449 11.1368C7.61449 11.2092 7.57107 11.2816 7.47699 11.3539L7.02107 11.6579C6.95594 11.7013 6.89081 11.723 6.83291 11.723C6.76054 11.723 6.68818 11.6868 6.61581 11.6217C6.51449 11.5131 6.42765 11.3974 6.35528 11.2816C6.28291 11.1585 6.21054 11.021 6.13094 10.8546C5.56647 11.5204 4.85726 11.8533 4.00331 11.8533C3.39541 11.8533 2.91054 11.6796 2.55594 11.3322C2.20133 10.9849 2.02041 10.5217 2.02041 9.94275C2.02041 9.32762 2.23752 8.82827 2.67897 8.45196C3.12041 8.07564 3.7066 7.88748 4.45199 7.88748C4.69804 7.88748 4.95133 7.9092 5.2191 7.94538C5.48686 7.98156 5.76186 8.03946 6.05133 8.10459V7.5763C6.05133 7.0263 5.93554 6.64275 5.7112 6.41841C5.47962 6.19406 5.08883 6.08551 4.5316 6.08551C4.27831 6.08551 4.01778 6.11446 3.75002 6.17959C3.48226 6.24472 3.22173 6.32433 2.96844 6.42564C2.85265 6.4763 2.76581 6.50525 2.71515 6.51972C2.66449 6.5342 2.62831 6.54143 2.59936 6.54143C2.49804 6.54143 2.44739 6.46906 2.44739 6.31709V5.96248C2.44739 5.8467 2.46186 5.75985 2.49804 5.7092C2.53423 5.65854 2.59936 5.60788 2.70068 5.55722C2.95397 5.42696 3.25791 5.31841 3.61252 5.23156C3.96712 5.13748 4.34344 5.09406 4.74147 5.09406C5.60265 5.09406 6.23226 5.28946 6.63752 5.68025C7.03554 6.07104 7.23818 6.66446 7.23818 7.46051V9.80525H7.25265ZM4.31449 10.9052C4.55331 10.9052 4.79936 10.8618 5.05989 10.775C5.32041 10.6881 5.55199 10.5289 5.74739 10.3118C5.86318 10.1743 5.95002 10.0224 5.99344 9.84867C6.03686 9.67498 6.06581 9.46512 6.06581 9.21906V8.91512C5.85594 8.86446 5.6316 8.82104 5.40002 8.79209C5.16844 8.76314 4.9441 8.74867 4.71976 8.74867C4.23489 8.74867 3.88028 8.84275 3.64147 9.03814C3.40265 9.23354 3.28686 9.50854 3.28686 9.87038C3.28686 10.2105 3.3737 10.4638 3.55462 10.6375C3.72831 10.8184 3.9816 10.9052 4.31449 10.9052ZM10.1257 11.6868C9.99541 11.6868 9.90857 11.6651 9.85068 11.6145C9.79278 11.571 9.74212 11.4697 9.6987 11.3322L7.99804 5.73814C7.95462 5.59341 7.93291 5.49933 7.93291 5.44867C7.93291 5.33288 7.99081 5.26775 8.1066 5.26775H8.81581C8.95331 5.26775 9.04739 5.28946 9.09804 5.34012C9.15594 5.38354 9.19936 5.48485 9.24278 5.62235L10.4586 10.4131L11.5875 5.62235C11.6237 5.47762 11.6671 5.38354 11.725 5.34012C11.7829 5.2967 11.8842 5.26775 12.0145 5.26775H12.5934C12.7309 5.26775 12.825 5.28946 12.8829 5.34012C12.9408 5.38354 12.9915 5.48485 13.0204 5.62235L14.1638 10.471L15.4158 5.62235C15.4592 5.47762 15.5099 5.38354 15.5605 5.34012C15.6184 5.2967 15.7125 5.26775 15.8428 5.26775H16.5158C16.6316 5.26775 16.6967 5.32564 16.6967 5.44867C16.6967 5.48485 16.6895 5.52104 16.6823 5.56446C16.675 5.60788 16.6605 5.66577 16.6316 5.74538L14.8875 11.3395C14.8441 11.4842 14.7934 11.5783 14.7355 11.6217C14.6776 11.6651 14.5836 11.6941 14.4605 11.6941H13.8382C13.7007 11.6941 13.6066 11.6724 13.5487 11.6217C13.4908 11.571 13.4402 11.477 13.4112 11.3322L12.2895 6.66446L11.175 11.325C11.1388 11.4697 11.0954 11.5638 11.0375 11.6145C10.9796 11.6651 10.8783 11.6868 10.748 11.6868H10.1257ZM19.425 11.8822C19.0487 11.8822 18.6724 11.8388 18.3105 11.752C17.9487 11.6651 17.6665 11.571 17.4783 11.4625C17.3625 11.3974 17.2829 11.325 17.254 11.2599C17.225 11.1947 17.2105 11.1224 17.2105 11.0572V10.6881C17.2105 10.5362 17.2684 10.4638 17.377 10.4638C17.4204 10.4638 17.4638 10.471 17.5073 10.4855C17.5507 10.5 17.6158 10.5289 17.6882 10.5579C17.9342 10.6664 18.202 10.7533 18.4842 10.8112C18.7737 10.8691 19.0559 10.898 19.3454 10.898C19.8013 10.898 20.1559 10.8184 20.402 10.6592C20.648 10.5 20.7783 10.2684 20.7783 9.97169C20.7783 9.76906 20.7132 9.60262 20.5829 9.46512C20.4527 9.32762 20.2066 9.20459 19.852 9.0888L18.8026 8.76314C18.2744 8.5967 17.8836 8.35064 17.6448 8.02498C17.4059 7.70656 17.2829 7.35196 17.2829 6.97564C17.2829 6.67169 17.348 6.40393 17.4783 6.17235C17.6086 5.94077 17.7823 5.73814 17.9994 5.57893C18.2165 5.41248 18.4625 5.28946 18.752 5.20262C19.0415 5.11577 19.3454 5.07959 19.6638 5.07959C19.823 5.07959 19.9895 5.08683 20.1487 5.10854C20.3151 5.13025 20.4671 5.1592 20.6191 5.18814C20.7638 5.22433 20.9013 5.26051 21.0316 5.30393C21.1619 5.34735 21.2632 5.39077 21.3355 5.4342C21.4369 5.49209 21.5092 5.54998 21.5526 5.61512C21.5961 5.67301 21.6178 5.75262 21.6178 5.85393V6.19406C21.6178 6.34604 21.5599 6.42564 21.4513 6.42564C21.3934 6.42564 21.2994 6.3967 21.1763 6.3388C20.7638 6.15064 20.3007 6.05656 19.7869 6.05656C19.3744 6.05656 19.0487 6.1217 18.8244 6.2592C18.6 6.3967 18.4842 6.60656 18.4842 6.90327C18.4842 7.10591 18.5566 7.27959 18.7013 7.41709C18.8461 7.55459 19.1138 7.69209 19.4974 7.81512L20.525 8.14077C21.0461 8.30722 21.4224 8.5388 21.6467 8.83551C21.8711 9.13222 21.9796 9.47235 21.9796 9.84867C21.9796 10.1599 21.9145 10.4421 21.7915 10.6881C21.6612 10.9342 21.4875 11.1513 21.2632 11.325C21.0388 11.5059 20.7711 11.6362 20.4599 11.7302C20.1342 11.8316 19.7941 11.8822 19.425 11.8822Z"
        fill="#252F3E" />
    <path fill-rule="evenodd" clip-rule="evenodd"
        d="M20.7928 15.3993C18.4119 17.1579 14.9527 18.0914 11.9783 18.0914C7.80989 18.0914 4.05397 16.55 1.21712 13.9881C0.992781 13.7855 1.19541 13.5105 1.46318 13.6697C4.5316 15.45 8.31647 16.5283 12.2316 16.5283C14.873 16.5283 17.775 15.9783 20.4454 14.8493C20.8434 14.6684 21.1836 15.1099 20.7928 15.3993Z"
        fill="#FF9900" />
    <path fill-rule="evenodd" clip-rule="evenodd"
        d="M21.7842 14.2704C21.4803 13.8796 19.7724 14.0822 18.998 14.1763C18.7665 14.2052 18.7303 14.0026 18.9401 13.8506C20.3007 12.8954 22.5369 13.1704 22.7974 13.4888C23.0579 13.8145 22.725 16.0506 21.4513 17.1217C21.2559 17.2881 21.0678 17.2013 21.1546 16.9842C21.4441 16.2677 22.0882 14.6539 21.7842 14.2704Z"
        fill="#FF9900" />
</svg>
