<svg viewBox="0 0 24 24" fill="none" xmlns="http://www.w3.org/2000/svg">
    <path
        d="M20.2524 6.30383C20.1382 5.93755 19.864 5.63994 19.5213 5.4568L12.5537 2.11446C12.3709 2.02289 12.1653 2 11.9826 2C11.7998 2 11.5942 2 11.4115 2.04579L4.4438 5.41102C4.10113 5.57126 3.84984 5.86887 3.75846 6.25805L2.02226 13.7898C1.95372 14.1789 2.0451 14.5681 2.27355 14.8886L7.09379 20.8636C7.36793 21.1383 7.75629 21.3215 8.14465 21.3444H15.8433C16.2545 21.3901 16.6429 21.207 16.8942 20.8636L21.7144 14.8886C21.9429 14.5681 22.0343 14.1789 21.9886 13.7898L20.2524 6.30383Z"
        fill="#326DE6" />
    <path
        d="M19.1559 13.4921C19.133 13.4921 19.133 13.4921 19.1559 13.4921C19.133 13.4464 19.0645 13.4464 19.0416 13.4464C18.9503 13.4235 18.8589 13.4235 18.7675 13.4235C18.7218 13.4235 18.6761 13.4235 18.6304 13.4006H18.6076C18.3563 13.3777 18.0822 13.3319 17.8309 13.2632C17.7623 13.2403 17.6938 13.1716 17.671 13.103C17.671 13.0801 17.6481 13.0801 17.6481 13.0801L17.4654 13.0343C17.5567 12.3704 17.5111 11.6836 17.374 11.0197C17.2141 10.3558 16.9399 9.71485 16.5744 9.14253L16.7115 9.00517V8.98228C16.7115 8.9136 16.7343 8.82203 16.78 8.77624C16.9856 8.61599 17.1912 8.45575 17.4197 8.34128C17.4654 8.31839 17.5111 8.2955 17.5567 8.2726C17.6481 8.22682 17.7167 8.18103 17.808 8.13525C17.8309 8.11235 17.8537 8.11235 17.8766 8.08946C17.8994 8.06657 17.8994 8.06657 17.8994 8.06657C18.105 7.90632 18.1507 7.63161 17.9908 7.42557C17.9223 7.334 17.7852 7.26532 17.671 7.26532C17.5567 7.26532 17.4425 7.31111 17.3511 7.37979L17.3283 7.40268C17.3054 7.42557 17.2826 7.44847 17.2598 7.44847C17.1912 7.51714 17.1227 7.58582 17.077 7.6545C17.0542 7.70029 17.0085 7.72318 16.9856 7.74607C16.8029 7.92921 16.6201 8.11235 16.4145 8.24971C16.3688 8.2726 16.3231 8.2955 16.2774 8.2955C16.2546 8.2955 16.2089 8.2955 16.1861 8.2726L16.0033 8.40996C15.8205 8.22682 15.6149 8.04368 15.4322 7.86054C14.5869 7.19665 13.5361 6.78458 12.4624 6.67011L12.4395 6.48697L12.4167 6.46408C12.3481 6.41829 12.3253 6.34962 12.3024 6.28094C12.3024 6.02912 12.3024 5.7773 12.3481 5.50258V5.47969C12.3481 5.43391 12.371 5.38812 12.371 5.34234C12.3938 5.25076 12.3938 5.15919 12.4167 5.06762V4.93027C12.4395 4.70134 12.2568 4.47241 12.0283 4.47241C11.8912 4.47241 11.7542 4.5182 11.6628 4.60977C11.5714 4.70134 11.5257 4.8158 11.5257 4.93027V5.04473C11.5257 5.1363 11.5486 5.22787 11.5714 5.31944C11.5943 5.36523 11.5943 5.41101 11.5943 5.4568V5.47969C11.6399 5.73151 11.6399 5.98333 11.6399 6.25804C11.6171 6.32672 11.5943 6.3954 11.5257 6.44119L11.5029 6.46408L11.48 6.64722C11.2287 6.67011 10.9774 6.7159 10.7033 6.76168C9.62961 6.99061 8.64728 7.56293 7.89341 8.36417L7.75634 8.2726H7.73349C7.71065 8.2726 7.68781 8.2955 7.64212 8.2955C7.59643 8.2955 7.52789 8.2726 7.50505 8.24971C7.29944 8.08946 7.11669 7.90632 6.93393 7.72318C6.91108 7.67739 6.86539 7.6545 6.84255 7.63161C6.77401 7.56293 6.72833 7.49425 6.65979 7.42557C6.63695 7.40268 6.6141 7.40268 6.59126 7.37979C6.56841 7.3569 6.56841 7.35689 6.56841 7.35689C6.47703 7.28822 6.36281 7.24243 6.24859 7.24243C6.11152 7.24243 5.99729 7.28822 5.90591 7.40268C5.76885 7.60872 5.81454 7.88343 5.99729 8.04368C6.02014 8.04368 6.02014 8.06657 6.02014 8.06657C6.02014 8.06657 6.06583 8.11236 6.08867 8.11236C6.15721 8.15814 6.24859 8.20393 6.33996 8.24971C6.38565 8.2726 6.43134 8.2955 6.47703 8.31839C6.70548 8.45575 6.91108 8.5931 7.11669 8.75335C7.16238 8.79914 7.20807 8.89071 7.18522 8.95939V8.98228L7.32229 9.11963C7.29944 9.16542 7.2766 9.18831 7.25375 9.2341C6.54557 10.3558 6.27143 11.6836 6.47703 12.9885L6.29427 13.0343C6.29427 13.0572 6.27143 13.0572 6.27143 13.0572C6.24859 13.1259 6.18005 13.1716 6.11152 13.2174C5.86022 13.2861 5.60893 13.3319 5.3348 13.3548H5.31195C5.26626 13.3548 5.22057 13.3548 5.17488 13.3777C5.0835 13.3777 4.99212 13.4006 4.90074 13.4006C4.8779 13.4006 4.85506 13.4235 4.80937 13.4235C4.78652 13.4235 4.78652 13.4235 4.76368 13.4464C4.51238 13.4921 4.35247 13.7211 4.39816 13.9729C4.44385 14.1789 4.64945 14.3163 4.85506 14.2934C4.90074 14.2934 4.92359 14.2934 4.96928 14.2705C4.99212 14.2705 4.99212 14.2705 4.99212 14.2476C4.99212 14.2247 5.03781 14.2247 5.0835 14.2247C5.17488 14.2018 5.26626 14.156 5.3348 14.1331C5.38048 14.1102 5.42617 14.0874 5.47186 14.0874H5.49471C5.72316 13.9958 5.97445 13.9271 6.22574 13.8813H6.24859C6.31712 13.8813 6.38565 13.9042 6.43134 13.95C6.45419 13.95 6.45419 13.9729 6.45419 13.9729L6.65979 13.95C7.00246 15.0031 7.64212 15.9417 8.53306 16.6284C8.73866 16.7887 8.92142 16.9261 9.14987 17.0405L9.05849 17.2237C9.05849 17.2466 9.08134 17.2466 9.08134 17.2466C9.12703 17.3152 9.12703 17.4068 9.10418 17.4755C9.0128 17.7044 8.87573 17.9333 8.73866 18.1394V18.1623C8.71582 18.208 8.69297 18.2309 8.64729 18.2767C8.6016 18.3225 8.55591 18.4141 8.48737 18.5057C8.46453 18.5285 8.46453 18.5514 8.44168 18.5743C8.44168 18.5743 8.44168 18.5972 8.41884 18.5972C8.30461 18.8261 8.39599 19.1009 8.6016 19.2153C8.64728 19.2382 8.71582 19.2611 8.78435 19.2611C8.96711 19.2611 9.12703 19.1466 9.2184 18.9864C9.2184 18.9864 9.2184 18.9635 9.24125 18.9635C9.24125 18.9406 9.26409 18.9177 9.28694 18.8948C9.30978 18.8033 9.35547 18.7346 9.37832 18.643L9.42401 18.5057C9.49254 18.2538 9.60676 18.0249 9.72099 17.796C9.76668 17.7273 9.83521 17.6815 9.90375 17.6586C9.92659 17.6586 9.92659 17.6586 9.92659 17.6357L10.018 17.4526C10.6576 17.7044 11.3201 17.8189 12.0055 17.8189C12.4167 17.8189 12.8279 17.7731 13.2391 17.6815C13.4904 17.6357 13.7417 17.5442 13.9701 17.4755L14.0615 17.6357C14.0843 17.6357 14.0843 17.6357 14.0843 17.6586C14.1529 17.6815 14.2214 17.7273 14.2671 17.796C14.3813 18.0249 14.4727 18.2538 14.5641 18.4828V18.5057L14.6098 18.643C14.6326 18.7346 14.6555 18.8261 14.7011 18.8948C14.724 18.9177 14.724 18.9406 14.7468 18.9635C14.7468 18.9635 14.7468 18.9864 14.7697 18.9864C14.8611 19.1466 15.021 19.2611 15.2037 19.2611C15.2723 19.2611 15.318 19.2382 15.3865 19.2153C15.4779 19.1695 15.5692 19.078 15.5921 18.9635C15.6149 18.849 15.6149 18.7117 15.5692 18.5972C15.5692 18.5743 15.5464 18.5743 15.5464 18.5743C15.5464 18.5514 15.5236 18.5285 15.5007 18.5057C15.455 18.4141 15.4093 18.3454 15.3408 18.2767C15.318 18.2309 15.2951 18.208 15.2494 18.1623V18.1394C15.0895 17.9333 14.9753 17.7044 14.8839 17.4755C14.8611 17.4068 14.8611 17.3152 14.9067 17.2466C14.9067 17.2237 14.9296 17.2237 14.9296 17.2237L14.8611 17.0405C16.049 16.3308 16.9171 15.232 17.3511 13.9271L17.5339 13.95C17.5567 13.95 17.5567 13.9271 17.5567 13.9271C17.6024 13.8813 17.671 13.8584 17.7395 13.8584H17.7623C18.0136 13.9042 18.2649 13.9729 18.4934 14.0645H18.5162C18.5619 14.0874 18.6076 14.1102 18.6533 14.1102C18.7447 14.156 18.8132 14.1789 18.9046 14.2018C18.9274 14.2018 18.9503 14.2247 18.996 14.2247C19.0188 14.2247 19.0188 14.2247 19.0416 14.2476C19.0873 14.2705 19.1102 14.2705 19.1559 14.2705C19.3615 14.2705 19.5442 14.1331 19.6128 13.95C19.5442 13.7211 19.3843 13.5379 19.1559 13.4921ZM12.5766 12.7825L11.9598 13.0801L11.343 12.7825L11.1602 12.1186L11.5943 11.5692H12.3024L12.7365 12.1186L12.5766 12.7825ZM16.3003 11.2944C16.4145 11.7752 16.4373 12.2559 16.3917 12.7367L14.2214 12.1186C14.0158 12.0728 13.9016 11.8668 13.9473 11.6607C13.9701 11.592 13.993 11.5463 14.0386 11.5005L15.752 9.94377C16.0033 10.3558 16.1861 10.8137 16.3003 11.2944ZM15.0667 9.09674L13.2162 10.4245C13.0563 10.5161 12.8279 10.4932 12.7137 10.3329C12.668 10.2872 12.6451 10.2414 12.6451 10.1727L12.508 7.86054C13.4675 7.975 14.3813 8.40996 15.0667 9.09674ZM10.9318 7.92921L11.3887 7.83764L11.2516 10.1269C11.2516 10.3329 11.0688 10.4932 10.8632 10.4932C10.7947 10.4932 10.749 10.4703 10.6805 10.4474L8.83004 9.09674C9.40116 8.52442 10.1322 8.11235 10.9318 7.92921ZM8.1447 9.94377L9.83521 11.4547C9.99513 11.592 10.018 11.821 9.8809 11.9812C9.83521 12.0499 9.78952 12.0728 9.69814 12.0957L7.50505 12.7367C7.41367 11.7752 7.64212 10.7908 8.1447 9.94377ZM7.75634 13.8126L10.018 13.4235C10.2007 13.4235 10.3835 13.5379 10.4063 13.7211C10.4292 13.7898 10.4292 13.8813 10.3835 13.95L9.51539 16.0561C8.71582 15.5296 8.07617 14.7284 7.75634 13.8126ZM12.9421 16.6513C12.6223 16.72 12.2796 16.7658 11.9369 16.7658C11.4572 16.7658 10.9546 16.6742 10.4977 16.5369L11.6171 14.4994C11.7313 14.3621 11.9141 14.3163 12.074 14.4079C12.1425 14.4536 12.1882 14.4994 12.2568 14.5681L13.3533 16.5598C13.2391 16.5827 13.102 16.6056 12.9421 16.6513ZM15.7292 14.6597C15.3865 15.2091 14.9067 15.6898 14.3585 16.0332L13.4675 13.9042C13.4218 13.7211 13.4904 13.5379 13.6731 13.4464C13.7417 13.4235 13.8102 13.4006 13.8787 13.4006L16.1632 13.7898C16.049 14.1102 15.9119 14.4079 15.7292 14.6597Z"
        fill="white" />
</svg>
