<svg viewBox="0 0 24 24" fill="#0A66C2" xmlns="http://www.w3.org/2000/svg">
    <path
        d="M19.0409 18.8729H16.0776V14.2779C16.0776 13.1821 16.0578 11.7716 14.5363 11.7716C12.9929 11.7716 12.7567 12.9654 12.7567 14.1981V18.8726H9.79336V9.42332H12.6382V10.7147H12.678C12.9627 10.2327 13.3741 9.83617 13.8684 9.56738C14.3627 9.29859 14.9214 9.16757 15.4849 9.18828C18.4884 9.18828 19.0422 11.1444 19.0422 13.6892L19.0409 18.8729ZM6.44969 8.13167C6.10957 8.13173 5.77706 8.03192 5.49422 7.84487C5.21139 7.65782 4.99094 7.39193 4.86073 7.08081C4.73051 6.7697 4.69638 6.42734 4.76268 6.09703C4.82897 5.76672 4.99271 5.46329 5.23317 5.22511C5.47363 4.98694 5.78002 4.82471 6.11359 4.75895C6.44716 4.69319 6.79293 4.72685 7.10719 4.85567C7.42144 4.98449 7.69006 5.20269 7.87907 5.48267C8.06808 5.76265 8.16901 6.09184 8.16907 6.42861C8.16911 6.65222 8.12466 6.87365 8.03827 7.08025C7.95189 7.28685 7.82527 7.47458 7.66561 7.63273C7.50595 7.79087 7.31638 7.91633 7.10775 8.00193C6.89913 8.08754 6.67552 8.13163 6.44969 8.13167ZM7.93137 18.8729H4.96491V9.42332H7.93137V18.8729ZM20.5183 2.00135H3.47583C3.08901 1.99703 2.71626 2.14494 2.43953 2.41258C2.1628 2.68023 2.00472 3.04571 2 3.42871V20.3734C2.00456 20.7565 2.16255 21.1223 2.43927 21.3902C2.71599 21.6581 3.08882 21.8063 3.47583 21.8022H20.5183C20.9061 21.8071 21.28 21.6593 21.5578 21.3914C21.8356 21.1234 21.9946 20.7573 22 20.3734V3.42749C21.9945 3.04373 21.8353 2.67783 21.5575 2.41019C21.2797 2.14255 20.9059 1.99506 20.5183 2.00013" />
</svg>
