<svg viewBox="0 0 24 25" fill="none" xmlns="http://www.w3.org/2000/svg">
    <path
        d="M21.9999 8.18613C21.7761 7.72384 21.5171 7.2777 21.2166 6.85693L18.006 8.02537C18.3794 8.40751 18.6931 8.83704 18.9496 9.29639L21.9999 8.18613ZM7.80775 11.7372L4.59619 12.9056C4.63724 13.4206 4.72618 13.9294 4.85077 14.4278L7.90158 13.317C7.80236 12.801 7.76717 12.2693 7.80775 11.7372Z"
        fill="#C22133" />
    <path
        d="M14.9352 7.27651C15.6032 7.58829 16.1818 8.01343 16.67 8.51188L19.8806 7.34348C18.9912 6.09541 17.7798 5.05258 16.2957 4.36011C11.7056 2.21972 6.22948 4.21253 4.0896 8.80215C3.39666 10.2873 3.13911 11.8647 3.2603 13.3923L6.4714 12.2238C6.52464 11.528 6.69423 10.8307 7.0055 10.1622C8.3963 7.18027 11.9533 5.8863 14.9352 7.27651ZM18.3597 13.1438C18.3084 13.8392 18.1329 14.5365 17.8207 15.2055C16.4304 18.1879 12.8729 19.4819 9.89149 18.0916C9.22247 17.7793 8.6395 17.3576 8.15325 16.8582L4.94904 18.0242C5.83647 19.2722 7.04643 20.3155 8.53149 21.0085C13.1216 23.1484 18.5967 21.1556 20.7371 16.5655C21.4305 15.0814 21.6861 13.5039 21.5639 11.9778L18.3597 13.1438Z"
        fill="#DB212E" />
    <path
        d="M19.1492 9.22388L16.0983 10.3341C16.6652 11.3496 16.933 12.5185 16.845 13.6943L20.0493 12.5288C19.9575 11.3807 19.6523 10.2599 19.1492 9.22388ZM5.05081 14.3546L2 15.4658C2.28133 16.5824 2.76785 17.637 3.43475 18.5757L6.63849 17.4093C5.81607 16.5648 5.26923 15.4961 5.05081 14.3546Z"
        fill="#EB2126" />
    <path
        d="M21.535 7.34025C21.4338 7.17606 21.3288 7.01429 21.2169 6.85693L18.0063 8.02537C18.1475 8.17002 18.2775 8.32346 18.4016 8.48082L21.535 7.34025ZM7.79556 12.382C7.78742 12.167 7.79149 11.9518 7.80775 11.7374L4.59619 12.9058C4.61281 13.1115 4.63869 13.3158 4.66949 13.5196L7.79556 12.382Z"
        fill="#AD213B" />
    <path
        d="M21.5637 11.9778L18.3594 13.1438C18.3257 13.6051 18.2358 14.0674 18.0887 14.5218L21.5764 13.2503C21.6015 12.8263 21.5972 12.4012 21.5637 11.9778ZM4.94922 18.0246C5.19771 18.374 5.47059 18.7053 5.76581 19.0162L9.25396 17.7441C8.84641 17.489 8.47795 17.1915 8.15296 16.8582L4.94922 18.0246Z"
        fill="#BA2133" />
</svg>
