<svg viewBox="0 0 24 24" fill="none" xmlns="http://www.w3.org/2000/svg">
    <g clip-path="url(#clip0_1732_1440)">
        <path d="M22 2H2V22H22V2Z" fill="#7A3EF4" />
        <path
            d="M14.0344 6.71565C14.2078 7.45081 14.868 7.99846 15.6562 7.99846C16.5766 7.99846 17.3226 7.25237 17.3226 6.33206C17.3226 5.41174 16.5766 4.66565 15.6562 4.66565C14.8516 4.66565 14.1805 5.23596 14.0242 5.99456C12.6765 6.13909 11.6242 7.28206 11.6242 8.66721C11.6242 8.67034 11.6242 8.67268 11.6242 8.67581C10.1586 8.73752 8.8203 9.15471 7.7578 9.81331C7.36327 9.50784 6.86796 9.32581 6.33046 9.32581C5.04061 9.32581 3.9953 10.3711 3.9953 11.661C3.9953 12.5969 4.5453 13.4031 5.33983 13.7758C5.41718 16.4867 8.37108 18.6672 12.0047 18.6672C15.6383 18.6672 18.5961 16.4844 18.6695 13.7711C19.4578 13.3961 20.0031 12.5922 20.0031 11.6617C20.0031 10.3719 18.9578 9.32659 17.668 9.32659C17.1328 9.32659 16.6398 9.50706 16.2461 9.81018C15.1742 9.1469 13.8211 8.72971 12.3406 8.67424C12.3406 8.6719 12.3406 8.67034 12.3406 8.66799C12.3406 7.67581 13.0781 6.85237 14.0344 6.71721V6.71565ZM7.66405 13.143C7.70311 12.2961 8.26561 11.6461 8.91952 11.6461C9.57343 11.6461 10.0734 12.3328 10.0344 13.1797C9.9953 14.0266 9.50702 14.3344 8.85233 14.3344C8.19764 14.3344 7.62499 13.9899 7.66405 13.143ZM15.0906 11.6461C15.7453 11.6461 16.3078 12.2961 16.3461 13.143C16.3851 13.9899 15.8117 14.3344 15.1578 14.3344C14.5039 14.3344 14.0148 14.0274 13.9758 13.1797C13.9367 12.3328 14.4359 11.6461 15.0906 11.6461ZM14.3125 15.1024C14.4351 15.1149 14.5133 15.2422 14.4656 15.3563C14.0633 16.318 13.1133 16.9938 12.0047 16.9938C10.8961 16.9938 9.94686 16.318 9.54374 15.3563C9.49608 15.2422 9.57421 15.1149 9.69686 15.1024C10.4156 15.0297 11.193 14.9899 12.0047 14.9899C12.8164 14.9899 13.593 15.0297 14.3125 15.1024Z"
            fill="white" />
    </g>
    <defs>
        <clipPath id="clip0_1732_1440">
            <rect width="20" height="20" fill="white" transform="translate(2 2)" />
        </clipPath>
    </defs>
</svg>
