<svg width="294" height="29" viewBox="0 0 294 29" fill="none" xmlns="http://www.w3.org/2000/svg">
<rect width="294" height="106" rx="7" fill="url(#paint0_linear_3651_36452)"/>
<path d="M13.54 21C13.4467 21 13.3673 20.972 13.302 20.916C13.246 20.8507 13.218 20.7713 13.218 20.678V11.522C13.218 11.4287 13.246 11.354 13.302 11.298C13.3673 11.2327 13.4467 11.2 13.54 11.2H14.282C14.3753 11.2 14.45 11.2327 14.506 11.298C14.5713 11.354 14.604 11.4287 14.604 11.522V20.678C14.604 20.7713 14.5713 20.8507 14.506 20.916C14.45 20.972 14.3753 21 14.282 21H13.54ZM17.1861 21C17.0928 21 17.0135 20.972 16.9481 20.916C16.8921 20.8507 16.8641 20.7713 16.8641 20.678V14.042C16.8641 13.9487 16.8921 13.874 16.9481 13.818C17.0135 13.7527 17.0928 13.72 17.1861 13.72H17.8441C17.9375 13.72 18.0121 13.7527 18.0681 13.818C18.1335 13.874 18.1661 13.9487 18.1661 14.042V14.658C18.4368 14.3127 18.7541 14.0467 19.1181 13.86C19.4915 13.6733 19.9535 13.58 20.5041 13.58C21.4001 13.58 22.0955 13.8693 22.5901 14.448C23.0941 15.0173 23.3461 15.778 23.3461 16.73V20.678C23.3461 20.7713 23.3135 20.8507 23.2481 20.916C23.1921 20.972 23.1175 21 23.0241 21H22.3241C22.2308 21 22.1515 20.972 22.0861 20.916C22.0301 20.8507 22.0021 20.7713 22.0021 20.678V16.8C22.0021 16.1373 21.8388 15.624 21.5121 15.26C21.1948 14.896 20.7328 14.714 20.1261 14.714C19.5381 14.714 19.0715 14.9007 18.7261 15.274C18.3808 15.638 18.2081 16.1467 18.2081 16.8V20.678C18.2081 20.7713 18.1755 20.8507 18.1101 20.916C18.0541 20.972 17.9795 21 17.8861 21H17.1861ZM27.8744 21.14C27.221 21.14 26.6704 21.0373 26.2224 20.832C25.7837 20.6173 25.4524 20.3747 25.2284 20.104C25.0137 19.8333 24.9064 19.6093 24.9064 19.432C24.9064 19.3387 24.939 19.2687 25.0044 19.222C25.079 19.166 25.1537 19.138 25.2284 19.138H25.8584C25.9517 19.138 26.0357 19.1847 26.1104 19.278C26.3344 19.5393 26.577 19.7447 26.8384 19.894C27.0997 20.0433 27.4497 20.118 27.8884 20.118C28.3737 20.118 28.7657 20.0247 29.0644 19.838C29.3724 19.642 29.5264 19.376 29.5264 19.04C29.5264 18.816 29.461 18.634 29.3304 18.494C29.209 18.3447 28.9944 18.2187 28.6864 18.116C28.3877 18.004 27.9397 17.8827 27.3424 17.752C26.5304 17.5747 25.9517 17.318 25.6064 16.982C25.2704 16.646 25.1024 16.212 25.1024 15.68C25.1024 15.3253 25.205 14.9893 25.4104 14.672C25.625 14.3453 25.933 14.084 26.3344 13.888C26.745 13.6827 27.235 13.58 27.8044 13.58C28.4017 13.58 28.9104 13.678 29.3304 13.874C29.7504 14.07 30.063 14.3033 30.2684 14.574C30.483 14.8353 30.5904 15.0547 30.5904 15.232C30.5904 15.316 30.5577 15.386 30.4924 15.442C30.4364 15.498 30.3664 15.526 30.2824 15.526H29.6944C29.5824 15.526 29.489 15.4793 29.4144 15.386C29.265 15.2087 29.1344 15.0733 29.0224 14.98C28.9197 14.8773 28.7657 14.7887 28.5604 14.714C28.3644 14.6393 28.1124 14.602 27.8044 14.602C27.3564 14.602 27.011 14.7 26.7684 14.896C26.5257 15.0827 26.4044 15.33 26.4044 15.638C26.4044 15.834 26.4557 16.002 26.5584 16.142C26.661 16.2727 26.857 16.394 27.1464 16.506C27.445 16.618 27.8744 16.7347 28.4344 16.856C29.321 17.0427 29.9464 17.3133 30.3104 17.668C30.6837 18.0133 30.8704 18.4567 30.8704 18.998C30.8704 19.3993 30.7537 19.7633 30.5204 20.09C30.287 20.4167 29.9417 20.6733 29.4844 20.86C29.0364 21.0467 28.4997 21.14 27.8744 21.14ZM35.3194 21C33.8447 21 33.1074 20.1787 33.1074 18.536V14.84H32.0154C31.9221 14.84 31.8427 14.812 31.7774 14.756C31.7214 14.6907 31.6934 14.6113 31.6934 14.518V14.042C31.6934 13.9487 31.7214 13.874 31.7774 13.818C31.8427 13.7527 31.9221 13.72 32.0154 13.72H33.1074V11.382C33.1074 11.2887 33.1354 11.214 33.1914 11.158C33.2567 11.0927 33.3361 11.06 33.4294 11.06H34.0874C34.1807 11.06 34.2554 11.0927 34.3114 11.158C34.3767 11.214 34.4094 11.2887 34.4094 11.382V13.72H36.1454C36.2387 13.72 36.3134 13.7527 36.3694 13.818C36.4347 13.874 36.4674 13.9487 36.4674 14.042V14.518C36.4674 14.6113 36.4347 14.6907 36.3694 14.756C36.3134 14.812 36.2387 14.84 36.1454 14.84H34.4094V18.438C34.4094 18.9047 34.4887 19.2593 34.6474 19.502C34.8061 19.7353 35.0674 19.852 35.4314 19.852H36.2854C36.3787 19.852 36.4534 19.8847 36.5094 19.95C36.5747 20.006 36.6074 20.0807 36.6074 20.174V20.678C36.6074 20.7713 36.5747 20.8507 36.5094 20.916C36.4534 20.972 36.3787 21 36.2854 21H35.3194ZM39.9762 21.14C39.5188 21.14 39.0942 21.0467 38.7022 20.86C38.3102 20.6733 37.9975 20.4213 37.7642 20.104C37.5402 19.7773 37.4282 19.418 37.4282 19.026C37.4282 18.41 37.6802 17.906 38.1842 17.514C38.6975 17.1127 39.3882 16.8513 40.2562 16.73L42.3422 16.436V16.03C42.3422 15.078 41.7962 14.602 40.7042 14.602C40.2935 14.602 39.9575 14.6907 39.6962 14.868C39.4348 15.036 39.2388 15.2367 39.1082 15.47C39.0802 15.554 39.0428 15.6147 38.9962 15.652C38.9588 15.6893 38.9028 15.708 38.8282 15.708H38.2262C38.1422 15.708 38.0675 15.68 38.0022 15.624C37.9462 15.5587 37.9182 15.484 37.9182 15.4C37.9275 15.176 38.0302 14.924 38.2262 14.644C38.4315 14.3547 38.7442 14.1073 39.1642 13.902C39.5842 13.6873 40.1022 13.58 40.7182 13.58C41.7635 13.58 42.5148 13.8273 42.9722 14.322C43.4295 14.8073 43.6582 15.414 43.6582 16.142V20.678C43.6582 20.7713 43.6255 20.8507 43.5602 20.916C43.5042 20.972 43.4295 21 43.3362 21H42.6922C42.5988 21 42.5195 20.972 42.4542 20.916C42.3982 20.8507 42.3702 20.7713 42.3702 20.678V20.076C42.1648 20.3747 41.8662 20.6267 41.4742 20.832C41.0822 21.0373 40.5828 21.14 39.9762 21.14ZM40.2702 20.09C40.8768 20.09 41.3715 19.894 41.7542 19.502C42.1462 19.1007 42.3422 18.5267 42.3422 17.78V17.388L40.7182 17.626C40.0555 17.7193 39.5562 17.878 39.2202 18.102C38.8842 18.3167 38.7162 18.592 38.7162 18.928C38.7162 19.3013 38.8702 19.5907 39.1782 19.796C39.4862 19.992 39.8502 20.09 40.2702 20.09ZM46.0068 21C45.9134 21 45.8341 20.972 45.7688 20.916C45.7128 20.8507 45.6848 20.7713 45.6848 20.678V11.382C45.6848 11.2887 45.7128 11.214 45.7688 11.158C45.8341 11.0927 45.9134 11.06 46.0068 11.06H46.6648C46.7581 11.06 46.8328 11.0927 46.8888 11.158C46.9541 11.214 46.9868 11.2887 46.9868 11.382V20.678C46.9868 20.7713 46.9541 20.8507 46.8888 20.916C46.8328 20.972 46.7581 21 46.6648 21H46.0068ZM49.4111 21C49.3177 21 49.2384 20.972 49.1731 20.916C49.1171 20.8507 49.0891 20.7713 49.0891 20.678V11.382C49.0891 11.2887 49.1171 11.214 49.1731 11.158C49.2384 11.0927 49.3177 11.06 49.4111 11.06H50.0691C50.1624 11.06 50.2371 11.0927 50.2931 11.158C50.3584 11.214 50.3911 11.2887 50.3911 11.382V20.678C50.3911 20.7713 50.3584 20.8507 50.2931 20.916C50.2371 20.972 50.1624 21 50.0691 21H49.4111ZM54.5094 21.14C54.052 21.14 53.6274 21.0467 53.2354 20.86C52.8434 20.6733 52.5307 20.4213 52.2974 20.104C52.0734 19.7773 51.9614 19.418 51.9614 19.026C51.9614 18.41 52.2134 17.906 52.7174 17.514C53.2307 17.1127 53.9214 16.8513 54.7894 16.73L56.8754 16.436V16.03C56.8754 15.078 56.3294 14.602 55.2374 14.602C54.8267 14.602 54.4907 14.6907 54.2294 14.868C53.968 15.036 53.772 15.2367 53.6414 15.47C53.6134 15.554 53.576 15.6147 53.5294 15.652C53.492 15.6893 53.436 15.708 53.3614 15.708H52.7594C52.6754 15.708 52.6007 15.68 52.5354 15.624C52.4794 15.5587 52.4514 15.484 52.4514 15.4C52.4607 15.176 52.5634 14.924 52.7594 14.644C52.9647 14.3547 53.2774 14.1073 53.6974 13.902C54.1174 13.6873 54.6354 13.58 55.2514 13.58C56.2967 13.58 57.048 13.8273 57.5054 14.322C57.9627 14.8073 58.1914 15.414 58.1914 16.142V20.678C58.1914 20.7713 58.1587 20.8507 58.0934 20.916C58.0374 20.972 57.9627 21 57.8694 21H57.2254C57.132 21 57.0527 20.972 56.9874 20.916C56.9314 20.8507 56.9034 20.7713 56.9034 20.678V20.076C56.698 20.3747 56.3994 20.6267 56.0074 20.832C55.6154 21.0373 55.116 21.14 54.5094 21.14ZM54.8034 20.09C55.41 20.09 55.9047 19.894 56.2874 19.502C56.6794 19.1007 56.8754 18.5267 56.8754 17.78V17.388L55.2514 17.626C54.5887 17.7193 54.0894 17.878 53.7534 18.102C53.4174 18.3167 53.2494 18.592 53.2494 18.928C53.2494 19.3013 53.4034 19.5907 53.7114 19.796C54.0194 19.992 54.3834 20.09 54.8034 20.09ZM62.9776 21C61.5029 21 60.7656 20.1787 60.7656 18.536V14.84H59.6736C59.5803 14.84 59.5009 14.812 59.4356 14.756C59.3796 14.6907 59.3516 14.6113 59.3516 14.518V14.042C59.3516 13.9487 59.3796 13.874 59.4356 13.818C59.5009 13.7527 59.5803 13.72 59.6736 13.72H60.7656V11.382C60.7656 11.2887 60.7936 11.214 60.8496 11.158C60.9149 11.0927 60.9943 11.06 61.0876 11.06H61.7456C61.8389 11.06 61.9136 11.0927 61.9696 11.158C62.0349 11.214 62.0676 11.2887 62.0676 11.382V13.72H63.8036C63.8969 13.72 63.9716 13.7527 64.0276 13.818C64.0929 13.874 64.1256 13.9487 64.1256 14.042V14.518C64.1256 14.6113 64.0929 14.6907 64.0276 14.756C63.9716 14.812 63.8969 14.84 63.8036 14.84H62.0676V18.438C62.0676 18.9047 62.1469 19.2593 62.3056 19.502C62.4643 19.7353 62.7256 19.852 63.0896 19.852H63.9436C64.0369 19.852 64.1116 19.8847 64.1676 19.95C64.2329 20.006 64.2656 20.0807 64.2656 20.174V20.678C64.2656 20.7713 64.2329 20.8507 64.1676 20.916C64.1116 20.972 64.0369 21 63.9436 21H62.9776ZM65.8144 12.362C65.721 12.362 65.6417 12.334 65.5764 12.278C65.5204 12.2127 65.4924 12.1333 65.4924 12.04V11.284C65.4924 11.1907 65.5204 11.1113 65.5764 11.046C65.6417 10.9807 65.721 10.948 65.8144 10.948H66.6964C66.7897 10.948 66.869 10.9807 66.9344 11.046C66.9997 11.1113 67.0324 11.1907 67.0324 11.284V12.04C67.0324 12.1333 66.9997 12.2127 66.9344 12.278C66.869 12.334 66.7897 12.362 66.6964 12.362H65.8144ZM65.9264 21C65.833 21 65.7537 20.972 65.6884 20.916C65.6324 20.8507 65.6044 20.7713 65.6044 20.678V14.042C65.6044 13.9487 65.6324 13.874 65.6884 13.818C65.7537 13.7527 65.833 13.72 65.9264 13.72H66.5984C66.6917 13.72 66.7664 13.7527 66.8224 13.818C66.8877 13.874 66.9204 13.9487 66.9204 14.042V20.678C66.9204 20.7713 66.8877 20.8507 66.8224 20.916C66.7664 20.972 66.6917 21 66.5984 21H65.9264ZM71.977 21.14C70.9503 21.14 70.1523 20.8507 69.583 20.272C69.023 19.6933 68.7243 18.9233 68.687 17.962L68.673 17.36L68.687 16.758C68.7243 15.806 69.0277 15.0407 69.597 14.462C70.1663 13.874 70.9597 13.58 71.977 13.58C72.9943 13.58 73.7877 13.874 74.357 14.462C74.9263 15.0407 75.2297 15.806 75.267 16.758C75.2763 16.8607 75.281 17.0613 75.281 17.36C75.281 17.6587 75.2763 17.8593 75.267 17.962C75.2297 18.9233 74.9263 19.6933 74.357 20.272C73.797 20.8507 73.0037 21.14 71.977 21.14ZM71.977 20.062C72.565 20.062 73.027 19.8753 73.363 19.502C73.7083 19.1287 73.895 18.592 73.923 17.892C73.9323 17.7987 73.937 17.6213 73.937 17.36C73.937 17.0987 73.9323 16.9213 73.923 16.828C73.895 16.128 73.7083 15.5913 73.363 15.218C73.027 14.8447 72.565 14.658 71.977 14.658C71.389 14.658 70.9223 14.8447 70.577 15.218C70.2317 15.5913 70.0497 16.128 70.031 16.828L70.017 17.36L70.031 17.892C70.0497 18.592 70.2317 19.1287 70.577 19.502C70.9223 19.8753 71.389 20.062 71.977 20.062ZM77.356 21C77.2627 21 77.1834 20.972 77.118 20.916C77.062 20.8507 77.034 20.7713 77.034 20.678V14.042C77.034 13.9487 77.062 13.874 77.118 13.818C77.1834 13.7527 77.2627 13.72 77.356 13.72H78.014C78.1074 13.72 78.182 13.7527 78.238 13.818C78.3034 13.874 78.336 13.9487 78.336 14.042V14.658C78.6067 14.3127 78.924 14.0467 79.288 13.86C79.6614 13.6733 80.1234 13.58 80.674 13.58C81.57 13.58 82.2654 13.8693 82.76 14.448C83.264 15.0173 83.516 15.778 83.516 16.73V20.678C83.516 20.7713 83.4834 20.8507 83.418 20.916C83.362 20.972 83.2874 21 83.194 21H82.494C82.4007 21 82.3214 20.972 82.256 20.916C82.2 20.8507 82.172 20.7713 82.172 20.678V16.8C82.172 16.1373 82.0087 15.624 81.682 15.26C81.3647 14.896 80.9027 14.714 80.296 14.714C79.708 14.714 79.2414 14.9007 78.896 15.274C78.5507 15.638 78.378 16.1467 78.378 16.8V20.678C78.378 20.7713 78.3454 20.8507 78.28 20.916C78.224 20.972 78.1494 21 78.056 21H77.356Z" fill="white"/>
<path d="M3.5 36C3.5 32.4101 6.41015 29.5 10 29.5H88.5C92.6421 29.5 96 26.1421 96 22V10C96 6.41015 98.9102 3.5 102.5 3.5H181.674C184.136 3.5 186.386 4.89102 187.488 7.09311L196.618 25.3541C197.888 27.895 200.485 29.5 203.326 29.5H284C287.59 29.5 290.5 32.4101 290.5 36V96C290.5 99.5899 287.59 102.5 284 102.5H10C6.41016 102.5 3.5 99.5898 3.5 96V36Z" fill="#250E32" stroke="#5C5C5C"/>
<path d="M116.54 21C116.447 21 116.367 20.972 116.302 20.916C116.246 20.8507 116.218 20.7713 116.218 20.678V11.536C116.218 11.4333 116.246 11.354 116.302 11.298C116.367 11.2327 116.447 11.2 116.54 11.2H120.096C121.151 11.2 121.981 11.4567 122.588 11.97C123.195 12.4833 123.498 13.2253 123.498 14.196C123.498 15.1667 123.195 15.9087 122.588 16.422C121.991 16.926 121.16 17.178 120.096 17.178H117.618V20.678C117.618 20.7713 117.585 20.8507 117.52 20.916C117.455 20.972 117.375 21 117.282 21H116.54ZM120.026 16.002C120.707 16.002 121.221 15.848 121.566 15.54C121.921 15.232 122.098 14.784 122.098 14.196C122.098 13.608 121.925 13.16 121.58 12.852C121.235 12.5347 120.717 12.376 120.026 12.376H117.604V16.002H120.026ZM125.228 12.362C125.135 12.362 125.056 12.334 124.99 12.278C124.934 12.2127 124.906 12.1333 124.906 12.04V11.284C124.906 11.1907 124.934 11.1113 124.99 11.046C125.056 10.9807 125.135 10.948 125.228 10.948H126.11C126.204 10.948 126.283 10.9807 126.348 11.046C126.414 11.1113 126.446 11.1907 126.446 11.284V12.04C126.446 12.1333 126.414 12.2127 126.348 12.278C126.283 12.334 126.204 12.362 126.11 12.362H125.228ZM125.34 21C125.247 21 125.168 20.972 125.102 20.916C125.046 20.8507 125.018 20.7713 125.018 20.678V14.042C125.018 13.9487 125.046 13.874 125.102 13.818C125.168 13.7527 125.247 13.72 125.34 13.72H126.012C126.106 13.72 126.18 13.7527 126.236 13.818C126.302 13.874 126.334 13.9487 126.334 14.042V20.678C126.334 20.7713 126.302 20.8507 126.236 20.916C126.18 20.972 126.106 21 126.012 21H125.34ZM128.745 23.66C128.652 23.66 128.572 23.6273 128.507 23.562C128.451 23.506 128.423 23.4313 128.423 23.338V14.042C128.423 13.9487 128.451 13.874 128.507 13.818C128.572 13.7527 128.652 13.72 128.745 13.72H129.389C129.482 13.72 129.557 13.7527 129.613 13.818C129.678 13.874 129.711 13.9487 129.711 14.042V14.658C130.234 13.9393 130.999 13.58 132.007 13.58C132.987 13.58 133.72 13.888 134.205 14.504C134.7 15.12 134.966 15.9133 135.003 16.884C135.012 16.9867 135.017 17.1453 135.017 17.36C135.017 17.5747 135.012 17.7333 135.003 17.836C134.966 18.7973 134.7 19.5907 134.205 20.216C133.71 20.832 132.978 21.14 132.007 21.14C131.036 21.14 130.28 20.79 129.739 20.09V23.338C129.739 23.4313 129.711 23.506 129.655 23.562C129.599 23.6273 129.524 23.66 129.431 23.66H128.745ZM131.713 20.006C132.376 20.006 132.856 19.8007 133.155 19.39C133.463 18.9793 133.631 18.438 133.659 17.766C133.668 17.6727 133.673 17.5373 133.673 17.36C133.673 15.596 133.02 14.714 131.713 14.714C131.069 14.714 130.584 14.9287 130.257 15.358C129.94 15.778 129.767 16.282 129.739 16.87L129.725 17.402L129.739 17.948C129.758 18.4987 129.935 18.9793 130.271 19.39C130.607 19.8007 131.088 20.006 131.713 20.006ZM140.685 21C140.591 21 140.512 20.972 140.447 20.916C140.391 20.8507 140.363 20.7713 140.363 20.678V11.522C140.363 11.4287 140.391 11.354 140.447 11.298C140.512 11.2327 140.591 11.2 140.685 11.2H141.427C141.52 11.2 141.595 11.2327 141.651 11.298C141.716 11.354 141.749 11.4287 141.749 11.522V20.678C141.749 20.7713 141.716 20.8507 141.651 20.916C141.595 20.972 141.52 21 141.427 21H140.685ZM144.331 21C144.237 21 144.158 20.972 144.093 20.916C144.037 20.8507 144.009 20.7713 144.009 20.678V14.042C144.009 13.9487 144.037 13.874 144.093 13.818C144.158 13.7527 144.237 13.72 144.331 13.72H144.989C145.082 13.72 145.157 13.7527 145.213 13.818C145.278 13.874 145.311 13.9487 145.311 14.042V14.658C145.581 14.3127 145.899 14.0467 146.263 13.86C146.636 13.6733 147.098 13.58 147.649 13.58C148.545 13.58 149.24 13.8693 149.735 14.448C150.239 15.0173 150.491 15.778 150.491 16.73V20.678C150.491 20.7713 150.458 20.8507 150.393 20.916C150.337 20.972 150.262 21 150.169 21H149.469C149.375 21 149.296 20.972 149.231 20.916C149.175 20.8507 149.147 20.7713 149.147 20.678V16.8C149.147 16.1373 148.983 15.624 148.657 15.26C148.339 14.896 147.877 14.714 147.271 14.714C146.683 14.714 146.216 14.9007 145.871 15.274C145.525 15.638 145.353 16.1467 145.353 16.8V20.678C145.353 20.7713 145.32 20.8507 145.255 20.916C145.199 20.972 145.124 21 145.031 21H144.331ZM155.019 21.14C154.366 21.14 153.815 21.0373 153.367 20.832C152.928 20.6173 152.597 20.3747 152.373 20.104C152.158 19.8333 152.051 19.6093 152.051 19.432C152.051 19.3387 152.084 19.2687 152.149 19.222C152.224 19.166 152.298 19.138 152.373 19.138H153.003C153.096 19.138 153.18 19.1847 153.255 19.278C153.479 19.5393 153.722 19.7447 153.983 19.894C154.244 20.0433 154.594 20.118 155.033 20.118C155.518 20.118 155.91 20.0247 156.209 19.838C156.517 19.642 156.671 19.376 156.671 19.04C156.671 18.816 156.606 18.634 156.475 18.494C156.354 18.3447 156.139 18.2187 155.831 18.116C155.532 18.004 155.084 17.8827 154.487 17.752C153.675 17.5747 153.096 17.318 152.751 16.982C152.415 16.646 152.247 16.212 152.247 15.68C152.247 15.3253 152.35 14.9893 152.555 14.672C152.77 14.3453 153.078 14.084 153.479 13.888C153.89 13.6827 154.38 13.58 154.949 13.58C155.546 13.58 156.055 13.678 156.475 13.874C156.895 14.07 157.208 14.3033 157.413 14.574C157.628 14.8353 157.735 15.0547 157.735 15.232C157.735 15.316 157.702 15.386 157.637 15.442C157.581 15.498 157.511 15.526 157.427 15.526H156.839C156.727 15.526 156.634 15.4793 156.559 15.386C156.41 15.2087 156.279 15.0733 156.167 14.98C156.064 14.8773 155.91 14.7887 155.705 14.714C155.509 14.6393 155.257 14.602 154.949 14.602C154.501 14.602 154.156 14.7 153.913 14.896C153.67 15.0827 153.549 15.33 153.549 15.638C153.549 15.834 153.6 16.002 153.703 16.142C153.806 16.2727 154.002 16.394 154.291 16.506C154.59 16.618 155.019 16.7347 155.579 16.856C156.466 17.0427 157.091 17.3133 157.455 17.668C157.828 18.0133 158.015 18.4567 158.015 18.998C158.015 19.3993 157.898 19.7633 157.665 20.09C157.432 20.4167 157.086 20.6733 156.629 20.86C156.181 21.0467 155.644 21.14 155.019 21.14ZM162.464 21C160.989 21 160.252 20.1787 160.252 18.536V14.84H159.16C159.067 14.84 158.987 14.812 158.922 14.756C158.866 14.6907 158.838 14.6113 158.838 14.518V14.042C158.838 13.9487 158.866 13.874 158.922 13.818C158.987 13.7527 159.067 13.72 159.16 13.72H160.252V11.382C160.252 11.2887 160.28 11.214 160.336 11.158C160.401 11.0927 160.481 11.06 160.574 11.06H161.232C161.325 11.06 161.4 11.0927 161.456 11.158C161.521 11.214 161.554 11.2887 161.554 11.382V13.72H163.29C163.383 13.72 163.458 13.7527 163.514 13.818C163.579 13.874 163.612 13.9487 163.612 14.042V14.518C163.612 14.6113 163.579 14.6907 163.514 14.756C163.458 14.812 163.383 14.84 163.29 14.84H161.554V18.438C161.554 18.9047 161.633 19.2593 161.792 19.502C161.951 19.7353 162.212 19.852 162.576 19.852H163.43C163.523 19.852 163.598 19.8847 163.654 19.95C163.719 20.006 163.752 20.0807 163.752 20.174V20.678C163.752 20.7713 163.719 20.8507 163.654 20.916C163.598 20.972 163.523 21 163.43 21H162.464ZM167.121 21.14C166.663 21.14 166.239 21.0467 165.847 20.86C165.455 20.6733 165.142 20.4213 164.909 20.104C164.685 19.7773 164.573 19.418 164.573 19.026C164.573 18.41 164.825 17.906 165.329 17.514C165.842 17.1127 166.533 16.8513 167.401 16.73L169.487 16.436V16.03C169.487 15.078 168.941 14.602 167.849 14.602C167.438 14.602 167.102 14.6907 166.841 14.868C166.579 15.036 166.383 15.2367 166.253 15.47C166.225 15.554 166.187 15.6147 166.141 15.652C166.103 15.6893 166.047 15.708 165.973 15.708H165.371C165.287 15.708 165.212 15.68 165.147 15.624C165.091 15.5587 165.063 15.484 165.063 15.4C165.072 15.176 165.175 14.924 165.371 14.644C165.576 14.3547 165.889 14.1073 166.309 13.902C166.729 13.6873 167.247 13.58 167.863 13.58C168.908 13.58 169.659 13.8273 170.117 14.322C170.574 14.8073 170.803 15.414 170.803 16.142V20.678C170.803 20.7713 170.77 20.8507 170.705 20.916C170.649 20.972 170.574 21 170.481 21H169.837C169.743 21 169.664 20.972 169.599 20.916C169.543 20.8507 169.515 20.7713 169.515 20.678V20.076C169.309 20.3747 169.011 20.6267 168.619 20.832C168.227 21.0373 167.727 21.14 167.121 21.14ZM167.415 20.09C168.021 20.09 168.516 19.894 168.899 19.502C169.291 19.1007 169.487 18.5267 169.487 17.78V17.388L167.863 17.626C167.2 17.7193 166.701 17.878 166.365 18.102C166.029 18.3167 165.861 18.592 165.861 18.928C165.861 19.3013 166.015 19.5907 166.323 19.796C166.631 19.992 166.995 20.09 167.415 20.09ZM173.151 21C173.058 21 172.979 20.972 172.913 20.916C172.857 20.8507 172.829 20.7713 172.829 20.678V11.382C172.829 11.2887 172.857 11.214 172.913 11.158C172.979 11.0927 173.058 11.06 173.151 11.06H173.809C173.903 11.06 173.977 11.0927 174.033 11.158C174.099 11.214 174.131 11.2887 174.131 11.382V20.678C174.131 20.7713 174.099 20.8507 174.033 20.916C173.977 20.972 173.903 21 173.809 21H173.151ZM176.556 21C176.462 21 176.383 20.972 176.318 20.916C176.262 20.8507 176.234 20.7713 176.234 20.678V11.382C176.234 11.2887 176.262 11.214 176.318 11.158C176.383 11.0927 176.462 11.06 176.556 11.06H177.214C177.307 11.06 177.382 11.0927 177.438 11.158C177.503 11.214 177.536 11.2887 177.536 11.382V20.678C177.536 20.7713 177.503 20.8507 177.438 20.916C177.382 20.972 177.307 21 177.214 21H176.556Z" fill="white"/>
<mask id="mask0_3651_36452" style="mask-type:alpha" maskUnits="userSpaceOnUse" x="266" y="78" width="17" height="17">
<rect x="266" y="78" width="17" height="17" fill="#D9D9D9"/>
</mask>
<g mask="url(#mask0_3651_36452)">
<path d="M269.542 93.5833C269.152 93.5833 268.819 93.4446 268.541 93.1671C268.264 92.8897 268.125 92.5562 268.125 92.1666V82.25H269.542V92.1666H277.333V93.5833H269.542ZM272.375 90.75C271.985 90.75 271.652 90.6112 271.374 90.3338C271.097 90.0564 270.958 89.7229 270.958 89.3333V80.8333C270.958 80.4437 271.097 80.1102 271.374 79.8328C271.652 79.5553 271.985 79.4166 272.375 79.4166H278.75C279.14 79.4166 279.473 79.5553 279.751 79.8328C280.028 80.1102 280.167 80.4437 280.167 80.8333V89.3333C280.167 89.7229 280.028 90.0564 279.751 90.3338C279.473 90.6112 279.14 90.75 278.75 90.75H272.375ZM272.375 89.3333H278.75V80.8333H272.375V89.3333Z" fill="white"/>
</g>
<path d="M14.372 64.66C14.2787 64.66 14.1993 64.6273 14.134 64.562C14.078 64.506 14.05 64.4313 14.05 64.338V55.042C14.05 54.9487 14.078 54.874 14.134 54.818C14.1993 54.7527 14.2787 54.72 14.372 54.72H15.016C15.1093 54.72 15.184 54.7527 15.24 54.818C15.3053 54.874 15.338 54.9487 15.338 55.042V55.658C15.8607 54.9393 16.626 54.58 17.634 54.58C18.614 54.58 19.3467 54.888 19.832 55.504C20.3267 56.12 20.5927 56.9133 20.63 57.884C20.6393 57.9867 20.644 58.1453 20.644 58.36C20.644 58.5747 20.6393 58.7333 20.63 58.836C20.5927 59.7973 20.3267 60.5907 19.832 61.216C19.3373 61.832 18.6047 62.14 17.634 62.14C16.6633 62.14 15.9073 61.79 15.366 61.09V64.338C15.366 64.4313 15.338 64.506 15.282 64.562C15.226 64.6273 15.1513 64.66 15.058 64.66H14.372ZM17.34 61.006C18.0027 61.006 18.4833 60.8007 18.782 60.39C19.09 59.9793 19.258 59.438 19.286 58.766C19.2953 58.6727 19.3 58.5373 19.3 58.36C19.3 56.596 18.6467 55.714 17.34 55.714C16.696 55.714 16.2107 55.9287 15.884 56.358C15.5667 56.778 15.394 57.282 15.366 57.87L15.352 58.402L15.366 58.948C15.3847 59.4987 15.562 59.9793 15.898 60.39C16.234 60.8007 16.7147 61.006 17.34 61.006ZM22.5858 53.362C22.4925 53.362 22.4132 53.334 22.3478 53.278C22.2918 53.2127 22.2638 53.1333 22.2638 53.04V52.284C22.2638 52.1907 22.2918 52.1113 22.3478 52.046C22.4132 51.9807 22.4925 51.948 22.5858 51.948H23.4678C23.5612 51.948 23.6405 51.9807 23.7058 52.046C23.7712 52.1113 23.8038 52.1907 23.8038 52.284V53.04C23.8038 53.1333 23.7712 53.2127 23.7058 53.278C23.6405 53.334 23.5612 53.362 23.4678 53.362H22.5858ZM22.6978 62C22.6045 62 22.5252 61.972 22.4598 61.916C22.4038 61.8507 22.3758 61.7713 22.3758 61.678V55.042C22.3758 54.9487 22.4038 54.874 22.4598 54.818C22.5252 54.7527 22.6045 54.72 22.6978 54.72H23.3698C23.4632 54.72 23.5378 54.7527 23.5938 54.818C23.6592 54.874 23.6918 54.9487 23.6918 55.042V61.678C23.6918 61.7713 23.6592 61.8507 23.5938 61.916C23.5378 61.972 23.4632 62 23.3698 62H22.6978ZM26.1025 64.66C26.0091 64.66 25.9298 64.6273 25.8645 64.562C25.8085 64.506 25.7805 64.4313 25.7805 64.338V55.042C25.7805 54.9487 25.8085 54.874 25.8645 54.818C25.9298 54.7527 26.0091 54.72 26.1025 54.72H26.7465C26.8398 54.72 26.9145 54.7527 26.9705 54.818C27.0358 54.874 27.0685 54.9487 27.0685 55.042V55.658C27.5911 54.9393 28.3565 54.58 29.3645 54.58C30.3445 54.58 31.0771 54.888 31.5625 55.504C32.0571 56.12 32.3231 56.9133 32.3605 57.884C32.3698 57.9867 32.3745 58.1453 32.3745 58.36C32.3745 58.5747 32.3698 58.7333 32.3605 58.836C32.3231 59.7973 32.0571 60.5907 31.5625 61.216C31.0678 61.832 30.3351 62.14 29.3645 62.14C28.3938 62.14 27.6378 61.79 27.0965 61.09V64.338C27.0965 64.4313 27.0685 64.506 27.0125 64.562C26.9565 64.6273 26.8818 64.66 26.7885 64.66H26.1025ZM29.0705 61.006C29.7331 61.006 30.2138 60.8007 30.5125 60.39C30.8205 59.9793 30.9885 59.438 31.0165 58.766C31.0258 58.6727 31.0305 58.5373 31.0305 58.36C31.0305 56.596 30.3771 55.714 29.0705 55.714C28.4265 55.714 27.9411 55.9287 27.6145 56.358C27.2971 56.778 27.1245 57.282 27.0965 57.87L27.0825 58.402L27.0965 58.948C27.1151 59.4987 27.2925 59.9793 27.6285 60.39C27.9645 60.8007 28.4451 61.006 29.0705 61.006ZM66.8036 79C66.7103 79 66.631 78.972 66.5656 78.916C66.5096 78.8507 66.4816 78.7713 66.4816 78.678V69.382C66.4816 69.2887 66.5096 69.214 66.5656 69.158C66.631 69.0927 66.7103 69.06 66.8036 69.06H67.5036C67.597 69.06 67.6716 69.0927 67.7276 69.158C67.793 69.214 67.8256 69.2887 67.8256 69.382V72.644C68.0963 72.2987 68.4136 72.0373 68.7776 71.86C69.1416 71.6733 69.5943 71.58 70.1356 71.58C71.0316 71.58 71.727 71.8693 72.2216 72.448C72.7256 73.0173 72.9776 73.778 72.9776 74.73V78.678C72.9776 78.7713 72.945 78.8507 72.8796 78.916C72.8236 78.972 72.749 79 72.6556 79H71.9556C71.8623 79 71.783 78.972 71.7176 78.916C71.6616 78.8507 71.6336 78.7713 71.6336 78.678V74.8C71.6336 74.1373 71.4703 73.624 71.1436 73.26C70.8263 72.896 70.3643 72.714 69.7576 72.714C69.1696 72.714 68.6983 72.9007 68.3436 73.274C67.9983 73.638 67.8256 74.1467 67.8256 74.8V78.678C67.8256 78.7713 67.793 78.8507 67.7276 78.916C67.6716 78.972 67.597 79 67.5036 79H66.8036ZM77.7452 79C76.2705 79 75.5332 78.1787 75.5332 76.536V72.84H74.4412C74.3479 72.84 74.2685 72.812 74.2032 72.756C74.1472 72.6907 74.1192 72.6113 74.1192 72.518V72.042C74.1192 71.9487 74.1472 71.874 74.2032 71.818C74.2685 71.7527 74.3479 71.72 74.4412 71.72H75.5332V69.382C75.5332 69.2887 75.5612 69.214 75.6172 69.158C75.6825 69.0927 75.7619 69.06 75.8552 69.06H76.5132C76.6065 69.06 76.6812 69.0927 76.7372 69.158C76.8025 69.214 76.8352 69.2887 76.8352 69.382V71.72H78.5712C78.6645 71.72 78.7392 71.7527 78.7952 71.818C78.8605 71.874 78.8932 71.9487 78.8932 72.042V72.518C78.8932 72.6113 78.8605 72.6907 78.7952 72.756C78.7392 72.812 78.6645 72.84 78.5712 72.84H76.8352V76.438C76.8352 76.9047 76.9145 77.2593 77.0732 77.502C77.2319 77.7353 77.4932 77.852 77.8572 77.852H78.7112C78.8045 77.852 78.8792 77.8847 78.9352 77.95C79.0005 78.006 79.0332 78.0807 79.0332 78.174V78.678C79.0332 78.7713 79.0005 78.8507 78.9352 78.916C78.8792 78.972 78.8045 79 78.7112 79H77.7452ZM83.2139 79C81.7393 79 81.0019 78.1787 81.0019 76.536V72.84H79.9099C79.8166 72.84 79.7373 72.812 79.6719 72.756C79.6159 72.6907 79.5879 72.6113 79.5879 72.518V72.042C79.5879 71.9487 79.6159 71.874 79.6719 71.818C79.7373 71.7527 79.8166 71.72 79.9099 71.72H81.0019V69.382C81.0019 69.2887 81.0299 69.214 81.0859 69.158C81.1513 69.0927 81.2306 69.06 81.3239 69.06H81.9819C82.0753 69.06 82.1499 69.0927 82.2059 69.158C82.2713 69.214 82.3039 69.2887 82.3039 69.382V71.72H84.0399C84.1333 71.72 84.2079 71.7527 84.2639 71.818C84.3293 71.874 84.3619 71.9487 84.3619 72.042V72.518C84.3619 72.6113 84.3293 72.6907 84.2639 72.756C84.2079 72.812 84.1333 72.84 84.0399 72.84H82.3039V76.438C82.3039 76.9047 82.3833 77.2593 82.5419 77.502C82.7006 77.7353 82.9619 77.852 83.3259 77.852H84.1799C84.2733 77.852 84.3479 77.8847 84.4039 77.95C84.4693 78.006 84.5019 78.0807 84.5019 78.174V78.678C84.5019 78.7713 84.4693 78.8507 84.4039 78.916C84.3479 78.972 84.2733 79 84.1799 79H83.2139ZM86.1767 81.66C86.0834 81.66 86.004 81.6273 85.9387 81.562C85.8827 81.506 85.8547 81.4313 85.8547 81.338V72.042C85.8547 71.9487 85.8827 71.874 85.9387 71.818C86.004 71.7527 86.0834 71.72 86.1767 71.72H86.8207C86.914 71.72 86.9887 71.7527 87.0447 71.818C87.11 71.874 87.1427 71.9487 87.1427 72.042V72.658C87.6654 71.9393 88.4307 71.58 89.4387 71.58C90.4187 71.58 91.1514 71.888 91.6367 72.504C92.1314 73.12 92.3974 73.9133 92.4347 74.884C92.444 74.9867 92.4487 75.1453 92.4487 75.36C92.4487 75.5747 92.444 75.7333 92.4347 75.836C92.3974 76.7973 92.1314 77.5907 91.6367 78.216C91.142 78.832 90.4094 79.14 89.4387 79.14C88.468 79.14 87.712 78.79 87.1707 78.09V81.338C87.1707 81.4313 87.1427 81.506 87.0867 81.562C87.0307 81.6273 86.956 81.66 86.8627 81.66H86.1767ZM89.1447 78.006C89.8074 78.006 90.288 77.8007 90.5867 77.39C90.8947 76.9793 91.0627 76.438 91.0907 75.766C91.1 75.6727 91.1047 75.5373 91.1047 75.36C91.1047 73.596 90.4514 72.714 89.1447 72.714C88.5007 72.714 88.0154 72.9287 87.6887 73.358C87.3714 73.778 87.1987 74.282 87.1707 74.87L87.1567 75.402L87.1707 75.948C87.1894 76.4987 87.3667 76.9793 87.7027 77.39C88.0387 77.8007 88.5194 78.006 89.1447 78.006ZM96.7005 79.14C96.0472 79.14 95.4965 79.0373 95.0485 78.832C94.6099 78.6173 94.2785 78.3747 94.0545 78.104C93.8399 77.8333 93.7325 77.6093 93.7325 77.432C93.7325 77.3387 93.7652 77.2687 93.8305 77.222C93.9052 77.166 93.9799 77.138 94.0545 77.138H94.6845C94.7779 77.138 94.8619 77.1847 94.9365 77.278C95.1605 77.5393 95.4032 77.7447 95.6645 77.894C95.9259 78.0433 96.2759 78.118 96.7145 78.118C97.1999 78.118 97.5919 78.0247 97.8905 77.838C98.1985 77.642 98.3525 77.376 98.3525 77.04C98.3525 76.816 98.2872 76.634 98.1565 76.494C98.0352 76.3447 97.8205 76.2187 97.5125 76.116C97.2139 76.004 96.7659 75.8827 96.1685 75.752C95.3565 75.5747 94.7779 75.318 94.4325 74.982C94.0965 74.646 93.9285 74.212 93.9285 73.68C93.9285 73.3253 94.0312 72.9893 94.2365 72.672C94.4512 72.3453 94.7592 72.084 95.1605 71.888C95.5712 71.6827 96.0612 71.58 96.6305 71.58C97.2279 71.58 97.7365 71.678 98.1565 71.874C98.5765 72.07 98.8892 72.3033 99.0945 72.574C99.3092 72.8353 99.4165 73.0547 99.4165 73.232C99.4165 73.316 99.3839 73.386 99.3185 73.442C99.2625 73.498 99.1925 73.526 99.1085 73.526H98.5205C98.4085 73.526 98.3152 73.4793 98.2405 73.386C98.0912 73.2087 97.9605 73.0733 97.8485 72.98C97.7459 72.8773 97.5919 72.7887 97.3865 72.714C97.1905 72.6393 96.9385 72.602 96.6305 72.602C96.1825 72.602 95.8372 72.7 95.5945 72.896C95.3519 73.0827 95.2305 73.33 95.2305 73.638C95.2305 73.834 95.2819 74.002 95.3845 74.142C95.4872 74.2727 95.6832 74.394 95.9725 74.506C96.2712 74.618 96.7005 74.7347 97.2605 74.856C98.1472 75.0427 98.7725 75.3133 99.1365 75.668C99.5099 76.0133 99.6965 76.4567 99.6965 76.998C99.6965 77.3993 99.5799 77.7633 99.3465 78.09C99.1132 78.4167 98.7679 78.6733 98.3105 78.86C97.8625 79.0467 97.3259 79.14 96.7005 79.14ZM101.569 74.1C101.476 74.1 101.397 74.072 101.331 74.016C101.275 73.9507 101.247 73.8713 101.247 73.778V72.798C101.247 72.7047 101.275 72.63 101.331 72.574C101.397 72.5087 101.476 72.476 101.569 72.476H102.577C102.671 72.476 102.745 72.5087 102.801 72.574C102.867 72.63 102.899 72.7047 102.899 72.798V73.778C102.899 73.8713 102.867 73.9507 102.801 74.016C102.745 74.072 102.671 74.1 102.577 74.1H101.569ZM101.569 79C101.476 79 101.397 78.972 101.331 78.916C101.275 78.8507 101.247 78.7713 101.247 78.678V77.698C101.247 77.6047 101.275 77.53 101.331 77.474C101.397 77.4087 101.476 77.376 101.569 77.376H102.577C102.671 77.376 102.745 77.4087 102.801 77.474C102.867 77.53 102.899 77.6047 102.899 77.698V78.678C102.899 78.7713 102.867 78.8507 102.801 78.916C102.745 78.972 102.671 79 102.577 79H101.569ZM104.507 80.176C104.433 80.176 104.367 80.148 104.311 80.092C104.255 80.036 104.227 79.9707 104.227 79.896C104.227 79.8587 104.241 79.8027 104.269 79.728L109.057 68.248C109.132 68.08 109.253 67.996 109.421 67.996H109.967C110.042 67.996 110.107 68.024 110.163 68.08C110.219 68.136 110.247 68.2013 110.247 68.276C110.247 68.3413 110.238 68.3973 110.219 68.444L105.417 79.924C105.343 80.092 105.221 80.176 105.053 80.176H104.507ZM108.39 80.176C108.315 80.176 108.25 80.148 108.194 80.092C108.138 80.036 108.11 79.9707 108.11 79.896C108.11 79.8587 108.124 79.8027 108.152 79.728L112.94 68.248C113.015 68.08 113.136 67.996 113.304 67.996H113.85C113.925 67.996 113.99 68.024 114.046 68.08C114.102 68.136 114.13 68.2013 114.13 68.276C114.13 68.3413 114.121 68.3973 114.102 68.444L109.3 79.924C109.225 80.092 109.104 80.176 108.936 80.176H108.39ZM114.986 79C114.893 79 114.813 78.972 114.748 78.916C114.692 78.8507 114.664 78.7713 114.664 78.678V78.188C114.664 78.1133 114.683 78.0387 114.72 77.964C114.767 77.88 114.813 77.8053 114.86 77.74L118.724 72.826H115.112C115.019 72.826 114.939 72.798 114.874 72.742C114.818 72.6767 114.79 72.5973 114.79 72.504V72.042C114.79 71.9487 114.818 71.874 114.874 71.818C114.939 71.7527 115.019 71.72 115.112 71.72H120.096C120.189 71.72 120.264 71.7527 120.32 71.818C120.385 71.874 120.418 71.9487 120.418 72.042V72.56C120.418 72.6347 120.395 72.7093 120.348 72.784C120.311 72.8587 120.269 72.9287 120.222 72.994L116.4 77.894H120.376C120.479 77.894 120.558 77.922 120.614 77.978C120.67 78.034 120.698 78.1133 120.698 78.216V78.678C120.698 78.7713 120.665 78.8507 120.6 78.916C120.544 78.972 120.469 79 120.376 79H114.986ZM125.079 79.14C124.118 79.14 123.348 78.846 122.769 78.258C122.2 77.6607 121.887 76.8487 121.831 75.822L121.817 75.346L121.831 74.884C121.896 73.876 122.214 73.0733 122.783 72.476C123.362 71.8787 124.122 71.58 125.065 71.58C126.101 71.58 126.904 71.9113 127.473 72.574C128.042 73.2273 128.327 74.114 128.327 75.234V75.472C128.327 75.5653 128.294 75.6447 128.229 75.71C128.173 75.766 128.098 75.794 128.005 75.794H123.161V75.92C123.189 76.5267 123.371 77.0447 123.707 77.474C124.052 77.894 124.505 78.104 125.065 78.104C125.494 78.104 125.844 78.02 126.115 77.852C126.395 77.6747 126.6 77.4927 126.731 77.306C126.815 77.194 126.876 77.1287 126.913 77.11C126.96 77.082 127.039 77.068 127.151 77.068H127.837C127.921 77.068 127.991 77.0913 128.047 77.138C128.103 77.1847 128.131 77.25 128.131 77.334C128.131 77.5393 128 77.7867 127.739 78.076C127.487 78.3653 127.128 78.6173 126.661 78.832C126.204 79.0373 125.676 79.14 125.079 79.14ZM126.997 74.828V74.786C126.997 74.142 126.82 73.6193 126.465 73.218C126.12 72.8073 125.653 72.602 125.065 72.602C124.477 72.602 124.01 72.8073 123.665 73.218C123.329 73.6193 123.161 74.142 123.161 74.786V74.828H126.997ZM130.323 79C130.23 79 130.15 78.972 130.085 78.916C130.029 78.8507 130.001 78.7713 130.001 78.678V72.042C130.001 71.9487 130.029 71.874 130.085 71.818C130.15 71.7527 130.23 71.72 130.323 71.72H130.981C131.074 71.72 131.149 71.7527 131.205 71.818C131.27 71.874 131.303 71.9487 131.303 72.042V72.658C131.574 72.3127 131.891 72.0467 132.255 71.86C132.628 71.6733 133.09 71.58 133.641 71.58C134.537 71.58 135.232 71.8693 135.727 72.448C136.231 73.0173 136.483 73.778 136.483 74.73V78.678C136.483 78.7713 136.45 78.8507 136.385 78.916C136.329 78.972 136.254 79 136.161 79H135.461C135.368 79 135.288 78.972 135.223 78.916C135.167 78.8507 135.139 78.7713 135.139 78.678V74.8C135.139 74.1373 134.976 73.624 134.649 73.26C134.332 72.896 133.87 72.714 133.263 72.714C132.675 72.714 132.208 72.9007 131.863 73.274C131.518 73.638 131.345 74.1467 131.345 74.8V78.678C131.345 78.7713 131.312 78.8507 131.247 78.916C131.191 78.972 131.116 79 131.023 79H130.323ZM138.813 79C138.72 79 138.64 78.972 138.575 78.916C138.519 78.8507 138.491 78.7713 138.491 78.678V72.042C138.491 71.9487 138.519 71.874 138.575 71.818C138.64 71.7527 138.72 71.72 138.813 71.72H139.443C139.536 71.72 139.611 71.7527 139.667 71.818C139.732 71.874 139.765 71.9487 139.765 72.042V72.532C140.25 71.8973 140.927 71.58 141.795 71.58C142.831 71.58 143.564 72.0093 143.993 72.868C144.217 72.476 144.534 72.1633 144.945 71.93C145.356 71.6967 145.818 71.58 146.331 71.58C147.096 71.58 147.722 71.8413 148.207 72.364C148.692 72.8867 148.935 73.6427 148.935 74.632V78.678C148.935 78.7713 148.902 78.8507 148.837 78.916C148.781 78.972 148.706 79 148.613 79H147.955C147.862 79 147.782 78.972 147.717 78.916C147.661 78.8507 147.633 78.7713 147.633 78.678V74.758C147.633 74.03 147.479 73.5073 147.171 73.19C146.872 72.8727 146.476 72.714 145.981 72.714C145.542 72.714 145.164 72.8773 144.847 73.204C144.53 73.5213 144.371 74.0393 144.371 74.758V78.678C144.371 78.7713 144.338 78.8507 144.273 78.916C144.217 78.972 144.142 79 144.049 79H143.391C143.298 79 143.218 78.972 143.153 78.916C143.097 78.8507 143.069 78.7713 143.069 78.678V74.758C143.069 74.03 142.91 73.5073 142.593 73.19C142.285 72.8727 141.893 72.714 141.417 72.714C140.978 72.714 140.6 72.8773 140.283 73.204C139.966 73.5213 139.807 74.0347 139.807 74.744V78.678C139.807 78.7713 139.774 78.8507 139.709 78.916C139.653 78.972 139.578 79 139.485 79H138.813ZM151.268 79C151.175 79 151.096 78.972 151.03 78.916C150.974 78.8507 150.946 78.7713 150.946 78.678V69.382C150.946 69.2887 150.974 69.214 151.03 69.158C151.096 69.0927 151.175 69.06 151.268 69.06H151.926C152.02 69.06 152.094 69.0927 152.15 69.158C152.216 69.214 152.248 69.2887 152.248 69.382V78.678C152.248 78.7713 152.216 78.8507 152.15 78.916C152.094 78.972 152.02 79 151.926 79H151.268ZM154.673 81.66C154.579 81.66 154.5 81.6273 154.435 81.562C154.379 81.506 154.351 81.4313 154.351 81.338V72.042C154.351 71.9487 154.379 71.874 154.435 71.818C154.5 71.7527 154.579 71.72 154.673 71.72H155.317C155.41 71.72 155.485 71.7527 155.541 71.818C155.606 71.874 155.639 71.9487 155.639 72.042V72.658C156.161 71.9393 156.927 71.58 157.935 71.58C158.915 71.58 159.647 71.888 160.133 72.504C160.627 73.12 160.893 73.9133 160.931 74.884C160.94 74.9867 160.945 75.1453 160.945 75.36C160.945 75.5747 160.94 75.7333 160.931 75.836C160.893 76.7973 160.627 77.5907 160.133 78.216C159.638 78.832 158.905 79.14 157.935 79.14C156.964 79.14 156.208 78.79 155.667 78.09V81.338C155.667 81.4313 155.639 81.506 155.583 81.562C155.527 81.6273 155.452 81.66 155.359 81.66H154.673ZM157.641 78.006C158.303 78.006 158.784 77.8007 159.083 77.39C159.391 76.9793 159.559 76.438 159.587 75.766C159.596 75.6727 159.601 75.5373 159.601 75.36C159.601 73.596 158.947 72.714 157.641 72.714C156.997 72.714 156.511 72.9287 156.185 73.358C155.867 73.778 155.695 74.282 155.667 74.87L155.653 75.402L155.667 75.948C155.685 76.4987 155.863 76.9793 156.199 77.39C156.535 77.8007 157.015 78.006 157.641 78.006ZM163.677 81.66C163.603 81.66 163.537 81.632 163.481 81.576C163.425 81.52 163.397 81.4547 163.397 81.38C163.397 81.3147 163.421 81.2307 163.467 81.128L164.545 78.566L161.871 72.252C161.825 72.1307 161.801 72.0513 161.801 72.014C161.801 71.93 161.829 71.86 161.885 71.804C161.941 71.748 162.011 71.72 162.095 71.72H162.781C162.931 71.72 163.043 71.7993 163.117 71.958L165.245 77.054L167.429 71.958C167.504 71.7993 167.621 71.72 167.779 71.72H168.437C168.521 71.72 168.591 71.748 168.647 71.804C168.703 71.86 168.731 71.9253 168.731 72C168.731 72.028 168.708 72.112 168.661 72.252L164.685 81.422C164.611 81.5807 164.494 81.66 164.335 81.66H163.677ZM170.464 81.66C170.37 81.66 170.291 81.6273 170.226 81.562C170.17 81.506 170.142 81.4313 170.142 81.338V72.042C170.142 71.9487 170.17 71.874 170.226 71.818C170.291 71.7527 170.37 71.72 170.464 71.72H171.108C171.201 71.72 171.276 71.7527 171.332 71.818C171.397 71.874 171.43 71.9487 171.43 72.042V72.658C171.952 71.9393 172.718 71.58 173.726 71.58C174.706 71.58 175.438 71.888 175.924 72.504C176.418 73.12 176.684 73.9133 176.722 74.884C176.731 74.9867 176.736 75.1453 176.736 75.36C176.736 75.5747 176.731 75.7333 176.722 75.836C176.684 76.7973 176.418 77.5907 175.924 78.216C175.429 78.832 174.696 79.14 173.726 79.14C172.755 79.14 171.999 78.79 171.458 78.09V81.338C171.458 81.4313 171.43 81.506 171.374 81.562C171.318 81.6273 171.243 81.66 171.15 81.66H170.464ZM173.432 78.006C174.094 78.006 174.575 77.8007 174.874 77.39C175.182 76.9793 175.35 76.438 175.378 75.766C175.387 75.6727 175.392 75.5373 175.392 75.36C175.392 73.596 174.738 72.714 173.432 72.714C172.788 72.714 172.302 72.9287 171.976 73.358C171.658 73.778 171.486 74.282 171.458 74.87L171.444 75.402L171.458 75.948C171.476 76.4987 171.654 76.9793 171.99 77.39C172.326 77.8007 172.806 78.006 173.432 78.006ZM178.678 70.362C178.584 70.362 178.505 70.334 178.44 70.278C178.384 70.2127 178.356 70.1333 178.356 70.04V69.284C178.356 69.1907 178.384 69.1113 178.44 69.046C178.505 68.9807 178.584 68.948 178.678 68.948H179.56C179.653 68.948 179.732 68.9807 179.798 69.046C179.863 69.1113 179.896 69.1907 179.896 69.284V70.04C179.896 70.1333 179.863 70.2127 179.798 70.278C179.732 70.334 179.653 70.362 179.56 70.362H178.678ZM178.79 79C178.696 79 178.617 78.972 178.552 78.916C178.496 78.8507 178.468 78.7713 178.468 78.678V72.042C178.468 71.9487 178.496 71.874 178.552 71.818C178.617 71.7527 178.696 71.72 178.79 71.72H179.462C179.555 71.72 179.63 71.7527 179.686 71.818C179.751 71.874 179.784 71.9487 179.784 72.042V78.678C179.784 78.7713 179.751 78.8507 179.686 78.916C179.63 78.972 179.555 79 179.462 79H178.79ZM182.082 79C181.989 79 181.91 78.972 181.844 78.916C181.788 78.8507 181.76 78.7713 181.76 78.678V77.67C181.76 77.5767 181.788 77.502 181.844 77.446C181.91 77.3807 181.989 77.348 182.082 77.348H183.09C183.184 77.348 183.263 77.3807 183.328 77.446C183.394 77.502 183.426 77.5767 183.426 77.67V78.678C183.426 78.7713 183.394 78.8507 183.328 78.916C183.263 78.972 183.184 79 183.09 79H182.082ZM185.246 79C185.152 79 185.073 78.972 185.008 78.916C184.952 78.8507 184.924 78.7713 184.924 78.678V78.188C184.924 78.1133 184.942 78.0387 184.98 77.964C185.026 77.88 185.073 77.8053 185.12 77.74L188.984 72.826H185.372C185.278 72.826 185.199 72.798 185.134 72.742C185.078 72.6767 185.05 72.5973 185.05 72.504V72.042C185.05 71.9487 185.078 71.874 185.134 71.818C185.199 71.7527 185.278 71.72 185.372 71.72H190.356C190.449 71.72 190.524 71.7527 190.58 71.818C190.645 71.874 190.678 71.9487 190.678 72.042V72.56C190.678 72.6347 190.654 72.7093 190.608 72.784C190.57 72.8587 190.528 72.9287 190.482 72.994L186.66 77.894H190.636C190.738 77.894 190.818 77.922 190.874 77.978C190.93 78.034 190.958 78.1133 190.958 78.216V78.678C190.958 78.7713 190.925 78.8507 190.86 78.916C190.804 78.972 190.729 79 190.636 79H185.246ZM195.339 79.14C194.377 79.14 193.607 78.846 193.029 78.258C192.459 77.6607 192.147 76.8487 192.091 75.822L192.077 75.346L192.091 74.884C192.156 73.876 192.473 73.0733 193.043 72.476C193.621 71.8787 194.382 71.58 195.325 71.58C196.361 71.58 197.163 71.9113 197.733 72.574C198.302 73.2273 198.587 74.114 198.587 75.234V75.472C198.587 75.5653 198.554 75.6447 198.489 75.71C198.433 75.766 198.358 75.794 198.265 75.794H193.421V75.92C193.449 76.5267 193.631 77.0447 193.967 77.474C194.312 77.894 194.765 78.104 195.325 78.104C195.754 78.104 196.104 78.02 196.375 77.852C196.655 77.6747 196.86 77.4927 196.991 77.306C197.075 77.194 197.135 77.1287 197.173 77.11C197.219 77.082 197.299 77.068 197.411 77.068H198.097C198.181 77.068 198.251 77.0913 198.307 77.138C198.363 77.1847 198.391 77.25 198.391 77.334C198.391 77.5393 198.26 77.7867 197.999 78.076C197.747 78.3653 197.387 78.6173 196.921 78.832C196.463 79.0373 195.936 79.14 195.339 79.14ZM197.257 74.828V74.786C197.257 74.142 197.079 73.6193 196.725 73.218C196.379 72.8073 195.913 72.602 195.325 72.602C194.737 72.602 194.27 72.8073 193.925 73.218C193.589 73.6193 193.421 74.142 193.421 74.786V74.828H197.257ZM200.583 79C200.489 79 200.41 78.972 200.345 78.916C200.289 78.8507 200.261 78.7713 200.261 78.678V72.042C200.261 71.9487 200.289 71.874 200.345 71.818C200.41 71.7527 200.489 71.72 200.583 71.72H201.241C201.334 71.72 201.409 71.7527 201.465 71.818C201.53 71.874 201.563 71.9487 201.563 72.042V72.658C201.833 72.3127 202.151 72.0467 202.515 71.86C202.888 71.6733 203.35 71.58 203.901 71.58C204.797 71.58 205.492 71.8693 205.987 72.448C206.491 73.0173 206.743 73.778 206.743 74.73V78.678C206.743 78.7713 206.71 78.8507 206.645 78.916C206.589 78.972 206.514 79 206.421 79H205.721C205.627 79 205.548 78.972 205.483 78.916C205.427 78.8507 205.399 78.7713 205.399 78.678V74.8C205.399 74.1373 205.235 73.624 204.909 73.26C204.591 72.896 204.129 72.714 203.523 72.714C202.935 72.714 202.468 72.9007 202.123 73.274C201.777 73.638 201.605 74.1467 201.605 74.8V78.678C201.605 78.7713 201.572 78.8507 201.507 78.916C201.451 78.972 201.376 79 201.283 79H200.583ZM209.073 79C208.98 79 208.9 78.972 208.835 78.916C208.779 78.8507 208.751 78.7713 208.751 78.678V72.042C208.751 71.9487 208.779 71.874 208.835 71.818C208.9 71.7527 208.98 71.72 209.073 71.72H209.703C209.796 71.72 209.871 71.7527 209.927 71.818C209.992 71.874 210.025 71.9487 210.025 72.042V72.532C210.51 71.8973 211.187 71.58 212.055 71.58C213.091 71.58 213.824 72.0093 214.253 72.868C214.477 72.476 214.794 72.1633 215.205 71.93C215.616 71.6967 216.078 71.58 216.591 71.58C217.356 71.58 217.982 71.8413 218.467 72.364C218.952 72.8867 219.195 73.6427 219.195 74.632V78.678C219.195 78.7713 219.162 78.8507 219.097 78.916C219.041 78.972 218.966 79 218.873 79H218.215C218.122 79 218.042 78.972 217.977 78.916C217.921 78.8507 217.893 78.7713 217.893 78.678V74.758C217.893 74.03 217.739 73.5073 217.431 73.19C217.132 72.8727 216.736 72.714 216.241 72.714C215.802 72.714 215.424 72.8773 215.107 73.204C214.79 73.5213 214.631 74.0393 214.631 74.758V78.678C214.631 78.7713 214.598 78.8507 214.533 78.916C214.477 78.972 214.402 79 214.309 79H213.651C213.558 79 213.478 78.972 213.413 78.916C213.357 78.8507 213.329 78.7713 213.329 78.678V74.758C213.329 74.03 213.17 73.5073 212.853 73.19C212.545 72.8727 212.153 72.714 211.677 72.714C211.238 72.714 210.86 72.8773 210.543 73.204C210.226 73.5213 210.067 74.0347 210.067 74.744V78.678C210.067 78.7713 210.034 78.8507 209.969 78.916C209.913 78.972 209.838 79 209.745 79H209.073ZM221.528 79C221.435 79 221.356 78.972 221.29 78.916C221.234 78.8507 221.206 78.7713 221.206 78.678V69.382C221.206 69.2887 221.234 69.214 221.29 69.158C221.356 69.0927 221.435 69.06 221.528 69.06H222.186C222.28 69.06 222.354 69.0927 222.41 69.158C222.476 69.214 222.508 69.2887 222.508 69.382V78.678C222.508 78.7713 222.476 78.8507 222.41 78.916C222.354 78.972 222.28 79 222.186 79H221.528ZM224.821 79C224.727 79 224.648 78.972 224.583 78.916C224.527 78.8507 224.499 78.7713 224.499 78.678V77.67C224.499 77.5767 224.527 77.502 224.583 77.446C224.648 77.3807 224.727 77.348 224.821 77.348H225.829C225.922 77.348 226.001 77.3807 226.067 77.446C226.132 77.502 226.165 77.5767 226.165 77.67V78.678C226.165 78.7713 226.132 78.8507 226.067 78.916C226.001 78.972 225.922 79 225.829 79H224.821ZM228.334 70.362C228.241 70.362 228.161 70.334 228.096 70.278C228.04 70.2127 228.012 70.1333 228.012 70.04V69.284C228.012 69.1907 228.04 69.1113 228.096 69.046C228.161 68.9807 228.241 68.948 228.334 68.948H229.216C229.309 68.948 229.389 68.9807 229.454 69.046C229.519 69.1113 229.552 69.1907 229.552 69.284V70.04C229.552 70.1333 229.519 70.2127 229.454 70.278C229.389 70.334 229.309 70.362 229.216 70.362H228.334ZM228.446 79C228.353 79 228.273 78.972 228.208 78.916C228.152 78.8507 228.124 78.7713 228.124 78.678V72.042C228.124 71.9487 228.152 71.874 228.208 71.818C228.273 71.7527 228.353 71.72 228.446 71.72H229.118C229.211 71.72 229.286 71.7527 229.342 71.818C229.407 71.874 229.44 71.9487 229.44 72.042V78.678C229.44 78.7713 229.407 78.8507 229.342 78.916C229.286 78.972 229.211 79 229.118 79H228.446ZM234.497 79.14C233.47 79.14 232.672 78.8507 232.103 78.272C231.543 77.6933 231.244 76.9233 231.207 75.962L231.193 75.36L231.207 74.758C231.244 73.806 231.547 73.0407 232.117 72.462C232.686 71.874 233.479 71.58 234.497 71.58C235.514 71.58 236.307 71.874 236.877 72.462C237.446 73.0407 237.749 73.806 237.787 74.758C237.796 74.8607 237.801 75.0613 237.801 75.36C237.801 75.6587 237.796 75.8593 237.787 75.962C237.749 76.9233 237.446 77.6933 236.877 78.272C236.317 78.8507 235.523 79.14 234.497 79.14ZM234.497 78.062C235.085 78.062 235.547 77.8753 235.883 77.502C236.228 77.1287 236.415 76.592 236.443 75.892C236.452 75.7987 236.457 75.6213 236.457 75.36C236.457 75.0987 236.452 74.9213 236.443 74.828C236.415 74.128 236.228 73.5913 235.883 73.218C235.547 72.8447 235.085 72.658 234.497 72.658C233.909 72.658 233.442 72.8447 233.097 73.218C232.751 73.5913 232.569 74.128 232.551 74.828L232.537 75.36L232.551 75.892C232.569 76.592 232.751 77.1287 233.097 77.502C233.442 77.8753 233.909 78.062 234.497 78.062Z" fill="#22BBDD"/>
<path d="M37.748 53.362C37.6546 53.362 37.5753 53.334 37.51 53.278C37.454 53.2127 37.426 53.1333 37.426 53.04V52.284C37.426 52.1907 37.454 52.1113 37.51 52.046C37.5753 51.9807 37.6546 51.948 37.748 51.948H38.63C38.7233 51.948 38.8026 51.9807 38.868 52.046C38.9333 52.1113 38.966 52.1907 38.966 52.284V53.04C38.966 53.1333 38.9333 53.2127 38.868 53.278C38.8026 53.334 38.7233 53.362 38.63 53.362H37.748ZM37.86 62C37.7666 62 37.6873 61.972 37.622 61.916C37.566 61.8507 37.538 61.7713 37.538 61.678V55.042C37.538 54.9487 37.566 54.874 37.622 54.818C37.6873 54.7527 37.7666 54.72 37.86 54.72H38.532C38.6253 54.72 38.7 54.7527 38.756 54.818C38.8213 54.874 38.854 54.9487 38.854 55.042V61.678C38.854 61.7713 38.8213 61.8507 38.756 61.916C38.7 61.972 38.6253 62 38.532 62H37.86ZM41.2506 62C41.1572 62 41.0779 61.972 41.0126 61.916C40.9566 61.8507 40.9286 61.7713 40.9286 61.678V55.042C40.9286 54.9487 40.9566 54.874 41.0126 54.818C41.0779 54.7527 41.1572 54.72 41.2506 54.72H41.9086C42.0019 54.72 42.0766 54.7527 42.1326 54.818C42.1979 54.874 42.2306 54.9487 42.2306 55.042V55.658C42.5012 55.3127 42.8186 55.0467 43.1826 54.86C43.5559 54.6733 44.0179 54.58 44.5686 54.58C45.4646 54.58 46.1599 54.8693 46.6546 55.448C47.1586 56.0173 47.4106 56.778 47.4106 57.73V61.678C47.4106 61.7713 47.3779 61.8507 47.3126 61.916C47.2566 61.972 47.1819 62 47.0886 62H46.3886C46.2952 62 46.2159 61.972 46.1506 61.916C46.0946 61.8507 46.0666 61.7713 46.0666 61.678V57.8C46.0666 57.1373 45.9032 56.624 45.5766 56.26C45.2592 55.896 44.7972 55.714 44.1906 55.714C43.6026 55.714 43.1359 55.9007 42.7906 56.274C42.4452 56.638 42.2726 57.1467 42.2726 57.8V61.678C42.2726 61.7713 42.2399 61.8507 42.1746 61.916C42.1186 61.972 42.0439 62 41.9506 62H41.2506ZM51.9388 62.14C51.2855 62.14 50.7348 62.0373 50.2868 61.832C49.8481 61.6173 49.5168 61.3747 49.2928 61.104C49.0781 60.8333 48.9708 60.6093 48.9708 60.432C48.9708 60.3387 49.0035 60.2687 49.0688 60.222C49.1435 60.166 49.2181 60.138 49.2928 60.138H49.9228C50.0161 60.138 50.1001 60.1847 50.1748 60.278C50.3988 60.5393 50.6415 60.7447 50.9028 60.894C51.1641 61.0433 51.5141 61.118 51.9528 61.118C52.4381 61.118 52.8301 61.0247 53.1288 60.838C53.4368 60.642 53.5908 60.376 53.5908 60.04C53.5908 59.816 53.5255 59.634 53.3948 59.494C53.2735 59.3447 53.0588 59.2187 52.7508 59.116C52.4521 59.004 52.0041 58.8827 51.4068 58.752C50.5948 58.5747 50.0161 58.318 49.6708 57.982C49.3348 57.646 49.1668 57.212 49.1668 56.68C49.1668 56.3253 49.2695 55.9893 49.4748 55.672C49.6895 55.3453 49.9975 55.084 50.3988 54.888C50.8095 54.6827 51.2995 54.58 51.8688 54.58C52.4661 54.58 52.9748 54.678 53.3948 54.874C53.8148 55.07 54.1275 55.3033 54.3328 55.574C54.5475 55.8353 54.6548 56.0547 54.6548 56.232C54.6548 56.316 54.6221 56.386 54.5568 56.442C54.5008 56.498 54.4308 56.526 54.3468 56.526H53.7588C53.6468 56.526 53.5535 56.4793 53.4788 56.386C53.3295 56.2087 53.1988 56.0733 53.0868 55.98C52.9841 55.8773 52.8301 55.7887 52.6248 55.714C52.4288 55.6393 52.1768 55.602 51.8688 55.602C51.4208 55.602 51.0755 55.7 50.8328 55.896C50.5901 56.0827 50.4688 56.33 50.4688 56.638C50.4688 56.834 50.5201 57.002 50.6228 57.142C50.7255 57.2727 50.9215 57.394 51.2108 57.506C51.5095 57.618 51.9388 57.7347 52.4988 57.856C53.3855 58.0427 54.0108 58.3133 54.3748 58.668C54.7481 59.0133 54.9348 59.4567 54.9348 59.998C54.9348 60.3993 54.8181 60.7633 54.5848 61.09C54.3515 61.4167 54.0061 61.6733 53.5488 61.86C53.1008 62.0467 52.5641 62.14 51.9388 62.14ZM59.3839 62C57.9092 62 57.1719 61.1787 57.1719 59.536V55.84H56.0799C55.9865 55.84 55.9072 55.812 55.8419 55.756C55.7859 55.6907 55.7579 55.6113 55.7579 55.518V55.042C55.7579 54.9487 55.7859 54.874 55.8419 54.818C55.9072 54.7527 55.9865 54.72 56.0799 54.72H57.1719V52.382C57.1719 52.2887 57.1999 52.214 57.2559 52.158C57.3212 52.0927 57.4005 52.06 57.4939 52.06H58.1519C58.2452 52.06 58.3199 52.0927 58.3759 52.158C58.4412 52.214 58.4739 52.2887 58.4739 52.382V54.72H60.2099C60.3032 54.72 60.3779 54.7527 60.4339 54.818C60.4992 54.874 60.5319 54.9487 60.5319 55.042V55.518C60.5319 55.6113 60.4992 55.6907 60.4339 55.756C60.3779 55.812 60.3032 55.84 60.2099 55.84H58.4739V59.438C58.4739 59.9047 58.5532 60.2593 58.7119 60.502C58.8705 60.7353 59.1319 60.852 59.4959 60.852H60.3499C60.4432 60.852 60.5179 60.8847 60.5739 60.95C60.6392 61.006 60.6719 61.0807 60.6719 61.174V61.678C60.6719 61.7713 60.6392 61.8507 60.5739 61.916C60.5179 61.972 60.4432 62 60.3499 62H59.3839ZM64.0406 62.14C63.5833 62.14 63.1586 62.0467 62.7666 61.86C62.3746 61.6733 62.0619 61.4213 61.8286 61.104C61.6046 60.7773 61.4926 60.418 61.4926 60.026C61.4926 59.41 61.7446 58.906 62.2486 58.514C62.7619 58.1127 63.4526 57.8513 64.3206 57.73L66.4066 57.436V57.03C66.4066 56.078 65.8606 55.602 64.7686 55.602C64.3579 55.602 64.0219 55.6907 63.7606 55.868C63.4993 56.036 63.3033 56.2367 63.1726 56.47C63.1446 56.554 63.1073 56.6147 63.0606 56.652C63.0233 56.6893 62.9673 56.708 62.8926 56.708H62.2906C62.2066 56.708 62.1319 56.68 62.0666 56.624C62.0106 56.5587 61.9826 56.484 61.9826 56.4C61.9919 56.176 62.0946 55.924 62.2906 55.644C62.4959 55.3547 62.8086 55.1073 63.2286 54.902C63.6486 54.6873 64.1666 54.58 64.7826 54.58C65.8279 54.58 66.5793 54.8273 67.0366 55.322C67.4939 55.8073 67.7226 56.414 67.7226 57.142V61.678C67.7226 61.7713 67.6899 61.8507 67.6246 61.916C67.5686 61.972 67.4939 62 67.4006 62H66.7566C66.6633 62 66.5839 61.972 66.5186 61.916C66.4626 61.8507 66.4346 61.7713 66.4346 61.678V61.076C66.2293 61.3747 65.9306 61.6267 65.5386 61.832C65.1466 62.0373 64.6473 62.14 64.0406 62.14ZM64.3346 61.09C64.9413 61.09 65.4359 60.894 65.8186 60.502C66.2106 60.1007 66.4066 59.5267 66.4066 58.78V58.388L64.7826 58.626C64.1199 58.7193 63.6206 58.878 63.2846 59.102C62.9486 59.3167 62.7806 59.592 62.7806 59.928C62.7806 60.3013 62.9346 60.5907 63.2426 60.796C63.5506 60.992 63.9146 61.09 64.3346 61.09ZM70.0712 62C69.9779 62 69.8986 61.972 69.8332 61.916C69.7772 61.8507 69.7492 61.7713 69.7492 61.678V52.382C69.7492 52.2887 69.7772 52.214 69.8332 52.158C69.8986 52.0927 69.9779 52.06 70.0712 52.06H70.7292C70.8226 52.06 70.8972 52.0927 70.9532 52.158C71.0186 52.214 71.0512 52.2887 71.0512 52.382V61.678C71.0512 61.7713 71.0186 61.8507 70.9532 61.916C70.8972 61.972 70.8226 62 70.7292 62H70.0712ZM73.4755 62C73.3822 62 73.3028 61.972 73.2375 61.916C73.1815 61.8507 73.1535 61.7713 73.1535 61.678V52.382C73.1535 52.2887 73.1815 52.214 73.2375 52.158C73.3028 52.0927 73.3822 52.06 73.4755 52.06H74.1335C74.2268 52.06 74.3015 52.0927 74.3575 52.158C74.4228 52.214 74.4555 52.2887 74.4555 52.382V61.678C74.4555 61.7713 74.4228 61.8507 74.3575 61.916C74.3015 61.972 74.2268 62 74.1335 62H73.4755ZM79.8355 62C79.7421 62 79.6628 61.972 79.5975 61.916C79.5415 61.8507 79.5135 61.7713 79.5135 61.678V61.188C79.5135 61.1133 79.5321 61.0387 79.5695 60.964C79.6161 60.88 79.6628 60.8053 79.7095 60.74L83.5735 55.826H79.9615C79.8681 55.826 79.7888 55.798 79.7235 55.742C79.6675 55.6767 79.6395 55.5973 79.6395 55.504V55.042C79.6395 54.9487 79.6675 54.874 79.7235 54.818C79.7888 54.7527 79.8681 54.72 79.9615 54.72H84.9455C85.0388 54.72 85.1135 54.7527 85.1695 54.818C85.2348 54.874 85.2675 54.9487 85.2675 55.042V55.56C85.2675 55.6347 85.2441 55.7093 85.1975 55.784C85.1601 55.8587 85.1181 55.9287 85.0715 55.994L81.2495 60.894H85.2255C85.3281 60.894 85.4075 60.922 85.4635 60.978C85.5195 61.034 85.5475 61.1133 85.5475 61.216V61.678C85.5475 61.7713 85.5148 61.8507 85.4495 61.916C85.3935 61.972 85.3188 62 85.2255 62H79.8355ZM89.9285 62.14C88.9671 62.14 88.1971 61.846 87.6185 61.258C87.0491 60.6607 86.7365 59.8487 86.6805 58.822L86.6665 58.346L86.6805 57.884C86.7458 56.876 87.0631 56.0733 87.6325 55.476C88.2111 54.8787 88.9718 54.58 89.9145 54.58C90.9505 54.58 91.7531 54.9113 92.3225 55.574C92.8918 56.2273 93.1765 57.114 93.1765 58.234V58.472C93.1765 58.5653 93.1438 58.6447 93.0785 58.71C93.0225 58.766 92.9478 58.794 92.8545 58.794H88.0105V58.92C88.0385 59.5267 88.2205 60.0447 88.5565 60.474C88.9018 60.894 89.3545 61.104 89.9145 61.104C90.3438 61.104 90.6938 61.02 90.9645 60.852C91.2445 60.6747 91.4498 60.4927 91.5805 60.306C91.6645 60.194 91.7251 60.1287 91.7625 60.11C91.8091 60.082 91.8885 60.068 92.0005 60.068H92.6865C92.7705 60.068 92.8405 60.0913 92.8965 60.138C92.9525 60.1847 92.9805 60.25 92.9805 60.334C92.9805 60.5393 92.8498 60.7867 92.5885 61.076C92.3365 61.3653 91.9771 61.6173 91.5105 61.832C91.0531 62.0373 90.5258 62.14 89.9285 62.14ZM91.8465 57.828V57.786C91.8465 57.142 91.6691 56.6193 91.3145 56.218C90.9691 55.8073 90.5025 55.602 89.9145 55.602C89.3265 55.602 88.8598 55.8073 88.5145 56.218C88.1785 56.6193 88.0105 57.142 88.0105 57.786V57.828H91.8465ZM95.1725 62C95.0791 62 94.9998 61.972 94.9345 61.916C94.8785 61.8507 94.8505 61.7713 94.8505 61.678V55.042C94.8505 54.9487 94.8785 54.874 94.9345 54.818C94.9998 54.7527 95.0791 54.72 95.1725 54.72H95.8305C95.9238 54.72 95.9985 54.7527 96.0545 54.818C96.1198 54.874 96.1525 54.9487 96.1525 55.042V55.658C96.4231 55.3127 96.7405 55.0467 97.1045 54.86C97.4778 54.6733 97.9398 54.58 98.4905 54.58C99.3865 54.58 100.082 54.8693 100.576 55.448C101.08 56.0173 101.332 56.778 101.332 57.73V61.678C101.332 61.7713 101.3 61.8507 101.234 61.916C101.178 61.972 101.104 62 101.01 62H100.31C100.217 62 100.138 61.972 100.072 61.916C100.016 61.8507 99.9885 61.7713 99.9885 61.678V57.8C99.9885 57.1373 99.8251 56.624 99.4985 56.26C99.1811 55.896 98.7191 55.714 98.1125 55.714C97.5245 55.714 97.0578 55.9007 96.7125 56.274C96.3671 56.638 96.1945 57.1467 96.1945 57.8V61.678C96.1945 61.7713 96.1618 61.8507 96.0965 61.916C96.0405 61.972 95.9658 62 95.8725 62H95.1725ZM103.663 62C103.569 62 103.49 61.972 103.425 61.916C103.369 61.8507 103.341 61.7713 103.341 61.678V55.042C103.341 54.9487 103.369 54.874 103.425 54.818C103.49 54.7527 103.569 54.72 103.663 54.72H104.293C104.386 54.72 104.461 54.7527 104.517 54.818C104.582 54.874 104.615 54.9487 104.615 55.042V55.532C105.1 54.8973 105.777 54.58 106.645 54.58C107.681 54.58 108.413 55.0093 108.843 55.868C109.067 55.476 109.384 55.1633 109.795 54.93C110.205 54.6967 110.667 54.58 111.181 54.58C111.946 54.58 112.571 54.8413 113.057 55.364C113.542 55.8867 113.785 56.6427 113.785 57.632V61.678C113.785 61.7713 113.752 61.8507 113.687 61.916C113.631 61.972 113.556 62 113.463 62H112.805C112.711 62 112.632 61.972 112.567 61.916C112.511 61.8507 112.483 61.7713 112.483 61.678V57.758C112.483 57.03 112.329 56.5073 112.021 56.19C111.722 55.8727 111.325 55.714 110.831 55.714C110.392 55.714 110.014 55.8773 109.697 56.204C109.379 56.5213 109.221 57.0393 109.221 57.758V61.678C109.221 61.7713 109.188 61.8507 109.123 61.916C109.067 61.972 108.992 62 108.899 62H108.241C108.147 62 108.068 61.972 108.003 61.916C107.947 61.8507 107.919 61.7713 107.919 61.678V57.758C107.919 57.03 107.76 56.5073 107.443 56.19C107.135 55.8727 106.743 55.714 106.267 55.714C105.828 55.714 105.45 55.8773 105.133 56.204C104.815 56.5213 104.657 57.0347 104.657 57.744V61.678C104.657 61.7713 104.624 61.8507 104.559 61.916C104.503 61.972 104.428 62 104.335 62H103.663ZM116.118 62C116.025 62 115.945 61.972 115.88 61.916C115.824 61.8507 115.796 61.7713 115.796 61.678V52.382C115.796 52.2887 115.824 52.214 115.88 52.158C115.945 52.0927 116.025 52.06 116.118 52.06H116.776C116.869 52.06 116.944 52.0927 117 52.158C117.065 52.214 117.098 52.2887 117.098 52.382V61.678C117.098 61.7713 117.065 61.8507 117 61.916C116.944 61.972 116.869 62 116.776 62H116.118ZM119.438 58.388C119.345 58.388 119.266 58.36 119.2 58.304C119.144 58.2387 119.116 58.1593 119.116 58.066V57.534C119.116 57.4407 119.144 57.366 119.2 57.31C119.266 57.2447 119.345 57.212 119.438 57.212H123.638C123.732 57.212 123.806 57.2447 123.862 57.31C123.928 57.366 123.96 57.4407 123.96 57.534V58.066C123.96 58.1593 123.928 58.2387 123.862 58.304C123.806 58.36 123.732 58.388 123.638 58.388H119.438ZM127.847 62.14C127.39 62.14 126.965 62.0467 126.573 61.86C126.181 61.6733 125.869 61.4213 125.635 61.104C125.411 60.7773 125.299 60.418 125.299 60.026C125.299 59.41 125.551 58.906 126.055 58.514C126.569 58.1127 127.259 57.8513 128.127 57.73L130.213 57.436V57.03C130.213 56.078 129.667 55.602 128.575 55.602C128.165 55.602 127.829 55.6907 127.567 55.868C127.306 56.036 127.11 56.2367 126.979 56.47C126.951 56.554 126.914 56.6147 126.867 56.652C126.83 56.6893 126.774 56.708 126.699 56.708H126.097C126.013 56.708 125.939 56.68 125.873 56.624C125.817 56.5587 125.789 56.484 125.789 56.4C125.799 56.176 125.901 55.924 126.097 55.644C126.303 55.3547 126.615 55.1073 127.035 54.902C127.455 54.6873 127.973 54.58 128.589 54.58C129.635 54.58 130.386 54.8273 130.843 55.322C131.301 55.8073 131.529 56.414 131.529 57.142V61.678C131.529 61.7713 131.497 61.8507 131.431 61.916C131.375 61.972 131.301 62 131.207 62H130.563C130.47 62 130.391 61.972 130.325 61.916C130.269 61.8507 130.241 61.7713 130.241 61.678V61.076C130.036 61.3747 129.737 61.6267 129.345 61.832C128.953 62.0373 128.454 62.14 127.847 62.14ZM128.141 61.09C128.748 61.09 129.243 60.894 129.625 60.502C130.017 60.1007 130.213 59.5267 130.213 58.78V58.388L128.589 58.626C127.927 58.7193 127.427 58.878 127.091 59.102C126.755 59.3167 126.587 59.592 126.587 59.928C126.587 60.3013 126.741 60.5907 127.049 60.796C127.357 60.992 127.721 61.09 128.141 61.09ZM133.752 53.362C133.659 53.362 133.579 53.334 133.514 53.278C133.458 53.2127 133.43 53.1333 133.43 53.04V52.284C133.43 52.1907 133.458 52.1113 133.514 52.046C133.579 51.9807 133.659 51.948 133.752 51.948H134.634C134.727 51.948 134.807 51.9807 134.872 52.046C134.937 52.1113 134.97 52.1907 134.97 52.284V53.04C134.97 53.1333 134.937 53.2127 134.872 53.278C134.807 53.334 134.727 53.362 134.634 53.362H133.752ZM133.864 62C133.771 62 133.691 61.972 133.626 61.916C133.57 61.8507 133.542 61.7713 133.542 61.678V55.042C133.542 54.9487 133.57 54.874 133.626 54.818C133.691 54.7527 133.771 54.72 133.864 54.72H134.536C134.629 54.72 134.704 54.7527 134.76 54.818C134.825 54.874 134.858 54.9487 134.858 55.042V61.678C134.858 61.7713 134.825 61.8507 134.76 61.916C134.704 61.972 134.629 62 134.536 62H133.864ZM137.254 62C137.161 62 137.082 61.972 137.016 61.916C136.96 61.8507 136.932 61.7713 136.932 61.678V55.056C136.932 54.9627 136.96 54.8833 137.016 54.818C137.082 54.7527 137.161 54.72 137.254 54.72H137.898C137.992 54.72 138.071 54.7527 138.136 54.818C138.202 54.8833 138.234 54.9627 138.234 55.056V55.672C138.617 55.0373 139.27 54.72 140.194 54.72H140.74C140.834 54.72 140.908 54.7527 140.964 54.818C141.03 54.874 141.062 54.9487 141.062 55.042V55.616C141.062 55.7093 141.03 55.784 140.964 55.84C140.908 55.896 140.834 55.924 140.74 55.924H139.9C139.396 55.924 139 56.0733 138.71 56.372C138.421 56.6613 138.276 57.058 138.276 57.562V61.678C138.276 61.7713 138.244 61.8507 138.178 61.916C138.113 61.972 138.034 62 137.94 62H137.254ZM143.301 62C143.208 62 143.128 61.972 143.063 61.916C143.007 61.8507 142.979 61.7713 142.979 61.678V55.84H141.789C141.696 55.84 141.616 55.812 141.551 55.756C141.495 55.6907 141.467 55.6113 141.467 55.518V55.042C141.467 54.9487 141.495 54.874 141.551 54.818C141.616 54.7527 141.696 54.72 141.789 54.72H142.979V54.02C142.979 52.4333 143.782 51.64 145.387 51.64H146.171C146.264 51.64 146.339 51.6727 146.395 51.738C146.46 51.794 146.493 51.8687 146.493 51.962V52.438C146.493 52.5313 146.46 52.6107 146.395 52.676C146.339 52.732 146.264 52.76 146.171 52.76H145.415C144.995 52.76 144.701 52.872 144.533 53.096C144.365 53.3107 144.281 53.642 144.281 54.09V54.72H147.277V51.962C147.277 51.8687 147.305 51.794 147.361 51.738C147.426 51.6727 147.506 51.64 147.599 51.64H148.243C148.336 51.64 148.411 51.6727 148.467 51.738C148.532 51.794 148.565 51.8687 148.565 51.962V61.678C148.565 61.7713 148.532 61.8507 148.467 61.916C148.411 61.972 148.336 62 148.243 62H147.599C147.506 62 147.426 61.972 147.361 61.916C147.305 61.8507 147.277 61.7713 147.277 61.678V55.84H144.281V61.678C144.281 61.7713 144.248 61.8507 144.183 61.916C144.127 61.972 144.052 62 143.959 62H143.301ZM153.627 62.14C152.601 62.14 151.803 61.8507 151.233 61.272C150.673 60.6933 150.375 59.9233 150.337 58.962L150.323 58.36L150.337 57.758C150.375 56.806 150.678 56.0407 151.247 55.462C151.817 54.874 152.61 54.58 153.627 54.58C154.645 54.58 155.438 54.874 156.007 55.462C156.577 56.0407 156.88 56.806 156.917 57.758C156.927 57.8607 156.931 58.0613 156.931 58.36C156.931 58.6587 156.927 58.8593 156.917 58.962C156.88 59.9233 156.577 60.6933 156.007 61.272C155.447 61.8507 154.654 62.14 153.627 62.14ZM153.627 61.062C154.215 61.062 154.677 60.8753 155.013 60.502C155.359 60.1287 155.545 59.592 155.573 58.892C155.583 58.7987 155.587 58.6213 155.587 58.36C155.587 58.0987 155.583 57.9213 155.573 57.828C155.545 57.128 155.359 56.5913 155.013 56.218C154.677 55.8447 154.215 55.658 153.627 55.658C153.039 55.658 152.573 55.8447 152.227 56.218C151.882 56.5913 151.7 57.128 151.681 57.828L151.667 58.36L151.681 58.892C151.7 59.592 151.882 60.1287 152.227 60.502C152.573 60.8753 153.039 61.062 153.627 61.062ZM160.425 62C160.304 62 160.21 61.972 160.145 61.916C160.08 61.86 160.024 61.7713 159.977 61.65L157.989 55.154L157.961 55.014C157.961 54.93 157.989 54.86 158.045 54.804C158.11 54.748 158.18 54.72 158.255 54.72H158.871C158.964 54.72 159.039 54.748 159.095 54.804C159.16 54.8507 159.202 54.902 159.221 54.958L160.775 60.236L162.441 55.014C162.46 54.9393 162.502 54.874 162.567 54.818C162.632 54.7527 162.721 54.72 162.833 54.72H163.309C163.421 54.72 163.51 54.7527 163.575 54.818C163.64 54.874 163.682 54.9393 163.701 55.014L165.367 60.236L166.921 54.958C166.93 54.9113 166.963 54.86 167.019 54.804C167.084 54.748 167.164 54.72 167.257 54.72H167.887C167.962 54.72 168.027 54.748 168.083 54.804C168.139 54.86 168.167 54.93 168.167 55.014L168.139 55.154L166.165 61.65C166.118 61.7713 166.062 61.86 165.997 61.916C165.932 61.972 165.834 62 165.703 62H165.157C164.905 62 164.751 61.8833 164.695 61.65L163.071 56.638L161.447 61.65C161.372 61.8833 161.214 62 160.971 62H160.425ZM174.851 62.14C174.394 62.14 173.969 62.0467 173.577 61.86C173.185 61.6733 172.872 61.4213 172.639 61.104C172.415 60.7773 172.303 60.418 172.303 60.026C172.303 59.41 172.555 58.906 173.059 58.514C173.572 58.1127 174.263 57.8513 175.131 57.73L177.217 57.436V57.03C177.217 56.078 176.671 55.602 175.579 55.602C175.168 55.602 174.832 55.6907 174.571 55.868C174.31 56.036 174.114 56.2367 173.983 56.47C173.955 56.554 173.918 56.6147 173.871 56.652C173.834 56.6893 173.778 56.708 173.703 56.708H173.101C173.017 56.708 172.942 56.68 172.877 56.624C172.821 56.5587 172.793 56.484 172.793 56.4C172.802 56.176 172.905 55.924 173.101 55.644C173.306 55.3547 173.619 55.1073 174.039 54.902C174.459 54.6873 174.977 54.58 175.593 54.58C176.638 54.58 177.39 54.8273 177.847 55.322C178.304 55.8073 178.533 56.414 178.533 57.142V61.678C178.533 61.7713 178.5 61.8507 178.435 61.916C178.379 61.972 178.304 62 178.211 62H177.567C177.474 62 177.394 61.972 177.329 61.916C177.273 61.8507 177.245 61.7713 177.245 61.678V61.076C177.04 61.3747 176.741 61.6267 176.349 61.832C175.957 62.0373 175.458 62.14 174.851 62.14ZM175.145 61.09C175.752 61.09 176.246 60.894 176.629 60.502C177.021 60.1007 177.217 59.5267 177.217 58.78V58.388L175.593 58.626C174.93 58.7193 174.431 58.878 174.095 59.102C173.759 59.3167 173.591 59.592 173.591 59.928C173.591 60.3013 173.745 60.5907 174.053 60.796C174.361 60.992 174.725 61.09 175.145 61.09ZM180.756 53.362C180.662 53.362 180.583 53.334 180.518 53.278C180.462 53.2127 180.434 53.1333 180.434 53.04V52.284C180.434 52.1907 180.462 52.1113 180.518 52.046C180.583 51.9807 180.662 51.948 180.756 51.948H181.638C181.731 51.948 181.81 51.9807 181.876 52.046C181.941 52.1113 181.974 52.1907 181.974 52.284V53.04C181.974 53.1333 181.941 53.2127 181.876 53.278C181.81 53.334 181.731 53.362 181.638 53.362H180.756ZM180.868 62C180.774 62 180.695 61.972 180.63 61.916C180.574 61.8507 180.546 61.7713 180.546 61.678V55.042C180.546 54.9487 180.574 54.874 180.63 54.818C180.695 54.7527 180.774 54.72 180.868 54.72H181.54C181.633 54.72 181.708 54.7527 181.764 54.818C181.829 54.874 181.862 54.9487 181.862 55.042V61.678C181.862 61.7713 181.829 61.8507 181.764 61.916C181.708 61.972 181.633 62 181.54 62H180.868ZM184.258 62C184.165 62 184.086 61.972 184.02 61.916C183.964 61.8507 183.936 61.7713 183.936 61.678V55.056C183.936 54.9627 183.964 54.8833 184.02 54.818C184.086 54.7527 184.165 54.72 184.258 54.72H184.902C184.996 54.72 185.075 54.7527 185.14 54.818C185.206 54.8833 185.238 54.9627 185.238 55.056V55.672C185.621 55.0373 186.274 54.72 187.198 54.72H187.744C187.838 54.72 187.912 54.7527 187.968 54.818C188.034 54.874 188.066 54.9487 188.066 55.042V55.616C188.066 55.7093 188.034 55.784 187.968 55.84C187.912 55.896 187.838 55.924 187.744 55.924H186.904C186.4 55.924 186.004 56.0733 185.714 56.372C185.425 56.6613 185.28 57.058 185.28 57.562V61.678C185.28 61.7713 185.248 61.8507 185.182 61.916C185.117 61.972 185.038 62 184.944 62H184.258ZM190.305 62C190.211 62 190.132 61.972 190.067 61.916C190.011 61.8507 189.983 61.7713 189.983 61.678V55.84H188.793C188.699 55.84 188.62 55.812 188.555 55.756C188.499 55.6907 188.471 55.6113 188.471 55.518V55.042C188.471 54.9487 188.499 54.874 188.555 54.818C188.62 54.7527 188.699 54.72 188.793 54.72H189.983V54.02C189.983 52.4333 190.785 51.64 192.391 51.64H193.175C193.268 51.64 193.343 51.6727 193.399 51.738C193.464 51.794 193.497 51.8687 193.497 51.962V52.438C193.497 52.5313 193.464 52.6107 193.399 52.676C193.343 52.732 193.268 52.76 193.175 52.76H192.419C191.999 52.76 191.705 52.872 191.537 53.096C191.369 53.3107 191.285 53.642 191.285 54.09V54.72H194.281V51.962C194.281 51.8687 194.309 51.794 194.365 51.738C194.43 51.6727 194.509 51.64 194.603 51.64H195.247C195.34 51.64 195.415 51.6727 195.471 51.738C195.536 51.794 195.569 51.8687 195.569 51.962V61.678C195.569 61.7713 195.536 61.8507 195.471 61.916C195.415 61.972 195.34 62 195.247 62H194.603C194.509 62 194.43 61.972 194.365 61.916C194.309 61.8507 194.281 61.7713 194.281 61.678V55.84H191.285V61.678C191.285 61.7713 191.252 61.8507 191.187 61.916C191.131 61.972 191.056 62 190.963 62H190.305ZM200.631 62.14C199.605 62.14 198.807 61.8507 198.237 61.272C197.677 60.6933 197.379 59.9233 197.341 58.962L197.327 58.36L197.341 57.758C197.379 56.806 197.682 56.0407 198.251 55.462C198.821 54.874 199.614 54.58 200.631 54.58C201.649 54.58 202.442 54.874 203.011 55.462C203.581 56.0407 203.884 56.806 203.921 57.758C203.931 57.8607 203.935 58.0613 203.935 58.36C203.935 58.6587 203.931 58.8593 203.921 58.962C203.884 59.9233 203.581 60.6933 203.011 61.272C202.451 61.8507 201.658 62.14 200.631 62.14ZM200.631 61.062C201.219 61.062 201.681 60.8753 202.017 60.502C202.363 60.1287 202.549 59.592 202.577 58.892C202.587 58.7987 202.591 58.6213 202.591 58.36C202.591 58.0987 202.587 57.9213 202.577 57.828C202.549 57.128 202.363 56.5913 202.017 56.218C201.681 55.8447 201.219 55.658 200.631 55.658C200.043 55.658 199.577 55.8447 199.231 56.218C198.886 56.5913 198.704 57.128 198.685 57.828L198.671 58.36L198.685 58.892C198.704 59.592 198.886 60.1287 199.231 60.502C199.577 60.8753 200.043 61.062 200.631 61.062ZM207.429 62C207.308 62 207.214 61.972 207.149 61.916C207.084 61.86 207.028 61.7713 206.981 61.65L204.993 55.154L204.965 55.014C204.965 54.93 204.993 54.86 205.049 54.804C205.114 54.748 205.184 54.72 205.259 54.72H205.875C205.968 54.72 206.043 54.748 206.099 54.804C206.164 54.8507 206.206 54.902 206.225 54.958L207.779 60.236L209.445 55.014C209.464 54.9393 209.506 54.874 209.571 54.818C209.636 54.7527 209.725 54.72 209.837 54.72H210.313C210.425 54.72 210.514 54.7527 210.579 54.818C210.644 54.874 210.686 54.9393 210.705 55.014L212.371 60.236L213.925 54.958C213.934 54.9113 213.967 54.86 214.023 54.804C214.088 54.748 214.168 54.72 214.261 54.72H214.891C214.966 54.72 215.031 54.748 215.087 54.804C215.143 54.86 215.171 54.93 215.171 55.014L215.143 55.154L213.169 61.65C213.122 61.7713 213.066 61.86 213.001 61.916C212.936 61.972 212.838 62 212.707 62H212.161C211.909 62 211.755 61.8833 211.699 61.65L210.075 56.638L208.451 61.65C208.376 61.8833 208.218 62 207.975 62H207.429ZM217.002 56.596C216.908 56.596 216.834 56.568 216.778 56.512C216.722 56.456 216.694 56.3813 216.694 56.288V55.812C216.694 55.7187 216.722 55.644 216.778 55.588C216.834 55.5227 216.908 55.49 217.002 55.49H222.336C222.429 55.49 222.504 55.5227 222.56 55.588C222.625 55.644 222.658 55.7187 222.658 55.812V56.288C222.658 56.3813 222.625 56.456 222.56 56.512C222.504 56.568 222.429 56.596 222.336 56.596H217.002ZM217.002 60.096C216.908 60.096 216.834 60.068 216.778 60.012C216.722 59.956 216.694 59.8813 216.694 59.788V59.312C216.694 59.2187 216.722 59.144 216.778 59.088C216.834 59.0227 216.908 58.99 217.002 58.99H222.336C222.429 58.99 222.504 59.0227 222.56 59.088C222.625 59.144 222.658 59.2187 222.658 59.312V59.788C222.658 59.8813 222.625 59.956 222.56 60.012C222.504 60.068 222.429 60.096 222.336 60.096H217.002ZM224.986 56.596C224.893 56.596 224.818 56.568 224.762 56.512C224.706 56.456 224.678 56.3813 224.678 56.288V55.812C224.678 55.7187 224.706 55.644 224.762 55.588C224.818 55.5227 224.893 55.49 224.986 55.49H230.32C230.413 55.49 230.488 55.5227 230.544 55.588C230.609 55.644 230.642 55.7187 230.642 55.812V56.288C230.642 56.3813 230.609 56.456 230.544 56.512C230.488 56.568 230.413 56.596 230.32 56.596H224.986ZM224.986 60.096C224.893 60.096 224.818 60.068 224.762 60.012C224.706 59.956 224.678 59.8813 224.678 59.788V59.312C224.678 59.2187 224.706 59.144 224.762 59.088C224.818 59.0227 224.893 58.99 224.986 58.99H230.32C230.413 58.99 230.488 59.0227 230.544 59.088C230.609 59.144 230.642 59.2187 230.642 59.312V59.788C230.642 59.8813 230.609 59.956 230.544 60.012C230.488 60.068 230.413 60.096 230.32 60.096H224.986ZM232.662 62C232.569 62 232.49 61.972 232.424 61.916C232.368 61.8507 232.34 61.7713 232.34 61.678V61.23C232.34 61.0153 232.457 60.81 232.69 60.614L235.658 57.646C236.377 57.0487 236.872 56.5633 237.142 56.19C237.413 55.8073 237.548 55.406 237.548 54.986C237.548 54.4447 237.394 54.02 237.086 53.712C236.788 53.404 236.349 53.25 235.77 53.25C235.229 53.25 234.795 53.4133 234.468 53.74C234.142 54.0573 233.941 54.482 233.866 55.014C233.848 55.126 233.801 55.21 233.726 55.266C233.661 55.3127 233.586 55.336 233.502 55.336H232.774C232.69 55.336 232.62 55.3127 232.564 55.266C232.508 55.21 232.48 55.1447 232.48 55.07C232.499 54.566 232.634 54.0853 232.886 53.628C233.138 53.1613 233.507 52.7833 233.992 52.494C234.487 52.1953 235.08 52.046 235.77 52.046C236.825 52.046 237.618 52.3213 238.15 52.872C238.692 53.4133 238.962 54.104 238.962 54.944C238.962 55.532 238.813 56.064 238.514 56.54C238.225 57.0067 237.772 57.5107 237.156 58.052L234.468 60.782H238.836C238.939 60.782 239.018 60.8147 239.074 60.88C239.14 60.936 239.172 61.0107 239.172 61.104V61.678C239.172 61.7713 239.14 61.8507 239.074 61.916C239.009 61.972 238.93 62 238.836 62H232.662ZM241.131 62C241.038 62 240.958 61.972 240.893 61.916C240.837 61.8507 240.809 61.7713 240.809 61.678V60.67C240.809 60.5767 240.837 60.502 240.893 60.446C240.958 60.3807 241.038 60.348 241.131 60.348H242.139C242.232 60.348 242.312 60.3807 242.377 60.446C242.442 60.502 242.475 60.5767 242.475 60.67V61.678C242.475 61.7713 242.442 61.8507 242.377 61.916C242.312 61.972 242.232 62 242.139 62H241.131ZM247.57 62.14C246.833 62.14 246.194 62.0233 245.652 61.79C245.12 61.5473 244.714 61.2347 244.434 60.852C244.164 60.4693 244.019 60.068 244 59.648C244 59.564 244.028 59.4987 244.084 59.452C244.14 59.396 244.21 59.368 244.294 59.368H244.98C245.176 59.368 245.307 59.4707 245.372 59.676C245.494 60.1427 245.755 60.474 246.156 60.67C246.558 60.8567 247.029 60.95 247.57 60.95C248.233 60.95 248.76 60.796 249.152 60.488C249.544 60.1707 249.74 59.718 249.74 59.13C249.74 58.0007 249.054 57.436 247.682 57.436H246.352C246.259 57.436 246.18 57.408 246.114 57.352C246.058 57.2867 246.03 57.2073 246.03 57.114V56.736C246.03 56.6053 246.082 56.4793 246.184 56.358L248.9 53.39H244.77C244.677 53.39 244.598 53.362 244.532 53.306C244.476 53.2407 244.448 53.1613 244.448 53.068V52.536C244.448 52.4427 244.476 52.3633 244.532 52.298C244.598 52.2327 244.677 52.2 244.77 52.2H250.356C250.459 52.2 250.538 52.2327 250.594 52.298C250.66 52.354 250.692 52.4333 250.692 52.536V53.04C250.692 53.152 250.641 53.2593 250.538 53.362L247.836 56.372L248.06 56.386C249.012 56.414 249.764 56.6613 250.314 57.128C250.865 57.5947 251.14 58.276 251.14 59.172C251.14 59.7787 250.986 60.306 250.678 60.754C250.37 61.202 249.946 61.5473 249.404 61.79C248.863 62.0233 248.252 62.14 247.57 62.14ZM253.067 62C252.973 62 252.894 61.972 252.829 61.916C252.773 61.8507 252.745 61.7713 252.745 61.678V60.67C252.745 60.5767 252.773 60.502 252.829 60.446C252.894 60.3807 252.973 60.348 253.067 60.348H254.075C254.168 60.348 254.247 60.3807 254.313 60.446C254.378 60.502 254.411 60.5767 254.411 60.67V61.678C254.411 61.7713 254.378 61.8507 254.313 61.916C254.247 61.972 254.168 62 254.075 62H253.067ZM259.567 62.14C258.363 62.14 257.481 61.79 256.921 61.09C256.361 60.39 256.062 59.4707 256.025 58.332C256.016 58.08 256.011 57.674 256.011 57.114C256.011 56.5353 256.016 56.1153 256.025 55.854C256.053 54.734 256.352 53.824 256.921 53.124C257.49 52.4147 258.372 52.06 259.567 52.06C260.771 52.06 261.658 52.4147 262.227 53.124C262.796 53.824 263.095 54.734 263.123 55.854C263.142 56.3767 263.151 56.7967 263.151 57.114C263.151 57.422 263.142 57.828 263.123 58.332C263.086 59.4707 262.787 60.39 262.227 61.09C261.667 61.79 260.78 62.14 259.567 62.14ZM259.567 60.936C260.267 60.936 260.794 60.7027 261.149 60.236C261.513 59.7693 261.704 59.1113 261.723 58.262C261.742 57.7207 261.751 57.3287 261.751 57.086C261.751 56.8247 261.742 56.442 261.723 55.938C261.704 55.098 261.518 54.44 261.163 53.964C260.808 53.488 260.276 53.25 259.567 53.25C258.867 53.25 258.335 53.488 257.971 53.964C257.616 54.44 257.43 55.098 257.411 55.938L257.397 57.086L257.411 58.262C257.43 59.1113 257.616 59.7693 257.971 60.236C258.335 60.7027 258.867 60.936 259.567 60.936ZM14.288 75.388C14.1947 75.388 14.1153 75.36 14.05 75.304C13.994 75.2387 13.966 75.1593 13.966 75.066V74.534C13.966 74.4407 13.994 74.366 14.05 74.31C14.1153 74.2447 14.1947 74.212 14.288 74.212H18.488C18.5813 74.212 18.656 74.2447 18.712 74.31C18.7773 74.366 18.81 74.4407 18.81 74.534V75.066C18.81 75.1593 18.7773 75.2387 18.712 75.304C18.656 75.36 18.5813 75.388 18.488 75.388H14.288ZM21.0693 75.388C20.9759 75.388 20.8966 75.36 20.8313 75.304C20.7753 75.2387 20.7473 75.1593 20.7473 75.066V74.534C20.7473 74.4407 20.7753 74.366 20.8313 74.31C20.8966 74.2447 20.9759 74.212 21.0693 74.212H25.2693C25.3626 74.212 25.4373 74.2447 25.4933 74.31C25.5586 74.366 25.5913 74.4407 25.5913 74.534V75.066C25.5913 75.1593 25.5586 75.2387 25.4933 75.304C25.4373 75.36 25.3626 75.388 25.2693 75.388H21.0693ZM27.8085 70.362C27.7152 70.362 27.6358 70.334 27.5705 70.278C27.5145 70.2127 27.4865 70.1333 27.4865 70.04V69.284C27.4865 69.1907 27.5145 69.1113 27.5705 69.046C27.6358 68.9807 27.7152 68.948 27.8085 68.948H28.6905C28.7838 68.948 28.8632 68.9807 28.9285 69.046C28.9938 69.1113 29.0265 69.1907 29.0265 69.284V70.04C29.0265 70.1333 28.9938 70.2127 28.9285 70.278C28.8632 70.334 28.7838 70.362 28.6905 70.362H27.8085ZM27.9205 79C27.8272 79 27.7478 78.972 27.6825 78.916C27.6265 78.8507 27.5985 78.7713 27.5985 78.678V72.042C27.5985 71.9487 27.6265 71.874 27.6825 71.818C27.7478 71.7527 27.8272 71.72 27.9205 71.72H28.5925C28.6858 71.72 28.7605 71.7527 28.8165 71.818C28.8818 71.874 28.9145 71.9487 28.9145 72.042V78.678C28.9145 78.7713 28.8818 78.8507 28.8165 78.916C28.7605 78.972 28.6858 79 28.5925 79H27.9205ZM31.3111 79C31.2178 79 31.1385 78.972 31.0731 78.916C31.0171 78.8507 30.9891 78.7713 30.9891 78.678V72.042C30.9891 71.9487 31.0171 71.874 31.0731 71.818C31.1385 71.7527 31.2178 71.72 31.3111 71.72H31.9691C32.0625 71.72 32.1371 71.7527 32.1931 71.818C32.2585 71.874 32.2911 71.9487 32.2911 72.042V72.658C32.5618 72.3127 32.8791 72.0467 33.2431 71.86C33.6165 71.6733 34.0785 71.58 34.6291 71.58C35.5251 71.58 36.2205 71.8693 36.7151 72.448C37.2191 73.0173 37.4711 73.778 37.4711 74.73V78.678C37.4711 78.7713 37.4385 78.8507 37.3731 78.916C37.3171 78.972 37.2425 79 37.1491 79H36.4491C36.3558 79 36.2765 78.972 36.2111 78.916C36.1551 78.8507 36.1271 78.7713 36.1271 78.678V74.8C36.1271 74.1373 35.9638 73.624 35.6371 73.26C35.3198 72.896 34.8578 72.714 34.2511 72.714C33.6631 72.714 33.1965 72.9007 32.8511 73.274C32.5058 73.638 32.3331 74.1467 32.3331 74.8V78.678C32.3331 78.7713 32.3005 78.8507 32.2351 78.916C32.1791 78.972 32.1045 79 32.0111 79H31.3111ZM42.1394 79.14C41.1687 79.14 40.436 78.8227 39.9414 78.188C39.4467 77.5533 39.1854 76.7507 39.1574 75.78L39.1434 75.36L39.1574 74.94C39.1854 73.9787 39.4467 73.1807 39.9414 72.546C40.436 71.902 41.1687 71.58 42.1394 71.58C43.1007 71.58 43.8567 71.9207 44.4074 72.602V69.382C44.4074 69.2887 44.4354 69.214 44.4914 69.158C44.5567 69.0927 44.636 69.06 44.7294 69.06H45.4014C45.4947 69.06 45.5694 69.0927 45.6254 69.158C45.6907 69.214 45.7234 69.2887 45.7234 69.382V78.678C45.7234 78.7713 45.6907 78.8507 45.6254 78.916C45.5694 78.972 45.4947 79 45.4014 79H44.7714C44.678 79 44.5987 78.972 44.5334 78.916C44.4774 78.8507 44.4494 78.7713 44.4494 78.678V78.09C43.908 78.79 43.138 79.14 42.1394 79.14ZM42.4334 78.006C43.0774 78.006 43.558 77.796 43.8754 77.376C44.202 76.9467 44.3794 76.438 44.4074 75.85C44.4167 75.7473 44.4214 75.57 44.4214 75.318C44.4214 75.0567 44.4167 74.8747 44.4074 74.772C44.3887 74.2213 44.2114 73.7407 43.8754 73.33C43.5394 72.9193 43.0587 72.714 42.4334 72.714C41.7707 72.714 41.2854 72.9193 40.9774 73.33C40.6787 73.7407 40.5154 74.282 40.4874 74.954L40.4734 75.36C40.4734 77.124 41.1267 78.006 42.4334 78.006ZM50.7175 79.14C49.7562 79.14 48.9862 78.846 48.4075 78.258C47.8382 77.6607 47.5255 76.8487 47.4695 75.822L47.4555 75.346L47.4695 74.884C47.5349 73.876 47.8522 73.0733 48.4215 72.476C49.0002 71.8787 49.7609 71.58 50.7035 71.58C51.7395 71.58 52.5422 71.9113 53.1115 72.574C53.6809 73.2273 53.9655 74.114 53.9655 75.234V75.472C53.9655 75.5653 53.9329 75.6447 53.8675 75.71C53.8115 75.766 53.7369 75.794 53.6435 75.794H48.7995V75.92C48.8275 76.5267 49.0095 77.0447 49.3455 77.474C49.6909 77.894 50.1435 78.104 50.7035 78.104C51.1329 78.104 51.4829 78.02 51.7535 77.852C52.0335 77.6747 52.2389 77.4927 52.3695 77.306C52.4535 77.194 52.5142 77.1287 52.5515 77.11C52.5982 77.082 52.6775 77.068 52.7895 77.068H53.4755C53.5595 77.068 53.6295 77.0913 53.6855 77.138C53.7415 77.1847 53.7695 77.25 53.7695 77.334C53.7695 77.5393 53.6389 77.7867 53.3775 78.076C53.1255 78.3653 52.7662 78.6173 52.2995 78.832C51.8422 79.0373 51.3149 79.14 50.7175 79.14ZM52.6355 74.828V74.786C52.6355 74.142 52.4582 73.6193 52.1035 73.218C51.7582 72.8073 51.2915 72.602 50.7035 72.602C50.1155 72.602 49.6489 72.8073 49.3035 73.218C48.9675 73.6193 48.7995 74.142 48.7995 74.786V74.828H52.6355ZM55.1531 79C55.0785 79 55.0085 78.972 54.9431 78.916C54.8871 78.86 54.8591 78.79 54.8591 78.706C54.8591 78.622 54.8918 78.538 54.9571 78.454L57.3931 75.276L55.1111 72.266C55.0458 72.1913 55.0131 72.1073 55.0131 72.014C55.0131 71.93 55.0411 71.86 55.0971 71.804C55.1531 71.748 55.2231 71.72 55.3071 71.72H56.0211C56.1611 71.72 56.2825 71.7947 56.3851 71.944L58.2471 74.366L60.1091 71.958C60.1651 71.8833 60.2165 71.8273 60.2631 71.79C60.3191 71.7433 60.3891 71.72 60.4731 71.72H61.1591C61.2431 71.72 61.3131 71.748 61.3691 71.804C61.4251 71.86 61.4531 71.93 61.4531 72.014C61.4531 72.1073 61.4205 72.1913 61.3551 72.266L59.0451 75.304L61.4811 78.454C61.5465 78.538 61.5791 78.622 61.5791 78.706C61.5791 78.79 61.5511 78.86 61.4951 78.916C61.4391 78.972 61.3691 79 61.2851 79H60.5431C60.4031 79 60.2818 78.93 60.1791 78.79L58.2191 76.228L56.2311 78.79C56.1751 78.8553 56.1191 78.9067 56.0631 78.944C56.0165 78.9813 55.9511 79 55.8671 79H55.1531Z" fill="white"/>
<defs>
<linearGradient id="paint0_linear_3651_36452" x1="0" y1="70.4348" x2="294" y2="70.4348" gradientUnits="userSpaceOnUse">
<stop stop-color="#B58EB1"/>
<stop offset="1" stop-color="#443D99"/>
</linearGradient>
</defs>
</svg>
