<svg width="87" height="134" viewBox="0 80 87 134" fill="none" xmlns="http://www.w3.org/2000/svg">
<g filter="url(#filter0_d_3651_39275)">
<path d="M11 182.096V5H80V182.096L46.4857 201L11 182.096Z" fill="#F5F5F7"/>
</g>
<path d="M62.7822 137.346C63.5574 134.99 63.8313 132.499 63.5866 130.032C63.3419 127.565 62.5838 125.176 61.3608 123.017L49.0899 122.707V122.554L60.9011 122.256C59.4746 120.018 57.5665 118.124 55.3149 116.711L45.8387 116.475V116.322L54.2605 116.11C50.8091 114.265 46.8443 113.604 42.9785 114.23C39.1127 114.855 35.5611 116.732 32.8721 119.57L43.473 119.837V119.991L32.2385 120.273C29.4968 123.484 27.994 127.565 28 131.781C28 131.972 28 132.157 28.0096 132.345C28.0089 132.357 28.0089 132.37 28.0096 132.382L32.2397 132.489V132.642L28.0256 132.747C28.0263 132.76 28.0263 132.773 28.0256 132.785C28.1793 135.56 28.9869 138.259 30.383 140.664L37.4398 140.842V140.995L30.6854 141.165C32.3422 143.816 34.6679 145.988 37.4302 147.463C37.6501 147.582 37.8727 147.695 38.0984 147.803V133.035H39.8093C39.8752 133.035 39.9404 133.048 40.0013 133.073C40.0621 133.098 40.1174 133.135 40.164 133.181C40.2105 133.227 40.2475 133.283 40.2726 133.343C40.2978 133.404 40.3107 133.469 40.3106 133.535V148.689C43.903 149.849 47.7712 149.849 51.3635 148.689V133.535C51.3634 133.469 51.3763 133.404 51.4015 133.343C51.4267 133.283 51.4636 133.227 51.5102 133.181C51.5567 133.135 51.612 133.098 51.6729 133.073C51.7337 133.048 51.7989 133.035 51.8648 133.035H53.5751V147.803C53.7976 147.696 54.0195 147.584 54.2362 147.468C55.9807 146.539 57.558 145.327 58.9037 143.883L54.4703 143.77V143.617L59.2503 143.497C60.7167 141.832 61.8572 139.908 62.6127 137.825L56.2343 137.664V137.511L62.7822 137.346ZM56.0489 132.566H35.6252L35.2563 131.096H38.0984V129.521H38.6776C38.8849 129.521 39.09 129.562 39.2814 129.641C39.4729 129.72 39.6468 129.836 39.7932 129.982C39.9397 130.128 40.0559 130.301 40.1351 130.492C40.2143 130.683 40.2551 130.888 40.255 131.094H44.7306V128.996H33.8887C33.6771 127.317 32.6771 126.005 32.6771 126.005C35.6252 126.687 45.8387 126.739 45.8387 126.739C45.8387 126.739 56.0502 126.687 58.9964 126.005C58.9964 126.005 57.9984 127.317 57.7867 128.996H46.9422V131.095H51.4179C51.4179 130.888 51.4587 130.684 51.5381 130.493C51.6175 130.302 51.7338 130.128 51.8805 129.982C52.0271 129.836 52.2012 129.72 52.3928 129.641C52.5844 129.562 52.7898 129.521 52.9971 129.521H53.5751V131.095H56.4184L56.0489 132.566Z" fill="#431D93"/>
<path d="M62.7467 156.277L62.5706 156.099H61.1618L60.9844 156.277V162.702C60.9844 164.309 62.2171 165.023 63.4498 165.023H66.824L67.0001 164.844V163.595L66.824 163.416H63.451C63.099 163.416 62.7467 163.238 62.7467 162.702V156.277Z" fill="#424240"/>
<path d="M56.5444 156.009C55.3117 156.009 54.431 156.545 53.9028 157.259H53.7259C53.3737 156.723 52.8453 156.009 51.4367 156.009C51.3214 156.009 50.611 156.023 50.611 156.023L50.4336 156.202V157.454L50.611 157.633H51.2218C52.3432 157.759 52.4932 158.593 52.4932 159.578V164.933L52.6694 165.112H54.0782L54.2543 164.933V159.937C54.2543 158.509 54.9586 157.617 56.1916 157.617C57.6004 157.617 57.7765 158.509 57.7765 159.58V164.935L57.9539 165.114H59.3628L59.5389 164.935V159.58C59.5381 157.616 59.0097 156.009 56.5444 156.009Z" fill="#424240"/>
<path d="M48.1136 156.188L47.9375 156.367V164.933L48.1136 165.112H49.5225L49.6986 164.933V156.367L49.5225 156.188H48.1136Z" fill="#424240"/>
<path d="M41.8517 164.847L41.7232 164.975H40.1795L40.0508 164.847V158.692L40.1795 158.564H41.7229L41.8517 158.692V164.847Z" fill="#424240"/>
<path d="M42.9373 159.974L42.8086 159.846V158.564L42.9373 158.436H43.6528C45.1964 158.436 46.0969 159.462 46.0969 161V164.847L45.9681 164.975H44.4245L44.296 164.847V161.129C44.296 160.488 44.0388 159.975 43.2668 159.975L42.9373 159.974Z" fill="#424240"/>
<path d="M32.7654 162.411C32.7343 162.199 32.7187 161.984 32.7188 161.77C32.7188 159.975 33.7479 158.435 35.8061 158.435C37.8642 158.435 38.8931 159.974 38.8931 161.77V162.282L38.7646 162.411H34.7776L32.7654 162.411ZM36.8357 163.18L36.9645 163.052H38.5081L38.6369 163.18H36.8357ZM36.9642 161C36.9642 160.872 36.8355 159.974 35.8066 159.974C34.7776 159.974 34.6489 160.872 34.6489 161L34.7774 161.129H36.8355L36.9642 161Z" fill="#424240"/>
<path d="M38.6357 163.18C38.5069 163.949 37.864 165.103 35.9343 165.103C34.0047 165.103 33.1131 163.949 32.9844 163.18L33.1131 163.052H34.843L34.9718 163.18C35.1003 163.437 35.5483 163.565 35.9348 163.565C36.3208 163.565 36.7068 163.437 36.8353 163.18" fill="#424240"/>
<path d="M31.3033 157.539H25.2577L25.1289 157.41V156.128L25.2577 156H31.3033L31.432 156.128V157.41" fill="#424240"/>
<path d="M27.1866 163.308V163.437H31.5603L31.6888 163.565V164.847L31.5603 164.975H25.1285L25 164.847V163.437L25.1285 163.18L26.6377 161.169L28.6907 158.534L28.8192 158.405H30.5925L30.721 158.534L27.1866 163.308Z" fill="#424240"/>
<path d="M21.788 179C21.708 179 21.64 178.976 21.584 178.928C21.536 178.872 21.512 178.804 21.512 178.724V173.72H20.492C20.412 173.72 20.344 173.696 20.288 173.648C20.24 173.592 20.216 173.524 20.216 173.444V173.036C20.216 172.956 20.24 172.892 20.288 172.844C20.344 172.788 20.412 172.76 20.492 172.76H21.512V172.16C21.512 170.8 22.2 170.12 23.576 170.12H24.296C24.376 170.12 24.44 170.148 24.488 170.204C24.544 170.252 24.572 170.316 24.572 170.396V170.804C24.572 170.884 24.544 170.952 24.488 171.008C24.44 171.056 24.376 171.08 24.296 171.08H23.6C23.24 171.08 22.988 171.176 22.844 171.368C22.7 171.552 22.628 171.836 22.628 172.22V172.76H24.176C24.256 172.76 24.32 172.788 24.368 172.844C24.424 172.892 24.452 172.956 24.452 173.036V173.444C24.452 173.524 24.424 173.592 24.368 173.648C24.32 173.696 24.256 173.72 24.176 173.72H22.628V178.724C22.628 178.804 22.6 178.872 22.544 178.928C22.496 178.976 22.432 179 22.352 179H21.788ZM27.1632 179.12C26.7712 179.12 26.4072 179.04 26.0712 178.88C25.7352 178.72 25.4672 178.504 25.2672 178.232C25.0752 177.952 24.9792 177.644 24.9792 177.308C24.9792 176.78 25.1952 176.348 25.6272 176.012C26.0672 175.668 26.6592 175.444 27.4032 175.34L29.1912 175.088V174.74C29.1912 173.924 28.7232 173.516 27.7872 173.516C27.4352 173.516 27.1472 173.592 26.9232 173.744C26.6992 173.888 26.5312 174.06 26.4192 174.26C26.3952 174.332 26.3632 174.384 26.3232 174.416C26.2912 174.448 26.2432 174.464 26.1792 174.464H25.6632C25.5912 174.464 25.5272 174.44 25.4712 174.392C25.4232 174.336 25.3992 174.272 25.3992 174.2C25.4072 174.008 25.4952 173.792 25.6632 173.552C25.8392 173.304 26.1072 173.092 26.4672 172.916C26.8272 172.732 27.2712 172.64 27.7992 172.64C28.6952 172.64 29.3392 172.852 29.7312 173.276C30.1232 173.692 30.3192 174.212 30.3192 174.836V178.724C30.3192 178.804 30.2912 178.872 30.2352 178.928C30.1872 178.976 30.1232 179 30.0432 179H29.4912C29.4112 179 29.3432 178.976 29.2872 178.928C29.2392 178.872 29.2152 178.804 29.2152 178.724V178.208C29.0392 178.464 28.7832 178.68 28.4472 178.856C28.1112 179.032 27.6832 179.12 27.1632 179.12ZM27.4152 178.22C27.9352 178.22 28.3592 178.052 28.6872 177.716C29.0232 177.372 29.1912 176.88 29.1912 176.24V175.904L27.7992 176.108C27.2312 176.188 26.8032 176.324 26.5152 176.516C26.2272 176.7 26.0832 176.936 26.0832 177.224C26.0832 177.544 26.2152 177.792 26.4792 177.968C26.7432 178.136 27.0552 178.22 27.4152 178.22ZM34.0991 179C33.8911 179 33.7431 178.9 33.6551 178.7L31.4351 173.132L31.4111 173.012C31.4111 172.94 31.4351 172.88 31.4831 172.832C31.5311 172.784 31.5911 172.76 31.6631 172.76H32.2391C32.3751 172.76 32.4751 172.828 32.5391 172.964L34.3631 177.692L36.1871 172.964C36.2591 172.828 36.3551 172.76 36.4751 172.76H37.0631C37.1271 172.76 37.1831 172.784 37.2311 172.832C37.2871 172.88 37.3151 172.94 37.3151 173.012L37.2911 173.132L35.0591 178.7C34.9711 178.9 34.8231 179 34.6151 179H34.0991ZM40.9049 179.12C40.0249 179.12 39.3409 178.872 38.8529 178.376C38.3729 177.88 38.1169 177.22 38.0849 176.396L38.0729 175.88L38.0849 175.364C38.1169 174.548 38.3769 173.892 38.8649 173.396C39.3529 172.892 40.0329 172.64 40.9049 172.64C41.7769 172.64 42.4569 172.892 42.9449 173.396C43.4329 173.892 43.6929 174.548 43.7249 175.364C43.7329 175.452 43.7369 175.624 43.7369 175.88C43.7369 176.136 43.7329 176.308 43.7249 176.396C43.6929 177.22 43.4329 177.88 42.9449 178.376C42.4649 178.872 41.7849 179.12 40.9049 179.12ZM40.9049 178.196C41.4089 178.196 41.8049 178.036 42.0929 177.716C42.3889 177.396 42.5489 176.936 42.5729 176.336C42.5809 176.256 42.5849 176.104 42.5849 175.88C42.5849 175.656 42.5809 175.504 42.5729 175.424C42.5489 174.824 42.3889 174.364 42.0929 174.044C41.8049 173.724 41.4089 173.564 40.9049 173.564C40.4009 173.564 40.0009 173.724 39.7049 174.044C39.4089 174.364 39.2529 174.824 39.2369 175.424L39.2249 175.88L39.2369 176.336C39.2529 176.936 39.4089 177.396 39.7049 177.716C40.0009 178.036 40.4009 178.196 40.9049 178.196ZM47.5676 179.12C46.8076 179.12 46.2196 178.876 45.8036 178.388C45.3876 177.892 45.1796 177.236 45.1796 176.42V173.036C45.1796 172.956 45.2036 172.892 45.2516 172.844C45.3076 172.788 45.3756 172.76 45.4556 172.76H46.0556C46.1356 172.76 46.1996 172.788 46.2476 172.844C46.3036 172.892 46.3316 172.956 46.3316 173.036V176.36C46.3316 177.552 46.8516 178.148 47.8916 178.148C48.3956 178.148 48.7956 177.992 49.0916 177.68C49.3876 177.36 49.5356 176.92 49.5356 176.36V173.036C49.5356 172.956 49.5596 172.892 49.6076 172.844C49.6636 172.788 49.7316 172.76 49.8116 172.76H50.4116C50.4916 172.76 50.5556 172.788 50.6036 172.844C50.6516 172.892 50.6756 172.956 50.6756 173.036V178.724C50.6756 178.804 50.6516 178.872 50.6036 178.928C50.5556 178.976 50.4916 179 50.4116 179H49.8476C49.7676 179 49.6996 178.976 49.6436 178.928C49.5956 178.872 49.5716 178.804 49.5716 178.724V178.196C49.3476 178.5 49.0756 178.732 48.7556 178.892C48.4356 179.044 48.0396 179.12 47.5676 179.12ZM52.7343 179C52.6543 179 52.5863 178.976 52.5303 178.928C52.4823 178.872 52.4583 178.804 52.4583 178.724V173.048C52.4583 172.968 52.4823 172.9 52.5303 172.844C52.5863 172.788 52.6543 172.76 52.7343 172.76H53.2863C53.3663 172.76 53.4343 172.788 53.4903 172.844C53.5463 172.9 53.5743 172.968 53.5743 173.048V173.576C53.9023 173.032 54.4623 172.76 55.2543 172.76H55.7223C55.8023 172.76 55.8663 172.788 55.9143 172.844C55.9703 172.892 55.9983 172.956 55.9983 173.036V173.528C55.9983 173.608 55.9703 173.672 55.9143 173.72C55.8663 173.768 55.8023 173.792 55.7223 173.792H55.0023C54.5703 173.792 54.2303 173.92 53.9823 174.176C53.7343 174.424 53.6103 174.764 53.6103 175.196V178.724C53.6103 178.804 53.5823 178.872 53.5263 178.928C53.4703 178.976 53.4023 179 53.3223 179H52.7343ZM57.1969 171.596C57.1169 171.596 57.0489 171.572 56.9929 171.524C56.9449 171.468 56.9209 171.4 56.9209 171.32V170.672C56.9209 170.592 56.9449 170.524 56.9929 170.468C57.0489 170.412 57.1169 170.384 57.1969 170.384H57.9529C58.0329 170.384 58.1009 170.412 58.1569 170.468C58.2129 170.524 58.2409 170.592 58.2409 170.672V171.32C58.2409 171.4 58.2129 171.468 58.1569 171.524C58.1009 171.572 58.0329 171.596 57.9529 171.596H57.1969ZM57.2929 179C57.2129 179 57.1449 178.976 57.0889 178.928C57.0409 178.872 57.0169 178.804 57.0169 178.724V173.036C57.0169 172.956 57.0409 172.892 57.0889 172.844C57.1449 172.788 57.2129 172.76 57.2929 172.76H57.8689C57.9489 172.76 58.0129 172.788 58.0609 172.844C58.1169 172.892 58.1449 172.956 58.1449 173.036V178.724C58.1449 178.804 58.1169 178.872 58.0609 178.928C58.0129 178.976 57.9489 179 57.8689 179H57.2929ZM62.3592 179C61.0952 179 60.4632 178.296 60.4632 176.888V173.72H59.5272C59.4472 173.72 59.3792 173.696 59.3232 173.648C59.2752 173.592 59.2512 173.524 59.2512 173.444V173.036C59.2512 172.956 59.2752 172.892 59.3232 172.844C59.3792 172.788 59.4472 172.76 59.5272 172.76H60.4632V170.756C60.4632 170.676 60.4872 170.612 60.5352 170.564C60.5912 170.508 60.6592 170.48 60.7392 170.48H61.3032C61.3832 170.48 61.4472 170.508 61.4952 170.564C61.5512 170.612 61.5792 170.676 61.5792 170.756V172.76H63.0672C63.1472 172.76 63.2112 172.788 63.2592 172.844C63.3152 172.892 63.3432 172.956 63.3432 173.036V173.444C63.3432 173.524 63.3152 173.592 63.2592 173.648C63.2112 173.696 63.1472 173.72 63.0672 173.72H61.5792V176.804C61.5792 177.204 61.6472 177.508 61.7832 177.716C61.9192 177.916 62.1432 178.016 62.4552 178.016H63.1872C63.2672 178.016 63.3312 178.044 63.3792 178.1C63.4352 178.148 63.4632 178.212 63.4632 178.292V178.724C63.4632 178.804 63.4352 178.872 63.3792 178.928C63.3312 178.976 63.2672 179 63.1872 179H62.3592ZM67.1067 179.12C66.2827 179.12 65.6227 178.868 65.1267 178.364C64.6387 177.852 64.3707 177.156 64.3227 176.276L64.3107 175.868L64.3227 175.472C64.3787 174.608 64.6507 173.92 65.1387 173.408C65.6347 172.896 66.2867 172.64 67.0947 172.64C67.9827 172.64 68.6707 172.924 69.1587 173.492C69.6467 174.052 69.8907 174.812 69.8907 175.772V175.976C69.8907 176.056 69.8627 176.124 69.8067 176.18C69.7587 176.228 69.6947 176.252 69.6147 176.252H65.4627V176.36C65.4867 176.88 65.6427 177.324 65.9307 177.692C66.2267 178.052 66.6147 178.232 67.0947 178.232C67.4627 178.232 67.7627 178.16 67.9947 178.016C68.2347 177.864 68.4107 177.708 68.5227 177.548C68.5947 177.452 68.6467 177.396 68.6787 177.38C68.7187 177.356 68.7867 177.344 68.8827 177.344H69.4707C69.5427 177.344 69.6027 177.364 69.6507 177.404C69.6987 177.444 69.7227 177.5 69.7227 177.572C69.7227 177.748 69.6107 177.96 69.3867 178.208C69.1707 178.456 68.8627 178.672 68.4627 178.856C68.0707 179.032 67.6187 179.12 67.1067 179.12ZM68.7507 175.424V175.388C68.7507 174.836 68.5987 174.388 68.2947 174.044C67.9987 173.692 67.5987 173.516 67.0947 173.516C66.5907 173.516 66.1907 173.692 65.8947 174.044C65.6067 174.388 65.4627 174.836 65.4627 175.388V175.424H68.7507Z" fill="#431D93"/>
<defs>
<filter id="filter0_d_3651_39275" x="0" y="0" width="87" height="214" filterUnits="userSpaceOnUse" color-interpolation-filters="sRGB">
<feFlood flood-opacity="0" result="BackgroundImageFix"/>
<feColorMatrix in="SourceAlpha" type="matrix" values="0 0 0 0 0 0 0 0 0 0 0 0 0 0 0 0 0 0 127 0" result="hardAlpha"/>
<feOffset dx="-2" dy="4"/>
<feGaussianBlur stdDeviation="4.5"/>
<feComposite in2="hardAlpha" operator="out"/>
<feColorMatrix type="matrix" values="0 0 0 0 0 0 0 0 0 0 0 0 0 0 0 0 0 0 0.12 0"/>
<feBlend mode="normal" in2="BackgroundImageFix" result="effect1_dropShadow_3651_39275"/>
<feBlend mode="normal" in="SourceGraphic" in2="effect1_dropShadow_3651_39275" result="shape"/>
</filter>
</defs>
</svg>
