<svg width="170" height="48" viewBox="0 0 170 48" fill="none" xmlns="http://www.w3.org/2000/svg">
<path fill-rule="evenodd" clip-rule="evenodd" d="M95.7361 6.5343L95.0494 7.23279V40.7671L95.7361 41.4656H101.228L101.914 40.7671V7.23279L101.228 6.5343H95.7361Z" fill="#414042"/>
<path fill-rule="evenodd" clip-rule="evenodd" d="M124.565 35.8769C118.387 35.8769 114.955 31.6852 114.955 23.9999C114.955 16.3153 118.387 12.1236 124.565 12.1236C130.743 12.1236 134.175 16.3153 134.175 23.9999C134.175 31.6852 130.743 35.8769 124.565 35.8769ZM124.565 5.83569C114.269 5.83569 108.091 12.8221 108.091 23.9999C108.091 35.1784 114.269 42.1646 124.565 42.1646C134.862 42.1646 141.04 35.1784 141.04 23.9999C141.04 12.8221 134.862 5.83569 124.565 5.83569Z" fill="#414042"/>
<path fill-rule="evenodd" clip-rule="evenodd" d="M156.141 12.822H163.693L164.379 12.1235V7.23291L163.693 6.53442H143.099L142.412 7.23291V12.1235L143.099 12.822H147.904L148.59 13.5205V32.3835C148.59 38.6713 153.395 41.4657 158.2 41.4657H163.693L164.379 40.7672V35.8767L163.693 35.1782H158.2C156.828 35.1782 155.455 34.4794 155.455 32.3835V13.5205L156.141 12.822Z" fill="#414042"/>
<path fill-rule="evenodd" clip-rule="evenodd" d="M80.1133 6.5343L79.4266 7.23279V40.7671L80.1133 41.4656H85.6049L86.2912 40.7671V7.23279L85.6049 6.5343H80.1133Z" fill="#414042"/>
<path fill-rule="evenodd" clip-rule="evenodd" d="M71.3252 6.43518C61.4206 6.43518 55.4777 13.1557 55.4777 23.9085C55.4777 34.6614 61.4206 41.3817 71.3252 41.3817C71.5476 41.3817 75.6831 41.4354 75.6831 41.4354L76.3434 40.7629V36.0461L75.7321 35.4238C75.7321 35.4238 73.0125 35.3334 71.3252 35.3334C65.3823 35.3334 62.0809 31.3011 62.0809 23.9085C62.0809 16.5163 65.3823 12.484 71.3252 12.484C71.556 12.484 75.7321 12.499 75.7321 12.499L76.3434 11.8767V7.15934L75.6831 6.48767C75.6831 6.48767 71.8209 6.43518 71.3252 6.43518Z" fill="#414042"/>
<path fill-rule="evenodd" clip-rule="evenodd" d="M38.3181 5.83557C33.5133 5.83557 30.081 7.93181 28.0217 10.7261H27.3354C25.9624 8.6303 23.9031 5.83557 18.4118 5.83557C17.9629 5.83557 15.1939 5.88998 15.1939 5.88998L14.5072 6.58847V11.4925L15.1939 12.1909H17.5743C21.946 12.6879 22.5305 15.9512 22.5305 19.8084V40.7671L23.2168 41.4656H28.7084L29.3947 40.7671V21.2054C29.3947 15.6167 32.1403 12.1235 36.9456 12.1235C42.4367 12.1235 43.123 15.6167 43.123 19.8084V40.7671L43.8097 41.4656H49.301L49.9873 40.7671V19.8084C49.9873 12.1235 47.9283 5.83557 38.3181 5.83557Z" fill="#414042"/>
<path fill-rule="evenodd" clip-rule="evenodd" d="M5.45112 6.5343L4.76443 7.23279V40.7671L5.45112 41.4656H10.9427L11.6291 40.7671V7.23279L10.9427 6.5343H5.45112Z" fill="#414042"/>
</svg>
