<svg viewBox="0 0 40 40" fill="none" xmlns="http://www.w3.org/2000/svg">
    <path
        d="M39.0005 26.261C39.8698 23.6111 40.177 20.809 39.9026 18.0336C39.6282 15.2583 38.7781 12.5706 37.4068 10.1422L23.6474 9.79375V9.62169L36.8913 9.28616C35.2918 6.76824 33.1521 4.63767 30.6275 3.04883L19.9996 2.78214V2.61079L29.4452 2.37205C25.5749 0.297325 21.1291 -0.44539 16.7946 0.258614C12.46 0.962618 8.47783 3.07417 5.46306 6.26715L17.3491 6.56827V6.74033L4.75258 7.05578C1.67872 10.6676 -0.00638173 15.2573 1.81628e-05 20C1.81628e-05 20.2151 1.79982e-05 20.423 0.010772 20.6338C0.00999251 20.6479 0.00999251 20.662 0.010772 20.6761L4.75831 20.7965V20.9686L0.0265447 21.0883C0.0273084 21.1024 0.0273084 21.1166 0.0265447 21.1306C0.199445 24.2517 1.10553 27.288 2.67132 29.9934L10.5841 30.1934V30.3655L3.01043 30.5576C4.86815 33.5402 7.47596 35.9831 10.5734 37.6424C10.82 37.7764 11.0695 37.9033 11.3226 38.0252V21.4117H13.2411C13.3149 21.4116 13.3881 21.4261 13.4563 21.4543C13.5245 21.4825 13.5865 21.5239 13.6387 21.5761C13.691 21.6283 13.7324 21.6903 13.7606 21.7585C13.7888 21.8268 13.8033 21.8999 13.8032 21.9738V39.021C17.8313 40.3263 22.1687 40.3263 26.1968 39.021V21.9738C26.1967 21.8999 26.2112 21.8268 26.2394 21.7585C26.2676 21.6903 26.309 21.6283 26.3612 21.5761C26.4134 21.5239 26.4754 21.4825 26.5437 21.4543C26.6119 21.4261 26.685 21.4116 26.7589 21.4117H28.676V38.0274C28.9255 37.9069 29.1742 37.7807 29.4173 37.6495C31.3733 36.6047 33.142 35.2418 34.6509 33.6168L29.6833 33.4906V33.3185L35.0431 33.183C36.6874 31.3103 37.9662 29.146 38.8134 26.8023L31.6613 26.6209V26.4489L39.0005 26.261ZM31.4505 20.884H8.54946L8.13579 19.2308H11.3226V17.4585H11.9735C12.2059 17.4586 12.436 17.5045 12.6506 17.5935C12.8652 17.6825 13.0602 17.8129 13.2245 17.9773C13.3887 18.1416 13.519 18.3367 13.6078 18.5514C13.6966 18.7661 13.7423 18.9963 13.7422 19.2286H18.7608V16.8685H6.60299C6.36568 14.9793 5.24439 13.5039 5.24439 13.5039C8.54946 14.2703 19.9996 14.3298 19.9996 14.3298C19.9996 14.3298 31.4498 14.2703 34.7534 13.5039C34.7534 13.5039 33.6343 14.9793 33.397 16.8685H21.2399V19.2293H26.2585C26.2585 18.9968 26.3043 18.7666 26.3933 18.5518C26.4823 18.337 26.6127 18.1418 26.7772 17.9774C26.9416 17.813 27.1368 17.6827 27.3517 17.5938C27.5665 17.5048 27.7968 17.4591 28.0293 17.4592H28.6788V19.2293H31.867L31.4505 20.884Z"
        fill="#431D93" />
</svg>
